<?xml version="1.0" encoding="UTF-8" standalone="no"?>
<svg xmlns="http://www.w3.org/2000/svg" xmlns:xlink="http://www.w3.org/1999/xlink" width="63.340mm" height="303.903mm" viewBox="-353.450592 -929.615662 63.339844 303.903381">
    <path transform="matrix(-0.182393,0,0,-0.182393,-256.052826,-843.180115)" style="stroke:#000000;stroke-width:0.05mm;fill:none" d="M370.5,473.339417C357.635345,470.582703,345.784454,460.162872,340.543121,447C339.499176,444.378326,338.538116,438.649292,338.240662,433.274719C337.479218,419.517181,340.118835,407.901581,346.32962,397.679291C347.940552,395.027893,348.862885,392.520477,348.379272,392.107208C345.291229,389.468506,339.102081,385,338.535278,385C338.162994,385,335.077759,383.031525,331.679199,380.62558C328.28064,378.219666,324.059845,375.519653,322.299652,374.62558C316.490997,371.67514,310.119873,372.801117,305.709381,377.557617C298.516113,385.315247,304.590576,399.121796,315.118042,398.942352C316.978119,398.910645,320.716339,397.836548,323.425201,396.55545C329.37085,393.743622,333.60611,394.582458,334.65979,398.78064C336.288513,405.269958,327.101044,411.524323,316.026703,411.465088C307.674805,411.42041,303.088531,409.80246,298.248627,405.19342C286.844666,394.333344,286.948456,376.27652,298.472992,366.157837C308.485596,357.366669,320.717804,357.779053,335,367.389282C337.475006,369.054657,339.950012,370.786926,340.5,371.23877C341.049988,371.690613,345.647888,374.731842,350.717529,377.99704L359.935059,383.933777L363.945679,381.79303C368.472717,379.376617,368.252258,378.526215,362.137573,374.81842C360.136902,373.605255,356.63913,371.237335,354.364746,369.556335C349.95993,366.300781,349.083344,365.699921,341.886292,361.003021C328.059753,351.979675,323.446625,344.524261,324.221252,332.453949C324.604553,326.481659,325.201904,324.566895,327.909576,320.631409C333.556824,312.423431,342.172089,308.375122,352.080353,309.27356C358.315491,309.838959,364.951324,312.90921,368.779755,317C375.215607,323.876923,377.799744,335.756836,374.551025,343.532104C373.305237,346.513702,372.63089,347,369.742157,347C363.762512,347,362.5,345.186951,362.5,336.599609C362.5,329.448639,362.328918,328.867828,359.342896,325.881592C353.272339,319.810608,341.470337,321.282776,338.171692,328.522491C336.330566,332.563324,336.719696,339.373932,338.953979,342.214386C340.028687,343.580627,344.191193,346.90036,348.203979,349.591583C352.216797,352.282806,356.078888,355.034882,356.786377,355.707306C357.493896,356.379761,359.406403,357.717712,361.036377,358.680573C362.666382,359.643433,364,360.78418,364,361.215607C364,361.647034,364.481873,362,365.070801,362C365.65976,362,369.052826,364.077393,372.610962,366.616425L379.080322,371.232849L392.09903,362.366425C399.259308,357.489899,406.328766,352.740082,407.808868,351.811279C409.289001,350.882507,410.973907,349.710022,411.553162,349.20575C412.132385,348.701477,414.430481,347.081726,416.660034,345.606293C421.380432,342.482452,423,339.48114,423,333.857239C423,323.854126,413.031036,318.04425,403.570282,322.533661C398.8927,324.753326,396.716492,329.882721,397.566376,336.685059C398.416595,343.489838,396.608948,346,390.858429,346C387.386841,346,386.873901,345.647644,385.399139,342.25C383.21344,337.214386,384.792419,324.611145,388.21051,319.809937C395.412079,309.694397,406.086243,305.978485,418.768768,309.171997C425.081512,310.761566,433.259827,319.003448,434.870117,325.398529C436.627045,332.375885,436.28064,340.529572,434.040741,344.920166C431.741028,349.427979,423.470551,358,421.421051,358C420.639465,358,420,358.407227,420,358.904968C420,359.40271,417.862488,361.050873,415.25,362.567505C412.637512,364.084167,406.112366,368.444458,400.749695,372.257019L390.99939,379.188995L394.667786,381.678436C398.829834,384.502869,399.819885,384.288452,407.132751,378.97879C416.817444,371.947052,431.632202,362.771393,435.448242,361.441345C443.888702,358.499451,453.939941,360.121735,460.5289,365.48941C475.000641,377.278809,472.952423,399.779266,456.571411,408.963745C450.558319,412.335175,439.032379,412.316071,432.44046,408.923737C429.730988,407.529419,426.879272,405.257477,426.103302,403.875C424.137146,400.372009,425.329681,396.520294,428.829285,395.070709C431.310883,394.042816,432.312286,394.222321,436.490936,396.444122C445.018005,400.978027,452.304565,399.133728,455.996552,391.507111C458.477142,386.382935,457.794769,381.511353,453.98526,377.148163C451.758911,374.598206,450.14856,373.804932,446.264832,373.344971C440.460663,372.657532,438.968201,373.319305,424.168091,383.142456C418.485535,386.914124,413.615875,390,413.346649,390C413.077423,390,412.214294,390.642853,411.428558,391.428558C409.781372,393.075775,409.517578,396,411.016174,396C411.575073,396,412.812592,397.6875,413.766174,399.75C414.719788,401.8125,415.750549,403.725006,416.056763,404C419.100189,406.733093,421.413391,422.21106,420.64798,434.720551C420.109406,443.522919,419.565948,445.91687,416.913391,451.17157C411.441284,462.011749,404.498108,467.737579,391.088226,472.468872C387.060425,473.889954,375.374969,474.384064,370.5,473.339417z"/>
    <path transform="matrix(-0.182393,0,0,-0.182393,-256.052826,-843.180115)" style="stroke:#000000;stroke-width:0.05mm;fill:none" d="M391.5,458.710724C397.056946,456.312103,400.490417,453.238251,404.67392,446.916565C407.228729,443.055969,407.512299,441.71283,407.848938,431.877808C408.153717,422.9729,407.843475,419.843323,406.080505,414.039124C404.904572,410.167603,403.615234,407,403.215332,407C402.81543,407,401.890656,405.649994,401.160309,404C399.631989,400.547302,397.66156,400.247314,393.694,402.863312L390.888,404.71344L393.303314,407.60672C398.255249,413.538635,399.378387,417.009766,399.811432,427.720459C400.200928,437.354309,400.072388,438.200745,397.57196,442.467438C393.899689,448.733704,390.464355,451.64566,385.171906,452.978302C377.574707,454.891296,370.134521,452.861816,364.654388,447.381683C359.863434,442.590729,358.79245,438.663147,359.233032,427.5C359.644257,417.079712,361.123077,412.827942,366.278656,407.242706C368.330688,405.019684,368.333008,404.963165,366.431152,403.519409C362.489136,400.526886,360.756775,400.588593,357.865448,403.824554C351.384186,411.078369,348.799194,432.295624,353.06662,443.212982C355.317688,448.971924,361.721344,456.271149,366.5466,458.578217C374.061859,462.171417,383.367981,462.220825,391.5,458.710724z"/>
    <path transform="matrix(-0.182393,0,0,-0.182393,-256.052826,-843.180115)" style="stroke:#000000;stroke-width:0.05mm;fill:none" d="M384.481903,438.835571C387.161652,436.727692,387.22226,436.456116,386.801636,428.442169C386.348785,419.814026,384.82132,416.045105,380.934387,413.964874C379.160004,413.015259,378.392975,413.363861,375.494293,416.437378C371.887665,420.261505,371.218811,423.20755,371.832001,432.568146C372.108765,436.793091,372.60788,437.911652,374.832001,439.291534C378.455688,441.539703,381.209595,441.409576,384.481903,438.835571z"/>
    <path transform="matrix(-0.182393,0,0,-0.182393,-256.052826,-843.180115)" style="stroke:#000000;stroke-width:0.05mm;fill:none" d="M385.5,392C385.5,391.405518,384.143005,390.059937,382.484497,389.009827C379.503662,387.122498,379.431793,387.124084,376.234497,389.148468C374.455505,390.274841,373,391.558014,373,392C373,392.441986,374.455505,393.725159,376.234497,394.851532C379.431793,396.875916,379.503662,396.877502,382.484497,394.990173C384.143005,393.940063,385.5,392.594482,385.5,392z"/>
    <path transform="matrix(-0.182393,0,0,-0.182393,-256.052826,-843.180115)" style="stroke:#000000;stroke-width:0.05mm;fill:none" d="M296.5,288.49707C288.612915,285.706726,285.175262,277.775665,288.683228,270.462891C291.272614,265.065063,294.554077,263.037903,302.038666,262.212524L308.5,261.5L308.590302,256L308.680573,250.5L312.840302,250.192505L317,249.88501L317,269.942505L317,290L308.75,289.956116C304.212494,289.931976,298.700012,289.275391,296.5,288.49707z"/>
    <path transform="matrix(-0.182393,0,0,-0.182393,-256.052826,-843.180115)" style="stroke:#000000;stroke-width:0.05mm;fill:none" d="M308.930359,278.25C308.632904,269.816986,308.196808,269,303.993134,269C297.172607,269,293.660187,276.865204,298.74585,280.75C299.645874,281.4375,302.335358,282,304.722443,282L309.062653,282L308.930359,278.25z"/>
    <path transform="matrix(-0.182393,0,0,-0.182393,-256.052826,-843.180115)" style="stroke:#000000;stroke-width:0.05mm;fill:none" d="M330.55426,287.831482C326.259979,285.567627,325.147858,284.561737,323.25,281.224915C321.129211,277.496124,321.680023,275.273956,324.840027,274.810181C328.737396,274.238159,329.974976,274.804016,331.058258,277.653229C332.182678,280.610687,337.475433,283.014099,341.267517,282.289185C347.619904,281.07486,350.742065,270.714325,347.139038,262.805206C345.994232,260.292175,344.332794,257.957947,343.446991,257.618042C338.549225,255.738586,332.144989,258.061432,330.676361,262.25C330.229034,263.525787,328.970367,264,326.031372,264C322.456207,264,322,263.731628,322,261.628601C322,260.296112,323.642853,257.430908,325.75,255.088455C328.988708,251.488068,330.346863,250.765732,335.711334,249.790527C341.113983,248.80838,342.438934,248.89418,345.888123,250.449539C353.772095,254.00473,357,259.57309,357,269.618408C357,276.845428,356.139069,280.330383,353.633209,283.246613C347.904846,289.913147,338.17099,291.846893,330.55426,287.831482z"/>
    <path transform="matrix(-0.182393,0,0,-0.182393,-256.052826,-843.180115)" style="stroke:#000000;stroke-width:0.05mm;fill:none" d="M370.3508,287.493958C363.748901,283.536682,361.627014,279.09375,361.558014,269.083344C361.517426,263.195679,361.87561,260.541473,362.75,260.25C363.4375,260.020844,364,259.247162,364,258.530701C364,257.81427,365.617401,255.657135,367.594208,253.737061C371.631622,249.815506,376.772095,248.595825,384.688995,249.680954C388.483978,250.201126,390.138306,251.128326,393.365845,254.544144C397.880676,259.322296,398.255066,260.555878,398.360474,271C398.424713,277.368408,398.063782,279.067108,395.968079,282.258698C390.909424,289.962708,378.649292,292.468231,370.3508,287.493958z"/>
    <path transform="matrix(-0.182393,0,0,-0.182393,-256.052826,-843.180115)" style="stroke:#000000;stroke-width:0.05mm;fill:none" d="M384.833344,280.977356C385.016663,280.439819,385.732941,280,386.425049,280C387.965332,280,390,273.557831,390,268.68103C390,263.804352,388.158386,260.13327,384.85498,258.425018C377.295685,254.515945,369.992249,259.561798,370.005585,268.684265C370.015472,275.445557,371.692871,279.480865,375.24646,281.292114C378.570984,282.986603,384.211212,282.801422,384.833344,280.977356z"/>
    <path transform="matrix(-0.182393,0,0,-0.182393,-256.052826,-843.180115)" style="stroke:#000000;stroke-width:0.05mm;fill:none" d="M400.126862,288.604767C399.644531,287.997162,399.345856,286.375,399.463135,285C399.66333,282.65271,400.022308,282.5,405.339996,282.5L411.003662,282.5L411.001831,266.416656C411.000824,257.570831,411.228577,250.104752,411.507965,249.825378C411.787323,249.546005,413.631592,249.583496,415.606323,249.908707L419.196747,250.5L419.05368,266.326508L418.910614,282.153015L424.055573,281.879944C430.397278,281.543365,432.51709,284.179596,429.62677,288.808411C428.573242,290.495605,401.47934,290.308563,400.126862,288.604767z"/>
    <path transform="matrix(-0.182393,0,0,-0.182393,-256.052826,-843.180115)" style="stroke:#000000;stroke-width:0.05mm;fill:none" d="M440.830475,288.037567C437.103851,286.003632,434.353394,282.716431,432.222687,277.75L431.042877,275L435.802216,275C440.16861,275,440.654694,275.246857,441.690247,277.990326C442.822388,280.989746,446.235962,283,450.197021,283C451.333771,283,453.77948,281.392944,455.631927,279.428802C458.493561,276.394562,459,275.134857,459,271.050934C459,265.360199,456.772949,259.484039,454.067383,258.036072C449.760956,255.731323,442.984985,257.542755,441.191925,261.478088C439.64267,264.878387,432,265.625793,432,262.377014C432,259.617859,434.98642,255.112122,438.677948,252.301697C441.904236,249.845474,443.1922,249.509262,449.122864,249.575104C454.740204,249.637451,456.536926,250.100098,459.714844,252.302383C465.872162,256.569427,467.475281,260.17807,467.426086,269.660828C467.389069,276.803802,467.048553,278.328217,464.696167,281.882965C461.352203,286.935974,457.68399,288.881866,450.275085,289.532867C445.711609,289.933838,443.730133,289.620117,440.830475,288.037567z"/>
    <path transform="matrix(-0.182393,0,0,-0.182393,-256.052826,-843.180115)" style="stroke:#000000;stroke-width:0.05mm;fill:none" d="M483.380707,288.693573C475.99765,285.86853,472.91449,281.425873,471.922394,272.18277C470.641205,260.246277,477.042328,250.618546,486.805206,249.798035C497.17276,248.926712,502.959625,251.602539,506.75,259.020447C511.621704,268.554596,508.73288,281.580597,500.5,287.20224C496.040985,290.246979,489.035431,290.857269,483.380707,288.693573z"/>
    <path transform="matrix(-0.182393,0,0,-0.182393,-256.052826,-843.180115)" style="stroke:#000000;stroke-width:0.05mm;fill:none" d="M496,280.718201C499.140533,278.167664,500.562561,273.075958,500.150787,265.855743C500.067871,264.401428,498.694458,261.813934,497.098785,260.105743C494.818329,257.66452,493.368195,257,490.321289,257C484.774719,257,482.357513,259.105713,481.083191,265.047638C479.753082,271.249847,479.687744,276,480.932617,276C481.445557,276,482.160126,276.929138,482.520538,278.064758C482.880981,279.200378,484.148804,280.521851,485.337952,281.001373C488.498566,282.275909,494.270721,282.122589,496,280.718201z"/>
    <path transform="matrix(-0.182393,0,0,-0.182393,-256.052826,-843.180115)" style="stroke:#000000;stroke-width:0.05mm;fill:none" d="M265.613708,288.18399C265.336334,287.735199,263.920319,283.797699,262.46701,279.43399C261.013702,275.070282,259.414093,271.07251,258.912323,270.549988C258.410553,270.027496,258,268.895172,258,268.033722C258,267.172272,256.694122,263.099792,255.098022,258.983734C253.501923,254.867676,252.489426,251.200424,252.848022,250.834274C253.206604,250.468109,255.057053,250.018112,256.960114,249.834274C260.59787,249.482834,261.074188,249.993042,263.896973,257.264221C264.893921,259.832275,265.272705,259.987457,269.235046,259.451233C277.641663,258.313568,277.872711,258.186432,278.975006,254.092758C280.160004,249.692017,281.14212,249.063263,285.762238,249.747467C288.712708,250.184418,291.459656,252,289.170319,252C288.649048,252,287.916718,253.630402,287.542877,255.623108C287.169037,257.615814,286.44165,259.978302,285.926453,260.873108C284.977997,262.520325,279.255768,278.820038,278.334015,282.5C276.948364,288.032043,275.839844,289,270.890045,289C268.265442,289,265.891083,288.632782,265.613708,288.18399z"/>
    <path transform="matrix(-0.182393,0,0,-0.182393,-256.052826,-843.180115)" style="stroke:#000000;stroke-width:0.05mm;fill:none" d="M273.017456,274.25C273.720032,271.637512,274.678497,269.07251,275.14743,268.549988C275.616333,268.027496,276,267.23999,276,266.799988C276,265.919403,267.655487,265.677856,266.799652,266.533691C266.123016,267.210327,270.157166,279,271.065308,279C271.436432,279,272.314911,276.862488,273.017456,274.25z"/>
    <path transform="matrix(-0.182393,0,0,-0.182393,-256.052826,-843.180115)" style="stroke:#000000;stroke-width:0.05mm;fill:none" d="M295.455505,231.672379C295.223297,231.027573,294.91333,226.225006,294.766663,221L294.5,211.5L289.25,211.197739C284.817078,210.94252,284,210.592346,284,208.947739C284,207.351135,284.766174,206.967606,288.25,206.820297C293.18399,206.611694,299.313843,206.980499,299.851654,207.518341C300.13974,207.806396,300.272583,224.091736,300.040253,230.633362C299.984436,232.204681,295.974426,233.113449,295.455505,231.672379z"/>
    <path transform="matrix(-0.182393,0,0,-0.182393,-256.052826,-843.180115)" style="stroke:#000000;stroke-width:0.05mm;fill:none" d="M495.413574,232.083328C495.186096,231.854172,495,230.640182,495,229.38559C495,227.338867,495.539368,227.073471,500.25,226.802261C505.102722,226.522873,505.5,226.310822,505.5,224C505.5,221.693222,505.136108,221.49678,500.791595,221.458252C495.475677,221.411102,494.685242,220.983841,495.583435,218.643127C496.051056,217.424591,497.495514,217,501.173401,217C505.993744,217,506.123962,216.922867,505.816437,214.25C505.51828,211.658859,505.211182,211.5,500.5,211.5C495.73053,211.5,495.484802,211.366867,495.170319,208.612534C494.87442,206.021149,495.079498,205.789032,497.170319,206.348877C498.45163,206.691971,502.326355,206.978836,505.780792,206.986343L512.061584,207L511.780792,219.25L511.5,231.5L503.663574,232C499.353546,232.274994,495.641022,232.3125,495.413574,232.083328z"/>
    <path transform="matrix(-0.182393,0,0,-0.182393,-256.052826,-843.180115)" style="stroke:#000000;stroke-width:0.05mm;fill:none" d="M214.354233,230.480728C213.400513,227.995377,215.031891,227,220.059021,227C224.86467,227,225,226.919128,225,224.047516C225,221.397949,224.713455,221.131287,222.20726,221.448456C217.233353,222.077942,214.177261,221.038132,214.734833,218.906021C215.139236,217.359573,216.154526,217,220.116638,217C224.875931,217,225,216.923782,225,214C225,211.030304,224.944443,211,219.5,211C214.746384,211,214,210.739899,214,209.083328C214,206.578293,214.583084,206.440094,223.507111,206.830063L231.060272,207.16011L230.780136,219.330063L230.5,231.5L222.692841,231.682846C216.834946,231.820038,214.752991,231.519897,214.354233,230.480728z"/>
    <path transform="matrix(-0.182393,0,0,-0.182393,-256.052826,-843.180115)" style="stroke:#000000;stroke-width:0.05mm;fill:none" d="M233.350311,230.470535C232.541443,228.36264,233.823883,227.228333,237.469696,226.82695L240.439377,226.5L240.141815,216.842102C239.863907,207.821625,239.980804,207.140869,241.913177,206.527557C243.051086,206.166397,244.436127,206.151505,244.991058,206.494476C245.559464,206.845764,246,211.430862,246,216.995651L246,226.873276L249.25,227.186646C251.728882,227.425644,252.5,227.974533,252.5,229.5C252.5,231.335419,251.737411,231.523682,243.233109,231.78775C235.474686,232.028656,233.865952,231.81424,233.350311,230.470535z"/>
    <path transform="matrix(-0.182393,0,0,-0.182393,-256.052826,-843.180115)" style="stroke:#000000;stroke-width:0.05mm;fill:none" d="M259.091675,230.610458C258.411255,229.790588,256.531464,224.969452,254.914352,219.89679C253.297241,214.824142,251.491241,210.091904,250.900986,209.380707C249.260895,207.40451,250.576904,206.284286,253.955978,206.780228C256.372864,207.134949,257,207.718674,257,209.613495C257,211.170563,257.608215,212.044815,258.75,212.128952C266.083069,212.669281,266.233154,212.629593,267.185272,209.898361C268.156433,207.112518,270.907715,205.706909,272.935944,206.960403C273.993439,207.613968,273.010315,211.369934,269.261139,221C268.939941,221.824997,267.96228,224.524994,267.088562,227C265.822327,230.586945,264.975372,231.560989,262.914398,231.800552C261.49234,231.965866,259.772095,231.430313,259.091675,230.610458z"/>
    <path transform="matrix(-0.182393,0,0,-0.182393,-256.052826,-843.180115)" style="stroke:#000000;stroke-width:0.05mm;fill:none" d="M265,217.885193C265,217.398331,263.839233,217,262.420532,217C260.034058,217,259.89325,217.243149,260.538147,220.25C260.921509,222.037506,261.468994,223.894394,261.754761,224.376434C262.252289,225.215698,265,219.719635,265,217.885193z"/>
    <path transform="matrix(-0.182393,0,0,-0.182393,-256.052826,-843.180115)" style="stroke:#000000;stroke-width:0.05mm;fill:none" d="M276,219.68306C276,208.317413,276.16452,207.190231,277.889313,206.739197C281.448425,205.808456,281.86026,207.197174,281.677673,219.514313L281.5,231.5L278.75,231.816422L276,232.132843L276,219.68306z"/>
    <path transform="matrix(-0.182393,0,0,-0.182393,-256.052826,-843.180115)" style="stroke:#000000;stroke-width:0.05mm;fill:none" d="M304.219604,219.319351L304.5,206.5L307,206.5L309.5,206.5L309.5,219L309.5,231.5L306.719604,231.819351L303.939209,232.138718L304.219604,219.319351z"/>
    <path transform="matrix(-0.182393,0,0,-0.182393,-256.052826,-843.180115)" style="stroke:#000000;stroke-width:0.05mm;fill:none" d="M312,229.418381C312,226.864197,312.557312,226.672775,319.126587,226.970673C322.455139,227.121597,322.790161,226.883011,323.2034,224.067551C323.637451,221.110077,323.519226,221,319.9086,221C314.872192,221,313,220.158035,313,217.893005C313,216.288071,313.760864,216,318,216L323,216L323,211.5C323,208.282013,323.404022,207,324.418213,207C325.198242,207,326.562073,206.721542,327.448975,206.38121C328.889496,205.82843,329.031586,207.135254,328.780762,218.63121L328.5,231.5L320.25,231.668381C312.144501,231.833817,312,231.794403,312,229.418381z"/>
    <path transform="matrix(-0.182393,0,0,-0.182393,-256.052826,-843.180115)" style="stroke:#000000;stroke-width:0.05mm;fill:none" d="M331.35611,230.485596C330.432098,228.077682,331.960999,227.139572,337.25,226.869141C341.733429,226.639908,342,226.468414,342,223.813141C342,221.104034,341.815094,221,337,221C332.724792,221,332,220.719849,332,219.067383C332,217.311905,334.508942,215.700912,336.646454,216.083908C340.890228,216.844299,341.892242,215.971375,342.195221,211.25C342.450714,207.268265,342.823486,206.5,344.5,206.5C345.600006,206.5,346.830597,206.949997,347.23468,207.5C347.638763,208.050003,347.976257,213.532181,347.98468,219.682617C348.002167,232.446396,348.586945,231.70993,338.238892,231.956467C333.297211,232.074203,331.846771,231.764236,331.35611,230.485596z"/>
    <path transform="matrix(-0.182393,0,0,-0.182393,-256.052826,-843.180115)" style="stroke:#000000;stroke-width:0.05mm;fill:none" d="M357.404144,228.25C356.58255,226.1875,355.540924,223.600006,355.089417,222.5C352.490784,216.169037,350.193939,207.406052,350.938141,206.661865C352.440796,205.15921,355.797546,206.980453,356.794037,209.839035C357.769318,212.636749,357.895355,212.670868,365.25,212.128952C366.391785,212.044815,367,211.170563,367,209.613495C367,207.726349,367.627716,207.134872,370,206.786697C371.649994,206.544525,373,206.760986,373,207.267715C373,208.921494,365.789856,229.466232,364.758911,230.75C364.206818,231.4375,362.662262,232,361.326538,232C359.452393,232,358.556915,231.14386,357.404144,228.25z"/>
    <path transform="matrix(-0.182393,0,0,-0.182393,-256.052826,-843.180115)" style="stroke:#000000;stroke-width:0.05mm;fill:none" d="M363.474091,220.25C364.112579,217.21991,363.977142,217,361.472473,217C359.42572,217,358.93158,217.379303,359.397278,218.592896C359.733459,219.468994,360.288666,221.301941,360.631042,222.666122C361.381439,225.65596,362.542999,224.668839,363.474091,220.25z"/>
    <path transform="matrix(-0.182393,0,0,-0.182393,-256.052826,-843.180115)" style="stroke:#000000;stroke-width:0.05mm;fill:none" d="M382.145538,230.745529C379.933105,228.533112,382.19577,227,387.673401,227C393.02478,227,393.126587,226.946198,392.816437,224.281418C392.523254,221.762512,392.156982,221.560272,387.829742,221.527847C382.656036,221.489075,381.463623,220.840164,382.345062,218.543121C382.770233,217.435226,384.356262,217,387.968628,217C392.920776,217,393,216.951538,393,213.921799C393,211.069763,392.7612,210.860016,389.75,211.067169C383.56424,211.492691,382,211.091415,382,209.07901C382,207.38031,382.896851,207.116684,389.75,206.800919C394.012512,206.604523,397.852417,206.718903,398.283173,207.055099C398.713928,207.391281,398.938934,213.028931,398.783173,219.583176L398.5,231.5L390.817383,231.617386C386.591949,231.681946,382.689606,231.289612,382.145538,230.745529z"/>
    <path transform="matrix(-0.182393,0,0,-0.182393,-256.052826,-843.180115)" style="stroke:#000000;stroke-width:0.05mm;fill:none" d="M412,221.5L412,211L406.43045,211C401.264374,211,400.884033,210.840866,401.18045,208.80336C401.478424,206.755066,401.998291,206.615143,408.878265,206.731628C412.93631,206.800323,416.536316,207.226318,416.878265,207.678268C417.220215,208.130219,417.36026,213.787506,417.189453,220.25C416.880127,231.954041,416.869385,232,414.439453,232C412.008392,232,412,231.963852,412,221.5z"/>
    <path transform="matrix(-0.182393,0,0,-0.182393,-256.052826,-843.180115)" style="stroke:#000000;stroke-width:0.05mm;fill:none" d="M425.585236,230.978378C423.982117,230.486923,422.301514,229.50325,421.850555,228.792419C420.427246,226.54892,420.903595,222.250977,422.649811,221.580887C424.105194,221.0224,424.031952,220.662903,422.028015,218.529816C420.186066,216.569153,419.882172,215.441605,420.421265,212.568069C421.28186,207.980621,423.440033,206.919907,432.291321,206.734039L439.5,206.582672L439.5,219.041336L439.5,231.5L434,231.685959C430.975006,231.788223,427.188354,231.469818,425.585236,230.978378z"/>
    <path transform="matrix(-0.182393,0,0,-0.182393,-256.052826,-843.180115)" style="stroke:#000000;stroke-width:0.05mm;fill:none" d="M434,224.361633C434,221.45079,431.92215,220.436127,429.078156,221.958176C426.346497,223.420105,426.431091,225.852966,429.25,226.900818C432.387177,228.066986,434,227.204819,434,224.361633z"/>
    <path transform="matrix(-0.182393,0,0,-0.182393,-256.052826,-843.180115)" style="stroke:#000000;stroke-width:0.05mm;fill:none" d="M433.804688,214.128479C433.540466,211.849213,433.035004,211.5,430,211.5C427.071808,211.5,426.444855,211.889969,426.162506,213.886917C425.745361,216.837189,427.142578,217.779465,431.077942,217.201874C433.67337,216.820938,434.065552,216.378891,433.804688,214.128479z"/>
    <path transform="matrix(-0.182393,0,0,-0.182393,-256.052826,-843.180115)" style="stroke:#000000;stroke-width:0.05mm;fill:none" d="M448.576508,226.75C447.666962,223.862503,446.537781,220.600006,446.067169,219.5C443.675293,213.909073,441.8591,207.807556,442.419861,207.246811C442.767273,206.899384,443.962646,206.476089,445.076202,206.306137C446.560577,206.079605,447.467926,206.875641,448.476379,209.2892C449.634308,212.060547,450.423553,212.619751,453.466095,212.824661C456.658234,213.039627,457.199768,212.725418,458.103058,210.134216C459.096069,207.285645,462.702301,205.302307,464.187775,206.787766C464.585022,207.185013,463.150146,212.68277,460.999176,219.00502C457.058716,230.587021,456.408478,231.457352,451.365112,231.900314C450.740906,231.955139,449.486053,229.637497,448.576508,226.75z"/>
    <path transform="matrix(-0.182393,0,0,-0.182393,-256.052826,-843.180115)" style="stroke:#000000;stroke-width:0.05mm;fill:none" d="M455.384094,219.75C455.965637,217.304703,455.758972,217,453.519043,217C450.628967,217,450.576569,217.186996,452.204559,221.689163C453.466736,225.179657,454.199066,224.733032,455.384094,219.75z"/>
    <path transform="matrix(-0.182393,0,0,-0.182393,-256.052826,-843.180115)" style="stroke:#000000;stroke-width:0.05mm;fill:none" d="M467.627289,230.471085C467.282288,229.572021,467,223.975708,467,218.034851C467,207.698929,467.096252,207.208084,469.232758,206.649384C470.460754,206.328247,471.825684,206.425705,472.26593,206.865936C472.706177,207.306168,472.938934,213.028931,472.783173,219.583176C472.515137,230.863297,472.386597,231.51619,470.377289,231.802872C469.125244,231.981506,467.997253,231.435242,467.627289,230.471085z"/>
    <path transform="matrix(-0.182393,0,0,-0.182393,-256.052826,-843.180115)" style="stroke:#000000;stroke-width:0.05mm;fill:none" d="M486.526031,230.85376C486.256073,230.109192,485.914764,225.449997,485.767609,220.5L485.5,211.5L480.5,211C476.944458,210.64444,475.5,210.066666,475.5,209C475.5,207.0616,489.897156,206.21553,491.053162,208.085999C492.169678,209.892578,492.232758,231,491.121643,231C490.594696,231,489.455566,231.271683,488.59021,231.60376C487.709015,231.94191,486.800934,231.611969,486.526031,230.85376z"/>
    <path transform="matrix(-0.182393,0,0,-0.182393,-256.052826,-843.180115)" style="stroke:#000000;stroke-width:0.05mm;fill:none" d="M519.328735,230.542236C513.785706,228.131058,512.618286,223.749207,516.184509,218.74086L518.36908,215.672974L516.200867,211.7146C513.68573,207.122864,513.96344,206.079193,517.519531,206.758972C519.224854,207.084976,520.72937,208.509369,522.000793,211.001541C523.860229,214.646378,526.185303,216.481354,527.402222,215.264435C527.731018,214.935654,528,212.971985,528,210.900726C528,208.018677,528.467346,206.98645,529.991028,206.502838C531.086121,206.155273,532.436157,206.151505,532.991028,206.494476C533.582153,206.859802,534,212.270157,534,219.559021L534,232L528.25,231.960861C525.087524,231.939331,521.072937,231.300949,519.328735,230.542236z"/>
    <path transform="matrix(-0.182393,0,0,-0.182393,-256.052826,-843.180115)" style="stroke:#000000;stroke-width:0.05mm;fill:none" d="M528,223.5C528,220.179749,527.82373,220,524.567383,220C521.92157,220,520.976624,220.498245,520.444824,222.173798C519.63324,224.730835,522.099915,227,525.691101,227C527.663147,227,528,226.48941,528,223.5z"/>
    <path transform="matrix(-0.158506,0,0,-0.158506,-173.465714,-606.753296)" style="stroke:#000000;stroke-width:0.05mm;fill:none" d="M848.611938,417.152985C848.215088,416.481934,863.262695,398.07373,865.173401,396.892822C866.051758,396.349945,859.668945,386.419006,851.696716,375.924713C849.738159,373.346558,848,370.096985,848,369.01358C848,367.561462,857.320679,367.758972,859.158142,369.25C860.005371,369.9375,863.51886,374.4375,866.965881,379.25C870.412903,384.0625,873.533691,388,873.901001,388C875.869446,388,877.951416,381.81842,877.872437,376.208252C877.825562,372.878052,878.086609,369.668854,878.452637,369.076691C878.818604,368.484497,881.053772,368,883.419739,368L887.721436,368L888.35199,373.25C889.154907,379.934143,889.168579,412.769165,888.36969,415.75C887.848755,417.693848,887.102295,418,882.883362,418L878,418L878,407.5C878,401.725006,877.628601,397,877.174622,397C876.720642,397,873.909912,400.037506,870.928528,403.75C867.947144,407.462494,864.27063,411.850006,862.758545,413.5C861.24646,415.149994,860.007202,416.769226,860.004639,417.098267C859.998291,417.916656,849.094543,417.969055,848.611938,417.152985z"/>
    <path transform="matrix(-0.158506,0,0,-0.158506,-173.465714,-606.753296)" style="stroke:#000000;stroke-width:0.05mm;fill:none" d="M896.232422,393.305511L896.5,368.5L900.509644,368.204254C904.30542,367.924255,904.732056,368.190918,908.509644,373.204254C910.704346,376.116913,912.837524,378.649994,913.25,378.833344C913.662476,379.016663,914,379.824615,914,380.628784C914,381.432953,915.125,383.215912,916.5,384.590912C917.875,385.965912,919,387.488312,919,387.97403C919,388.459747,919.577332,389.451782,920.282898,390.178558C920.988525,390.905365,922.61261,392.988403,923.892029,394.807587C925.171387,396.62674,926.429871,397.903473,926.688599,397.644745C926.947327,397.386017,927.113892,390.484253,927.058777,382.307465L926.958618,367.440582L932.229309,367.970276L937.5,368.5L937.5,392.980377L937.5,417.460785L933.090576,417.142426C928.180237,416.787872,927.860962,416.548309,922.964478,409.544556C919.507568,404.599976,917.391541,401.791779,915.5,399.638397C914.950012,399.012299,912.700012,395.799988,910.5,392.5L906.5,386.5L906,402L905.5,417.5L900.732422,417.805511L895.964844,418.111023L896.232422,393.305511z"/>
    <path transform="matrix(-0.158506,0,0,-0.158506,-173.465714,-606.753296)" style="stroke:#000000;stroke-width:0.05mm;fill:none" d="M945.642944,417.309601C945.289307,416.955994,945,405.692169,945,392.2789L945,367.891144L950.25,368.195587L955.5,368.5L955.767761,392.75C956.017212,415.337128,955.914307,417.00766,954.267761,417.111786C953.295471,417.173279,951.101807,417.387573,949.392944,417.588043C947.684082,417.788513,945.996582,417.663208,945.642944,417.309601z"/>
    <path transform="matrix(-0.158506,0,0,-0.158506,-173.465714,-606.753296)" style="stroke:#000000;stroke-width:0.05mm;fill:none" d="M972.421875,416.431854C966.894714,414.559601,962,408.701355,962,403.958405C962,397.365051,963.182495,394.050842,966.782532,390.554108L970.311401,387.126526L967.405701,381.313263C965.807556,378.115967,964.229858,375.274994,963.899719,375C962.524841,373.854858,960.951782,369.887024,961.512756,368.97934C962.213379,367.845703,971.014526,367.674286,972.500916,368.76532C973.426514,369.444702,975.067444,372.604675,979.503296,382.25C981.064209,385.644135,981.596619,386,985.113953,386C987.525146,386,989.022034,385.525604,989.058044,384.75C989.089966,384.0625,989.202515,380.125,989.308044,376L989.5,368.5L994.5,368.5L999.5,368.5L999.767761,392.75C999.915039,406.087494,999.690063,417.053162,999.267761,417.118103C993.754456,417.966217,975.580017,417.501648,972.421875,416.431854z"/>
    <path transform="matrix(-0.158506,0,0,-0.158506,-173.465714,-606.753296)" style="stroke:#000000;stroke-width:0.05mm;fill:none" d="M989,401.5L989,394L983.454529,394C978.900085,394,977.470459,394.43866,975.454529,396.454559C974.104553,397.804535,973,400.075012,973,401.5C973,402.924988,974.104553,405.195465,975.454529,406.545441C977.470459,408.56134,978.900085,409,983.454529,409L989,409L989,401.5z"/>
    <path transform="matrix(-0.158506,0,0,-0.158506,-173.465714,-606.753296)" style="stroke:#000000;stroke-width:0.05mm;fill:none" d="M1031,417.267853C1025.373169,417.080078,1020.218567,416.350861,1018.356995,415.479248C1014.444397,413.6474,1009.49884,408.104767,1007.411743,403.212769C1003.919556,395.027191,1007.658142,376.689606,1013.457764,373.557343C1014.534546,372.9758,1016.017273,371.949402,1016.752747,371.276428C1019.284363,368.960022,1025.991577,367.932648,1036.733154,368.216003L1047.5,368.5L1047.767456,393.25L1048.034912,418L1044.267456,417.79245C1042.195313,417.678314,1036.224976,417.44223,1031,417.267853z"/>
    <path transform="matrix(-0.158506,0,0,-0.158506,-173.465714,-606.753296)" style="stroke:#000000;stroke-width:0.05mm;fill:none" d="M1037.083374,395.25C1037.12915,388.237488,1037.279663,381.477386,1037.417847,380.227509C1037.601318,378.567596,1037.036377,377.796234,1035.321777,377.365906C1031.748169,376.468994,1024.453613,377.871979,1022.106506,379.907623C1017.234436,384.133179,1015.459961,395.108704,1018.64801,401.299652C1021.48175,406.802612,1023.627075,408,1030.652954,408L1037,408L1037.083374,395.25z"/>
    <path transform="matrix(-0.158506,0,0,-0.158506,-173.465714,-606.753296)" style="stroke:#000000;stroke-width:0.05mm;fill:none" d="M824,348.900604C818.301697,345.494781,814.518799,340.529785,813.789856,335.5C813.53595,333.747925,814.150757,333.462524,818.75,333.197754C822.911743,332.95813,824,333.210327,824,334.414398C824,335.249817,825.590027,337.523346,827.533325,339.466675C831.572266,343.505615,835.523804,344.005188,840.5,341.105988C844.567078,338.73645,846.335815,334.755035,846.810059,326.901947C847.594177,313.917694,840.077332,306.978516,829.559753,310.977295C828.145996,311.514801,826.233398,313.539795,825.309448,315.477295C823.69873,318.85498,823.410767,319,818.314758,319C815.391663,319,813,318.545105,813,317.989105C813,317.433105,813.954285,314.94809,815.120605,312.466827C818.69751,304.857208,825.384583,301,835,301C844.767517,301,852.101624,305.598633,855.986023,314.158691C858.748535,320.246338,858.761353,332.795837,856.010864,338.4776C853.521729,343.619415,848.536987,348.385803,844.100769,349.865906C838.329651,351.791351,828.007141,351.295654,824,348.900604z"/>
    <path transform="matrix(-0.158506,0,0,-0.158506,-173.465714,-606.753296)" style="stroke:#000000;stroke-width:0.05mm;fill:none" d="M864.712769,350.379425C864.32074,349.987427,864,338.986969,864,325.934021L864,302.201385L868.75,301.765717C871.362488,301.526123,873.845825,301.624146,874.268555,301.983551C874.691223,302.342987,874.916199,313.406219,874.768555,326.568512L874.5,350.5L869.962769,350.796112C867.467285,350.958954,865.104797,350.771454,864.712769,350.379425z"/>
    <path transform="matrix(-0.158506,0,0,-0.158506,-173.465714,-606.753296)" style="stroke:#000000;stroke-width:0.05mm;fill:none" d="M880.666687,350.333344C880.299988,349.966675,880,347.941681,880,345.833344L880,342L891,342L902,342L902,336.106995C902,332.020111,901.577209,330.051727,900.620544,329.684631C899.861816,329.393494,895.474365,329.195648,890.870544,329.244934L882.5,329.334625L882.192505,325.167297C881.843262,320.434143,880.959045,320.729095,894.713013,320.991058L901.926025,321.128418L902.213013,311.331787L902.5,301.535126L906.99823,301.861938C909.472229,302.041718,911.863525,302.415649,912.312195,302.692932C913.146179,303.208374,913.072815,337.18689,912.218506,346.078064L911.745544,351L896.539429,351C888.176086,351,881.033325,350.700012,880.666687,350.333344z"/>
    <path transform="matrix(-0.158506,0,0,-0.158506,-173.465714,-606.753296)" style="stroke:#000000;stroke-width:0.05mm;fill:none" d="M918.194214,346.391388L918.5,341.732697L929.394531,341.924438L940.289001,342.116211L939.619873,336.422729C939.251831,333.291321,938.710266,330.340179,938.416321,329.864624C938.122437,329.389099,933.858521,329,928.940979,329L920,329L920,325.036224L920,321.072418L929.75,320.786224L939.5,320.5L939.793091,312.085663C940.004089,306.029022,939.723877,303.441437,938.793091,302.850952C938.047852,302.378174,940.468811,302.024139,944.507202,302.01532L951.514404,302L951.253418,306.25C951.109863,308.587494,950.881592,319.5,950.746216,330.5L950.5,350.5L934.194214,350.775024L917.888367,351.050079L918.194214,346.391388z"/>
    <path transform="matrix(-0.158506,0,0,-0.158506,-173.465714,-606.753296)" style="stroke:#000000;stroke-width:0.05mm;fill:none" d="M971.173523,349.25C970.680237,348.287506,969.954712,346.149994,969.561218,344.5C969.167725,342.850006,968.279541,340.149994,967.587402,338.5C966.252014,335.316193,965.93396,334.415771,960.347412,318C958.38208,312.225006,956.164124,306.312256,955.418518,304.860565C954.162781,302.415405,954.226318,302.190399,956.281494,301.803741C957.501648,301.574188,960.329712,301.563812,962.565979,301.78067C966.376953,302.150238,966.704773,302.436066,967.792114,306.337494C969.656982,313.028778,969.969055,313.235413,978.024292,313.112793C982.02179,313.051941,985.854614,312.535645,986.541626,311.965454C987.228638,311.395264,988.103149,309.257263,988.484863,307.214386C989.461304,301.988983,990.186401,301.456207,995.800598,301.838837L1000.772095,302.177643L999.493408,306.838837C998.7901,309.402466,997.485352,313.1875,996.593933,315.25C995.702515,317.3125,995.215759,319,995.512268,319C995.808777,319,995.414795,320.237488,994.63678,321.75C993.858765,323.262512,991.570618,329.450012,989.552063,335.5C984.141663,351.715698,984.681274,351,977.866211,351C973.354675,351,971.871643,350.612213,971.173523,349.25z"/>
    <path transform="matrix(-0.158506,0,0,-0.158506,-173.465714,-606.753296)" style="stroke:#000000;stroke-width:0.05mm;fill:none" d="M982.621704,326.070068C982.887146,324.733612,983.332458,323.271118,983.611206,322.820068C983.889954,322.369019,983.078979,321.971283,981.809021,321.936157C980.539063,321.901062,978.037476,321.728363,976.25,321.552429C974.141724,321.34491,973,321.672882,973,322.485992C973,323.641907,976.245789,334.531281,977.624268,338C978.204834,339.460876,981.546204,331.484314,982.621704,326.070068z"/>
    <path transform="matrix(-0.158506,0,0,-0.158506,-173.465714,-606.753296)" style="stroke:#000000;stroke-width:0.05mm;fill:none" d="M1015.645935,349.893555C1009.735596,348.504852,1006.207275,345.483398,1004.921936,340.710052C1003.131653,334.061493,1004.420044,328.178284,1008.604736,323.8927L1012.187744,320.223389L1007.634033,311.378967C1004.459656,305.21344,1003.446777,302.355591,1004.290161,301.943726C1004.955566,301.618774,1007.75,301.536163,1010.5,301.760132L1015.5,302.167328L1019.402893,310.583679C1023.297058,318.981323,1023.314209,319,1027.112427,319L1030.919067,319L1031.209595,310.75L1031.5,302.5L1036.283691,301.950287C1038.914673,301.64798,1041.2771,301.610474,1041.533691,301.866974C1041.790161,302.123474,1042,313.283325,1042,326.666656L1042,351L1030.75,350.899536C1024.5625,350.844299,1017.765686,350.391602,1015.645935,349.893555z"/>
    <path transform="matrix(-0.158506,0,0,-0.158506,-173.465714,-606.753296)" style="stroke:#000000;stroke-width:0.05mm;fill:none" d="M1031.191406,335.75C1031.154907,332.587494,1031.096924,329.325012,1031.0625,328.5C1031.015015,327.361237,1029.710693,327,1025.645996,327C1019.231628,327,1014.98999,330.073181,1015.01532,334.70224C1015.044312,339.997467,1018.270142,342.088348,1025.878906,341.743652L1031.257813,341.5L1031.191406,335.75z"/>
    <path transform="matrix(-0.158506,0,0,-0.158506,-173.465714,-606.753296)" style="stroke:#000000;stroke-width:0.05mm;fill:none" d="M1047.192505,346.75L1047.5,342.5L1054.25,342.204315L1061,341.90863L1061,322.037628C1061,309.451965,1061.373047,302.042328,1062.017456,301.827515C1062.577026,301.640991,1065.052002,301.648804,1067.517456,301.844879L1072,302.201385L1072,322.171417L1072,342.141479L1077.75,341.988831C1080.912476,341.904877,1084.0625,341.873047,1084.75,341.918091C1085.552734,341.970703,1086,343.610352,1086,346.5L1086,351L1066.442505,351L1046.88501,351L1047.192505,346.75z"/>
    <path transform="matrix(-0.158506,0,0,-0.158506,-173.465714,-606.753296)" style="stroke:#000000;stroke-width:0.05mm;fill:none" d="M894.5,284.100586L890.5,283.5L890.316223,264L890.132446,244.5L879.816223,244L869.5,243.5L869.261353,239.25L869.022705,235L885.028809,235L901.034912,235L900.767456,259.667175C900.600037,275.110046,900.126038,284.402954,899.5,284.517761C898.950012,284.618622,896.700012,284.430908,894.5,284.100586z"/>
    <path transform="matrix(-0.158506,0,0,-0.158506,-173.465714,-606.753296)" style="stroke:#000000;stroke-width:0.05mm;fill:none" d="M953,284.032715L948.5,283.5L948.185242,268.5C948.004761,259.898499,948.344604,251.367172,948.981934,248.5C951.09906,238.975601,957.219971,234.632782,968.593994,234.58522C977.534729,234.547836,982.482056,236.679977,986.5,242.302185L989.5,246.5L989.5,264.99942L989.5,283.498871L985,284.122803C982.525024,284.465973,980.162476,284.552185,979.75,284.314362C979.337524,284.076538,979,276.664032,979,267.842102C979,255.291199,978.656128,251.077591,977.419067,248.470749C974.78772,242.925568,967.59021,241.785263,961.967773,246.022781C959.529907,247.860107,959.496094,248.098648,959.17572,265.691345C958.997375,275.486115,958.547363,283.739716,958.17572,284.032715C957.804077,284.325745,955.474976,284.325745,953,284.032715z"/>
    <path transform="matrix(-0.158506,0,0,-0.158506,-173.465714,-606.753296)" style="stroke:#000000;stroke-width:0.05mm;fill:none" d="M908.192505,279.75L908.5,275.5L919,275L929.5,274.5L929.801025,269.285553L930.102051,264.071106L919.801025,263.785553L909.5,263.5L909.191772,259.785614L908.883545,256.071259L919.191772,255.785629L929.5,255.5L929.5,249.621063L929.5,243.742111L918.75,243.926682L908,244.111252L908,239.530853L908,234.950455L924.25,235.225235L940.5,235.5L940.767761,259.75L941.035583,284L924.460266,284L907.88501,284L908.192505,279.75z"/>
    <path transform="matrix(-0.158506,0,0,-0.158506,-173.465714,-606.753296)" style="stroke:#000000;stroke-width:0.05mm;fill:none" d="M995,279.5L995,275L1005.383362,275C1017.009338,275,1016.956177,275.037781,1016.986328,266.75L1017,263L1007.083313,263C1000.709656,263,997.034546,262.603668,996.796875,261.890686C996.593506,261.280579,996.608582,259.226807,996.830444,257.326782L997.233704,253.872192L1007.193054,254.186096L1017.152405,254.5L1016.869507,245L1016.586609,235.5L1021.793335,235.197739L1027,234.895477L1027,259.447754L1027,284L1011,284L995,284L995,279.5z"/>
    <path transform="matrix(-0.158506,0,0,-0.158506,-173.465714,-606.753296)" style="stroke:#000000;stroke-width:0.05mm;fill:none" d="M773.724976,152.199112L770.94989,151.86232L771.224976,136.252045L771.5,120.641762L774.22229,119.914772C776.736694,119.243301,776.994812,119.45549,777.602173,122.693062C777.963867,124.620972,778.018982,128.853714,777.724731,132.099167C777.430115,135.348358,777.596436,138,778.094849,138C778.592651,138,779,137.50322,779,136.896057C779,136.288879,780.462524,132.472473,782.25,128.415131C785.040344,122.081444,785.853577,121.037865,788,121.036156C790.558899,121.034119,790.997131,121.801567,796.544678,136C798.103333,139.989105,798.300598,139.163681,798.023987,129.811539C797.75177,120.607063,798.362061,119.002357,801.786804,119.918274L804.5,120.64389L804.5,136.026855L804.5,151.409836L802,152.022827C800.625,152.35997,798.825012,152.462219,798,152.250046C796.5802,151.884918,793,145.97496,793,143.996414C793,142.068344,788.817444,132,788.016541,132C787.554626,132,785.930664,135.262497,784.407715,139.25C782.884705,143.237503,781.269958,146.927505,780.819336,147.449997C780.368713,147.972504,780,149.157516,780,150.083374C780,151.973206,777.846436,152.69931,773.724976,152.199112z"/>
    <path transform="matrix(-0.158506,0,0,-0.158506,-173.465714,-606.753296)" style="stroke:#000000;stroke-width:0.05mm;fill:none" d="M817.5,151.119263C812.093994,148.636826,810.16803,146.222687,809.120605,140.616043C808.05304,134.901672,809.021301,130.052094,812.137939,125.503632C815.023438,121.292542,817.765686,119.998947,823.797058,120.003738C833.15033,120.011169,838.989868,126.303673,838.996277,136.381973C839.000977,143.816849,836.332581,148.490601,830.595459,151.096115C825.44873,153.433517,822.550903,153.438644,817.5,151.119263z"/>
    <path transform="matrix(-0.158506,0,0,-0.158506,-173.465714,-606.753296)" style="stroke:#000000;stroke-width:0.05mm;fill:none" d="M829.043152,144.166122C830.771973,142.766251,831.419128,140.991348,831.777771,136.666122C832.077087,133.057037,831.864136,131,831.191223,131C830.610168,131,829.856445,130.123016,829.516235,129.051147C828.147888,124.739822,819.337036,125.210243,817.25,129.706055C815.043457,134.459198,816.21167,143.242599,819.312561,145.21434C821.480896,146.593079,826.746521,146.025864,829.043152,144.166122z"/>
    <path transform="matrix(-0.158506,0,0,-0.158506,-173.465714,-606.753296)" style="stroke:#000000;stroke-width:0.05mm;fill:none" d="M850.122009,151.625778C842.580139,148.897354,839.397156,140.801819,845.627991,140.19574C848.235779,139.942078,848.858398,140.299637,849.371948,142.34581C850.033752,144.982544,853.9599,146.827606,857.645569,146.233887C861.427063,145.624741,863.269287,142.504745,863.355164,136.564331C863.419678,132.103165,862.992126,130.620514,861.042847,128.545593C857.583801,124.863602,851.228577,125.28389,849.460632,129.311554C848.735718,130.962997,847.641174,131.5,845,131.5C842.0802,131.5,841.556335,131.176682,841.839844,129.549683C842.299561,126.9114,845.982849,122.434937,848.797058,121.094284C852.20636,119.470146,860.080017,119.900864,863.5,121.898582C868.045715,124.553902,870.96405,130.463577,870.983521,137.052994C871.017944,148.654449,861.086121,155.592285,850.122009,151.625778z"/>
    <path transform="matrix(-0.158506,0,0,-0.158506,-173.465714,-606.753296)" style="stroke:#000000;stroke-width:0.05mm;fill:none" d="M902.469421,152.136108C902.211243,151.877914,901.985718,148.704163,901.968201,145.083328C901.942078,139.680664,901.717041,138.788055,900.713135,140.106155C893.789063,149.197556,890.646851,152,887.377197,152C885.519714,152,884,151.654373,884,151.231949C884,150.809525,886.238586,147.772018,888.974609,144.481949C891.710632,141.191879,893.960632,138.114761,893.974609,137.643906C893.988586,137.17305,892.650024,135.083298,891,133C889.349976,130.916702,888,128.919815,888,128.562454C888,128.205093,886.875,126.699448,885.5,125.216576C882.070068,121.517548,882.310242,120,886.325684,120C889.958191,120,891.911804,121.67997,896.51001,128.757843C899.9646,134.075348,901.770325,133.095062,902.200562,125.668587C902.498108,120.532616,902.521118,120.5,905.848022,120.5L909.196045,120.5L909.348022,136.169067L909.5,151.838135L906.219421,152.221832C904.4151,152.432877,902.7276,152.394287,902.469421,152.136108z"/>
    <path transform="matrix(-0.158506,0,0,-0.158506,-173.465714,-606.753296)" style="stroke:#000000;stroke-width:0.05mm;fill:none" d="M921.522522,151.647415C917.333496,150.384811,912.667725,144.989365,913.223328,142.050369C913.611633,139.996124,920,139.271454,920,141.281647C920,145.519684,929.152344,147.739838,932.236694,144.25C934.470947,141.722,935.01239,134.15387,933.239014,130.239166C930.834534,124.931328,922.779297,124.630638,920.512878,129.764114C919.781738,131.420105,918.679504,132,916.262878,132C913.53595,132,913.005493,131.630417,913.033264,129.75C913.108887,124.635597,919.578857,120,926.641479,120C936.805725,120,941.554749,125.475388,941.428589,137.048904C941.343262,144.881546,938.86084,149.038284,932.826721,151.452667C928.333435,153.250504,926.921753,153.274826,921.522522,151.647415z"/>
    <path transform="matrix(-0.158506,0,0,-0.158506,-173.465714,-606.753296)" style="stroke:#000000;stroke-width:0.05mm;fill:none" d="M946.5,152.416306C945.893677,152.158142,945.5,145.791565,945.5,136.245255L945.5,120.5L949,120.5L952.5,120.5L952.808716,135.470474C953.083435,148.791199,952.924622,150.581955,951.367615,151.720474C949.600403,153.01268,948.32782,153.194595,946.5,152.416306z"/>
    <path transform="matrix(-0.158506,0,0,-0.158506,-173.465714,-606.753296)" style="stroke:#000000;stroke-width:0.05mm;fill:none" d="M970.5,152.423157C969.886353,152.166077,969.620239,147.307785,969.811218,139.848938C970.046997,130.639771,969.804626,127.492142,968.811218,126.862152C968.090027,126.404816,964.882629,126.023735,961.683594,126.015312C955.931458,126.000168,955.870667,125.969597,956.183594,123.25L956.5,120.5L966.5,120.5L976.5,120.5L976.778137,135.492844C977.023376,148.715118,976.85321,150.634171,975.336975,151.742844C973.601807,153.011627,972.331177,153.190338,970.5,152.423157z"/>
    <path transform="matrix(-0.158506,0,0,-0.158506,-173.465714,-606.753296)" style="stroke:#000000;stroke-width:0.05mm;fill:none" d="M988.29126,151.37886C984.29657,149.553879,982.393555,147.815414,981.578125,145.246155C981.186035,144.010773,980.359558,143,979.741455,143C979.123413,143,979.491272,142.33931,980.558899,141.531799C983.586365,139.241913,986.90979,139.632523,987.962708,142.401978C988.522949,143.875488,990.241821,145.25473,992.409546,145.970139C997.411255,147.62085,1000.474426,145.204102,1001.800903,138.560684C1003.129883,131.904373,1001.082092,127.293633,996.407288,126.416626C992.069458,125.602844,989.529114,126.543243,988.203003,129.453796C987.362183,131.299149,986.360229,131.848038,983.957214,131.779724C981.001648,131.695679,980.848511,131.507584,981.417847,128.660767C982.629333,122.603409,987.314819,119.685692,995.46521,119.913307C1001.787415,120.089867,1004.369873,121.822983,1007.492249,127.984741C1010.260254,133.447144,1010.499634,135.660507,1008.932678,141.303299C1007.154175,147.708054,1003.386536,150.990845,996.79126,151.88237C992.81189,152.420288,990.236938,152.267746,988.29126,151.37886z"/>
    <path transform="matrix(-0.158506,0,0,-0.158506,-173.465714,-606.753296)" style="stroke:#000000;stroke-width:0.05mm;fill:none" d="M1022.390259,151.822449C1022.110718,151.370102,1021.201355,151,1020.369568,151C1016.6875,151,1012,142.713303,1012,136.203979C1012,130.377411,1014.577576,125.277473,1019.101624,122.152802C1022.019958,120.137161,1023.36853,119.872543,1028.648438,120.279495C1036.046631,120.849716,1038.977539,122.795654,1041.453125,128.781021C1044.415283,135.942978,1041.894775,147.380386,1036.74707,150.135345C1034.012695,151.598724,1023.048279,152.887177,1022.390259,151.822449z"/>
    <path transform="matrix(-0.158506,0,0,-0.158506,-173.465714,-606.753296)" style="stroke:#000000;stroke-width:0.05mm;fill:none" d="M1032.296509,144.75C1035.471558,141.772858,1036.453247,134.788406,1034.290161,130.564453C1032.316895,126.710907,1031.280029,126.034378,1027.318115,126.015312C1019.064941,125.975594,1016.733704,142.119949,1024.451172,145.869278C1027.707031,147.451019,1029.722656,147.163467,1032.296509,144.75z"/>
    <path transform="matrix(-0.158506,0,0,-0.158506,-173.465714,-606.753296)" style="stroke:#000000;stroke-width:0.05mm;fill:none" d="M1076.973877,151.336334C1073.345947,149.568588,1070.096069,145.811493,1069.776001,143.01506C1069.539917,140.952286,1069.969849,140.561829,1072.75,140.313995C1074.537476,140.154648,1076,140.489273,1076,141.057587C1076,143.077866,1080.950195,147,1083.5,147C1084.925049,147,1087.195435,145.895462,1088.54541,144.545456C1090.508057,142.582886,1091,141.071518,1091,137.004959C1091,130.254791,1088.042725,126,1083.350952,126C1080.303223,126,1076,129.037415,1076,131.188568C1076,131.634857,1074.650024,132,1073,132C1069.473755,132,1068.963257,129.511963,1071.64856,125.413704C1075.529541,119.490532,1086.639282,117.961975,1092.625122,122.527596C1099.370483,127.672623,1100.38501,142.077255,1094.421753,148.039154C1090.873291,151.5867,1081.228271,153.409348,1076.973877,151.336334z"/>
    <path transform="matrix(-0.158506,0,0,-0.158506,-173.465714,-606.753296)" style="stroke:#000000;stroke-width:0.05mm;fill:none" d="M1107.731812,150.334335C1103.443604,147.618301,1101.483154,143.065811,1101.559082,136C1101.667847,125.895454,1107.090332,120.01091,1116.299683,120.003738C1125.102173,119.99688,1130.702393,124.691391,1131.673584,132.891388C1132.701904,141.574051,1128.950928,149.611252,1122.986938,151.50415C1118.027588,153.078171,1111.242432,152.557861,1107.731812,150.334335z"/>
    <path transform="matrix(-0.158506,0,0,-0.158506,-173.465714,-606.753296)" style="stroke:#000000;stroke-width:0.05mm;fill:none" d="M1121.692993,144.397873C1124.877686,141.213196,1125.592285,135.059723,1123.297852,130.579254C1121.316528,126.71035,1120.282837,126.034393,1116.318115,126.015312C1109.93689,125.984604,1106.644287,135.543839,1110.480713,142.962723C1112.86438,147.572174,1117.877075,148.213791,1121.692993,144.397873z"/>
    <path transform="matrix(-0.158506,0,0,-0.158506,-173.465714,-606.753296)" style="stroke:#000000;stroke-width:0.05mm;fill:none" d="M1043.361572,150.5C1042.228271,147.546616,1043.801392,146,1047.938721,146L1051.940186,146L1052.220093,133.279083L1052.5,120.558167L1055.692993,120.398964C1058.837402,120.242195,1058.896484,120.323128,1059.56897,125.705986C1059.94458,128.712402,1060.037842,134.508469,1059.776123,138.586105L1059.300415,146L1063.582764,146C1066.980591,146,1067.995728,146.411316,1068.497192,147.991058C1068.844727,149.086136,1068.848511,150.436127,1068.505493,150.991058C1068.142334,151.578751,1062.883301,152,1055.909546,152C1046.189941,152,1043.828979,151.717758,1043.361572,150.5z"/>
    <path transform="matrix(-0.158506,0,0,-0.158506,-173.465714,-606.753296)" style="stroke:#000000;stroke-width:0.05mm;fill:none" d="M872.610596,125.427559C872.278687,124.562714,872.471375,122.987717,873.038757,121.927559C875.109619,118.058197,880.852112,120.739899,879.515259,124.952011C878.715881,127.470474,873.531555,127.827538,872.610596,125.427559z"/>
    <path transform="matrix(-0.158305,0,0,-0.158305,-261.403137,-731.27301)" style="stroke:#000000;stroke-width:0.05mm;fill:none" d="M350.5,474.161652C346.649994,473.18219,342.600006,472.021637,341.5,471.582642C335.146667,469.047119,327.994904,465.25647,324.5,462.572205C319.294342,458.574005,310.052368,449.723358,310.022949,448.708191C310.010315,448.272675,309.1008,446.951202,308.00177,445.771515C306.90274,444.591858,304.600586,440.673157,302.885895,437.063324C301.171234,433.453491,299.296875,429.60083,298.720673,428.501831C295.711182,422.761566,295.057007,412.291565,295.011658,369.138336C294.98645,345.137268,295.236633,324.542358,295.567657,323.371887C296.832123,318.900787,304.367065,317.658813,308.440796,321.25L310.993134,323.5L311.32074,368.5C311.670715,416.575623,311.788635,417.814697,316.979706,427.96933C320.952759,435.741333,327.589111,443.631714,334.667938,449C350.493408,461.001404,374.345581,462.387207,394,452.447113C401.349091,448.730377,412.682159,437.104248,416.404968,429.462769C421.710266,418.573029,422.087036,415.76239,422.624207,383.068207C422.899231,366.330719,423.542816,351.854248,424.054443,350.898285C424.56604,349.942322,426.535553,348.648315,428.431091,348.022736C433.159546,346.462219,437.591797,348.718353,438.70343,353.251617C439.141541,355.038208,439.266846,370.899994,438.981903,388.5C438.472351,419.971985,438.420319,420.61792,435.829132,427.646057C433.562195,433.794678,428.960144,442.124725,424.703766,447.783905C418.396545,456.169708,398.750153,471,393.948273,471C393.060059,471,392.003479,471.329865,391.600311,471.733032C387.866547,475.466766,361.70639,477.012573,350.5,474.161652z"/>
    <path transform="matrix(-0.158305,0,0,-0.158305,-261.403137,-731.27301)" style="stroke:#000000;stroke-width:0.05mm;fill:none" d="M360.636353,422.363647L358,419.727264L358.013641,347.613647C358.021179,307.951141,358.303375,274.469482,358.640747,273.209961C359.337646,270.608368,363.703705,268,367.36145,268C368.881653,268,370.811768,269.176025,372.411102,271.076721L375,274.153442L375,346.940369L375,419.727264L372.363647,422.363647C370.60434,424.122925,368.653595,425,366.5,425C364.346405,425,362.39566,424.122925,360.636353,422.363647z"/>
    <path transform="matrix(-0.158305,0,0,-0.158305,-261.403137,-731.27301)" style="stroke:#000000;stroke-width:0.05mm;fill:none" d="M328.25,404.654388L326,402.429657L326,349.082123L326,295.734589L328.184418,293.840057C329.385834,292.798065,331.438782,291.677002,332.746552,291.348755C335.907654,290.555389,341.719849,293.74762,342.456238,296.68161C342.77243,297.941498,343.009125,322.358612,342.982208,350.941833L342.933289,402.911316L340.062256,404.955658C336.289581,407.642059,331.138733,407.510681,328.25,404.654388z"/>
    <path transform="matrix(-0.158305,0,0,-0.158305,-261.403137,-731.27301)" style="stroke:#000000;stroke-width:0.05mm;fill:none" d="M394.076721,401.411102L391,398.822205L391,351.36145C391,300.433594,391.130768,299.045441,396.075958,297.475891C399.083954,296.521179,405.181946,297.878082,406.668579,299.832916C407.651184,301.124969,407.943542,312.476715,407.968201,350.295441L408,399.090912L405.545441,401.545441C402.307953,404.782959,398.024323,404.732788,394.076721,401.411102z"/>
    <path transform="matrix(-0.158305,0,0,-0.158305,-261.403137,-731.27301)" style="stroke:#000000;stroke-width:0.05mm;fill:none" d="M380.319763,257.796082C376.15744,256.707245,370.237457,251.394867,367.980316,246.72316C365.139282,240.842834,365.203094,228.494431,368.101471,223.280411C372.810699,214.808838,377.727386,212,387.847137,212C394.012115,212,395.301178,212.357468,399.567322,215.25C406.478241,219.935745,408.5,224.423553,408.5,235.078415C408.5,242.873077,408.224731,244.102066,405.487274,248.5298C403.830292,251.20993,400.905273,254.321884,398.987274,255.445267C395.159027,257.6875,384.861694,258.984253,380.319763,257.796082z"/>
    <path transform="matrix(-0.158305,0,0,-0.158305,-261.403137,-731.27301)" style="stroke:#000000;stroke-width:0.05mm;fill:none" d="M394.966644,247.035706C401.238525,240.321655,400.107239,225.857407,392.980988,221.647842C389.474823,219.576691,386.972412,219.568649,382.681763,221.614716C377.89743,223.89621,376,227.647034,376,234.823257C376,244.487183,380.427124,249.918625,388.348785,249.973389C391.345276,249.99411,392.810791,249.343567,394.966644,247.035706z"/>
    <path transform="matrix(-0.158305,0,0,-0.158305,-261.403137,-731.27301)" style="stroke:#000000;stroke-width:0.05mm;fill:none" d="M182.430908,256.888184C182.052979,256.276703,182.150711,255.489212,182.648071,255.138199C183.145432,254.787186,186.015579,251.575607,189.026184,248.001328C192.036789,244.427063,195.275894,240.784363,196.224197,239.906418C197.848801,238.402359,197.786011,238.054123,195.13681,233.876785C192.132263,229.139099,186.217361,221.021484,182.927063,217.120102C180.066269,213.727997,180.958618,212.536362,186.578598,212.243881C191.487122,211.988449,191.510468,212.002182,195.5,217.493851C197.699997,220.522186,200.511948,224.237442,201.748779,225.749954C202.985611,227.262482,203.998108,229.0625,203.998779,229.75C204.000732,231.756531,205.641953,231.195389,207.336823,228.608704C208.268784,227.18634,209.024475,223.438293,209.201828,219.358704L209.5,212.5L214,212.5L218.5,212.5L218.5,235L218.5,257.5L214,257.5L209.5,257.5L209,247.569336L208.5,237.638672L205.863373,241.069336C204.413239,242.956207,202.224716,245.625,201,247C199.775284,248.375,197.589325,251.074997,196.142303,253C194.695297,254.925003,193.058823,256.830597,192.505692,257.23468C190.926025,258.388672,183.193909,258.122772,182.430908,256.888184z"/>
    <path transform="matrix(-0.158305,0,0,-0.158305,-261.403137,-731.27301)" style="stroke:#000000;stroke-width:0.05mm;fill:none" d="M235.876328,257.034302C230.652191,255.453781,224,247.021393,224,241.979767C224,241.440887,226.25,241,229,241C232.586884,241,234,241.390396,234,242.381348C234,243.141083,235.435425,245.166077,237.189835,246.881348C239.660614,249.296982,241.260849,250,244.288635,250C251.820328,250,256.225372,241.657135,254.559448,230.547836C253.081772,220.693985,243.814789,216.634033,237.105759,222.901215C235.397583,224.496872,234,226.465668,234,227.276306C234,228.38913,232.836334,228.713272,229.25,228.599472C226.188843,228.502335,224.535553,228.013428,224.600006,227.224365C224.654999,226.550964,224.767502,225.101303,224.850006,224.002884C225.087967,220.83461,231.779846,214.155487,235.848465,213.025391C248.589111,209.486588,259.28714,214.029068,263.548645,224.78717C265.523102,229.771606,265.241516,246.086166,263.169098,246.776962C262.526093,246.991302,262,247.715897,262,248.387161C262,250.162369,255.966187,255.701569,252.684906,256.93866C249.460831,258.154175,239.760284,258.209381,235.876328,257.034302z"/>
    <path transform="matrix(-0.158305,0,0,-0.158305,-261.403137,-731.27301)" style="stroke:#000000;stroke-width:0.05mm;fill:none" d="M270.969391,257.554779C270.952545,257.249664,270.922607,246.987503,270.902863,234.75L270.866943,212.5L275.007385,212.188889C277.284607,212.017776,279.677063,212.316086,280.323914,212.851807C281.188324,213.567703,281.367493,219.612686,281,235.662903L280.5,257.5L275.75,257.804779C273.137512,257.972412,270.986237,257.859924,270.969391,257.554779z"/>
    <path transform="matrix(-0.158305,0,0,-0.158305,-261.403137,-731.27301)" style="stroke:#000000;stroke-width:0.05mm;fill:none" d="M305.713715,257.380402C305.321167,256.987854,305,248.641663,305,238.833328L305,221L295.609406,221L286.218811,221L285.740112,217.25C285.476837,215.1875,285.575806,213.149307,285.960052,212.720673C286.344269,212.292038,292.922974,212.067032,300.579346,212.220673L314.5,212.5L314.5,235L314.5,257.5L310.463715,257.797058C308.243774,257.960449,306.106262,257.772949,305.713715,257.380402z"/>
    <path transform="matrix(-0.158305,0,0,-0.158305,-261.403137,-731.27301)" style="stroke:#000000;stroke-width:0.05mm;fill:none" d="M329.3237,255.477798C324.881256,252.815018,321.402466,248.107651,320.841431,244C320.524567,241.679871,320.831573,241.478485,325.108368,241.200989C329.428986,240.920654,329.796661,241.094864,330.996185,243.990814C332.6716,248.035599,335.61496,250,340,250C347.102325,250,351,244.684998,351,235C351,225.31459,347.076691,219.964096,340.027496,220.035965C336.298523,220.073975,332.091309,222.882736,330.161346,226.62262C329.233734,228.420135,328.409973,228.671463,324.78299,228.26355C322.427338,227.998627,320.361145,227.654572,320.191406,227.499008C319.299164,226.681183,323.403107,219.441788,326.419647,216.512329C330.325256,212.719467,335.9599,211.361359,343.892639,212.300873C350.5401,213.088181,353.009888,214.490097,357,219.741074C360.492737,224.337463,360.5,224.369186,360.5,235C360.5,245.625641,360.491028,245.664841,357,250.286118C352.735443,255.931351,348.091125,258.003235,339.729767,257.99054C334.87265,257.983154,332.579803,257.429504,329.3237,255.477798z"/>
    <path transform="matrix(-0.158305,0,0,-0.158305,-261.403137,-731.27301)" style="stroke:#000000;stroke-width:0.05mm;fill:none" d="M410.563049,257.10202C410.241974,256.58252,409.820801,254.796417,409.627136,253.13295C409.205566,249.51239,410.185944,249,417.534973,249L422.906342,249L422.899963,231.35321C422.896454,221.647476,423.308228,213.291779,423.815002,212.784988C424.321808,212.278198,426.483246,212.00676,428.618225,212.181778L432.5,212.5L432.772552,230.75C432.975037,244.307358,433.360718,249.018707,434.272552,249.072754C434.947662,249.112762,437.75,249.225266,440.5,249.322754L445.5,249.5L445.5,253.5L445.5,257.5L428.323425,257.773285C418.303375,257.932739,410.903595,257.653046,410.563049,257.10202z"/>
    <path transform="matrix(-0.158305,0,0,-0.158305,-261.403137,-731.27301)" style="stroke:#000000;stroke-width:0.05mm;fill:none" d="M455.185913,255.019714C450.667664,251.746704,448,247.488632,448,243.549667C448,241.190186,448.339569,241,452.552032,241C456.638977,241,457.203796,241.286194,458.080566,243.801254C459.95285,249.172134,468.077698,251.735168,472.783203,248.439301C476.373169,245.924805,478,241.639465,478,234.69754C478,224.215805,472.956207,218.847626,464.583618,220.418335C461.778198,220.944641,460.364899,221.962067,458.833252,224.55806C457.282379,227.1866,456.136169,228,453.983002,228C452.432312,228,450.451782,228.273148,449.581787,228.606995C448.391968,229.063568,448,228.57637,448,226.640915C448,221.793182,451.040771,217.29567,456.226624,214.473175C460.547546,212.121429,462.045502,211.834198,468.333252,212.151718C476.358643,212.556976,479.9375,214.429382,484.752289,220.741882C487.34903,224.146378,487.5,224.925537,487.5,234.922165C487.5,245.077942,487.38031,245.667099,484.5,249.688156C480.282715,255.575729,474.971649,258,466.290497,258C460.120605,258,458.817169,257.650177,455.185913,255.019714z"/>
    <path transform="matrix(-0.158305,0,0,-0.158305,-261.403137,-731.27301)" style="stroke:#000000;stroke-width:0.05mm;fill:none" d="M504.261108,256.12616C499.210266,253.221191,498.018463,251.96994,495.421997,246.846054C492.165497,240.419678,492.026031,229.857727,495.116516,223.710159C498.00235,217.969666,499.532318,216.404816,504.70932,213.898682C511.083801,210.812836,522.376343,211.524185,527.360107,215.325516C533.845764,220.272369,535.5,224.270691,535.5,235C535.5,245.777679,533.850464,249.723297,527.234253,254.771408C524.113403,257.152588,522.629333,257.531128,515.579041,257.744507C509.2052,257.937378,506.816376,257.595825,504.261108,256.12616z"/>
    <path transform="matrix(-0.158305,0,0,-0.158305,-261.403137,-731.27301)" style="stroke:#000000;stroke-width:0.05mm;fill:none" d="M521.215637,247.334747C529.535461,239.926086,526.446777,222.300049,516.501709,220.434341C513.006897,219.778717,506,222.171387,506,224.020401C506,224.637756,505.325012,225.817856,504.5,226.642853C503.464508,227.678329,503.002045,230.21109,503.006592,234.821426C503.013733,242.059387,504.855774,246.194473,509.189758,248.701569C512.172119,250.426804,518.558411,249.700958,521.215637,247.334747z"/>
    <path transform="matrix(-0.158305,0,0,-0.158305,-261.403137,-731.27301)" style="stroke:#000000;stroke-width:0.05mm;fill:none" d="M306.024048,190.987503C300.761993,189.735062,296.89798,184.020599,300.403534,182.675385C302.537445,181.856522,306,183.057587,306,184.616638C306,186.216858,310.694611,186.482788,313,185.013153C314.907959,183.79686,313.197021,180.641846,310.392822,180.205429C301.574036,178.832977,297.239227,174.740219,298.504242,168.980667C300.315796,160.732712,316.052551,159.449463,320.866089,167.157166C321.527008,168.215469,321.800964,169.513046,321.474854,170.04068C320.452393,171.695053,316.087341,171.087341,314,169C311.470825,166.470825,307.81955,166.436935,305.570801,168.921783C303.908295,170.758835,303.934509,170.908813,306.165802,172.323624C307.449615,173.13765,310.068665,174.131927,311.985931,174.533112C317.762146,175.741791,319.932739,177.92868,319.968567,182.575684C320.02066,189.331833,314.092499,192.907913,306.024048,190.987503z"/>
    <path transform="matrix(-0.158305,0,0,-0.158305,-261.403137,-731.27301)" style="stroke:#000000;stroke-width:0.05mm;fill:none" d="M235.291611,189.491699C232.942886,187.846588,229.873993,182.459335,230.77327,181.560059C232.165802,180.167526,236.209396,181.225616,238.186951,183.5C240.623032,186.301743,244.565384,186.769501,247.521973,184.60759C249.030991,183.504166,249.433853,181.929688,249.463104,177.021179C249.495163,171.640137,249.180176,170.567947,247.063232,168.852051C244.315048,166.624527,240.325211,167.02916,238.25,169.745865C236.1362,172.513077,236.760986,173.68869,240.086075,173.200668C242.861908,172.793274,243.138367,172.986618,242.836075,175.123871C242.524887,177.32402,242.055634,177.5,236.5,177.5C230.635696,177.5,230.492584,177.435059,230.171829,174.628174C229.991318,173.048676,230.328827,171.271179,230.921829,170.678177C231.514816,170.085175,232.014145,168.902496,232.031418,168.050003C232.082092,165.551178,236.935089,162.712646,241.986481,162.22728C249.924347,161.464554,255.048248,165.344742,256.414978,173.15361C257.409546,178.836014,256.085938,184.460205,252.944641,187.899475C250.347992,190.742432,249.586563,191,243.77887,191C239.75174,191,236.660767,190.450684,235.291611,189.491699z"/>
    <path transform="matrix(-0.158305,0,0,-0.158305,-261.403137,-731.27301)" style="stroke:#000000;stroke-width:0.05mm;fill:none" d="M260.222534,176.75C260.488312,163.101044,260.589294,162.487259,262.617218,162.197845C264.875519,161.875565,266.533508,163.585297,273.469757,173.389084C275.653137,176.475082,277.681488,179,277.977173,179C278.272888,179,278.351349,175.399994,278.15152,171L277.788239,163L281.519104,163C285.164368,163,285.235657,163.071716,284.625,166.125C284.28125,167.84375,284,174.143753,284,180.125L284,191L281.25,190.979187C278.989105,190.962082,277.699646,189.780441,274,184.335419C271.524994,180.69278,269.055786,176.877136,268.512878,175.856216C266.640228,172.334869,266,174.027573,266,182.5L266,191L262.972534,191L259.945099,191L260.222534,176.75z"/>
    <path transform="matrix(-0.158305,0,0,-0.158305,-261.403137,-731.27301)" style="stroke:#000000;stroke-width:0.05mm;fill:none" d="M288.802704,176.986267C288.529999,164.360687,288.67334,162.917679,290.25,162.418869C291.212494,162.114365,292.787506,162.114365,293.75,162.418869C295.32666,162.917679,295.470001,164.360687,295.197296,176.986267L294.894562,191L292,191L289.105438,191L288.802704,176.986267z"/>
    <path transform="matrix(-0.158305,0,0,-0.158305,-261.403137,-731.27301)" style="stroke:#000000;stroke-width:0.05mm;fill:none" d="M324.58609,177.25C324.670715,169.6875,324.798462,163.132614,324.869965,162.683578C324.941498,162.234543,326.237488,162.009552,327.75,162.183578L330.5,162.5L330.777466,176.75L331.054901,191L327.743561,191L324.43222,191L324.58609,177.25z"/>
    <path transform="matrix(-0.158305,0,0,-0.158305,-261.403137,-731.27301)" style="stroke:#000000;stroke-width:0.05mm;fill:none" d="M333.699524,189.659317C332.808777,187.33815,334.80368,185.5,338.213531,185.5L341.5,185.5L341.782654,174.260864C342.061066,163.189499,342.102814,163.012299,344.579224,162.390762C345.961884,162.043732,347.336334,162.003006,347.633606,162.300262C347.930847,162.597519,348.247406,167.939056,348.337036,174.170364L348.5,185.5L351.991272,185.83136C355.698853,186.183243,357.142334,187.4655,356.300476,189.659317C355.560242,191.588364,334.439758,191.588364,333.699524,189.659317z"/>
    <path transform="matrix(-0.158305,0,0,-0.158305,-261.403137,-731.27301)" style="stroke:#000000;stroke-width:0.05mm;fill:none" d="M360.901215,187.894241C357.343842,184.08606,357.248962,181.385818,360.504028,176.589203L363.008057,172.899307L360.504028,168.414169C357.284485,162.6474,357.349121,162.012634,361.107452,162.488281C364.823547,162.958588,364.579041,162.74054,367.469513,168.161377C368.855621,170.760864,370.606323,172.625229,371.837036,172.812424C373.656097,173.089081,373.925995,172.527344,374.195587,167.903381C374.440002,163.710831,374.866058,162.629059,376.357635,162.413651C380.766602,161.776917,381,162.51564,381,177.106995L381,191L372.401215,191C364.07135,191,363.71167,190.902863,360.901215,187.894241z"/>
    <path transform="matrix(-0.158305,0,0,-0.158305,-261.403137,-731.27301)" style="stroke:#000000;stroke-width:0.05mm;fill:none" d="M374,182C374,178.141418,373.883331,178,370.700012,178C367.113495,178,365,179.483154,365,182C365,184.516846,367.113495,186,370.700012,186C373.883331,186,374,185.858582,374,182z"/>
    <path transform="matrix(-0.158305,0,0,-0.158305,-261.403137,-731.27301)" style="stroke:#000000;stroke-width:0.05mm;fill:none" d="M384.335846,189.432785C383.408264,187.015579,385.014587,186.141693,391,185.807281C396.168213,185.518539,396.519073,185.334106,396.816437,182.75C397.152649,179.827988,396.917206,179.737747,388.5,179.562469C386.195313,179.514481,385.427521,178.990509,385.187225,177.301773C384.899811,175.281601,385.345276,175.079117,390.687225,174.801773C396.442383,174.502991,396.503113,174.467789,396.813354,171.25L397.126709,168L390.688354,168C384.487457,168,384.25,167.907806,384.25,165.5C384.25,164.125,384.306244,162.967422,384.375,162.927597C384.443756,162.887772,388.497253,162.620377,393.382782,162.333405C400.178497,161.934204,402.465698,162.127441,403.117462,163.155807C403.585999,163.895111,403.976257,170.462494,403.98468,177.75L404,191L394.468628,191C386.737091,191,384.823669,190.704056,384.335846,189.432785z"/>
    <path transform="matrix(-0.158305,0,0,-0.158305,-261.403137,-731.27301)" style="stroke:#000000;stroke-width:0.05mm;fill:none" d="M406.037201,190.25C406.057678,189.837494,408.19519,183.462326,410.787201,176.082947C415.715881,162.051315,416.327148,161.285583,421.635071,162.494232C423.007477,162.806747,423.941711,163.966202,424.250488,165.740204C424.514679,167.258087,426.36142,173,428.35437,178.5C430.347321,184,431.98288,189.0625,431.988953,189.75C431.995605,190.50386,430.668091,191,428.644379,191L425.288757,191L422.400848,181C420.812531,175.5,419.246246,171,418.920227,171C418.594208,171,417.562225,174.262497,416.626892,178.25C413.88559,189.937027,413.281311,191,409.378693,191C407.520416,191,406.016754,190.662506,406.037201,190.25z"/>
    <path transform="matrix(-0.158305,0,0,-0.158305,-261.403137,-731.27301)" style="stroke:#000000;stroke-width:0.05mm;fill:none" d="M440.96637,190.179718C435.152771,187.603119,432.998688,183.987823,433.003723,176.815735C433.007751,171.114182,435.801117,165,438.401978,165C439.189209,165,440.003571,164.489243,440.21167,163.86499C440.44989,163.15033,443.721252,162.687393,449.045013,162.61499L457.5,162.5L457.75473,176.75L458.00943,191L450.25473,190.929718C445.989624,190.891052,441.809875,190.553558,440.96637,190.179718z"/>
    <path transform="matrix(-0.158305,0,0,-0.158305,-261.403137,-731.27301)" style="stroke:#000000;stroke-width:0.05mm;fill:none" d="M451.031097,184.75C451.013977,184.337494,451,180.399994,451,176C451,168.366318,450.896973,168.000626,448.75,168.013657C444.069977,168.042053,441.90799,169.284424,440.444885,172.786118C438.29364,177.934799,439.421478,182.457458,443.346649,184.422287C446.478271,185.989883,451.090637,186.186584,451.031097,184.75z"/>
    <path transform="matrix(-0.158305,0,0,-0.158305,-261.403137,-731.27301)" style="stroke:#000000;stroke-width:0.05mm;fill:none" d="M468.232056,186.75C467.208221,184.412506,465.561096,179.574997,464.571808,176C463.582489,172.425003,462.115936,168.220688,461.312775,166.657074C459.617859,163.357254,460.001923,162.705383,463.757233,162.508163C466.846924,162.345901,467.962341,163.465118,467.98468,166.75C467.998718,168.809998,468.466583,169,473.524994,169C478.829773,169,479.073273,168.883652,479.633789,166.0811C480.042633,164.036819,480.977386,162.971512,482.753418,162.525757C484.148163,162.17569,485.632538,162.251694,486.052094,162.694641C486.471619,163.137589,485.459961,167.324997,483.803955,172C482.147949,176.675003,480.090546,182.862503,479.231964,185.75C477.705109,190.884827,477.587769,191,473.882233,191C470.383667,191,469.95105,190.674591,468.232056,186.75z"/>
    <path transform="matrix(-0.158305,0,0,-0.158305,-261.403137,-731.27301)" style="stroke:#000000;stroke-width:0.05mm;fill:none" d="M475.536041,179.770813C476.740875,174.80983,476.718353,174.752335,473.428101,174.392136L470.356232,174.055832L471.864685,178.971634C473.541748,184.436844,474.359589,184.614868,475.536041,179.770813z"/>
    <path transform="matrix(-0.158305,0,0,-0.158305,-261.403137,-731.27301)" style="stroke:#000000;stroke-width:0.05mm;fill:none" d="M262.507813,153.012619C261.855011,151.956375,262.065399,151.637802,267.468933,145.5C269.405762,143.300003,270.992584,141.144272,270.995209,140.709503C271.000366,139.857071,267.331909,134.447968,265.181122,132.136673C262.608917,129.372528,260.738861,125.927795,261.433441,125.233223C261.820831,124.845825,263.487366,124.460983,265.136841,124.378029C267.377045,124.265366,268.345367,124.778168,268.963776,126.404701C269.419098,127.602318,270.560394,129.2202,271.5,130C272.439606,130.7798,273.614227,132.485382,274.110321,133.790192C275.571747,137.634033,277.459747,135.777725,278,129.965805C278.482117,124.77935,278.60733,124.58535,281.5,124.543449L284.5,124.5L284.5,139L284.5,153.5L281.5,153.498245C278.56778,153.496536,278.488708,153.364975,278,147.675659L277.5,141.854813L273.613586,146.965225C271.476074,149.775955,268.918152,152.508621,267.929352,153.037811C265.61441,154.276733,263.282379,154.2659,262.507813,153.012619z"/>
    <path transform="matrix(-0.158305,0,0,-0.158305,-261.403137,-731.27301)" style="stroke:#000000;stroke-width:0.05mm;fill:none" d="M298.839111,153.202759C294.262451,152.962448,292.664856,152.39212,290.497742,150.225006C288.174774,147.902054,287.902771,147.00946,288.458618,143.533478C288.811371,141.327423,289.990784,138.574249,291.079559,137.415329C293.055542,135.311966,293.054565,135.300278,290.541595,130.904099C287.472687,125.5354,287.46286,125.373734,290.161682,124.667969C293.43515,123.811935,295.5896,125.484093,297.641479,130.473358C299.067017,133.939667,300.02417,134.993378,301.75,134.996246C303.776672,134.999634,304,134.515305,304,130.116638C304,126.112991,304.351929,125.141235,305.953522,124.722404C307.027954,124.441429,308.616791,124.730515,309.484222,125.364807C310.811218,126.335129,311.016876,128.658173,310.780701,140.009033L310.5,153.5L307.5,153.5C305.850006,153.5,301.952606,153.366241,298.839111,153.202759z"/>
    <path transform="matrix(-0.158305,0,0,-0.158305,-261.403137,-731.27301)" style="stroke:#000000;stroke-width:0.05mm;fill:none" d="M304,143.942505L304,139.88501L299.75,140.192505C296.173981,140.451233,295.447815,140.868347,295.170929,142.822723C294.599701,146.854523,295.661194,148,299.968628,148L304,148L304,143.942505z"/>
    <path transform="matrix(-0.158305,0,0,-0.158305,-261.403137,-731.27301)" style="stroke:#000000;stroke-width:0.05mm;fill:none" d="M320.313782,152.179718C316.298706,150.063049,314.885895,147.073975,314.320618,139.5C313.965454,134.741592,314.275391,132.86264,315.818329,130.419968C317.969452,127.014473,323.398621,124,327.38089,124C332.256165,124,337.751526,126.956619,339.422943,130.478882C341.650665,135.173447,341.460602,143.73233,339.040497,147.701447C335.361694,153.734879,327.039032,155.725128,320.313782,152.179718z"/>
    <path transform="matrix(-0.158305,0,0,-0.158305,-261.403137,-731.27301)" style="stroke:#000000;stroke-width:0.05mm;fill:none" d="M332.627533,145.85907C335.077118,143.152328,335.022491,134.787323,332.537323,132.041245C329.637878,128.837402,322,129.920273,322,133.535187C322,134.340836,321.549988,135,321,135C319.334076,135,319.924316,142.352585,321.772247,144.61972C325.43045,149.107849,329.288788,149.548355,332.627533,145.85907z"/>
    <path transform="matrix(-0.158305,0,0,-0.158305,-261.403137,-731.27301)" style="stroke:#000000;stroke-width:0.05mm;fill:none" d="M342.512787,153.02066C342.179871,152.48204,342.316589,151.244537,342.816559,150.27066C343.316528,149.296799,344.507202,145.125,345.462463,141C349.00351,125.708977,349.934235,123.887939,353.694336,124.893539C356.0224,125.516167,356.545502,126.563416,358.515656,134.545975L360.725586,143.5L362.931671,136C366.14679,125.069618,366.465363,124.480461,369.28717,124.246925C372.0961,124.01445,372.503754,125.006844,377.109253,143.288391C379.431824,152.507935,379.106384,154.363586,375.339661,153.378571C373.763397,152.96637,372.79834,151.342026,371.606903,147.095718C370.723114,143.945908,370,139.935806,370,138.184402C370,136.432983,369.609619,135,369.132507,135C368.351288,135,367.244965,138.910568,365.191803,148.92952C364.640778,151.618317,363.853058,152.529129,361.544769,153.146454C359.925446,153.579529,358.502411,153.835754,358.382507,153.715851C358.262604,153.595932,357.071167,149.267624,355.734924,144.097382C354.398651,138.927139,353.064911,135.102631,352.771057,135.598465C352.477203,136.094315,351.667908,139.875,350.972595,144C350.260284,148.2258,349.033752,152.0457,348.163055,152.75C346.317047,154.243225,343.356018,154.385056,342.512787,153.02066z"/>
    <path transform="matrix(-0.158305,0,0,-0.158305,-261.403137,-731.27301)" style="stroke:#000000;stroke-width:0.05mm;fill:none" d="M381.666656,153.333328C381.299988,152.96666,381,151.616669,381,150.333328C381,148.272583,381.473602,148,385.05423,148L389.108459,148L388.923798,136.75L388.739166,125.5L392.465729,125.183907L396.192261,124.867805L395.85321,136.183899L395.514191,147.5L399.497406,148C403.691589,148.526474,405.568359,151.391144,402.848389,153.114853C401.265228,154.118149,382.643555,154.310226,381.666656,153.333328z"/>
    <path transform="matrix(-0.158305,0,0,-0.158305,-261.403137,-731.27301)" style="stroke:#000000;stroke-width:0.05mm;fill:none" d="M406.666656,153.333328C406.299988,152.96666,406,151.616669,406,150.333328C406,148.128204,406.357147,148,412.5,148L419,148L419,145C419,142.006058,418.988098,142,413.106995,142C408.649323,142,407.065735,141.613724,406.605408,140.414063C405.529266,137.609741,407.342316,136.5,413,136.5C418.474182,136.5,418.501465,136.484741,418.813354,133.25L419.126709,130L412.496948,130C405.950439,130,405.871124,129.967499,406.183563,127.412346C406.496704,124.851715,406.596588,124.822998,415.750305,124.662346C420.837982,124.573059,425.015015,124.837502,425.032562,125.25C425.343353,132.546951,424.969177,152.240875,424.505493,152.991104C423.821167,154.098358,407.740204,154.406876,406.666656,153.333328z"/>
    <path transform="matrix(-0.158305,0,0,-0.158305,-261.403137,-731.27301)" style="stroke:#000000;stroke-width:0.05mm;fill:none" d="M429.697754,153.364426C429.313995,152.980667,429,146.413162,429,138.769974L429,124.873283L432.149078,125.186638C434.775482,125.44799,436.090271,126.642883,440.070343,132.385559C447.795746,143.53215,447.760956,143.525406,447.901489,133.906357C448.023804,125.533264,448.800903,123.705231,452,124.264946C453.252228,124.484039,453.5,126.920288,453.5,139.013702L453.5,153.5L451.071472,153.230164C448.360992,152.928986,444.45047,148.935471,439.857971,141.778641C438.174133,139.154648,436.458923,137.21637,436.046326,137.471359C435.633759,137.726349,435.513733,141.3246,435.779602,145.467484C436.186768,151.811752,436.018555,153,434.713287,153C433.860962,153,432.540771,153.238998,431.779541,153.531097C431.018341,153.823196,430.081543,153.748199,429.697754,153.364426z"/>
</svg>
