<svg width="955" height="821" viewBox="0 0 955 821" fill="none" xmlns="http://www.w3.org/2000/svg">
<path fill-rule="evenodd" clip-rule="evenodd" d="M873 2.91941C813.15 17.0784 731.965 47.3664 671.06 78.2584C662.227 82.7394 654.325 86.6364 653.5 86.9194C648.651 88.5834 594.275 120.03 569.5 135.498C549.858 147.76 546.044 150.271 528 162.82C514.988 171.869 485.6 193.757 477.285 200.592C473.042 204.08 469.009 206.934 468.323 206.934C467.637 206.934 465.259 208.682 463.038 210.818C460.817 212.954 454.15 218.359 448.222 222.829C442.294 227.299 430.649 236.689 422.344 243.695C414.038 250.702 404.432 258.528 400.996 261.088C397.56 263.647 394.13 266.6 393.374 267.649C391.419 270.363 390.571 270.736 382.512 272.432C378.177 273.343 371.382 275.961 365.477 278.995C353.43 285.183 345.312 293.24 335.137 309.11C328.686 319.171 327.978 319.914 322.86 321.991C319.872 323.203 317.286 324.024 317.111 323.815C316.937 323.605 315.789 319.018 314.561 313.62C312.915 306.392 311.595 302.966 309.551 300.62C307.727 298.525 306.525 295.722 306.042 292.434C305.639 289.684 304.281 284.959 303.025 281.934C301.77 278.909 300.207 273.284 299.553 269.434C298.041 260.539 295.906 255.787 290.4 249.055C284.83 242.247 281.5 237.675 281.5 236.837C281.5 236.478 282.765 235.931 284.312 235.622C285.858 235.312 288.216 234.175 289.55 233.095C291.696 231.357 292.02 230.169 292.354 222.821C292.577 217.902 293.315 213.62 294.161 212.328C295.004 211.042 295.336 209.129 294.969 207.667C294.45 205.599 294.774 205.082 296.924 204.543C299.969 203.778 299.998 203.463 297.839 194.566C296.254 188.034 296.261 187.533 297.994 184.316L299.815 180.934L308.907 180.918C316.468 180.904 318.656 180.525 321.896 178.668C328.218 175.043 331.102 167.277 328.584 160.655C327.232 157.099 320.466 155.032 304.83 153.4L298.66 152.756L294.831 146.209C290.232 138.346 284.968 132.723 279.675 130.023C275.104 127.691 261.993 125.856 255.396 126.625C252.864 126.92 249.935 126.702 248.886 126.14C246.139 124.67 241.505 125.848 240.322 128.316C239.764 129.481 236.628 131.714 233.352 133.278C221.918 138.74 215.84 150.149 216.876 164.209C217.961 178.939 219.107 186.514 220.696 189.469C221.594 191.138 222.651 194.219 223.044 196.317L223.76 200.131L219.602 199.783L215.443 199.434L211.722 206.281C208.607 212.011 207.386 213.338 204.234 214.419C194.593 217.723 176.435 231.432 169.608 240.561C157.967 256.128 150.745 281.79 147.552 318.934C146.027 336.664 144.503 370.956 144.502 387.565L144.5 401.697L147.843 404.247L151.186 406.796L151.868 421.909C152.243 430.22 152.825 439.026 153.161 441.477C153.729 445.623 153.613 445.934 151.503 445.934C148.718 445.934 90.312 435.079 89.676 434.443C89.425 434.193 87.995 429.605 86.497 424.249C85 418.892 83.15 414.189 82.387 413.797C81.624 413.406 76.753 412.459 71.562 411.694L62.124 410.302L55.213 416.25C47.516 422.874 47.819 421.461 51.369 434.201L53.254 440.968L49.627 445.839C47.632 448.519 43.157 454.375 39.682 458.853L33.364 466.995L34.048 472.469C34.719 477.841 34.951 478.163 46.445 489.689C52.887 496.149 59.652 503.684 61.478 506.434C66.076 513.359 74.331 529.158 80.809 543.434C83.804 550.034 90.639 565.109 95.998 576.934C101.357 588.759 108.631 604.202 112.162 611.253L118.583 624.071L126.038 623.753C130.138 623.577 133.494 623.028 133.496 622.532C133.498 622.036 131.549 618.211 129.164 614.032C108.503 577.831 77.383 494.612 65.928 444.934C60.982 423.485 60.98 422.932 65.807 420.574C70.205 418.426 71.627 419.031 69.001 421.933C67.234 423.885 67.273 424.26 70.293 434.689C72.005 440.599 74.123 448.359 75.001 451.934C78.241 465.134 90.38 505.869 96.01 522.434C106.011 551.857 111.479 565.987 126.679 601.684L135.727 622.934L140.363 622.944C166.815 622.999 227.181 630.05 269 637.968C402.404 663.23 448.88 668.587 543.803 669.646C600.885 670.283 631.628 668.891 670 663.933C698.337 660.271 750.427 655.97 766.75 655.943C769.913 655.938 772.481 655.822 772.458 655.684C772.434 655.546 771.839 652.959 771.136 649.934L769.856 644.434L755.928 643.269C734.094 641.443 709.835 640.048 687.052 639.306C675.531 638.931 666.981 638.314 668.052 637.934C670.82 636.954 702.666 634.81 717.5 634.606C724.375 634.511 738.374 634.818 748.609 635.287L767.219 636.14L766.595 632.287L765.972 628.434L758.986 627.787C755.144 627.43 741.763 626.801 729.25 626.387C716.737 625.974 706.5 625.509 706.5 625.355C706.5 625.201 710.263 616.606 714.863 606.255C723.222 587.443 734.319 565.096 745.526 544.504C748.797 538.493 751.357 533.457 751.213 533.314C751.069 533.17 743.088 532.57 733.476 531.981C696.456 529.713 683.015 528.782 682.698 528.466C682.518 528.285 683.128 522.896 684.056 516.49C684.983 510.083 685.513 504.614 685.234 504.335C684.955 504.056 681.188 504.507 676.863 505.339C667.338 507.169 640.689 508.94 622.973 508.919C598.221 508.889 564.998 505.787 538.5 501.032L528 499.148L535 499.072C541.305 499.004 546.494 499.522 574 502.966C591.604 505.17 624.647 506.006 650.5 504.901C664.525 504.302 676.947 503.622 678.105 503.39C680 503.011 680.28 502.043 680.905 493.701C681.287 488.604 682.005 484.292 682.5 484.117C687.683 482.294 692.443 474.083 692.478 466.907C692.504 461.46 690.479 458.241 685.794 456.284L682.35 454.844L682.598 444.074C682.735 438.151 682.548 432.82 682.182 432.229C678.896 426.911 590.575 419.761 565.792 422.806C560.535 423.453 555.843 424.222 555.366 424.517C554.89 424.811 554.5 430.425 554.5 436.993V448.934H552.077C550.744 448.934 548.269 450.099 546.577 451.523C544.068 453.634 543.5 454.864 543.5 458.185C543.5 464.921 546.534 472.876 550.226 475.822C553.343 478.309 553.5 478.757 553.5 485.184C553.5 490.936 553.241 491.938 551.75 491.959C543.229 492.081 515.506 493.166 500.5 493.964C464.999 495.853 421.126 497.893 420.911 497.664C420.792 497.538 420.189 483.484 419.57 466.434C416.996 395.465 416.088 386.026 411 377.343C406.69 369.989 398.236 363.974 390.144 362.504C384.514 361.481 370.938 361.702 362.415 362.954C348.206 365.042 322.942 370.949 313 374.508C311.73 374.963 312.627 373.529 315.458 370.579C319.534 366.332 320.323 365.934 324.659 365.934C337.211 365.934 342.923 362.737 347.997 352.871C349.288 350.362 351.054 347.719 351.922 346.999C352.79 346.278 353.51 344.282 353.523 342.562C353.541 340.043 354.174 339.125 356.773 337.846C361.19 335.671 362.497 331.736 360.156 327.657C358.394 324.587 358.401 324.517 360.684 322.783C361.958 321.816 364.058 320.454 365.351 319.756C368.359 318.133 369.597 319.681 372.607 328.83C377.573 343.924 383.244 351.381 390.657 352.563C394.853 353.232 397.819 352.1 403.764 347.563C407.515 344.699 409.051 344.094 411.389 344.562C413.675 345.019 414.554 344.701 415.407 343.108C417.338 339.5 420.349 339.395 423.878 342.815C428.108 346.915 432.9 347.924 434.443 345.041C435.063 343.882 436.453 342.934 437.533 342.934C438.612 342.934 441.784 341.29 444.58 339.281C449.318 335.877 449.623 335.404 449.05 332.348C448.711 330.544 446.987 327.549 445.217 325.691C431.997 311.811 417.5 288.382 417.5 280.896C417.5 278.924 416.054 278.229 415.114 279.75C414.836 280.199 415.24 282.336 416.011 284.5C418.424 291.273 418.251 291.539 408.25 296.524C393.962 303.646 389.081 309.223 389.677 317.748C389.933 321.425 389.658 322.447 388.342 322.712C386.359 323.111 384.965 318.205 386.066 314.706C387.356 310.61 395.894 298.064 397.717 297.587C399.001 297.252 399.5 296.137 399.5 293.604C399.5 289.01 401.463 286.757 419.955 270.132C452.316 241.038 472.361 220.934 469.01 220.934C468.423 220.934 437.024 249.849 419 266.987C406.556 278.82 399.476 284.934 398.218 284.934C396.637 284.934 400.054 281.513 421 262.121C431.45 252.447 443.375 241.357 447.5 237.478C467.666 218.512 469.556 217.191 470.353 221.517C471.318 226.754 477.718 228.716 481.5 224.934C483.751 222.683 484.031 220.865 482.379 219.213C481.552 218.386 482.533 217.933 486.129 217.484C511.581 214.301 543.72 200.916 573.611 181.051C603.67 161.075 628.491 136.361 644.031 110.934C647.561 105.159 650.887 99.7714 651.422 98.9604C652.247 97.7114 652.775 97.8434 654.892 99.8334C657.833 102.595 662.388 102.079 663.222 98.8884C663.696 97.0784 664.674 96.9344 676.517 96.9344C712.036 96.9344 749.667 83.5624 795.292 54.7284C824.051 36.5534 842.2 26.5324 852.685 23.0394C858.021 21.2614 865.104 17.9574 868.843 15.5014C872.504 13.0964 875.5 11.2354 875.5 11.3644C875.5 11.4934 871.934 18.5374 867.576 27.0174C858.088 45.4744 852.81 58.3244 846.426 78.5064C834.324 116.765 826.215 156.612 821.41 201.434C819.178 222.26 818.999 426.768 821.215 424.552C821.487 424.281 822.085 378.693 822.545 323.246C823.006 267.799 823.854 217.034 824.43 210.434C831.419 130.412 852.364 55.5774 879.943 12.0964C886.262 2.13441 887.359 -0.149592 885.75 0.00740768C885.337 0.0474077 879.6 1.35841 873 2.91941ZM876.417 8.28641C872.808 11.3354 863.326 16.6154 857.229 18.9724C845.398 23.5444 818.603 27.7434 817.742 25.1594C817.517 24.4854 817.983 23.9344 818.778 23.9344C819.572 23.9344 823.772 22.7714 828.111 21.3494C832.45 19.9284 845 16.1794 856 13.0194C873.588 7.96741 878.007 6.94341 876.417 8.28641ZM832.985 29.0434C830.793 30.2034 828.325 31.7054 827.5 32.3814C826.675 33.0564 822.516 35.4924 818.258 37.7934C814.001 40.0944 805.676 45.0334 799.758 48.7684C766.563 69.7234 733.738 84.5944 707.681 90.4834C689.762 94.5334 668.865 95.7504 660.12 93.2544C658.794 92.8754 660.362 91.8654 665.453 89.8194C672.112 87.1444 677.533 85.9024 701.879 81.4714C720.685 78.0494 740.829 71.2864 758.502 62.4604C772.202 55.6184 778.523 51.6994 791.75 41.8454C798.212 37.0304 803.5 33.3134 803.5 33.5854C803.5 33.8564 802.336 36.1834 800.914 38.7564L798.327 43.4344L801.489 39.9344C803.227 38.0094 805.525 34.7474 806.595 32.6844C808.828 28.3814 809.519 28.1334 811.307 30.9964C813.013 33.7294 817.634 33.2684 818.967 30.2314C819.977 27.9304 822.021 27.4384 831.985 27.1024L836.97 26.9344L832.985 29.0434ZM802.458 30.6844C802.401 31.7164 785.857 43.3814 776.061 49.2954C749.828 65.1344 727.715 73.5074 695 79.9894C682.816 82.4024 678.965 82.8384 680.583 81.6214C680.813 81.4484 690.9 76.6514 703 70.9604C728.173 59.1204 752.564 48.6484 773.5 40.6914C781.475 37.6614 790.925 34.0424 794.5 32.6514C801.826 29.8004 802.517 29.6294 802.458 30.6844ZM659.914 97.7954C660.206 98.2684 660.189 98.9124 659.875 99.2264C659.095 100.006 656.5 98.9314 656.5 97.8274C656.5 96.6844 659.212 96.6594 659.914 97.7954ZM637.877 105.785C623.661 118.364 605.408 133.857 595.5 141.753C589.175 146.794 582.335 152.278 580.3 153.941C573.148 159.783 550.879 174.636 539.5 181.153C523.898 190.089 501.803 200.57 500.761 199.529C500.524 199.291 502.771 197.148 505.755 194.765C513.337 188.712 533.019 172.724 545.5 162.481C560.731 149.979 578.167 138.621 625 110.692C633.8 105.444 641.225 101.372 641.5 101.643C641.775 101.915 640.144 103.778 637.877 105.785ZM641.483 109.637C628.514 130.353 602.018 157.219 577.927 174.082C556.768 188.893 533.383 200.875 511.061 208.345C500.091 212.015 481.504 216.271 480.56 215.328C479.041 213.809 485.881 210.151 512.5 198.247C538.388 186.67 554.146 177.324 578.5 159.104C600.749 142.458 626.966 120.307 639.997 107.143C642.746 104.366 645.162 102.262 645.367 102.467C645.571 102.672 643.824 105.898 641.483 109.637ZM274.738 133.856C278.804 135.424 281.459 137.288 283.846 140.251C287.462 144.74 292.983 153.842 292.371 154.307C292.167 154.462 290.425 155.186 288.5 155.916C286.575 156.646 281.512 158.967 277.25 161.075C272.988 163.183 269.5 164.673 269.5 164.386C269.5 164.099 270.204 162.789 271.065 161.475C272.486 159.306 272.485 158.657 271.054 154.44C269.56 150.042 264.846 140.615 265.861 144.056C266.124 144.948 266.621 147.873 266.965 150.556L267.591 155.434L264.981 150.21C263.546 147.336 260.396 142.836 257.981 140.21L253.591 135.434L256.956 143.434C261.971 155.358 262.482 160.506 257.65 150.434C251.184 136.954 246.401 133.221 238.99 135.87L236 136.939L238.964 134.478C242.872 131.234 244.005 131.044 257.5 131.367C266.498 131.582 270.248 132.124 274.738 133.856ZM319 159.809C320.65 160.333 321.279 160.801 320.399 160.848C319.518 160.895 315.018 163.378 310.399 166.364C299.439 173.45 294.565 174.704 286.244 172.58C282.81 171.703 277.75 170.109 275 169.037L270 167.088L274 165.373C276.2 164.429 281.6 162.346 286 160.743C293.51 158.008 294.674 157.861 305 158.342C311.05 158.624 317.35 159.284 319 159.809ZM292.25 169.596C292.938 169.874 294.063 169.874 294.75 169.596C295.438 169.319 294.875 169.092 293.5 169.092C292.125 169.092 291.563 169.319 292.25 169.596ZM531.5 170.383C531.5 170.892 504.201 193.189 495.619 199.691C492.529 202.032 487.525 206.116 484.5 208.767C479.28 213.341 474.5 215.779 474.5 213.869C474.5 212.371 496.594 194.638 518.5 178.553C529.226 170.677 531.5 169.248 531.5 170.383ZM294.921 199.684C295.589 201.789 295.346 201.934 291.149 201.934C286.393 201.934 283.5 202.671 283.5 203.884C283.5 204.288 285.087 205.474 287.027 206.518C292.569 209.503 291.21 211.317 283.499 211.228C277.738 211.162 277.511 211.226 281.5 211.794C285.531 212.367 286.124 212.798 287.194 215.934C289.136 221.631 288.796 226.99 286.326 229.62C283.328 232.81 279.621 232.532 273.863 228.684C269.448 225.734 268.971 225.037 268.69 221.125C268.3 215.715 271.939 209.062 276.997 205.936C280.607 203.705 280.971 201.736 277.612 202.615C274.299 203.481 274.372 201.18 277.74 198.525C280.97 195.98 280.977 195.956 278.5 195.913C277.125 195.89 275.227 195.283 274.282 194.566C272.786 193.429 273.56 193.044 280.282 191.584C284.527 190.662 288.675 189.48 289.5 188.957C290.982 188.017 291.621 189.28 294.921 199.684ZM251.214 235.934C256.848 241.709 261.468 246.709 261.479 247.045C261.491 247.382 260.388 247.444 259.028 247.184C256.931 246.783 256.073 247.487 253.378 251.823C251.631 254.634 249.931 256.931 249.601 256.927C248.822 256.919 239.506 240.63 237.308 235.434C234.434 228.64 229.5 215.817 229.5 215.143C229.5 214.292 238.604 223.009 251.214 235.934ZM478.93 221.821C479.231 222.308 478.905 223.183 478.205 223.763C476.662 225.044 473.955 223.624 474.931 222.046C475.754 220.715 478.163 220.579 478.93 221.821ZM226.916 238.992C240.68 253.582 250.882 272.896 258.581 298.934C260.485 305.376 261.407 307.42 261.445 305.283C261.519 301.031 257.996 280.71 255.466 270.803C253.552 263.306 253.544 258.934 255.444 258.934C256.987 258.934 263.582 272.902 265.378 279.973L267.183 287.08L268.384 279.757C270.087 269.376 272.694 258.934 273.583 258.934C274.939 258.934 277.528 268.412 278.5 276.93C279.413 284.942 278.548 303.063 276.732 313.934C276.082 317.827 275.479 318.68 272.261 320.256C267.708 322.487 256.401 324.194 251.841 323.338C248.113 322.639 248.306 323.127 246.519 309.934C243.035 284.228 233.315 260.287 216.834 236.812C212.25 230.284 208.5 224.687 208.5 224.375C208.5 222.881 221.306 233.045 226.916 238.992ZM446.5 229.434C445.815 230.259 444.805 230.934 444.255 230.934C443.697 230.934 443.806 230.271 444.5 229.434C445.185 228.609 446.195 227.934 446.745 227.934C447.303 227.934 447.194 228.597 446.5 229.434ZM280.123 247.241C283.044 252.989 283.274 253.883 281.597 252.986C280.505 252.401 279.335 251.476 278.997 250.929C277.904 249.16 276.733 249.853 273.587 254.131C270.043 258.949 269.46 258.353 272.657 253.181C274.819 249.682 275.396 243.664 274.04 238.76C273.407 236.471 273.422 236.466 275.03 238.434C275.928 239.534 278.22 243.497 280.123 247.241ZM202.275 239.918C211.015 243.885 223.356 260.135 226.061 271.237C226.661 273.7 226.063 273.327 221.152 268.179C218.076 264.954 213.409 260.788 210.78 258.92L206 255.523L211.908 261.956C219.103 269.791 224.014 277.316 227.143 285.299C228.439 288.607 229.5 291.386 229.5 291.475C229.5 291.563 226.012 288.208 221.75 284.018C217.488 279.827 212.526 275.356 210.725 274.081C207.636 271.894 207.727 272.128 212.331 278.21C215.387 282.249 218.354 287.818 220.271 293.115C223.343 301.605 226.5 316.945 226.5 323.383V326.832L223.156 325.435C218.499 323.489 195.632 321.657 186 322.457L178 323.123L182.696 320.585C188.81 317.282 199.618 313.97 204.855 313.796L209 313.659L204.265 312.632C201.308 311.99 199.326 310.963 198.987 309.895C197.979 306.718 194.51 281.472 194.39 276.434L194.27 271.434L193.464 275.434C193.021 277.634 192.337 283.585 191.944 288.659C191.551 293.733 190.906 297.685 190.511 297.441C189.118 296.58 187.13 278.292 187.158 266.589C187.173 260.075 186.827 255.386 186.388 256.17C184.241 260.006 180.665 273.254 179.973 279.934C179.334 286.108 179.058 286.93 178.409 284.585C176.092 276.213 176.44 259.198 179.139 248.934L179.796 246.434L177.152 248.855C175.698 250.186 174.284 251.051 174.01 250.777C173.081 249.848 180.686 241.887 184.352 239.95C189.117 237.433 196.769 237.419 202.275 239.918ZM288.205 264.684C290.06 273.431 287.584 316.183 285.078 318.69C284.783 318.984 284.791 312.072 285.096 303.33C285.401 294.587 285.274 281.698 284.814 274.688C284.016 262.536 284.188 261.295 286.705 261.013C287.092 260.97 287.767 262.622 288.205 264.684ZM403.814 268.075C405.361 270.311 406.366 272.402 406.045 272.722C405.222 273.545 397.472 265.789 398.1 264.771C399.175 263.034 401.091 264.142 403.814 268.075ZM384.022 277.911C382.341 279.666 379.006 281.517 375.899 282.42C370.439 284.008 365.409 288.605 343.625 311.917C339.779 316.032 336.367 319.134 336.042 318.809C334.802 317.569 347.192 299.162 353.459 292.934C358.375 288.049 362.732 285.014 371 280.717C377.05 277.572 383.097 274.985 384.437 274.967L386.874 274.934L384.022 277.911ZM419.612 283.732C422.871 292.313 433.008 307.805 443.25 319.859C446.137 323.257 448.5 326.464 448.5 326.986C448.5 328.524 450.511 328.068 451.158 326.383C451.51 325.466 450.478 323.246 448.634 320.952C445.565 317.132 445.551 317.066 447.758 316.753C449.667 316.481 450.045 315.732 450.304 311.701C450.704 305.483 447.989 299.44 441.845 292.872C434.649 285.179 426.5 281.743 426.5 286.403C426.5 288.904 424.53 288.15 422.703 284.95C420.397 280.908 418.213 280.048 419.612 283.732ZM301.086 291.659C301.454 294.11 301.457 298.641 301.094 301.729L300.434 307.344L302.791 305.13C304.088 303.912 305.452 303.22 305.824 303.592C306.196 303.963 306.498 306.78 306.496 309.851C306.492 315.5 303.796 321.934 301.431 321.934C300.827 321.934 300.483 321.594 300.667 321.179C303.017 315.858 304.67 310.771 304.202 310.303C303.879 309.98 302.157 310.754 300.374 312.023C297.406 314.137 297.2 314.167 297.928 312.383C298.775 310.307 298.715 286.246 297.86 284.481C297.58 283.905 298.042 284.282 298.885 285.319C299.728 286.356 300.719 289.209 301.086 291.659ZM389.09 286.061C393.827 287.254 396.557 290.277 394.635 292.199C393.901 292.933 390.674 292.464 383.927 290.643C373.353 287.789 372.342 287.278 374.529 285.895C376.546 284.619 383.689 284.701 389.09 286.061ZM378 292.862C386.55 295.101 391.971 300.838 384.888 300.152C380.327 299.71 367.111 295.267 366.701 294.038C366.267 292.735 370.337 290.917 372.5 291.447C373.325 291.649 375.8 292.286 378 292.862ZM435.265 294.407C438.034 296.982 438.548 297.887 437.25 297.907C434.801 297.945 435.019 298.641 439 303.499C440.925 305.849 442.5 308.102 442.5 308.507C442.5 309.884 438.209 305.454 433.847 299.574C427.393 290.874 428.22 287.857 435.265 294.407ZM378.612 303.568C382.662 305.933 383.172 308.568 379.5 308.149C375.361 307.678 362.698 302.878 361.369 301.276C360.377 300.081 360.394 299.617 361.457 298.961C363.103 297.943 373.987 300.866 378.612 303.568ZM415.64 305.595C417.092 307.156 419.753 311.134 421.552 314.434C425.187 321.097 425.062 321.029 417.589 312.257C409.326 302.558 404.288 301.184 398.765 307.126C394.817 311.374 394.962 314.576 399.506 323.387C402.315 328.835 402.977 330.77 401.607 329.531C400.508 328.536 398.163 324.934 396.396 321.526C392.6 314.205 392.854 311.761 398.006 306.059C404.131 299.279 409.633 299.134 415.64 305.595ZM421.5 305.934C423.166 309.234 424.368 311.934 424.171 311.934C423.974 311.934 422.28 309.685 420.407 306.936C418.533 304.187 416.663 301.937 416.25 301.936C415.837 301.935 415.5 301.484 415.5 300.934C415.5 300.384 416.169 299.934 416.986 299.934C417.803 299.934 419.834 302.634 421.5 305.934ZM367.923 308.224C376.715 311.827 378.675 313.934 373.233 313.934C368.722 313.934 363.87 312.229 359.271 309.029C351.872 303.88 356.313 303.467 367.923 308.224ZM410.006 310.94C411.004 312.044 411.562 313.205 411.246 313.521C410.296 314.472 406.5 311.974 406.5 310.399C406.5 308.361 407.862 308.571 410.006 310.94ZM404.683 314.151C403.966 314.868 403.5 314.927 403.5 314.301C403.5 313.732 403.8 312.967 404.167 312.601C404.533 312.234 405.066 312.167 405.35 312.451C405.634 312.735 405.334 313.5 404.683 314.151ZM379.828 322.941C381.53 331.546 384.833 333.819 389.875 329.854C391.329 328.71 392.916 327.922 393.401 328.104C393.885 328.285 396.148 330.804 398.427 333.701L402.573 338.967L399.786 341.394C394.709 345.815 392.888 346.418 390.112 344.599C388.749 343.706 386.407 341.368 384.909 339.403C381.833 335.37 375.337 320.006 376.151 318.689C377.302 316.827 379.009 318.802 379.828 322.941ZM310.496 321.184C310.491 323.006 306.699 328.934 305.539 328.934C304.533 328.934 305.404 325.851 307.536 321.867C308.699 319.694 310.502 319.278 310.496 321.184ZM350.965 326.35C354.781 327.949 356.452 329.451 356.485 331.311C356.499 332.129 351.776 331.787 343.5 330.371L340 329.773L343.25 332.426C347.589 335.968 347.434 337.736 342.75 338.124L339 338.434L342.75 340.766C347.214 343.541 347.449 344.669 343.75 345.553C339.534 346.561 339.181 347.023 341.427 348.595C344.358 350.648 344.017 351.82 340 353.498C337.724 354.45 336.5 355.632 336.5 356.88C336.5 359.628 333.934 360.111 321.248 359.752L310 359.434L292.5 367.565C270.195 377.928 258.856 382.102 244.5 385.233C230.172 388.359 214.5 389.631 214.5 387.67C214.5 386.935 214.909 385.906 215.41 385.384C215.91 384.861 219.115 379.259 222.53 372.934C225.946 366.609 229.835 359.972 231.171 358.184C233.491 355.082 233.907 354.934 240.307 354.934C255.25 354.934 288.224 349.583 297.713 345.618C299.577 344.84 304.229 341.413 308.051 338.003C311.981 334.497 318.475 330.069 323 327.809C330.725 323.952 331.275 323.83 339 324.252C343.4 324.492 348.784 325.437 350.965 326.35ZM441.345 327.392L443.69 330.836L438.345 335.856C435.405 338.617 432.394 340.889 431.654 340.905C429.997 340.941 424.5 337.12 424.5 335.933C424.5 335.458 425.379 334.79 426.453 334.449C427.528 334.108 430.541 331.602 433.148 328.881C435.756 326.16 438.14 323.937 438.445 323.941C438.75 323.945 440.055 325.497 441.345 327.392ZM218.667 328.081C221.234 328.638 223.989 329.845 224.788 330.764C225.929 332.075 230.5 342.92 230.5 344.316C230.5 344.485 223.637 344.928 215.25 345.301C206.863 345.673 197.075 346.595 193.5 347.35C189.925 348.104 186.852 348.584 186.671 348.416C186.491 348.248 188.411 346.898 190.939 345.417C197.228 341.731 208.827 337.934 213.796 337.934C216.313 337.934 217.533 337.579 216.95 337.015C214.205 334.359 190.662 332.88 183.56 334.917C178.428 336.389 178.691 335.374 184.151 332.638C196.33 326.533 205.779 325.285 218.667 328.081ZM278.493 329.974C278.086 332.195 277.501 334.266 277.192 334.576C276.229 335.538 256.25 336.799 251.25 336.213C247.169 335.734 246.5 335.341 246.5 333.424C246.5 331.333 247.066 331.148 255.483 330.489C260.424 330.103 267.286 328.971 270.733 327.974C279.591 325.411 279.339 325.346 278.493 329.974ZM269.75 342.596C269.063 342.874 267.938 342.874 267.25 342.596C266.563 342.319 267.125 342.092 268.5 342.092C269.875 342.092 270.438 342.319 269.75 342.596ZM263.25 343.623C262.288 343.875 260.712 343.875 259.75 343.623C258.788 343.372 259.575 343.166 261.5 343.166C263.425 343.166 264.212 343.372 263.25 343.623ZM225.817 353.684C225.475 354.646 224.642 356.109 223.965 356.934C222.653 358.532 218.787 365.929 218.607 367.184C218.548 367.597 214.9 371.534 210.5 375.934L202.5 383.934L202.544 378.684C202.627 368.567 203.919 364.795 208.82 360.351C211.297 358.106 215.726 355.323 218.662 354.166C225.357 351.529 226.611 351.445 225.817 353.684ZM200.5 354.414C200.5 354.976 192.923 358.934 191.846 358.934C191.442 358.934 192.636 357.809 194.5 356.434C197.57 354.169 200.5 353.182 200.5 354.414ZM222.5 365.434C221.793 366.286 220.99 366.757 220.715 366.482C220.44 366.207 220.793 365.286 221.5 364.434C222.207 363.582 223.01 363.111 223.285 363.386C223.56 363.661 223.207 364.582 222.5 365.434ZM392.764 369.932C402.852 373.706 407.791 381.592 409.41 396.512C411.927 419.705 411.575 483.05 408.847 497.84L408.219 501.245L406.866 498.664C404.51 494.167 403.624 483.326 402.897 450.087L402.19 417.741L399.919 425.587C397.007 435.649 393.172 446.246 389.975 453.059L387.454 458.434L387.993 453.934C388.289 451.459 389.437 442.684 390.543 434.434C393.742 410.575 394.398 377.911 391.678 377.942C391.305 377.946 390.494 378.959 389.875 380.192C384.611 390.687 366.718 421.934 365.972 421.934C365.409 421.934 372.588 403.159 383.369 376.434C384.478 373.684 385.622 370.646 385.912 369.684C386.56 367.524 386.305 367.515 392.764 369.932ZM294.639 424.06C303.24 426.203 315.07 429.734 320.927 431.907C348.038 441.964 356.33 450.148 357.303 467.806C357.741 475.759 356.28 486.334 354.6 487.372C354.18 487.632 354.041 484.294 354.293 479.954C354.544 475.615 354.419 470.797 354.014 469.249C353.307 466.541 353.233 466.612 352.058 471.131C350.914 475.527 345.817 484.584 344.965 483.733C344.754 483.521 345.004 479.317 345.522 474.391C346.041 469.465 346.472 463.908 346.482 462.044C346.499 458.776 346.385 458.876 343.338 464.784C340.241 470.79 329.775 483.261 330.945 479.551C331.272 478.515 332.233 473.34 333.08 468.051C333.927 462.762 335.268 457.127 336.06 455.53C336.852 453.933 337.5 452.449 337.5 452.232C337.5 451.38 328.497 458.138 318.725 466.325C313.074 471.06 308.23 474.934 307.961 474.934C307.16 474.934 313.477 462.855 317.311 457.054C319.267 454.095 322.429 450.157 324.337 448.304C326.748 445.962 327.313 444.934 326.189 444.934C322.807 444.934 304.737 448.825 298.782 450.835C295.361 451.989 292.213 452.934 291.785 452.934C290.813 452.934 300.279 446.082 303 444.816C304.367 444.18 303.13 444.06 299.097 444.436C291.642 445.132 280.117 448.973 270.719 453.894C264.092 457.364 263.495 457.514 264.082 455.57C265.512 450.834 271.049 441.622 275.049 437.326C279.031 433.051 279.13 432.81 276.647 433.426C270.86 434.863 259.54 439.941 251.488 444.713C246.82 447.48 242.825 449.574 242.611 449.367C241.621 448.407 249.553 437.212 254.331 432.827C257.262 430.136 259.484 427.934 259.268 427.934C259.052 427.934 254.953 429.26 250.159 430.88C241.413 433.837 227.389 440.492 222.25 444.126C217.915 447.191 219.019 444.807 224.99 438.208C234.596 427.593 245.722 421.712 259.5 419.968C269.049 418.76 277.152 419.703 294.639 424.06ZM612.5 427.973C626.543 428.76 663.346 431.999 670.227 433.052C670.652 433.117 669.65 433.514 668 433.934C663.701 435.028 644.469 435.057 634.5 433.984C603.676 430.667 594.566 429.699 583 428.514L570 427.182L582 427.059C588.6 426.991 602.325 427.402 612.5 427.973ZM820.183 428.584C819.808 428.96 819.5 431.255 819.5 433.684C819.5 439.238 821.851 439.064 822.318 433.475C822.63 429.744 821.534 427.233 820.183 428.584ZM676.5 447.358C676.5 453.832 676.165 455.849 675.015 456.29C668.55 458.771 643.172 457.869 608.5 453.925L592 452.049L615 452.509C627.65 452.762 643.175 452.578 649.5 452.099C655.825 451.62 658.685 451.162 655.856 451.081C647.528 450.843 630.843 448.952 624.18 447.49L618 446.135L629 445.916C647.242 445.553 647.864 444.61 631.25 442.503C623.138 441.474 616.5 440.356 616.5 440.02C616.5 439.684 630 439.316 646.5 439.202L676.5 438.996V447.358ZM820.062 442.962C819.762 443.772 819.4 452.084 819.258 461.434L819 478.434L816.234 478.144C814.303 477.941 813.279 478.394 812.842 479.644C812.497 480.628 809.998 486.116 807.287 491.839C800.715 505.712 796.869 517.55 795.458 528.249C794.427 536.065 793.698 538.073 789.027 545.978C783.656 555.067 778.765 566.532 779.812 567.579C780.131 567.898 781.252 566.746 782.302 565.019L784.212 561.879L783.797 567.156C783.41 572.07 783.489 572.3 784.941 570.493C786.405 568.67 786.502 568.852 786.532 573.493C786.561 578.055 786.676 578.285 788.032 576.493C789.485 574.571 789.501 574.571 789.615 576.493C789.678 577.56 789.651 579.218 789.554 580.176C789.432 581.376 789.863 581.732 790.938 581.319C792.08 580.881 792.504 581.354 792.515 583.077C792.528 584.966 792.723 585.136 793.5 583.934C794.255 582.765 794.473 583.041 794.485 585.184C794.5 588.004 795.936 588.919 796.838 586.684C797.115 585.997 797.378 586.42 797.421 587.625C797.464 588.83 797.978 590.111 798.562 590.472C799.146 590.833 800.053 592.258 800.578 593.64C801.365 595.708 801.793 595.936 803.004 594.931C804.237 593.907 804.812 594.495 806.562 598.572C808.975 604.192 811.5 613.372 811.5 616.525C811.5 617.719 810.391 621.642 809.035 625.244C807.68 628.845 805.397 636.436 803.962 642.113C802.527 647.789 800.662 654.315 799.817 656.615C797.926 661.763 798.631 661.627 769 662.576L747 663.281L755 664.583C780.996 668.814 816.052 670.595 842 669.003C860.578 667.863 905.256 662.55 906.37 661.348C906.717 660.974 905.236 660.988 903.08 661.379C898.559 662.197 844.625 662.392 843.825 661.592C843.532 661.3 842.019 655.969 840.462 649.747C837.512 637.957 835.168 630.772 831.607 622.601C829.087 616.821 828.963 613.318 831.088 608.006C832.87 603.553 838.786 598.446 841.123 599.343C843.065 600.088 845.5 597.692 845.5 595.037C845.5 593.634 845.969 593.177 847 593.572C847.95 593.937 848.5 593.559 848.5 592.541C848.5 591.601 849.33 590.934 850.5 590.934C851.6 590.934 852.49 590.372 852.478 589.684C852.438 587.407 848.538 579.753 844.873 574.76C842.886 572.054 841.464 569.637 841.712 569.389C842.301 568.8 847.398 576.026 851.089 582.683C854.076 588.069 856.165 589.69 854.956 585.684C854.249 583.344 850.542 576.766 845.433 568.787L842.457 564.14L843.248 553.287L844.038 542.434L848.387 546.684C850.779 549.021 852.907 550.934 853.118 550.934C853.328 550.934 853.5 549.216 853.5 547.116C853.5 540.434 850.764 533.445 846.128 528.281C842.351 524.075 841.561 522.377 840.154 515.434C837.817 503.906 833.946 494.689 827.578 485.492L822 477.434L822.022 465.684C822.034 458.732 821.646 453.934 821.072 453.934C820.537 453.934 820.64 453.394 821.3 452.734C822.717 451.317 822.869 445.066 821.538 442.962C820.719 441.666 820.542 441.666 820.062 442.962ZM119.899 448.457C133.043 450.921 145.418 453.364 147.399 453.886C149.379 454.408 159.325 456.422 169.5 458.361C202.746 464.696 255.474 475.889 293 484.579C414.638 512.744 436.538 517.215 503.483 527.543C516.366 529.531 561.027 534.585 577 535.863C608.277 538.366 640.192 539.117 686.5 538.441C712.625 538.06 733.733 538.019 733.406 538.351C732.731 539.038 714.872 541.154 693.5 543.08C673.822 544.854 599.269 544.871 578 543.107C520.178 538.311 444.626 525.807 368.5 508.434C355.025 505.359 338.15 501.521 331 499.906C323.85 498.291 308.325 494.698 296.5 491.923C284.675 489.147 271.175 486.039 266.5 485.016C261.825 483.993 252.825 482.003 246.5 480.594C240.175 479.185 221.275 475.288 204.5 471.934C157.073 462.452 142.918 459.389 115.75 452.73C94.536 447.53 90.5 446.256 90.5 444.762C90.5 443.369 91.095 443.091 93.25 443.481C94.763 443.754 106.754 445.994 119.899 448.457ZM555.615 471.572C559.062 475.726 596.129 479.086 640.746 479.289C658.206 479.369 672.494 479.723 672.496 480.077C672.506 481.71 667.681 482.292 650.682 482.708C617.556 483.518 565.175 478.437 555.597 473.484C552.199 471.727 550.5 467.518 550.5 460.858C550.5 457.104 550.875 456.008 552.25 455.741C553.771 455.445 554.039 456.379 554.296 462.87C554.458 466.978 555.052 470.894 555.615 471.572ZM141 460.94C193.026 471.581 225.323 478.714 222 478.829C219.253 478.924 114.545 457.561 112 456.386C109.342 455.159 123.949 457.453 141 460.94ZM675.5 468.434V474.934L657.75 474.825C643.077 474.736 625.033 473.639 629.063 473.081C629.647 473 637.514 472.23 646.544 471.369C655.575 470.508 663.09 469.677 663.246 469.522C663.401 469.367 657.334 468.687 649.764 468.012C642.194 467.337 632.175 466.199 627.5 465.485L619 464.185L625.5 463.945C629.075 463.814 637.85 463.383 645 462.989C652.15 462.595 661.938 462.196 666.75 462.103L675.5 461.934V468.434ZM684.566 462.969C688.099 464.86 686.264 476.934 682.443 476.934C681.924 476.934 681.5 473.559 681.5 469.434C681.5 465.309 681.755 461.934 682.066 461.934C682.377 461.934 683.502 462.4 684.566 462.969ZM829.033 494.559C830.919 497.932 833.134 503.272 833.956 506.426C835.672 513.016 835.258 514.347 829.679 520.184C826.501 523.508 825.544 523.934 821.247 523.934C817.336 523.934 810.5 521.82 810.5 520.611C810.5 520.461 813.418 520.525 816.984 520.752C823.294 521.154 823.564 521.07 826.984 517.65C828.918 515.716 830.5 513.591 830.5 512.928C830.5 512.265 829.194 513.12 827.599 514.828C825.793 516.762 823.717 517.934 822.099 517.934C818.826 517.934 818.847 517.494 822.499 509.774C826.496 501.325 826.396 497.231 822 489.233C820.075 485.731 818.5 482.567 818.5 482.203C818.5 480.363 826.041 489.208 829.033 494.559ZM675.486 490.684C675.459 500.364 676.132 499.95 660.633 499.816C653.135 499.751 645.65 499.354 644 498.934L641 498.171L643.932 498.052C650.958 497.769 664.61 495.58 663.365 494.937C662.614 494.549 657.275 493.635 651.5 492.906C639.423 491.382 639.684 491.232 660 488.013C676.805 485.35 675.502 485.125 675.486 490.684ZM820.021 498.326C821.638 499.508 821.724 499.959 820.59 501.326C818.015 504.429 814.408 502.223 815.862 498.434C816.577 496.569 817.583 496.543 820.021 498.326ZM308.229 498.538C307.897 498.87 307.034 498.906 306.313 498.617C305.515 498.298 305.752 498.061 306.917 498.013C307.971 497.97 308.561 498.206 308.229 498.538ZM316.229 500.538C315.897 500.87 315.034 500.906 314.313 500.617C313.515 500.298 313.752 500.061 314.917 500.013C315.971 499.97 316.561 500.206 316.229 500.538ZM320.229 501.538C319.897 501.87 319.034 501.906 318.313 501.617C317.515 501.298 317.752 501.061 318.917 501.013C319.971 500.97 320.561 501.206 320.229 501.538ZM324.229 502.538C323.897 502.87 323.034 502.906 322.313 502.617C321.515 502.298 321.752 502.061 322.917 502.013C323.971 501.97 324.561 502.206 324.229 502.538ZM348.779 508.329C397.936 520.264 415.676 524.131 441 528.432C452.55 530.394 462.675 532.197 463.5 532.439C464.325 532.68 479.175 534.898 496.5 537.366C532.193 542.451 565.837 546.242 591.5 548.071C617.68 549.938 678.903 549.646 709 547.513C722.75 546.538 734.225 545.672 734.5 545.587C735.639 545.238 735.374 547.129 733.831 550.366C731.945 554.321 732.401 554.2 711 556.409C638.964 563.844 557.311 557.876 465.272 538.448C442.103 533.558 332.097 505.977 326.199 503.579C322.854 502.219 328.555 503.419 348.779 508.329ZM224 513.024C235.55 515.244 249.5 517.95 255 519.036C260.5 520.122 270.175 521.916 276.5 523.022C282.825 524.129 301.725 527.685 318.5 530.925C362.477 539.42 401.982 546.328 429.594 550.352C470.053 556.247 534.547 562.699 575 564.897C598.507 566.174 663.794 566.204 684 564.946C692.25 564.432 704.748 563.702 711.774 563.322L724.548 562.632L722.052 568.033C720.679 571.004 718.935 573.567 718.176 573.729C717.416 573.891 705.366 575.54 691.397 577.394L666 580.764L690.762 580.599C706.936 580.491 715.384 580.781 715.122 581.434C711.236 591.094 711.552 590.7 707.183 591.333C668.141 596.993 625.725 597.346 582 592.376C556.842 589.517 502.214 579.997 464 571.814C437.259 566.087 354.695 546.836 293 531.943C286.4 530.35 272.675 527.037 262.5 524.582C252.325 522.127 235 518.004 224 515.421C213 512.838 201.75 510.099 199 509.336L194 507.947L198.5 508.466C200.975 508.752 212.45 510.803 224 513.024ZM507 514.521C520.2 515.859 534.375 517.421 538.5 517.991C542.625 518.561 555.64 520.36 567.423 521.987C579.205 523.614 589.105 525.23 589.423 525.578C590.754 527.035 554.056 524.794 529.5 521.919C507.321 519.322 465.893 513.048 460.5 511.468C457.011 510.446 484.806 512.271 507 514.521ZM678.018 517.608C677.625 521.279 677.088 524.845 676.824 525.533C676.331 526.818 671.072 526.451 667 524.848C665.243 524.156 665.324 524.053 667.668 523.997C671.642 523.903 673.5 522.93 673.5 520.944C673.5 519.509 672.202 518.99 666.75 518.241L660 517.314L666.75 516.507C670.462 516.064 673.5 515.362 673.5 514.947C673.5 514.532 670.688 513.81 667.25 513.343L661 512.494L668.5 511.894C672.625 511.564 676.615 511.213 677.366 511.114C678.464 510.969 678.593 512.245 678.018 517.608ZM838.548 528.434C840.251 539.369 840.052 559.555 838.133 570.434C837.26 575.384 834.772 584.944 832.604 591.678C830.436 598.412 828.366 605.269 828.004 606.916C827 611.488 825.072 612.031 825.921 607.503C826.343 605.256 826.189 603.265 825.534 602.475C824.724 601.499 824.87 601.006 826.111 600.53C827.657 599.937 827.655 599.763 826.093 598.037C824.604 596.391 824.588 596.114 825.957 595.589C827.934 594.83 827.965 592.934 826 592.934C825.175 592.934 824.5 592.484 824.5 591.934C824.5 591.384 825.175 590.934 826 590.934C828.061 590.934 827.891 588.264 825.75 587C824.153 586.056 824.197 585.911 826.25 585.333C829.038 584.549 829.207 582.934 826.5 582.934C823.803 582.934 823.961 581.345 826.75 580.424L829 579.68L826.75 579.237C823.732 578.644 823.914 577.552 827.25 576.233L830 575.147L827.25 575.04C823.976 574.914 823.753 573.911 826.553 571.905C828.568 570.461 828.555 570.423 825.803 569.844L823 569.253L826 567.934L829 566.615L826 565.937L823 565.258L825.743 564.49C828.744 563.648 828.541 561.934 825.441 561.934C822.324 561.934 823.206 560.252 826.75 559.437L830 558.691L825.588 557.721C822.398 557.021 821.567 556.505 822.588 555.858C823.365 555.367 824.814 554.958 825.809 554.949C828.598 554.926 826.93 553.281 823.271 552.446L820 551.7L823.301 550.933C827.929 549.857 828.34 549.052 824.639 548.312C820.99 547.582 819.41 545.934 822.359 545.934C823.447 545.934 825.16 545.618 826.167 545.232C827.566 544.695 826.938 544.247 823.499 543.33L819 542.13L822.917 542.032C827.405 541.92 826.96 540.941 821.668 539.289L818 538.144L821 537.969C824.761 537.749 828.17 536.459 826.934 535.724C826.42 535.419 824.543 534.857 822.761 534.475C819.42 533.758 817.29 531.934 819.795 531.934C820.572 531.934 822.34 530.921 823.723 529.684C825.106 528.447 827.66 526.66 829.399 525.714C831.137 524.767 833.328 522.653 834.268 521.015C836.418 517.269 836.953 518.195 838.548 528.434ZM301.487 560.454C315.519 562.94 330.6 565.647 335 566.468C342.288 567.83 358.353 570.367 414.5 579.022C523.404 595.809 603.394 602.278 678.75 600.392C697.185 599.93 706.5 600.035 706.5 600.705C706.5 601.259 705.669 602.738 704.654 603.992C703.009 606.024 701.082 606.466 686.904 608.07C678.157 609.06 669.912 609.884 668.583 609.902C667.254 609.919 666.445 610.212 666.784 610.552C667.124 610.891 675.084 610.601 684.473 609.907C693.862 609.213 701.842 608.942 702.205 609.306C703.982 611.082 699.214 612.145 680.433 614.159C663.722 615.95 654.08 616.348 627.5 616.345C591.58 616.34 563.364 614.406 525.5 609.354C466.831 601.524 424.523 593.075 333 570.907C317.6 567.177 300.725 563.131 295.5 561.915C264.769 554.767 266.712 554.293 301.487 560.454ZM769.822 574.968C772.697 584.781 779.907 611.819 781.947 620.434C783.379 626.484 785.67 636.159 787.038 641.934L789.524 652.434L789.072 638.934C788.48 621.262 786.677 614.171 775.96 587.339C772.977 579.873 768.781 571.415 769.822 574.968ZM318.5 597.509C384.566 608.02 455.015 616.71 500 619.896C557.613 623.978 624.227 623.959 680.31 619.844C688.731 619.227 695.879 618.98 696.195 619.295C696.511 619.611 696.213 621.214 695.532 622.856C694.163 626.162 694.764 626.01 675.5 627.944C669.725 628.524 656.45 629.858 646 630.908C613.64 634.16 596.1 635.058 565 635.054C495.829 635.046 438.732 628.115 362 610.414C330.669 603.186 297.138 594.909 296.551 594.258C296.248 593.922 297.575 593.961 299.5 594.345C301.425 594.729 309.975 596.153 318.5 597.509ZM790.961 602.434C791.232 604.084 792.115 609.259 792.925 613.934C793.734 618.609 795.207 627.609 796.198 633.934L798 645.434L798.293 637.625C798.655 627.994 796.353 614.144 792.997 605.752C791.607 602.277 790.691 600.784 790.961 602.434ZM846.187 617.678C843.894 622.573 842.167 628.174 841.505 632.862C839.819 644.806 841.915 643.22 844.982 630.232C846.515 623.743 848.388 616.676 849.145 614.528C851.457 607.966 850.02 609.497 846.187 617.678ZM767.522 615.058C767.51 615.402 768.209 617.652 769.076 620.058C769.942 622.465 772.597 631.169 774.975 639.4C779.336 654.498 781.515 658.472 781.483 651.267C781.452 644.505 778.625 633.633 775.026 626.434C771.803 619.987 767.575 613.578 767.522 615.058ZM851.155 631.911C849.798 638.696 848.622 638.318 868.75 637.576C878.788 637.207 899.6 636.013 915 634.924C930.4 633.835 945.561 632.942 948.691 632.939C951.821 632.936 954.617 632.554 954.904 632.09C955.19 631.626 940.254 630.945 921.713 630.577C903.171 630.209 879.857 629.622 869.905 629.273L851.809 628.637L851.155 631.911ZM119 631.601C109.871 632.041 92.106 633.915 81.5 635.556C67.48 637.726 30.045 645.43 14 649.448L0 652.954L35.5 652.472C104.764 651.532 162.078 654.584 203.5 661.42C245.013 668.271 276.888 676.125 333.5 693.45C453.035 730.034 501.514 740.888 621.442 757.918C639.71 760.512 667.74 763.603 685.955 765.032C702.604 766.338 748.461 765.694 762.5 763.957C789.852 760.573 824.115 753.871 847.5 747.331C863.42 742.878 899.74 730.841 899.121 730.222C898.863 729.964 892.418 731.359 884.799 733.322C860.461 739.594 825.807 746.269 803 749.079C788.392 750.879 726.554 750.923 710 749.146C672.411 745.11 645.463 740.445 587.5 727.941C538.082 717.28 515.821 713.466 482.5 709.95C436.019 705.047 400.952 698.948 363.5 689.253C339.552 683.053 296.132 669.968 296.915 669.186C297.135 668.966 301.52 669.691 306.658 670.798C316.943 673.013 349.599 678.975 364.5 681.358C463.374 697.167 537.39 698.322 619.288 685.333C637.999 682.366 640.488 682.433 659.5 686.414C745.822 704.491 790.97 706.028 865.737 693.436C885.451 690.115 926.995 680.278 922.379 680.023C921.487 679.974 912.037 681.035 901.379 682.38C868.803 686.493 854.609 687.254 822.552 686.609C806.298 686.281 789.175 685.557 784.5 684.998C756.706 681.678 736.723 677.991 707.686 670.827L683.371 664.829L675.686 666.349C656.433 670.157 608.155 675.067 561 678.013C534.869 679.646 478.769 678.651 449.322 676.033C398.207 671.487 364.289 666.271 292 651.836C206.236 634.712 161.952 629.532 119 631.601ZM826.586 647.989C832.249 651.623 840.384 660.139 838.721 660.694C838.082 660.907 833.701 659.424 828.986 657.399C819.637 653.384 819.248 653.384 809.66 657.419C806.172 658.886 803.053 659.82 802.728 659.495C801.19 657.957 816.844 645.113 820.412 644.985C821.189 644.957 823.967 646.309 826.586 647.989ZM848.5 649.787V654.64L853.25 654.291C891.813 651.451 939.103 646.664 940.286 645.481C940.587 645.18 920.058 644.934 894.667 644.934H848.5V649.787ZM706.5 649.816C713.375 650.223 717.425 650.645 715.5 650.755C713.575 650.864 705.7 651.389 698 651.92C627.169 656.808 525.729 659.731 524 656.934C523.624 656.326 525.093 655.934 527.752 655.934C530.155 655.934 545.369 654.59 561.561 652.947C577.752 651.305 596.175 649.54 602.5 649.026C614.696 648.034 685.461 648.572 706.5 649.816ZM92 673.561C78.237 674.323 48.145 676.956 47.66 677.44C47.389 677.712 50.054 677.94 53.583 677.947C84.178 678.011 176.808 691.323 228.5 703.084C235.925 704.774 244.7 706.76 248 707.499C259.446 710.062 285.1 716.768 304.5 722.269C360.259 738.08 383.623 744.518 399.5 748.449C474.545 767.03 539.744 774.264 615.761 772.444C631.58 772.065 645.755 771.384 647.261 770.93C649.39 770.289 648.553 770.086 643.5 770.015C636.877 769.923 594.925 766.762 575 764.854C529.772 760.523 467.996 748.574 405 731.973C398.103 730.155 381.593 725.379 360 718.954C263.171 690.142 220.289 680.294 170.22 675.372C155.441 673.919 106.143 672.778 92 673.561ZM609.297 691.503C588.65 695.616 548.608 699.638 518.741 700.598C507.598 700.956 498.652 701.419 498.86 701.628C499.068 701.836 503.46 702.438 508.619 702.966C526.154 704.76 536.979 706.012 548 707.523C572.032 710.816 608.376 716.254 634.5 720.465C683.059 728.292 691.923 729.536 717 732.043C732.857 733.627 780.633 733.656 797 732.09C824.005 729.507 850.076 725.04 877 718.384C893.368 714.337 912.707 708.808 912.214 708.315C912.025 708.126 903.35 709.737 892.935 711.894C854.828 719.789 849.296 720.346 808.5 720.392C765.901 720.441 744.917 718.604 706.039 711.423C683.938 707.341 641.34 697.174 624.5 691.961C620.925 690.855 617.55 689.998 617 690.058C616.45 690.118 612.984 690.768 609.297 691.503ZM50.5 697.955C44.175 698.346 32.7 699.288 25 700.049L11 701.434L21.5 701.645C82.695 702.878 128.347 709.648 192.985 727.076C209.172 731.44 230.599 737.867 288.5 755.724C367.79 780.177 430.493 792.236 497.5 795.917C517.54 797.017 570.159 797.106 585.5 796.065C594.972 795.423 594.949 795.419 577.5 794.641C490.535 790.769 422.78 777.511 312.5 742.79C296.825 737.855 281.525 732.973 278.5 731.941C275.475 730.909 266.25 728.058 258 725.606C185.369 704.017 141.513 696.748 86 697.096C72.8 697.178 56.825 697.565 50.5 697.955ZM73 731.864C75.2 732.344 80.375 733.273 84.5 733.927C96.229 735.786 147.073 746.55 162.801 750.503C180.325 754.907 211.427 763.468 234 770.102C335.313 799.873 385.627 809.729 465.943 815.535C492.484 817.454 555.488 817.711 579 815.997C603.122 814.238 629.95 811.154 649.773 807.86C668.801 804.699 687.769 800.869 687.202 800.303C687.011 800.112 679.238 801.099 669.928 802.495C643.341 806.483 629.925 807.979 592.5 811.129C571.413 812.904 491.856 812.893 473 811.112C447.641 808.717 420.319 805.063 397 800.95C366.182 795.513 300.304 779.036 255 765.433C198.336 748.419 153.926 738.66 112 734.01C92.294 731.824 66.263 730.391 73 731.864ZM163 773.486C171.03 776.651 237.435 795.754 265 802.828C293.033 810.023 339.342 819.017 355.5 820.405C361.935 820.958 361.9 820.939 352 818.485C346.5 817.122 336.15 814.605 329 812.891C321.85 811.177 294.625 804.466 268.5 797.977C203.608 781.861 156.507 770.927 163 773.486Z" fill="black"/>
</svg>
