<?xml version="1.0" encoding="UTF-8" standalone="no"?>
<!-- Created with Inkscape (http://www.inkscape.org/) -->

<svg
   version="1.1"
   id="svg2"
   width="37.586666"
   height="38.666668"
   viewBox="0 0 37.586666 38.666668"
   sodipodi:docname="emblem_new_crest.eps"
   xmlns:inkscape="http://www.inkscape.org/namespaces/inkscape"
   xmlns:sodipodi="http://sodipodi.sourceforge.net/DTD/sodipodi-0.dtd"
   xmlns="http://www.w3.org/2000/svg"
   xmlns:svg="http://www.w3.org/2000/svg">
  <defs
     id="defs6" />
  <sodipodi:namedview
     id="namedview4"
     pagecolor="#ffffff"
     bordercolor="#000000"
     borderopacity="0.25"
     inkscape:showpageshadow="2"
     inkscape:pageopacity="0.0"
     inkscape:pagecheckerboard="0"
     inkscape:deskcolor="#d1d1d1" />
  <g
     id="g8"
     inkscape:groupmode="layer"
     inkscape:label="ink_ext_XXXXXX"
     transform="matrix(1.3333333,0,0,-1.3333333,0,38.666667)">
    <g
       id="g10"
       transform="scale(0.1)">
      <path
         d="m 89.0664,188.113 v 0 c 4.4102,3.864 10.75,3.778 14.3826,2.657 -2.375,2.921 -7.9334,5.324 -9.5623,5.613 -1.2461,-0.465 -4.8203,-4.137 -4.8203,-8.27"
         style="fill:#100f0d;fill-opacity:1;fill-rule:nonzero;stroke:none"
         id="path12" />
      <path
         d="m 197.523,199.598 c 5.028,-0.762 6.618,-4.164 6.922,-5.203 1.707,1.437 3.285,6.437 2.668,9.718 v 0 c -2.898,15.508 -38.929,5.235 -57.078,11.821 -0.347,-4.52 5.586,-11.762 11.262,-14.446 -9.703,-8.418 -18.414,-25.386 -20.168,-46.113 -1.754,20.727 -10.465,37.695 -20.168,46.113 5.676,2.684 11.613,9.926 11.262,14.446 -18.149,-6.586 -54.18,3.687 -57.0863,-11.821 -0.6094,-3.281 0.9688,-8.281 2.6758,-9.718 0.3047,1.039 1.8984,4.441 6.9219,5.203 25.3866,3.836 46.5816,-35.289 27.4496,-51.11 -0.293,-0.242 -0.129,-0.683 0.265,-0.683 h 57.364 c 0.39,0 0.554,0.441 0.265,0.683 -19.137,15.821 2.059,54.946 27.445,51.11"
         style="fill:#100f0d;fill-opacity:1;fill-rule:nonzero;stroke:none"
         id="path14" />
      <path
         d="m 162.656,105.43 c 0.977,7.058 -3.793,9.09 -8.781,8.261 -0.621,2.43 -1.129,4.551 -1.707,6.653 -0.461,1.699 -0.629,4.894 1.34,4.894 1.062,0 0.637,-2.972 0.535,-4.25 -0.09,-1.125 0.316,-1.804 1.227,-1.836 0.57,-0.023 1.281,0.703 1.703,1.184 2.855,3.23 3.519,8.23 0.172,10.641 -2.797,2.027 -9.809,0.519 -11.739,-2.364 -0.289,1.086 -1.679,2.879 -2.347,3.66 -0.649,0.762 -0.817,1.286 0.082,1.954 0.422,0.324 1.699,1.593 1.699,2.906 0,0.777 -0.602,2.211 -2.516,2.211 -1.508,0 -3.183,-1.043 -3.183,-3.375 0,-0.516 0.125,-1.071 0.461,-1.668 -0.954,0.156 -3.543,0.094 -4.875,-0.235 l 18.386,-50.4566 c 5.266,2.5976 9.121,6.7109 9.121,11.125 0,3.7617 -5.539,2.5156 -8.23,-0.4219 -0.867,4.7734 -1.637,9.1755 -2.477,13.5665 -0.23,1.211 0.383,1.644 1.356,2.012 v 0 c 3.265,1.211 8.383,0.23 8.207,-4.485 -0.039,-1.066 1.457,-1.066 1.566,0.024"
         style="fill:#100f0d;fill-opacity:1;fill-rule:nonzero;stroke:none"
         id="path16" />
      <path
         d="m 213.289,239.703 v 0 c -0.457,1.461 14.43,1.5 14.43,-7.816 0,-6.246 -8.903,-9.203 -8.903,-15.684 0,-3.015 3.247,-5.23 4.243,-5.23 -2.293,10.402 7.187,4.961 9.75,3.015 -5.09,13.989 6.367,13.899 5.238,20.317 -0.785,4.48 -10.742,3.129 -14.348,5.398 -6.39,4.024 -13.957,19.688 -18.941,4.024 9.293,-8.629 3.887,-21.329 -7.914,-21.329 0,0 -0.067,-1.863 0.043,-2.011 14.074,0.691 18.976,11.031 16.402,19.316"
         style="fill:#100f0d;fill-opacity:1;fill-rule:nonzero;stroke:none"
         id="path18" />
      <path
         d="m 188.227,196.383 c -1.637,-0.293 -7.184,-2.692 -9.567,-5.617 3.637,1.125 9.977,1.211 14.383,-2.653 v 0 c 0,4.133 -3.57,7.801 -4.816,8.27"
         style="fill:#100f0d;fill-opacity:1;fill-rule:nonzero;stroke:none"
         id="path20" />
      <path
         d="m 133.75,104.34 c -0.969,-2.891 -0.367,-7.8673 1.531,-9.5822 -3.301,0 -7.218,-0.6172 -9.183,-2.0156 h -0.004 c -0.469,2.5703 3.105,7.1641 7.656,11.5978 z M 120.473,93.918 c -0.789,-1.1875 -1.172,-3.2188 -1.172,-4.086 0,-5 5.957,-6.0078 8.234,-4.9492 6.578,-6.3672 19.5,-4.668 23.824,-2.5312 l -22.75,62.4214 c -0.464,1.18 -2.132,0.618 -1.722,-0.609 v 0 l 3.859,-10.73 c -3.308,-0.789 -8.625,-3.2 -8.625,-6.395 0,-4.25 7.524,-7.019 11.871,-6.687 -0.215,-0.969 0.035,-1.832 0.711,-2.625 -1.578,0 -4.555,-0.735 -5.535,-1.786 -2.305,2.149 -5.914,2.93 -7.629,1.622 -1.726,-1.321 -1.777,-3.551 0.024,-6.075 1.253,-1.746 1.722,-3.468 0.316,-5.496 5.242,0 3.309,6.817 5.363,6.817 -0.269,-1.321 -0.101,-2.848 0.492,-4.547 0.399,-1.125 0.399,-1.926 -0.281,-3.012 -1.691,-2.703 -4.32,-8.9141 -3.965,-14.5312 -1.718,0.0117 -2.593,0.4296 -1.988,2.7773 0.227,0.875 -0.312,1.5 -1.027,0.4219"
         style="fill:#100f0d;fill-opacity:1;fill-rule:nonzero;stroke:none"
         id="path22" />
      <path
         d="m 226.605,77.6094 v -0.0039 0.0039"
         style="fill:#100f0d;fill-opacity:1;fill-rule:nonzero;stroke:none"
         id="path24" />
      <path
         d="m 90.6875,220.387 v 0 0 z"
         style="fill:#100f0d;fill-opacity:1;fill-rule:nonzero;stroke:none"
         id="path26" />
      <path
         d="m 278.93,163.949 v 0 c -3.516,-1.781 -24.133,-11.437 -50.543,-7.867 0.273,1.262 0.504,2.527 0.695,3.805 17.574,2.101 31.863,5.082 40.973,10.148 10.379,5.778 14.918,19.567 9.675,29.828 -0.132,0.258 -0.507,0.305 -0.699,0.09 -2.871,-3.305 -20.922,-22.945 -49.363,-29.047 -0.07,1.473 -0.207,2.942 -0.402,4.403 13.812,7.836 27.297,16.859 33.722,25.113 9.707,12.48 8.813,28.394 -0.425,36.512 -0.094,0.082 -0.219,0.121 -0.348,0.101 -0.125,-0.015 -0.235,-0.09 -0.305,-0.195 -2.922,-4.82 -30.277,-49.035 -60.312,-68.121 -0.364,-0.235 -0.735,-0.465 -1.106,-0.688 -0.863,-0.523 -0.957,-1.64 -0.222,-2.308 3.46,-3.137 5.613,-7.504 5.613,-12.352 0,-8.43 -6.496,-15.441 -15.086,-16.961 -4.363,-0.847 -10.668,-0.601 -16.719,1.399 -0.273,0.089 -0.555,-0.09 -0.555,-0.364 v -26.699 c 0,-0.43 0.657,-0.535 0.809,-0.125 3.68,9.746 14.691,11.817 19.508,11.817 1.734,-10.418 4.832,-19.047 8.851,-23.6919 6.551,-7.5469 17.247,-7.4375 21.883,-2.2227 0.078,0.086 0.11,0.2032 0.09,0.3164 -0.019,0.1133 -0.09,0.2149 -0.191,0.2696 -2.727,1.5664 -18.317,11.1366 -21.438,26.8206 1.235,0.425 2.434,0.906 3.586,1.476 5.031,-8.328 12.356,-15.746 18.254,-18.578 9.906,-4.754 18.973,-2.441 22.996,4.512 0.145,0.246 -0.031,0.551 -0.328,0.578 -6.129,0.492 -24.934,5.879 -32.938,19.012 0.915,0.84 1.813,1.718 2.649,2.652 8.379,-6.379 20.223,-12.016 28.707,-13.168 9.922,-1.348 21.164,1.816 21.437,13.356 0.004,0.234 -0.203,0.421 -0.445,0.406 -3.527,-0.211 -26.887,-1.227 -43.527,8.324 0.578,1.102 1.113,2.219 1.613,3.355 0,0 25.149,-5.941 37.063,-3.972 11.843,1.953 18.777,10.781 17.437,21.762 -0.035,0.273 -0.355,0.433 -0.609,0.304"
         style="fill:#100f0d;fill-opacity:1;fill-rule:nonzero;stroke:none"
         id="path28" />
      <path
         d="m 56.875,145.855 v 0 c 0.5,-1.136 1.0391,-2.257 1.6211,-3.355 -16.6367,-9.547 -39.9844,-8.539 -43.5273,-8.324 -0.25,0.015 -0.4571,-0.184 -0.4532,-0.41 0.2774,-11.536 11.5196,-14.703 21.4414,-13.352 8.4766,1.149 20.3282,6.789 28.7032,13.164 0.8398,-0.933 1.7343,-1.808 2.6484,-2.652 C 59.3008,117.797 40.5,112.41 34.3711,111.918 c -0.293,-0.027 -0.4688,-0.332 -0.3281,-0.578 4.0234,-6.953 13.0937,-9.266 23,-4.516 5.8945,2.836 13.2187,10.254 18.25,18.578 1.1562,-0.566 2.3593,-1.047 3.5859,-1.472 C 75.7578,108.246 60.168,98.6719 57.4453,97.1055 c -0.1015,-0.0547 -0.1719,-0.1524 -0.1914,-0.2657 -0.0195,-0.1132 0.0117,-0.2304 0.0859,-0.3164 4.6368,-5.2187 15.336,-5.3242 21.8868,2.2227 4.0234,4.6449 7.1132,13.2739 8.8476,23.6919 4.8203,0 15.8278,-2.071 19.5078,-11.817 0.16,-0.41 0.813,-0.305 0.813,0.125 v 26.699 c 0,0.274 -0.286,0.453 -0.559,0.364 -6.051,-2 -12.3516,-2.246 -16.711,-1.399 -8.5937,1.52 -15.0937,8.531 -15.0937,16.961 0,4.848 2.1562,9.219 5.6132,12.359 0.7383,0.661 0.6407,1.778 -0.2148,2.301 -0.375,0.227 -0.75,0.453 -1.1172,0.688 -30.0156,19.078 -57.3594,63.261 -60.3047,68.113 -0.1367,0.227 -0.4648,0.273 -0.668,0.098 -9.2226,-8.121 -10.12105,-24.032 -0.4101,-36.508 6.4219,-8.25 19.9062,-17.277 33.7148,-25.113 -0.1953,-1.461 -0.3281,-2.93 -0.3984,-4.403 -28.418,6.102 -46.45704,25.707 -49.35547,29.032 -0.19141,0.226 -0.57813,0.179 -0.71094,-0.079 -5.22657,-10.261 -0.6875,-24.046 9.68361,-29.824 9.1055,-5.062 23.3945,-8.043 40.9726,-10.148 0.1875,-1.274 0.418,-2.543 0.6914,-3.801 -26.3828,-3.57 -46.98824,6.066 -50.53121,7.859 -0.26562,0.133 -0.58203,-0.031 -0.61718,-0.308 -1.33203,-10.981 5.59765,-19.801 17.43749,-21.754 11.9102,-1.969 37.0586,3.972 37.0586,3.972"
         style="fill:#100f0d;fill-opacity:1;fill-rule:nonzero;stroke:none"
         id="path30" />
      <path
         d="m 49.1094,213.988 v 0 c 2.5586,1.946 12.0429,7.387 9.7539,-3.015 0.9922,0 4.2383,2.215 4.2383,5.23 0,6.481 -8.9063,9.438 -8.9063,15.684 0,9.316 14.8867,9.277 14.4297,7.816 -2.5703,-8.285 2.3359,-18.629 16.4102,-19.316 0.1015,0.148 0.0351,2.011 0.0351,2.011 -11.793,0 -17.1992,12.7 -7.9101,21.329 -4.9883,15.664 -12.5508,0 -18.9454,-4.024 -3.6054,-2.273 -13.5625,-0.918 -14.3437,-5.398 -1.125,-6.418 10.3242,-6.328 5.2383,-20.317"
         style="fill:#100f0d;fill-opacity:1;fill-rule:nonzero;stroke:none"
         id="path32" />
      <path
         d="m 178.66,242.18 c 0,-3.563 2.266,-6.141 3.453,-6.907 1.11,0.766 3.453,3.344 3.453,6.907 0,0.898 -1.226,2.879 -3.453,2.879 -2.23,0 -3.453,-1.981 -3.453,-2.879"
         style="fill:#100f0d;fill-opacity:1;fill-rule:nonzero;stroke:none"
         id="path34" />
      <path
         d="m 134.855,281.051 3.872,0.422 -0.407,-4.578 h 5.258 l -0.406,4.578 3.871,-0.422 v 4.988 l -3.871,-0.422 0.406,4.383 h -5.258 l 0.407,-4.383 -3.872,0.422 v -4.988"
         style="fill:#100f0d;fill-opacity:1;fill-rule:nonzero;stroke:none"
         id="path36" />
      <path
         d="m 136.035,268.734 c 0,-5.058 3.219,-8.718 4.903,-9.808 1.574,1.09 4.902,4.75 4.902,9.808 0,1.274 -1.738,4.086 -4.902,4.086 -3.165,0 -4.903,-2.812 -4.903,-4.086"
         style="fill:#100f0d;fill-opacity:1;fill-rule:nonzero;stroke:none"
         id="path38" />
      <path
         d="m 108.867,220.414 c 15.313,0 22.196,9.395 24.278,17.543 3.445,0 6.507,0 15.593,0 2.082,-8.148 8.965,-17.543 24.282,-17.543 h 18.207 c 2.558,2.559 4.988,6.895 4.988,11.32 0,6.371 -6.102,6.442 -7.793,6.438 -1.18,-4.906 -4.426,-7.18 -6.25,-8.07 -1.938,0.839 -5.207,2.992 -6.383,8.086 -1.75,-0.028 -7.766,-0.106 -7.766,-6.454 0,-1.386 0.313,-3.004 1.004,-4.859 0.368,-0.984 1.246,-2.434 2.078,-3.703 -6.46,0.887 -14.707,5.308 -16.515,14.785 0,0 4.773,7.582 5.973,10.652 4.304,11.036 -2.688,15.723 -10.727,15.723 -1.121,-5.23 -4.805,-9.004 -8.902,-10.836 -4.094,1.832 -7.766,5.606 -8.887,10.836 -8.039,0 -15.027,-4.687 -10.727,-15.723 1.2,-3.07 5.977,-10.652 5.977,-10.652 -1.813,-9.477 -10.059,-13.898 -16.52,-14.785 0.832,1.269 1.711,2.719 2.078,3.703 0.692,1.855 1.004,3.473 1.004,4.859 0,6.348 -6.015,6.426 -7.765,6.454 -1.176,-5.094 -4.446,-7.247 -6.3792,-8.086 -1.8242,0.89 -5.0703,3.164 -6.25,8.07 -1.6953,0.004 -7.7968,-0.067 -7.7968,-6.438 0,-4.425 2.4297,-8.761 4.9883,-11.32 h 18.2107"
         style="fill:#100f0d;fill-opacity:1;fill-rule:nonzero;stroke:none"
         id="path40" />
      <path
         d="m 186.801,255.387 -3.008,-0.328 0.316,3.601 h -3.976 l 0.32,-3.601 -3.008,0.328 v -3.778 l 3.008,0.329 -0.32,-3.602 h 3.976 l -0.316,3.602 3.008,-0.329 v 3.778"
         style="fill:#100f0d;fill-opacity:1;fill-rule:nonzero;stroke:none"
         id="path42" />
      <path
         d="m 101.75,258.66 h -3.9727 l 0.3125,-3.601 -3.0039,0.328 v -3.778 l 3.0039,0.329 -0.3125,-3.602 h 3.9727 l -0.316,3.602 3.007,-0.329 v 3.778 l -3.007,-0.328 0.316,3.601"
         style="fill:#100f0d;fill-opacity:1;fill-rule:nonzero;stroke:none"
         id="path44" />
      <path
         d="m 96.3164,242.18 c 0,-3.563 2.3438,-6.141 3.4531,-6.907 1.1875,0.766 3.4575,3.344 3.4575,6.907 0,0.898 -1.227,2.879 -3.4575,2.879 -2.2265,0 -3.4531,-1.981 -3.4531,-2.879"
         style="fill:#100f0d;fill-opacity:1;fill-rule:nonzero;stroke:none"
         id="path46" />
      <path
         d="m 215.258,79.957 3.347,0.3633 -0.351,-3.9531 h 4.543 l -0.352,3.9531 3.344,-0.3633 v 4.3125 l -3.344,-0.3632 0.352,3.7851 h -4.543 l 0.351,-3.7851 -3.347,0.3632 V 79.957"
         style="fill:#100f0d;fill-opacity:1;fill-rule:nonzero;stroke:none"
         id="path48" />
      <path
         d="M 223.086,72.9063 V 60.9805 h -2.668 -0.004 -2.449 v 11.9531 c -6.942,-0.9297 -12.531,-5.7383 -14.141,-11.9883 -5.543,-0.75 -20.492,2.5742 -19.035,4.7852 16.469,23.164 3.871,36.9535 -11.266,36.1875 V 86.3594 c 0,-4.9961 -4.359,-9.043 -9.73,-9.043 H 153.34 c -7.5,0 -12.383,-7.5391 -12.383,-7.5391 0,0 -4.883,7.5391 -12.379,7.5391 h -10.457 c -5.375,0 -9.723,4.0469 -9.723,9.043 V 101.918 C 93.2578,102.684 80.6484,88.8906 97.125,65.7266 c 1.4453,-2.1875 -14,-5.6953 -21.2422,-4.8086 -1.9101,1.9765 -4.664,3.2265 -7.7461,3.2265 -1.3086,0 -2.6094,-0.2343 -3.8359,-0.6914 0,0 -28.4688,26.9532 -28.9922,27.2188 l 0.2344,0.5469 c 1.6211,3.0312 -0.8594,6.3359 -2.4297,6.1015 1.8242,2.1875 1.9101,11.7577 -8.2031,13.9727 0.2968,-1.922 0.4453,-5.848 0.4453,-5.848 0,0 -7.8047,4.219 -11.7227,0.578 -3.4414,-4.074 1.336,-11.4683 1.336,-11.4683 0,0 -3.9922,-0.0977 -5.96099,0.0664 2.89449,-9.7852 12.60159,-9.0938 14.69919,-7.1602 -0.1367,-1.5586 3.375,-3.7773 6.3477,-1.9961 l 1.3086,0.6329 c 0.2305,-0.3125 27.957,-26.5079 27.957,-26.5079 -1.2734,-1.8906 -1.8789,-4.207 -1.4609,-6.6835 0.6562,-3.8633 3.875,-7.0665 7.9883,-7.8946 2.9023,-0.5859 5.6328,-0.0195 7.8203,1.2617 l 7.3398,-6.8125 c 0.6563,-0.5937 1.5391,-0.9648 2.5235,-0.8945 1.7968,0.1211 3.1406,1.5781 3.0039,3.2461 -0.0586,0.7539 -0.4414,1.3984 -0.9727,1.8867 -0.1172,0.1328 -7.4766,6.961 -7.4766,6.961 6.0704,4.2578 17.3789,7.2578 26.7691,7.2578 1.649,0 2.422,1.3945 1.856,2.7656 -4.254,10.2266 4.891,17.6328 14.348,11.6016 4.129,-2.6289 8.32,-7.8086 11.476,-16.4493 C 117.016,52.0742 97.5313,41.7227 93.5859,30.4258 92.0703,26.0625 97.082,20.1133 103.172,18.9141 c 0.109,-0.0235 0.223,-0.0039 0.312,0.0586 0.094,0.0586 0.161,0.1562 0.18,0.2617 3.184,16.8711 21.324,29.4414 30.766,31.5742 0.472,-1.2695 0.316,-0.8594 0.793,-2.125 -10.282,-4.8633 -20.25,-15.1172 -23.102,-27.3086 -1.305,-5.582 4.922,-10.6172 10.063,-11.99219 0.257,-0.07031 0.511,0.10938 0.527,0.35938 0.977,15.41801 7.785,28.51171 13.883,34.46871 0.168,-1.164 0.293,-2.3359 0.375,-3.5078 0,0 -6.242,-17.4023 -6.242,-30.0976 0,-5.90628 8.777,-10.027375 10.074,-10.6055 1.621,0.578125 10.39,4.69922 10.39,10.6055 0,12.6992 -6.242,30.0976 -6.242,30.0976 0.082,1.1719 0.211,2.3438 0.379,3.5078 6.094,-5.957 12.906,-19.0468 13.883,-34.46481 0.012,-0.25 0.269,-0.43359 0.523,-0.36328 5.145,1.37499 11.368,6.41019 10.067,11.99219 -2.856,12.1914 -12.821,22.4453 -23.102,27.3086 0.473,1.2656 0.317,0.8555 0.789,2.125 9.446,-2.1328 27.582,-14.7031 30.766,-31.5742 0.019,-0.1055 0.086,-0.2031 0.18,-0.2617 0.089,-0.0586 0.203,-0.0821 0.312,-0.0586 6.082,1.1992 11.106,7.1484 9.578,11.5078 -3.929,11.3008 -23.422,21.6523 -38.941,25.4101 3.164,8.6446 7.355,13.8243 11.48,16.4532 9.453,6.0312 18.598,-1.3789 14.344,-11.6055 -0.57,-1.3672 0.203,-2.7617 1.856,-2.7617 10.523,0 23.46,-3.7696 28.734,-8.8438 2.984,-4.6054 8.418,-7.6875 14.625,-7.6875 9.426,0 17.066,7.1016 17.066,15.8555 0,7.918 -6.246,14.4766 -14.402,15.6641"
         style="fill:#100f0d;fill-opacity:1;fill-rule:nonzero;stroke:none"
         id="path50" />
    </g>
  </g>
</svg>
