<?xml version="1.0" encoding="UTF-8" standalone="no"?>
<svg xmlns="http://www.w3.org/2000/svg" xmlns:xlink="http://www.w3.org/1999/xlink" width="60.332mm" height="60.345mm" viewBox="-166.166199 -809.172302 60.332413 60.344604">
    <path transform="matrix(-1,0,0,-1,0,0)" style="stroke:none;fill:#500a78;fill-rule:evenodd" d="M108.387192,763.294983C108.437843,755.337891,108.598335,748.827637,108.743835,748.827698C108.889343,748.82782,121.309975,748.827881,136.345245,748.827881L163.682114,748.827881L163.682114,763.295105L163.682114,777.76239L153.011917,777.669006L142.341721,777.575684L142.266541,764.524536L142.191345,751.473389L136.009811,751.377075L129.828278,751.280762L129.735794,764.428223L129.643311,777.575684L118.9692,777.669006L108.29509,777.76239L108.387192,763.294983z"/>
    <path transform="matrix(-1,0,0,-1,0,0)" style="stroke:none;fill:#500a78;fill-rule:evenodd" d="M116.402351,808.351685C113.345482,806.810181,112.387108,802.664429,114.245514,799.021667C115.029533,797.484863,117.957146,794.683228,118.779045,794.683228C119.054184,794.683228,119.181198,794.524536,119.061302,794.330505C118.928719,794.115967,116.294556,793.977783,112.338539,793.977783L105.833786,793.977783L105.833786,787.094788L105.833786,780.211792L117.738548,780.304688L129.643311,780.397522L129.707184,786.570374L129.771042,792.743225L135.960022,792.839478L142.149017,792.935791L142.245361,786.666626L142.341721,780.397522L154.253952,780.304626L166.166199,780.211792L166.070526,787.182983L165.974884,794.154175L159.581894,794.027771C153.114227,793.899963,151.675232,794.153564,153.822159,795.042847C156.256073,796.051025,158.743835,800.142334,158.743835,803.136963C158.743835,805.078918,157.394958,807.421753,155.745605,808.344421C153.735901,809.468689,150.494675,809.445618,148.215897,808.290894C146.035126,807.185791,144.567169,805.524353,142.071594,801.336609C138.816269,795.873901,136.508972,794.354858,133.990173,796.016052C132.779388,796.814575,132.137436,797.653381,129.647552,801.690552C127.012611,805.96283,125.954811,807.135193,123.738235,808.239746C121.357201,809.42627,118.616295,809.468079,116.402351,808.351685zM122.772583,805.966858C123.695694,805.495911,124.728279,804.441956,125.844955,802.830933C127.52002,800.414307,130.230408,796.193298,130.479858,795.612793C130.662964,795.186646,123.228661,795.5672,121.627525,796.065918C118.716965,796.972473,115.710327,800.358276,115.710327,802.72937C115.710327,803.971802,116.694077,805.825562,117.580719,806.253967C118.848862,806.866638,121.271431,806.732666,122.772583,805.966858zM154.301071,806.274597C155.152145,805.88678,156.276779,804.073486,156.272736,803.09552C156.267685,801.873291,155.435028,799.845947,154.501282,798.782471C153.935089,798.137573,152.475479,797.156433,151.257736,796.602051C149.367599,795.741577,148.488876,795.573364,145.25177,795.452393C143.166229,795.374451,141.459885,795.394287,141.459885,795.496399C141.459885,795.836304,146.482483,803.664368,147.240082,804.50531C148.954025,806.407715,152.215332,807.224915,154.301071,806.274597z"/>
</svg>
