<?xml version="1.0" encoding="UTF-8" standalone="no"?>
<svg xmlns="http://www.w3.org/2000/svg" xmlns:xlink="http://www.w3.org/1999/xlink" width="159.508mm" height="171.421mm" viewBox="-439.753754 -1078.710449 159.507507 171.420837">
    <path transform="matrix(-1,0,0,-1,0,0)" style="stroke:none;fill:#000000;fill-rule:evenodd" d="M310.439514,1075.453491C309.493805,1074.921631,309.244873,1074.140137,309.013397,1070.97583C308.748657,1067.356812,308.673584,1066.803589,308.141541,1064.554077C307.546509,1062.038086,306.834473,1060.813965,305.408752,1059.855957C303.465179,1058.549927,301.319122,1058.122925,294.341766,1057.654175C292.787476,1057.549805,292.381775,1057.44458,291.868591,1057.012695C290.984863,1056.269043,290.698395,1055.265137,291.097443,1054.310181C291.647461,1052.993774,292.222931,1052.806641,296.593048,1052.523804C302.107178,1052.166992,304.270355,1051.544189,306.356262,1049.712646C307.707184,1048.526611,308.986328,1043.194336,309.016602,1038.622681C309.031738,1036.337036,309.292725,1035.33606,310.049896,1034.659546C311.163818,1033.664307,312.946411,1033.998779,313.662872,1035.337402C313.776611,1035.550049,313.969086,1037.090576,314.090576,1038.760864C314.37558,1042.679443,314.795837,1045.129883,315.588684,1047.49646C316.336212,1049.727661,316.407257,1049.828979,317.673767,1050.468872C320.017578,1051.653076,323.118225,1052.325439,327.869415,1052.679688C329.220154,1052.780396,330.535034,1052.975098,330.791412,1053.112305C331.395782,1053.435791,332.080078,1054.565552,332.080078,1055.239868C332.080078,1055.902344,331.399292,1057.042236,330.817719,1057.353516C330.575806,1057.48291,329.022766,1057.678589,327.366516,1057.78833C323.657959,1058.034058,322.89035,1058.13562,320.777313,1058.660278C317.863312,1059.383911,316.39505,1060.397339,315.612152,1062.225586C314.946625,1063.779663,314.489319,1066.032349,314.280029,1068.78772C313.84552,1074.508179,313.883026,1074.277832,313.275879,1074.957275C312.587799,1075.727295,311.320648,1075.948975,310.439514,1075.453491z"/>
    <path transform="matrix(-1,0,0,-1,0,0)" style="stroke:none;fill:#000000;fill-rule:evenodd" d="M358.436432,1078.338867C356.742188,1077.560791,356.436676,1076.853516,355.578979,1071.723633C355.221436,1069.584961,354.447449,1065.746216,353.85907,1063.193115C350.242188,1047.498779,346.245728,1036.878906,340.946716,1028.880981C335.217804,1020.234192,329.612854,1015.170105,320.5448,1010.447815C311.725281,1005.854919,302.297516,1002.991699,286.492828,1000.106201C282.035431,999.292419,281.346436,998.990601,280.639038,997.54187C279.688354,995.594727,280.489899,993.577271,282.557373,992.713379C282.967224,992.542114,285.14566,992.057922,287.398407,991.637329C302.350159,988.845825,314.428833,984.749084,322.979187,979.569336C327.114166,977.064392,329.937286,974.851013,333.107941,971.628235C340.149475,964.470886,344.399475,956.916382,348.770355,943.787781C350.102051,939.787842,351.957062,933.497131,352.527008,931.04834C353.511505,926.818359,355.007874,918.802246,355.586731,914.657471C356.022186,911.539246,356.38089,909.679504,356.647736,909.156433C357.926025,906.650757,361.586243,906.671875,362.889648,909.192383C363.060242,909.522278,363.39267,911.106506,363.628418,912.712891C365.510986,925.54126,367.692444,935.016785,371.07486,945.057861C373.150452,951.219421,375.631989,956.573486,378.662598,961.428711C382.308044,967.268921,388.406677,974.043945,392.835266,977.173157C403.066711,984.40271,415.574829,988.885315,433.427429,991.720581C435.513367,992.051819,437.516388,992.476135,437.878662,992.663452C439.418793,993.4599,440.164581,995.390991,439.524048,996.92395C438.769806,998.729187,438.199219,999.009949,433.954407,999.664551C428.022369,1000.579346,417.693542,1003.026428,412.045227,1004.855225C408.015625,1006.159973,405.605591,1007.1521,401.196808,1009.321106C391.648651,1014.018677,385.909058,1018.590149,380.487457,1025.815674C373.162476,1035.577881,367.591492,1051.026001,364.379761,1070.481201C363.966553,1072.984375,363.537567,1075.345459,363.426514,1075.727905C363.076141,1076.934814,362.370514,1077.84375,361.43103,1078.298584C360.321106,1078.835938,359.541656,1078.846313,358.436432,1078.338867zM360.357819,1051.993042C362.703796,1041.821899,366.791565,1032.302856,372.673157,1023.314636C378.204651,1014.86145,386.594025,1007.677856,397.071075,1002.423462C401.733948,1000.0849,408.428558,997.464417,412.733643,996.292603C413.723267,996.023254,414.390076,995.754639,414.215454,995.695679C414.040771,995.636719,412.897705,995.284119,411.675232,994.912048C406.814087,993.432739,399.456238,990.250671,395.041718,987.718567C389.22467,984.38208,385.362854,981.507935,381.384033,977.553833C374.716003,970.927307,370.138336,963.703613,365.641846,952.712219C364.075317,948.882874,361.744568,941.871094,360.678833,937.781555C359.877045,934.704895,359.600708,933.892212,359.600708,934.610718C359.600708,934.891907,359.141052,936.42627,356.502808,944.952026C354.671753,950.869202,351.196198,959.298096,348.794189,963.646851C347.161194,966.603394,344.800873,970.149048,342.779022,972.682739C340.86731,975.078491,335.579498,980.452393,333.351746,982.263428C329.613342,985.302612,324.560608,988.130493,317.369537,991.208313C313.604187,992.819885,305.827393,995.544739,304.993195,995.544739C304.756348,995.544739,304.562592,995.640015,304.562592,995.756409C304.562592,995.872864,304.735229,995.96814,304.946228,995.96814C305.157227,995.96814,306.800415,996.453674,308.597778,997.047119C322.109833,1001.508545,331.80954,1007.011902,339.007843,1014.300964C343.27948,1018.626465,345.161102,1021.045044,348.707581,1026.768799C352.256989,1032.497192,356.764526,1043.49231,359.092834,1052.101196C359.428925,1053.343872,359.735443,1054.328979,359.773987,1054.290405C359.812561,1054.251953,360.075256,1053.218018,360.357819,1051.993042z"/>
</svg>
