<?xml version="1.0" encoding="UTF-8" standalone="no"?>
<svg xmlns="http://www.w3.org/2000/svg" xmlns:xlink="http://www.w3.org/1999/xlink" width="113.578mm" height="128.059mm" viewBox="-467.788818 -682.029358 113.577637 128.058655">
    <path transform="matrix(-1,0,0,-1,0,0)" style="stroke:none;fill:#000000;fill-rule:evenodd" d="M379.34967,681.491211C374.895447,679.157104,374.807281,672.912476,379.106689,664.281799L380.122589,662.242432L379.133057,662.080322C372.465729,660.987793,366.794678,658.328003,362.611786,654.331665C358.121796,650.041992,355.598145,645.444153,354.590363,639.717529C353.399841,632.952637,354.976654,626.031067,359.109497,619.880249C359.745117,618.934265,361.327118,616.887634,362.625,615.332275C366.247711,610.990845,367.901581,608.253662,368.920227,604.913391C369.593781,602.704834,369.596222,596.841125,368.92453,594.639587C368.191162,592.235901,366.712433,589.410706,365.146118,587.420593C363.309021,585.086487,363.09726,584.585388,363.470367,583.454834C363.807281,582.434021,364.393616,582.039551,365.574097,582.039551C366.760742,582.039551,367.209198,582.352905,368.69165,584.217651C373.460205,590.216064,375.28476,597.509888,373.807343,604.66803C372.739563,609.841553,370.859009,613.243469,365.812866,619.130493C362.924072,622.50061,361.32251,625.22113,360.119781,628.80127C359.100372,631.835632,358.926178,636.852783,359.730957,640.000122C362.138733,649.416687,369.799835,656.06366,379.954315,657.546509L382.283569,657.886597L383.445557,656.090332C384.084656,655.102417,386.080292,652.353149,387.880341,649.980835C392.209961,644.274841,394.915466,640.191284,400.897949,630.332764C413.776062,609.110962,416.085815,605.300842,422.072815,595.402893C425.594147,589.581238,429.224182,583.627319,430.139557,582.171875C431.054932,580.716492,433.099762,577.405151,434.683655,574.813416C437.974976,569.427856,437.957367,569.455811,441.292053,564.309998C442.659668,562.199646,444.431458,559.415588,445.229401,558.12323C447.687805,554.141418,448.94104,553.216003,450.116302,554.514709C450.574249,555.020691,450.569611,555.09906,449.987427,556.697815C449.655304,557.609863,447.182495,562.761963,444.492279,568.146973C441.802094,573.532043,438.915283,579.366882,438.077148,581.113403C435.411438,586.668274,431.928772,593.804321,427.099792,603.60614C424.518494,608.845581,421.898193,614.204163,421.276917,615.514038C420.65567,616.823914,416.788513,624.683105,412.683289,632.978943C408.578033,641.274841,404.94339,648.717285,404.606262,649.517761C403.823303,651.376953,401.297821,658.234741,401.297821,658.501709C401.297821,658.612976,402.008392,658.77832,402.876862,658.86908C408.967346,659.505676,417.317322,662.278015,425.488098,666.376404C431.877441,669.581299,435.779388,670.672485,440.882385,670.681641C446.648804,670.691956,451.375031,668.888367,455.329346,665.168457C459.593353,661.157166,461.5672,657.491455,462.545624,651.767029C462.76947,650.457153,462.953033,648.661926,462.953491,647.77771C462.954468,645.957153,463.509369,645.159546,464.979706,644.86554C465.645264,644.732422,465.966248,644.859497,466.788818,645.581726L467.788818,646.459717L467.637512,649.774902C467.260315,658.039124,463.254333,665.71228,456.773621,670.583923C454.626953,672.197632,450.34137,674.25885,447.768463,674.9151C442.45517,676.270386,437.782928,676.192078,432.52301,674.659546C429.320923,673.726624,428.322205,673.320618,422.840515,670.72345C415.209351,667.107849,408.801636,664.904907,403.169708,663.960754C399.345886,663.319763,399.770874,663.080322,397.993652,666.876343C396.283295,670.529541,393.438141,675.093262,391.588318,677.150696C388.740875,680.317749,386.005219,681.797791,382.648621,681.987305C380.798492,682.091736,380.37381,682.027893,379.34967,681.491211zM387.630981,672.296631C389.259949,670.743286,391.80957,667.146729,393.114746,664.561157C393.540283,663.71814,393.888458,662.965515,393.888458,662.888611C393.888458,662.595581,391.022827,662.76593,389.564911,663.145691C388.726746,663.364014,387.987274,663.542603,387.9216,663.542603C387.579712,663.542603,387.902283,662.725342,388.728363,661.498718C389.237762,660.74231,389.654541,660.005249,389.654541,659.860779C389.654541,659.495361,391.295898,659.073669,393.491516,658.874939C394.510315,658.782776,395.486023,658.595459,395.659729,658.45874C396.038361,658.160767,396.985352,655.36499,397.20929,653.883972C397.354584,652.922974,397.283234,652.742554,396.43457,651.925049L395.499817,651.024536L394.279358,651.490601C390.799744,652.819519,383.436584,665.29541,382.392303,671.631653C382.172302,672.966553,382.756836,673.811768,384.103882,674.106384C385.264374,674.360229,385.703125,674.135132,387.630981,672.296631z"/>
</svg>
