<?xml version="1.0" encoding="UTF-8" standalone="no"?>
<svg xmlns="http://www.w3.org/2000/svg" xmlns:xlink="http://www.w3.org/1999/xlink" width="144.051mm" height="176.671mm" viewBox="-200.025665 -1066.335449 144.051361 176.670898">
    <path transform="matrix(-1,0,0,-1,0,0)" style="stroke:none;fill:#000000;fill-rule:evenodd" d="M122.12587,1066.283813C118.527451,1065.830566,112.274628,1064.254883,109.174744,1063.020386C101.342903,1059.901245,95.135193,1055.452637,89.607323,1048.997559C84.676079,1043.239258,81.354965,1036.842285,79.366341,1029.271606C79.029922,1027.990967,78.697006,1026.562012,78.626526,1026.096313C78.55603,1025.630615,78.360626,1024.344604,78.192276,1023.238586C77.992584,1021.926514,77.885757,1019.52887,77.884949,1016.340454C77.884262,1013.652527,77.821182,1008.318054,77.744766,1004.486084L77.605835,997.51886L76.711624,997.591064C74.880959,997.738953,69.550529,997.233215,68.040344,996.768433C62.411236,995.035828,58.234718,990.714355,56.541618,984.870667L55.9743,982.912598L55.9743,943.64502L55.9743,904.377441L56.451431,902.598572C57.898838,897.202332,62.019417,892.521973,66.876076,890.757874C70.071342,889.597229,66.271057,889.665344,127.841362,889.665344C179.514938,889.665344,184.730865,889.696167,186.110672,890.01001C189.305939,890.736755,191.999435,892.136475,194.322205,894.277161C197.377731,897.093262,199.05397,900.346985,199.715729,904.74646C199.979279,906.498718,200.025909,912.422852,200.025665,944.119873C200.02536,983.646362,200.039963,983.010864,199.065872,985.87616C197.224976,991.291138,192.608353,995.538208,187.007324,996.969482C185.583649,997.333313,181.175201,997.684998,179.564865,997.563171L178.043076,997.44812L177.948456,1009.867065C177.855972,1022.006348,177.841827,1022.352722,177.319977,1025.249512C174.973328,1038.276123,168.257935,1049.23584,157.900635,1056.942627C152.302551,1061.108032,145.746445,1063.950684,137.684723,1065.707764C135.321945,1066.222656,134.715668,1066.265503,129.00563,1066.319214C125.62925,1066.351074,122.533356,1066.335083,122.12587,1066.283813zM133.741364,1057.626343C144.793274,1056.012329,154.313202,1050.596558,160.923096,1042.163086C165.12059,1036.807617,168.427765,1028.970459,169.106567,1022.77063C169.237778,1021.572266,169.331619,1015.878418,169.331619,1009.116943L169.331619,997.51886L127.894287,997.569885L86.45694,997.62085L86.459854,1009.53009C86.462944,1022.187561,86.547234,1023.621643,87.504333,1027.30127C88.523628,1031.219971,90.705788,1036.127563,92.967735,1039.588135C96.566811,1045.094482,102.601402,1050.513062,108.332695,1053.384521C112.130844,1055.287598,117.858719,1057.043823,121.808342,1057.516357C122.856186,1057.641846,123.951653,1057.778809,124.242714,1057.820801C125.785904,1058.043701,131.714523,1057.922363,133.741364,1057.626343zM185.110611,988.830811C187.698318,988.161133,189.520844,986.633667,190.777466,984.08136L191.452713,982.7099L191.508438,944.194824C191.557953,909.975037,191.527573,905.536865,191.235992,904.398743C190.64447,902.089844,189.241592,900.24884,187.207123,899.111572C184.958847,897.854858,188.595108,897.927551,127.832916,897.924194C78.387985,897.921387,71.903824,897.957947,70.799652,898.245544C67.170425,899.190857,64.8246,901.88916,64.322945,905.695557C64.17984,906.781311,64.127151,920.125427,64.168045,944.926147L64.230011,982.511353L65.010071,984.087891C66.323479,986.742432,68.438156,988.422302,71.215622,989.017456C71.448471,989.067322,96.88623,989.119202,127.743965,989.13269C177.665863,989.154602,183.987976,989.121277,185.110611,988.830811zM124.454399,975.309753C120.783234,974.653259,117.176628,972.770447,114.347519,970.033569C111.258835,967.045532,109.483017,964.021667,108.437515,959.96991C107.977859,958.188538,107.924698,957.615845,108.012672,955.393555C108.117943,952.734436,108.179924,952.28894,108.697998,950.468384C109.408463,947.971741,111.746056,943.757568,112.942596,942.816406L113.495544,942.38147L112.947784,939.149963C111.039719,927.893372,110.271507,922.81073,110.271507,921.443176C110.271507,920.105652,111.168343,917.020081,112.030663,915.390808C113.531502,912.555054,116.945747,910.116089,120.177666,909.570984C121.743271,909.306885,135.251831,909.361389,136.347992,909.63623C138.176971,910.094727,140.104904,911.276855,141.93045,913.059204C142.796539,913.904724,143.343689,914.715088,144.037506,916.179749C145.273163,918.788269,145.565018,920.476563,145.259338,923.247437C145.063095,925.026184,143.258438,935.936279,142.399506,940.536621L142.130096,941.979431L143.230835,943.114319C144.333023,944.250671,146.231094,947.750977,146.967758,950.005676C147.457382,951.504272,147.810272,955.186157,147.669586,957.328064C147.147003,965.283691,140.92215,972.735168,132.921814,974.981934C130.888428,975.552979,126.71756,975.714478,124.454399,975.309753zM131.079407,966.829102C136.703491,965.124268,140.333099,959.258423,139.22963,953.657349C138.726898,951.105591,137.974304,949.77887,135.654175,947.354431C134.537384,946.187439,133.565323,945.000732,133.494019,944.717285C133.422729,944.433899,133.546997,943.243164,133.770203,942.071228C133.993393,940.899353,134.365967,938.845032,134.598175,937.506165C134.830368,936.167236,135.30423,933.5,135.651215,931.578979C135.998184,929.657898,136.341141,927.67572,136.41333,927.174072C136.485535,926.672424,136.681915,925.481689,136.849762,924.528015C137.256943,922.214355,137.228455,921.059937,136.739105,920.042114C136.206207,918.933777,135.938843,918.621643,134.944,917.946533L134.115356,917.384216L128.189209,917.402832C121.762344,917.423096,121.347298,917.486145,120.148888,918.624512C118.638985,920.058716,118.397743,921.585144,119.071747,925.440063C119.346558,927.011841,119.62986,928.678894,119.701309,929.144592C119.772758,929.610291,120.060257,931.277344,120.340202,932.84906C120.8741,935.84668,120.951637,936.27301,121.80703,940.91333C122.098816,942.496216,122.337555,944.069458,122.337555,944.409424C122.337555,944.893372,121.902679,945.506714,120.333893,947.235535C118.107742,949.688782,117.212402,951.170837,116.73632,953.190552C115.796928,957.175781,116.899879,960.921814,119.87973,963.866699C122.354752,966.312683,125.261406,967.453796,128.47641,967.241638C129.349609,967.184021,130.520966,966.998352,131.079407,966.829102z"/>
</svg>
