<?xml version="1.0" encoding="UTF-8" standalone="no"?>
<svg xmlns="http://www.w3.org/2000/svg" xmlns:xlink="http://www.w3.org/1999/xlink" width="159.536mm" height="123.357mm" viewBox="-374.767944 -1076.678589 159.535843 123.357117">
    <path transform="matrix(-1,0,0,-1,0,0)" style="stroke:none;fill:#000000;fill-rule:evenodd" d="M264.880981,985.617737C264.689148,985.472229,264.302551,984.622803,264.021851,983.730225C262.632935,979.313416,259.865662,976.439209,255.295639,974.666809C253.117722,973.822144,252.988724,973.745605,252.914688,973.253784C252.829651,972.688904,253.371948,972.278381,254.93808,971.722107C258.061554,970.612671,261.055725,968.254028,262.578003,965.703735C262.968658,965.049255,263.560394,963.725281,263.892975,962.761597C264.233643,961.774414,264.679321,960.886963,264.913757,960.729126C265.54361,960.304871,266.148987,960.737915,266.420349,961.806763C267.160461,964.721802,268.634674,967.21875,270.689941,969.038452C271.357758,969.6297,272.875977,970.559937,274.416443,971.321777C275.846161,972.028809,277.069702,972.694214,277.135345,972.800476C277.200989,972.906677,277.198425,973.217896,277.129639,973.492065C277.032806,973.877808,276.657593,974.122437,275.469147,974.574707C270.762115,976.365845,267.821228,979.473206,266.440613,984.114258C266.186035,984.970154,265.846191,985.682678,265.658203,985.754822C265.235199,985.917114,265.287842,985.926453,264.880981,985.617737z"/>
    <path transform="matrix(-1,0,0,-1,0,0)" style="stroke:none;fill:#000000;fill-rule:evenodd" d="M226.849197,996.755554C226.60788,996.448792,226.410461,996.119019,226.410461,996.022766C226.410461,995.926453,226.060913,995.105835,225.633698,994.199036C223.815857,990.34082,221.303192,988.156982,217.033829,986.72467C214.661163,985.928711,214.631454,985.154297,216.945145,984.413147C221.758331,982.871338,224.827621,979.930542,226.461594,975.295227C227.084015,973.529541,227.179688,973.392944,227.794022,973.392944C228.413391,973.392944,228.742188,973.866394,229.465271,975.799683C230.956451,979.786499,233.50264,982.342957,237.841446,984.209473C239.473328,984.91156,239.646713,985.042053,239.704651,985.611694C239.763168,986.187134,239.683212,986.271606,238.752075,986.618347C233.894012,988.42749,231.2612,990.862061,229.36113,995.302307C228.962555,996.233765,228.540451,997.065796,228.423111,997.151306C227.982224,997.472778,227.273056,997.294434,226.849197,996.755554z"/>
    <path transform="matrix(-1,0,0,-1,0,0)" style="stroke:none;fill:#000000;fill-rule:evenodd" d="M270.953308,1026.19458C270.188446,1025.817139,260.409027,1015.813721,259.956177,1014.945557C259.267029,1013.624268,259.808716,1011.906433,261.177795,1011.071716C261.943085,1010.605103,263.422974,1010.511719,264.157227,1010.883728C264.41153,1011.012573,266.357269,1012.844543,268.481079,1014.954773L272.34256,1018.791504L273.826111,1017.319336C274.64209,1016.509644,275.309692,1015.752502,275.309692,1015.636841C275.309692,1015.521179,273.557434,1013.661133,271.415741,1011.503296C267.571777,1007.630432,267.519928,1007.565979,267.376099,1006.484924C267.071442,1004.195068,268.698578,1002.56488,270.926147,1002.928223C271.731598,1003.059631,272.207184,1003.460999,275.892578,1007.11969L279.968231,1011.165894L281.44928,1009.696167C282.263885,1008.887817,282.930359,1008.127625,282.930359,1008.006775C282.930359,1007.885925,281.301239,1006.168701,279.31012,1004.190735C277.31897,1002.212769,275.556702,1000.287903,275.393921,999.913269C274.983002,998.967346,275.02417,998.076233,275.524109,997.096313C276.019348,996.125549,276.66098,995.648804,277.698761,995.480347C279.205933,995.235779,279.849426,995.670959,283.891571,999.668579L287.71051,1003.445496L289.235199,1001.910583L290.759888,1000.375671L286.844604,996.464661C284.210938,993.833862,282.852173,992.319885,282.693604,991.839417C282.189331,990.311462,282.89093,988.579163,284.281219,987.919434C285.118988,987.521912,286.353058,987.472595,287.019226,987.810059C287.273499,987.938904,289.265747,989.817383,291.446411,991.984497C293.809021,994.332397,295.482361,995.841736,295.587158,995.71936C295.683868,995.606445,296.370361,994.868225,297.112732,994.078857L298.462463,992.643738L294.400909,988.562744L290.339325,984.481689L290.340118,983.223938C290.340668,982.33606,290.466553,981.760071,290.768127,981.265442C291.455414,980.138184,293.109039,979.656738,294.506317,980.177063C294.834076,980.299133,296.793091,982.084229,298.85965,984.143982L302.617065,987.888916L302.617065,983.699829C302.617065,980.490845,302.687378,979.377014,302.917633,978.939148C303.333984,978.147339,327.095337,954.52533,328.057587,953.946655C328.486145,953.688904,329.295868,953.425293,329.856903,953.360779C330.701965,953.263672,331.003632,953.329712,331.614807,953.74585C332.6474,954.448792,332.919495,955.07135,332.829437,956.524841L332.753174,957.755859L320.978638,969.543457L309.204071,981.331116L309.138763,986.14679L309.073456,990.962463L291.609436,1008.447571C281.480072,1018.589172,273.859344,1026.057251,273.464233,1026.229248C272.589844,1026.609985,271.7724,1026.598755,270.953308,1026.19458z"/>
    <path transform="matrix(-1,0,0,-1,0,0)" style="stroke:none;fill:#000000;fill-rule:evenodd" d="M237.121017,1030.301147C236.93512,1030.035767,236.78302,1029.690674,236.78302,1029.534302C236.78302,1029.37793,236.454224,1028.53833,236.052353,1027.668579C234.706268,1024.755127,231.947632,1022.497864,228.315628,1021.337891C226.891525,1020.883057,226.583328,1020.653137,226.664856,1020.106506C226.711823,1019.791443,227.091614,1019.56073,228.149216,1019.204834C232.451447,1017.756897,235.370605,1014.915527,236.668991,1010.912109C237.32811,1008.879761,238.383179,1008.955322,238.973083,1011.077148C239.96225,1014.634949,242.127701,1017.054993,245.793869,1018.69989C246.564514,1019.045654,247.318512,1019.328552,247.469391,1019.328552C247.620285,1019.328552,247.968628,1019.513123,248.243484,1019.738708C248.967682,1020.333008,248.625702,1020.707153,246.622269,1021.51239C244.286911,1022.45105,243.12149,1023.171631,241.850845,1024.462524C240.514801,1025.819824,239.87677,1026.887939,239.133896,1029.011353C238.632904,1030.443359,238.488846,1030.662109,238.009171,1030.71875C237.628296,1030.763672,237.355011,1030.635254,237.121017,1030.301147z"/>
    <path transform="matrix(-1,0,0,-1,0,0)" style="stroke:none;fill:#000000;fill-rule:evenodd" d="M295.84314,1076.193481C293.73291,1075.651978,291.742706,1074.755615,289.878357,1073.506836C287.790222,1072.108032,276.864258,1061.092285,275.55304,1059.063721C271.50116,1052.795044,271.607483,1044.874878,275.832153,1038.27063C276.368683,1037.431885,283.673004,1029.953491,298.038849,1015.534668C309.812805,1003.717346,319.874695,993.632996,320.398621,993.125061C321.699585,991.86377,323.204285,990.872009,324.843994,990.195068C326.020264,989.709473,326.54248,989.624084,328.442627,989.606934C329.6651,989.595886,331.07959,989.664307,331.585876,989.758911C334.412231,990.287354,337.868774,991.829529,341.024567,993.970093L342.916412,995.253296L343.353088,994.721619C343.907684,994.046387,354.766541,981.911316,356.489441,980.041382C356.606659,979.914124,357.582062,978.815979,358.656982,977.601013C360.84491,975.128052,362.12793,974.225891,364.214233,973.693359C366.898254,973.00824,369.632141,973.72406,371.857544,975.694519C374.679871,978.193604,375.612366,982.740601,373.944336,985.870117C373.407349,986.877686,372.615479,987.733398,370.169952,989.948975C368.467804,991.491089,367.027527,992.806519,366.969299,992.872192C366.893188,992.958008,356.985535,1001.861328,353.761902,1004.740723C353.656311,1004.835022,354.141449,1005.87085,354.862823,1007.091431C357.544525,1011.628845,358.547546,1014.492188,358.854004,1018.484741C359.013,1020.556519,358.673523,1022.177673,357.619232,1024.381592C356.922455,1025.838257,356.370605,1026.572998,354.518738,1028.509521C352.575256,1030.54187,331.601379,1051.802612,315.618103,1067.942261C310.786865,1072.820679,309.625183,1073.802246,307.247589,1075.015259C303.973022,1076.685791,299.545227,1077.143311,295.84314,1076.193481zM350.866211,1022.344727C352.000793,1021.766235,352.403046,1021.048706,352.516632,1019.400879C352.645508,1017.531372,352.171753,1015.497803,351.094269,1013.295532C350.253113,1011.576294,348.866333,1009.584961,348.405334,1009.434387C348.266052,1009.388916,347.953857,1009.740234,347.711609,1010.215088C346.833984,1011.935303,344.734253,1012.954468,342.904846,1012.548096C341.565704,1012.250671,340.660004,1011.601868,338.625458,1009.482666C336.644653,1007.419434,336.259399,1006.750488,336.138306,1005.164246C336.023621,1003.661804,336.645264,1002.382202,337.984375,1001.364258C338.499542,1000.972656,338.948486,1000.580688,338.982056,1000.493225C339.080627,1000.236267,336.072693,998.04895,334.63501,997.332153C332.172974,996.104614,330.968445,995.736511,329.395203,995.730957C327.613708,995.724609,326.773438,996.20343,326.244019,997.52655C325.799011,998.638794,325.81311,999.436768,326.308441,1001.168884C327.35614,1004.83252,330.89679,1010.165039,334.721436,1013.839722C339.194641,1018.137512,343.238342,1020.858276,347.115417,1022.179016C348.948975,1022.80365,349.885132,1022.845032,350.866211,1022.344727zM302.587158,1070.127075C304.719879,1069.536011,305.909546,1068.884277,307.274139,1067.559082C312.317932,1062.661133,345.483276,1028.87439,345.483276,1028.634033C345.483276,1028.532471,344.530701,1027.982544,343.366425,1027.411987C339.402679,1025.46936,336.936646,1023.830322,332.782166,1020.377136C327.691589,1016.145935,322.264496,1008.827881,320.375824,1003.64801L319.940399,1002.453796L311.331665,1011.073242C283.454254,1038.985229,280.931976,1041.578369,280.114136,1043.167114C278.207947,1046.870239,278.172485,1050.615112,280.007294,1054.450439C280.834351,1056.179199,281.040833,1056.410889,286.987549,1062.282715C290.797852,1066.045166,293.531281,1068.573853,294.214752,1068.96875C296.932709,1070.539063,299.712585,1070.923584,302.587158,1070.127075z"/>
</svg>
