<?xml version="1.0" encoding="UTF-8" standalone="no"?>
<svg xmlns="http://www.w3.org/2000/svg" xmlns:xlink="http://www.w3.org/1999/xlink" width="89.764mm" height="86.157mm" viewBox="-278.085266 -833.664917 89.763977 86.157288">
    <path transform="matrix(-1,0,0,-1,0,0)" style="stroke:none;fill:#500a78;fill-rule:evenodd" d="M220.72374,833.4328C215.2957,832.368103,211.231979,828.774719,209.347458,823.37323C208.820114,821.861755,208.76561,821.431458,208.773972,818.845276C208.784866,815.474426,209.175644,813.753601,210.617844,810.726257C212.102829,807.609192,214.404892,804.496277,218.027664,800.706848C221.430466,797.1474,226.791672,792.595154,230.640244,789.997375C232.9478,788.439758,233.471024,788.434631,235.722946,789.947693C241.384995,793.752136,249.340897,801.140686,252.675186,805.690979C256.359558,810.719055,257.98999,815.28656,257.673035,819.691956C257.506165,822.011292,257.119995,823.419739,256.076904,825.513367C253.686142,830.311829,249.271713,833.241394,243.899765,833.594299C240.572922,833.812805,236.91124,832.753845,234.257462,830.805725L233.230759,830.052063L231.617996,831.104919C228.316177,833.260315,224.26152,834.12677,220.72374,833.4328zM225.947128,828.917297C227.577164,828.483337,228.75972,827.854065,230.602493,826.440002C233.060562,824.55365,233.35878,824.549377,235.606522,826.367126C238.109543,828.391418,240.267014,829.217834,243.048019,829.217834C246.87236,829.217834,250.540756,826.922424,252.181931,823.50238C255.047653,817.530579,252.535904,811.109436,244.001938,802.590393C240.438583,799.033264,233.935837,793.654846,233.198593,793.654846C232.89061,793.654846,229.513718,796.158752,227.473129,797.900208C220.867905,803.537048,216.888809,808.073547,214.764633,812.388855C213.347397,815.268127,213.013382,816.709656,213.134201,819.425842C213.224289,821.451965,213.28923,821.714661,214.108932,823.368835C215.485214,826.146301,218.123825,828.342712,220.85704,828.985901C222.104294,829.27948,224.719223,829.244202,225.947128,828.917297z"/>
    <path transform="matrix(-1,0,0,-1,0,0)" style="stroke:none;fill:#500a78;fill-rule:evenodd" d="M192.928238,824.663635C191.733719,824.224915,190.276871,823.144714,189.577408,822.179138C188.277573,820.384705,188.321457,821.233215,188.321457,797.894592C188.321457,774.761047,188.287033,775.486877,189.497177,773.098694C190.271225,771.571106,191.082443,770.754211,197.847244,764.68927C207.650131,755.900696,207.838791,755.721375,208.239883,754.810608C208.488235,754.246643,208.660721,753.11554,208.756393,751.423645C208.835403,750.02655,208.987961,748.717834,209.095413,748.515198C209.352982,748.029724,210.385635,747.507629,211.088211,747.507629C211.443832,747.507629,211.91246,747.770935,212.36882,748.227356L213.088547,748.947083L213.088547,751.252258C213.088547,755.00177,212.290512,757.188049,210.124954,759.371399C209.484604,760.017029,205.626663,763.515686,201.551743,767.146301C197.476791,770.776917,193.925827,774.068665,193.66069,774.461365C193.395554,774.854065,193.085983,775.498596,192.972733,775.893372C192.845444,776.337219,192.76683,784.721252,192.76683,797.850403L192.76683,819.089539L193.370041,819.692688C194.468857,820.791565,196.471817,820.796204,197.519821,819.702332L198.113266,819.082947L198.704056,811.384949C199.028976,807.151184,199.414902,801.833435,199.56163,799.567932L199.828415,795.448669L199.102432,793.97406C198.420547,792.588928,198.37645,792.369446,198.37645,790.35675C198.37645,788.31781,198.412277,788.145935,199.117355,786.804016C199.665695,785.760315,201.013687,784.145813,204.303635,780.592224C211.977829,772.30304,212.229385,772.059875,213.125229,772.061584C214.774826,772.064514,215.907333,773.900085,215.069565,775.212708C214.853195,775.551819,212.076279,778.614441,208.898666,782.018616C205.699753,785.44574,202.983475,788.537659,202.812729,788.94635C202.42662,789.870422,202.416214,791.341125,202.789474,792.232727C203.382919,793.65033,205.356583,794.925598,206.949692,794.920959C208.169693,794.917419,209.543228,793.899475,214.398972,789.400574C217.112839,786.886047,220.952621,783.379089,222.93187,781.607239C227.197037,777.788879,228.29158,776.547302,229.386887,774.285706C230.790146,771.388,230.869919,770.600891,230.871262,759.635315C230.871994,753.48468,230.954086,749.647766,231.095932,749.137024C231.338486,748.263489,232.292038,747.509827,233.156174,747.508362C233.85881,747.507141,234.762039,748.028381,235.049301,748.600891C235.225296,748.951477,235.321457,752.109924,235.380112,759.467712C235.458359,769.277283,235.487595,769.93219,235.918808,771.533752C236.528976,773.800232,237.474777,775.616272,238.899521,777.257629C240.311874,778.884583,256.650696,793.729309,257.729919,794.366028C258.25708,794.677063,258.845886,794.811951,259.67688,794.811951C262.762329,794.811951,264.783997,791.672791,263.48938,788.891907C263.269348,788.41925,260.553101,785.286316,257.341187,781.800476C254.176498,778.365784,251.437759,775.256165,251.255112,774.890198C250.84581,774.069763,251.015182,773.264832,251.737991,772.595032C252.425247,771.958069,253.229172,771.766907,253.955673,772.067932C254.275681,772.2005,257.237915,775.254333,260.538269,778.854309C267.815491,786.792053,268.020752,787.107971,268.020752,790.371887C268.020752,792.436584,267.987,792.596985,267.237061,794.097595C266.584351,795.403748,266.470154,795.825012,266.553589,796.618347C266.608704,797.142273,266.940308,801.524231,267.290588,806.355774C268.247498,819.557922,268.177917,818.972229,268.876526,819.701477C269.927002,820.797913,271.92804,820.791809,273.031067,819.688782L273.638184,819.081726L273.58136,797.424622L273.524536,775.767395L272.9953,774.840149C272.627625,774.195862,269.933716,771.659973,264.166687,766.529358C259.60199,762.468567,255.629929,758.8349,255.339951,758.454651C255.049911,758.074524,254.500107,757.098938,254.118118,756.286926C253.455246,754.877991,253.419968,754.675598,253.344559,751.846985C253.266586,748.923401,253.27269,748.875793,253.798264,748.309875C254.72551,747.311584,256.057007,747.27301,257.001282,748.217346C257.436157,748.652161,257.491943,748.949768,257.585022,751.330994C257.697021,754.198303,257.977051,755.0755,259.17334,756.306213C259.505554,756.647888,263.299133,760.044617,267.603516,763.854553C275.801208,771.110413,276.698547,772.0672,277.584167,774.497375C277.946655,775.49176,277.973389,776.881042,278.027588,797.497375L278.085266,819.439026L277.628601,820.659729C277.07428,822.141174,275.931885,823.427307,274.432312,824.258118C273.384766,824.83844,273.16333,824.878235,270.984314,824.878235C268.949158,824.878235,268.535767,824.815491,267.703247,824.379578C266.397583,823.695984,265.228882,822.538391,264.59668,821.302551C264.00354,820.143005,263.918274,819.32074,263.018127,806.083069C262.75061,802.148987,262.475891,798.840027,262.407654,798.729553C262.329773,798.603577,262.012329,798.60675,261.554932,798.737854C260.277222,799.104309,257.885193,798.989197,256.5448,798.496765C254.994766,797.927307,254.417252,797.498718,251.297653,794.602844C249.900528,793.305969,246.050247,789.786682,242.74144,786.782288C236.467209,781.085266,235.088852,779.679016,233.97374,777.837341C233.605637,777.229431,233.256821,776.731995,233.198593,776.731995C233.140396,776.731995,232.77565,777.25592,232.388077,777.896301C231.307999,779.680725,229.842087,781.155334,222.50853,787.834656C218.782883,791.227844,214.841385,794.829285,213.74968,795.837708C211.201859,798.191467,210.015457,798.778748,207.5569,798.903503C206.437546,798.960266,205.427536,798.896545,204.94957,798.738831C204.520493,798.597229,204.112045,798.538635,204.041885,798.608826C203.971756,798.679016,203.783585,800.522278,203.623764,802.704895C202.31102,820.632019,202.375259,819.956726,201.871292,821.125183C201.268753,822.522034,199.579422,824.106506,198.150711,824.614807C196.88884,825.063538,194.088455,825.089905,192.928238,824.663635z"/>
</svg>
