<?xml version="1.0" encoding="UTF-8" standalone="no"?>
<svg xmlns="http://www.w3.org/2000/svg" xmlns:xlink="http://www.w3.org/1999/xlink" width="168.824mm" height="174.987mm" viewBox="-529.412109 -1062.493408 168.824219 174.986633">
    <path transform="matrix(-1,0,0,-1,0,0)" style="stroke:none;fill:#000000;fill-rule:evenodd" d="M473.417694,1006.910034C472.340027,1006.511353,451.0159,999.646912,445.686951,997.983154C443.474854,997.292542,441.664917,996.642822,441.664917,996.539429C441.664917,996.312622,461.306274,966.835083,461.457489,966.8349C461.515686,966.834839,462.322021,969.165527,463.249329,972.014282C464.176605,974.863037,465.027039,977.193787,465.13913,977.193787C465.662537,977.193787,473.59613,974.092468,477.333862,972.426758C494.574158,964.743652,508.355225,953.677856,513.418762,943.451538C515.575073,939.09668,515.772095,935.285889,514.008423,932.045471C511.942078,928.248901,505.476746,926.062195,493.232239,925.018494C491.206848,924.845825,489.531921,924.678833,489.510162,924.647339C489.488403,924.615845,489.105621,923.970886,488.659546,923.214111C488.21344,922.457336,487.245544,920.964539,486.508636,919.89679L485.168823,917.955383L486.596375,917.801819C489.709808,917.466919,500.38324,918.083862,505.276276,918.881531C512.910278,920.126099,519.205872,922.861694,523.041809,926.601074C530.794067,934.158203,531.536194,946.504761,524.937683,958.142151C516.800476,972.493225,499.671204,985.476257,475.059753,995.946899C473.168701,996.751465,471.662598,997.505005,471.71286,997.621399C471.903381,998.062378,474.526855,1006.115173,474.661102,1006.670898C474.824066,1007.345642,474.673553,1007.374573,473.417694,1006.910034z"/>
    <path transform="matrix(-1,0,0,-1,0,0)" style="stroke:none;fill:#000000;fill-rule:evenodd" d="M441.135712,1060.143311C428.638855,1051.561646,417.711945,1045.869629,405.149261,1041.397217C397.399841,1038.638306,387.691711,1036.210205,381.228851,1035.414429C380.122803,1035.27832,379.00354,1035.123901,378.741577,1035.071289L378.265259,1034.975708L378.266266,1026.882813C378.267487,1016.844971,378.902039,1006.239868,380.074127,996.668823C380.434753,993.723877,382.194244,983.68219,383.028717,979.806396C384.310791,973.851685,386.658081,965.534912,388.626221,959.973755C389.11441,958.59436,389.474396,957.426331,389.426178,957.378113C389.29248,957.244446,384.549957,960.481689,382.508728,962.099976C379.886444,964.178955,375.472015,968.537109,373.785095,970.712402C372.983185,971.746521,371.85083,973.556396,371.268799,974.734436C368.388306,980.564331,369.225128,985.532654,373.727966,989.335144C374.535309,990.016907,375.174438,990.652649,375.148254,990.747986C375.122101,990.843262,374.858551,992.524048,374.562592,994.482971C374.266663,996.441956,373.974426,998.352905,373.913208,998.729492L373.801941,999.414185L372.593719,998.746216C365.958954,995.078125,362.563171,991.055847,361.077911,985.105957C360.427094,982.49884,360.424133,978.237915,361.071503,975.881775C362.576691,970.40332,365.226379,966.262695,370.732147,960.785217C376.526855,955.020325,383.033325,950.414001,391.668243,945.963318L395.439545,944.01947L397.656616,939.946533C400.349548,934.999451,401.864197,932.463989,404.364532,928.717896C411.339813,918.267334,420.656219,907.627991,430.022278,899.416687C433.419739,896.43811,444.130219,887.727356,444.664032,887.508667C444.916931,887.40509,446.752319,888.775208,451.614136,892.697083C457.606476,897.530945,461.130615,900.664429,465.818146,905.326721C476.352997,915.80481,483.124939,924.424377,490.348999,936.550293C493.283569,941.476135,497.927917,950.616089,498.582397,952.753418C498.69632,953.125488,498.212463,953.518066,495.125488,955.558228C493.151337,956.862976,491.460327,957.928528,491.367676,957.926147C491.275024,957.923767,489.846497,955.18512,488.193176,951.84021C482.42865,940.177856,477.6297,932.648071,470.160339,923.546021C463.122406,914.969604,454.051392,906.081482,445.695435,899.57428L444.857178,898.921509L442.731873,900.639893C432.850555,908.629395,424.45163,917.170776,417.155548,926.650085C406.84079,940.05127,399.383911,955.007019,394.065552,972.960083C390.04541,986.530762,387.168854,1007.122192,387.159149,1022.398804L387.156036,1027.277832L389.855042,1027.767944C395.80249,1028.848022,404.317566,1031.265869,411.182281,1033.82373C420.201447,1037.18457,431.223511,1042.771729,441.216095,1049.048096L445.011444,1051.432129L446.830994,1050.231445C453.493103,1045.835449,459.497314,1042.425049,465.842346,1039.432983C478.637939,1033.399048,488.948914,1029.853882,499.630798,1027.815918L502.558533,1027.257324L502.536926,1022.917725C502.494568,1014.434082,501.549866,1003.474976,499.904938,992.385925L499.630737,990.537415L503.342621,987.728882C505.384155,986.184143,507.130096,984.888733,507.222504,984.850159C507.467468,984.747925,507.713928,985.507263,508.316162,988.219788C509.031433,991.44165,509.398254,994.048828,510.026062,1000.373291C511.2146,1012.346191,511.626038,1019.706177,511.626526,1029.003662L511.626831,1035.195435L510.833008,1035.196655C509.661682,1035.198364,504.550415,1035.978516,501.06073,1036.688232C490.071411,1038.923218,475.616211,1044.357056,464.207458,1050.541748C458.947906,1053.392822,454.024475,1056.473633,445.369415,1062.329102C444.843201,1062.685059,444.819305,1062.672729,441.135712,1060.143311z"/>
</svg>
