<?xml version="1.0" encoding="UTF-8" standalone="no"?>
<svg xmlns="http://www.w3.org/2000/svg" xmlns:xlink="http://www.w3.org/1999/xlink" width="44.329mm" height="43.441mm" viewBox="-473.164764 -1141.720337 44.329437 43.440552">
    <path transform="matrix(-1,0,0,-1,0,0)" style="stroke:none;fill:#000000;fill-rule:evenodd" d="M449.878174,1141.306763C449.150482,1141.030518,446.88797,1140.205933,444.850403,1139.474121C442.812805,1138.742432,440.133545,1137.776123,438.896423,1137.326782C437.659332,1136.877441,434.920502,1135.884033,432.810181,1135.119141L428.973175,1133.728394L428.904266,1122.179199L428.835327,1110.630005L431.947388,1108.524292C444.849762,1099.794189,447.44339,1098.132446,447.927307,1098.286011C448.205566,1098.37439,453.997833,1101.206421,460.799011,1104.57959L473.164764,1110.712402L473.164764,1122.181641L473.164764,1133.650879L469.460083,1135.092041C467.422485,1135.884766,465.517242,1136.648438,465.226135,1136.789185C463.332947,1137.704956,452.884949,1141.630615,452.127441,1141.710815C451.618042,1141.764648,450.605896,1141.582886,449.878174,1141.306763zM437.831818,1124.818726C439.739166,1123.714478,440.432831,1122.896362,440.13031,1122.108032C439.89621,1121.497925,439.685028,1121.569214,437.499603,1122.99585C435.619965,1124.2229,434.944672,1125.049683,435.322601,1125.661133C435.577911,1126.074219,435.780914,1126.006104,437.831818,1124.818726zM454.244415,1113.258789C454.244415,1111.694336,454.68924,1111.508179,456.474091,1112.325317C457.303986,1112.7052,458.03009,1112.968872,458.087708,1112.911377C458.145264,1112.85376,457.016144,1111.541748,455.578522,1109.99585C454.140869,1108.449829,452.895325,1107.254272,452.810669,1107.338989C452.725983,1107.423584,452.654877,1107.800537,452.652649,1108.176514C452.643951,1109.641113,452.296722,1109.694092,450.477448,1108.508789C449.54538,1107.901611,448.642242,1107.404663,448.470459,1107.404663C448.261292,1107.404663,448.158203,1107.994507,448.158295,1109.190918L448.158447,1110.977051L450.870667,1112.605347C452.362366,1113.500977,453.73172,1114.245117,453.913635,1114.259277C454.125793,1114.275635,454.244415,1113.91687,454.244415,1113.258789zM454.633545,1137.184814C455.793579,1136.695557,456.775757,1136.195313,456.816193,1136.073242C456.856628,1135.951294,452.659943,1134.220093,447.490204,1132.226318L438.090729,1128.601318L435.693481,1129.870117C434.374969,1130.567993,433.297943,1131.238281,433.300079,1131.359619C433.302185,1131.480957,433.877533,1131.78772,434.578613,1132.04126C435.279694,1132.2948,438.056274,1133.29541,440.748779,1134.265015C443.441284,1135.234497,446.894592,1136.487305,448.42276,1137.048828C449.950958,1137.610474,451.498962,1138.070923,451.862823,1138.072266C452.226685,1138.073486,453.473511,1137.674194,454.633545,1137.184814zM463.387848,1133.734375C465.024811,1133.079468,466.52063,1132.543579,466.711884,1132.543579C467.637634,1132.543579,465.968964,1131.690918,462.315338,1130.296997C460.132202,1129.464111,455.818451,1127.783081,452.729218,1126.561523C449.639954,1125.339844,446.919098,1124.340454,446.682892,1124.340454C446.446655,1124.340454,444.947601,1125.016113,443.351624,1125.841919C440.874756,1127.123535,440.520203,1127.38501,440.930115,1127.628052C441.818512,1128.154785,459.399048,1134.90564,459.90802,1134.915527C460.184937,1134.920898,461.750854,1134.389404,463.387848,1133.734375zM469.698242,1130.735352C469.683685,1130.565552,469.6539,1126.462402,469.63208,1121.617188L469.592377,1112.807617L468.203125,1112.106445C461.595734,1108.771362,448.330383,1102.376953,448.019135,1102.376953C447.71991,1102.376953,447.630096,1102.731689,447.633972,1103.898438L447.639038,1105.420044L449.420166,1106.478516C450.39978,1107.060669,451.283752,1107.574463,451.384552,1107.620117C451.485352,1107.665894,451.604431,1107.131104,451.64917,1106.431763C451.705597,1105.549805,451.853699,1105.136841,452.132446,1105.083984C452.543671,1105.006104,461.446259,1114.309204,461.607178,1114.984985C461.785461,1115.733643,460.882416,1115.58728,458.332611,1114.454102C456.884583,1113.810669,455.610504,1113.337769,455.501343,1113.403198C455.392212,1113.468628,455.302887,1114.05481,455.302887,1114.705688C455.302887,1115.437378,455.170532,1115.939941,454.956146,1116.022217C454.765442,1116.095459,453.187622,1115.303345,451.449921,1114.261963C449.712219,1113.220703,448.141602,1112.310791,447.959686,1112.23999C447.701782,1112.139648,447.628906,1113.277466,447.628906,1117.403687C447.628906,1122.198608,447.672424,1122.713135,448.09198,1122.877197C448.34668,1122.976807,450.579407,1123.834106,453.053619,1124.782349C461.125702,1127.876099,466.23587,1129.893799,468.533905,1130.894531C469.30481,1131.230225,469.735596,1131.171387,469.698242,1130.735352z"/>
</svg>
