<?xml version="1.0" encoding="UTF-8" standalone="no"?>
<svg xmlns="http://www.w3.org/2000/svg" xmlns:xlink="http://www.w3.org/1999/xlink" width="151.990mm" height="144.369mm" viewBox="-216.994904 -937.184631 151.989853 144.369202">
    <path transform="matrix(-1,0,0,-1,0,0)" style="stroke:none;fill:#000000;fill-rule:evenodd" d="M89.534851,847.924194C88.996826,847.744568,88.091873,847.247742,87.523849,846.820129C82.991867,843.408447,83.672745,836.223145,88.769333,833.676331C89.897987,833.112305,90.269241,833.035645,91.869949,833.035767C93.430542,833.035889,93.868469,833.12146,94.958481,833.639099C98.421661,835.283691,100.202652,839.170837,99.114716,842.710327C97.839966,846.857666,93.467728,849.237244,89.534851,847.924194z"/>
    <path transform="matrix(-1,0,0,-1,0,0)" style="stroke:none;fill:#000000;fill-rule:evenodd" d="M179.706223,848.168518C178.534241,847.792847,176.836548,846.562439,175.948746,845.445313C174.282181,843.348206,173.960938,839.944458,175.187531,837.379761C175.883652,835.924255,177.359055,834.353943,178.703461,833.637573C179.489822,833.218628,179.941986,833.142517,181.647964,833.142029C183.495865,833.141479,183.779938,833.198792,185.065048,833.831482C186.751114,834.661499,187.817581,835.786255,188.693588,837.658264C189.254333,838.856506,189.345245,839.29071,189.341766,840.753784C189.336517,842.963013,188.759445,844.481628,187.331375,846.044189C185.879257,847.632996,184.404175,848.329712,182.307907,848.416931C181.279892,848.459656,180.332245,848.369202,179.706223,848.168518z"/>
    <path transform="matrix(-1,0,0,-1,0,0)" style="stroke:none;fill:#000000;fill-rule:evenodd" d="M133.273468,869.210754C131.2836,868.924011,128.353363,868.020691,126.478081,867.115906C118.756073,863.390198,113.278732,856.175293,111.322556,847.152527C110.686943,844.220825,110.630547,837.486633,111.218513,834.729065C113.415627,824.424683,119.949562,816.481079,128.859924,813.281677C131.274155,812.414795,133.592957,812.062134,136.872116,812.063171C140.366104,812.064331,142.582764,812.433716,145.445374,813.491882C154.866577,816.974426,161.320221,825.379089,162.928818,836.260681C163.376297,839.28772,163.229919,844.045044,162.596878,847.04895C160.090439,858.942322,151.315308,867.65448,140.259079,869.226379C138.505661,869.475647,135.058243,869.467957,133.273468,869.210754z"/>
    <path transform="matrix(-1,0,0,-1,0,0)" style="stroke:none;fill:#000000;fill-rule:evenodd" d="M212.126144,835.469971L212.126144,797.895874L143.434357,797.895874L74.742569,797.895874L74.742569,795.355652L74.742569,792.81543L145.868729,792.81543L216.994904,792.81543L216.994904,832.929749L216.994904,873.044067L214.560516,873.044067L212.126144,873.044067L212.126144,835.469971z"/>
    <path transform="matrix(-1,0,0,-1,0,0)" style="stroke:none;fill:#000000;fill-rule:evenodd" d="M65.005051,841.105591L65.005051,801.334778L93.317932,801.172729C108.890007,801.083557,141.253998,801.071838,165.237915,801.146606L208.845032,801.282593L208.845032,841.026611L208.845032,880.770569L182.225693,880.824341L155.606354,880.878052L152.43103,877.779175C150.684601,876.074768,149.255707,874.621704,149.255737,874.550171C149.255737,874.478577,157.233612,874.386841,166.984344,874.346252C182.353577,874.282288,184.80542,874.22937,185.407898,873.948364C186.533081,873.423645,187.526825,872.075073,188.016373,870.408569C188.897964,867.407532,190.585815,865.066895,193.049271,863.429199C194.354446,862.561523,195.966309,861.929749,198.757156,861.192139C199.356964,861.033569,199.996384,860.629517,200.595383,860.030518C202.226456,858.399414,202.176941,858.989563,202.176941,841.180725C202.176941,824.163452,202.184692,824.286682,201.018265,822.757385C200.330887,821.856201,199.396332,821.368347,197.217804,820.773438C192.721375,819.545654,189.35289,816.560913,188.341583,812.908447C187.531052,809.98114,186.453629,808.586365,184.590057,808.05188C183.547974,807.753052,90.358833,807.772705,89.28093,808.072021C88.373085,808.324158,86.937477,809.522095,86.477692,810.411194C86.31076,810.734009,85.907646,811.791321,85.581879,812.760742C84.170959,816.959412,81.281906,819.578613,76.753571,820.764404C73.872757,821.518799,72.591309,822.571899,71.996353,824.674072C71.824783,825.280273,71.774902,830.121338,71.820755,841.714722L71.884819,857.908569L72.414032,858.851807C73.160477,860.182129,74.34359,860.93103,76.64196,861.527954C80.112633,862.429443,82.338181,863.864075,84.052429,866.305115C84.720673,867.256653,85.276108,868.364197,85.562363,869.315857C85.811417,870.143921,86.156357,871.169312,86.328888,871.594543C86.700363,872.510071,87.942665,873.774536,88.780479,874.089905C89.178391,874.239685,94.101921,874.314392,103.598427,874.314819C111.420547,874.315186,119.439857,874.376038,121.419113,874.450073L125.017761,874.584595L121.842484,877.726929L118.667206,880.869324L91.836136,880.872864L65.005051,880.876404L65.005051,841.105591z"/>
    <path transform="matrix(-1,0,0,-1,0,0)" style="stroke:none;fill:#000000;fill-rule:evenodd" d="M119.831474,922.049194L119.831474,906.913696L111.046547,906.913696C106.214836,906.913696,102.26162,906.852051,102.26162,906.776794C102.26162,906.701538,104.142975,904.724426,106.442398,902.383301C108.741821,900.042114,116.301903,892.173462,123.242569,884.897339C130.183243,877.621277,136.099319,871.450073,136.389435,871.183594L136.916901,870.699097L146.959351,880.921143C152.482697,886.543213,160.45224,894.667725,164.669449,898.975464L172.337082,906.807861L162.913239,906.862915L153.489395,906.91803L153.489395,922.051331L153.489395,937.184631L136.660431,937.184631L119.831474,937.184631L119.831474,922.049194z"/>
</svg>
