  0
SECTION
  2
HEADER
  9
$ACADVER
  1
AC1009
  0
ENDSEC
  0
SECTION
  2
ENTITIES
  0
POLYLINE
  5
90
  8
Layer_0
  62
232
  66
1
  10
0
  20
0
  30
0
  0
VERTEX
  5
90
  8
Layer_0
  10
215.02997
  20
1076.2924
  0
VERTEX
  5
91
  8
Layer_0
  10
246.00928
  20
1076.2924
  0
VERTEX
  5
92
  8
Layer_0
  10
235.78345
  20
1086.5183
  42
-0.19877587
  0
VERTEX
  5
93
  8
Layer_0
  10
235.58371
  20
1087
  42
-0.1987339
  0
VERTEX
  5
94
  8
Layer_0
  10
235.78345
  20
1087.4817
  0
VERTEX
  5
95
  8
Layer_0
  10
246.00928
  20
1097.7076
  0
VERTEX
  5
96
  8
Layer_0
  10
215.02997
  20
1097.7076
  0
VERTEX
  5
97
  8
Layer_0
  10
215.02997
  20
1076.2924
  0
SEQEND
  0
POLYLINE
  5
99
  8
Layer_0
  62
232
  66
1
  10
0
  20
0
  30
0
  0
VERTEX
  5
99
  8
Layer_0
  10
247.65405
  20
1074.9301
  0
VERTEX
  5
9a
  8
Layer_0
  10
214.34885
  20
1074.9301
  42
-0.41421356
  0
VERTEX
  5
9b
  8
Layer_0
  10
213.6676
  20
1075.6112
  0
VERTEX
  5
9c
  8
Layer_0
  10
213.6676
  20
1098.3888
  42
-0.41421356
  0
VERTEX
  5
9d
  8
Layer_0
  10
214.34885
  20
1099.0701
  0
VERTEX
  5
9e
  8
Layer_0
  10
247.65405
  20
1099.0701
  42
-0.30301333
  0
VERTEX
  5
9f
  8
Layer_0
  10
248.28354
  20
1098.6497
  42
-0.30304015
  0
VERTEX
  5
a0
  8
Layer_0
  10
248.13571
  20
1097.9071
  0
VERTEX
  5
a1
  8
Layer_0
  10
237.22842
  20
1087
  0
VERTEX
  5
a2
  8
Layer_0
  10
248.13571
  20
1076.0929
  42
-0.30316116
  0
VERTEX
  5
a3
  8
Layer_0
  10
248.28354
  20
1075.3506
  42
-0.30311175
  0
VERTEX
  5
a4
  8
Layer_0
  10
247.65405
  20
1074.9301
  0
SEQEND
  0
POLYLINE
  5
a6
  8
Layer_0
  62
232
  66
1
  10
0
  20
0
  30
0
  0
VERTEX
  5
a6
  8
Layer_0
  10
223.98434
  20
1091.7635
  42
0.11866604
  0
VERTEX
  5
a7
  8
Layer_0
  10
223.34299
  20
1092.4061
  42
0.076112761
  0
VERTEX
  5
a8
  8
Layer_0
  10
222.41025
  20
1092.7928
  42
0.037792003
  0
VERTEX
  5
a9
  8
Layer_0
  10
221.24283
  20
1093.0116
  0
VERTEX
  5
aa
  8
Layer_0
  10
220.88462
  20
1093.0594
  0
VERTEX
  5
ab
  8
Layer_0
  10
220.56181
  20
1093.1216
  0
VERTEX
  5
ac
  8
Layer_0
  10
220.27521
  20
1093.1981
  0
VERTEX
  5
ad
  8
Layer_0
  10
220.02564
  20
1093.2888
  0
VERTEX
  5
ae
  8
Layer_0
  10
219.8967
  20
1093.3499
  0
VERTEX
  5
af
  8
Layer_0
  10
219.79979
  20
1093.4143
  0
VERTEX
  5
b0
  8
Layer_0
  10
219.73036
  20
1093.4795
  0
VERTEX
  5
b1
  8
Layer_0
  10
219.68382
  20
1093.5431
  0
VERTEX
  5
b2
  8
Layer_0
  10
219.64109
  20
1093.656
  0
VERTEX
  5
b3
  8
Layer_0
  10
219.63498
  20
1093.7337
  0
VERTEX
  5
b4
  8
Layer_0
  10
219.65423
  20
1093.8705
  0
VERTEX
  5
b5
  8
Layer_0
  10
219.71276
  20
1093.9897
  0
VERTEX
  5
b6
  8
Layer_0
  10
219.81182
  20
1094.0933
  0
VERTEX
  5
b7
  8
Layer_0
  10
219.95262
  20
1094.1831
  0
VERTEX
  5
b8
  8
Layer_0
  10
220.16135
  20
1094.2653
  0
VERTEX
  5
b9
  8
Layer_0
  10
220.41221
  20
1094.3241
  0
VERTEX
  5
ba
  8
Layer_0
  10
220.70432
  20
1094.3596
  0
VERTEX
  5
bb
  8
Layer_0
  10
221.0368
  20
1094.3715
  42
-0.090532881
  0
VERTEX
  5
bc
  8
Layer_0
  10
222.16898
  20
1094.1777
  42
-0.085445884
  0
VERTEX
  5
bd
  8
Layer_0
  10
223.08191
  20
1093.6305
  42
0.39959594
  0
VERTEX
  5
be
  8
Layer_0
  10
223.49667
  20
1093.6593
  0
VERTEX
  5
bf
  8
Layer_0
  10
223.95151
  20
1094.2328
  42
0.39689447
  0
VERTEX
  5
c0
  8
Layer_0
  10
223.94614
  20
1094.6125
  42
0.099707732
  0
VERTEX
  5
c1
  8
Layer_0
  10
222.6091
  20
1095.3926
  42
0.081897585
  0
VERTEX
  5
c2
  8
Layer_0
  10
221.04956
  20
1095.6744
  0
VERTEX
  5
c3
  8
Layer_0
  10
221.01297
  20
1095.6744
  42
0.064334323
  0
VERTEX
  5
c4
  8
Layer_0
  10
219.90298
  20
1095.5381
  42
0.083732277
  0
VERTEX
  5
c5
  8
Layer_0
  10
219.03622
  20
1095.1606
  42
0.11887166
  0
VERTEX
  5
c6
  8
Layer_0
  10
218.46683
  20
1094.5374
  42
0.11963002
  0
VERTEX
  5
c7
  8
Layer_0
  10
218.27295
  20
1093.7217
  0
VERTEX
  5
c8
  8
Layer_0
  10
218.28779
  20
1093.4516
  0
VERTEX
  5
c9
  8
Layer_0
  10
218.3322
  20
1093.2054
  0
VERTEX
  5
ca
  8
Layer_0
  10
218.40598
  20
1092.9841
  0
VERTEX
  5
cb
  8
Layer_0
  10
218.50895
  20
1092.7884
  42
0.12338297
  0
VERTEX
  5
cc
  8
Layer_0
  10
219.14087
  20
1092.1818
  42
0.077676082
  0
VERTEX
  5
cd
  8
Layer_0
  10
220.03644
  20
1091.845
  42
0.019770508
  0
VERTEX
  5
ce
  8
Layer_0
  10
220.53668
  20
1091.7412
  42
0.018844257
  0
VERTEX
  5
cf
  8
Layer_0
  10
221.05615
  20
1091.6744
  0
VERTEX
  5
d0
  8
Layer_0
  10
221.46522
  20
1091.6156
  0
VERTEX
  5
d1
  8
Layer_0
  10
221.83112
  20
1091.5437
  0
VERTEX
  5
d2
  8
Layer_0
  10
222.15248
  20
1091.459
  0
VERTEX
  5
d3
  8
Layer_0
  10
222.42794
  20
1091.362
  0
VERTEX
  5
d4
  8
Layer_0
  10
222.61821
  20
1091.2591
  0
VERTEX
  5
d5
  8
Layer_0
  10
222.75184
  20
1091.1323
  0
VERTEX
  5
d6
  8
Layer_0
  10
222.83067
  20
1090.9792
  0
VERTEX
  5
d7
  8
Layer_0
  10
222.85654
  20
1090.7972
  0
VERTEX
  5
d8
  8
Layer_0
  10
222.83214
  20
1090.635
  0
VERTEX
  5
d9
  8
Layer_0
  10
222.75845
  20
1090.4882
  0
VERTEX
  5
da
  8
Layer_0
  10
222.63467
  20
1090.3557
  0
VERTEX
  5
db
  8
Layer_0
  10
222.46002
  20
1090.2365
  0
VERTEX
  5
dc
  8
Layer_0
  10
222.21231
  20
1090.1248
  0
VERTEX
  5
dd
  8
Layer_0
  10
221.91368
  20
1090.0447
  0
VERTEX
  5
de
  8
Layer_0
  10
221.56525
  20
1089.9965
  0
VERTEX
  5
df
  8
Layer_0
  10
221.16815
  20
1089.9804
  42
-0.089931399
  0
VERTEX
  5
e0
  8
Layer_0
  10
219.95157
  20
1090.1866
  42
-0.097660099
  0
VERTEX
  5
e1
  8
Layer_0
  10
218.92105
  20
1090.8401
  42
0.18567089
  0
VERTEX
  5
e2
  8
Layer_0
  10
218.7258
  20
1090.9242
  42
0.23981173
  0
VERTEX
  5
e3
  8
Layer_0
  10
218.50537
  20
1090.7997
  0
VERTEX
  5
e4
  8
Layer_0
  10
218.04471
  20
1090.2203
  42
0.39736199
  0
VERTEX
  5
e5
  8
Layer_0
  10
218.05322
  20
1089.825
  42
0.10994302
  0
VERTEX
  5
e6
  8
Layer_0
  10
219.47784
  20
1088.9709
  42
0.079335799
  0
VERTEX
  5
e7
  8
Layer_0
  10
221.18002
  20
1088.7136
  42
0.057236388
  0
VERTEX
  5
e8
  8
Layer_0
  10
222.33438
  20
1088.8362
  42
0.080911414
  0
VERTEX
  5
e9
  8
Layer_0
  10
223.30759
  20
1089.2244
  42
0.11381498
  0
VERTEX
  5
ea
  8
Layer_0
  10
223.97189
  20
1089.8894
  42
0.13824376
  0
VERTEX
  5
eb
  8
Layer_0
  10
224.21872
  20
1090.821
  0
VERTEX
  5
ec
  8
Layer_0
  10
224.20401
  20
1091.0863
  0
VERTEX
  5
ed
  8
Layer_0
  10
224.15996
  20
1091.3324
  0
VERTEX
  5
ee
  8
Layer_0
  10
224.08669
  20
1091.5584
  0
VERTEX
  5
ef
  8
Layer_0
  10
223.98434
  20
1091.7636
  0
SEQEND
  0
ENDSEC
  0
EOF
