<?xml version="1.0" encoding="UTF-8" standalone="no"?>
<svg xmlns="http://www.w3.org/2000/svg" xmlns:xlink="http://www.w3.org/1999/xlink" width="335.586mm" height="189.402mm" viewBox="-491.793030 -1032.701172 335.586487 189.402344">
    <path transform="matrix(-1,0,0,-1,0,0)" style="stroke:none;fill:#500a78;fill-rule:evenodd" d="M443.665771,1032.560059C440.856689,1032.123535,437.539795,1030.826172,434.305664,1028.898926C431.799805,1027.405762,431.440186,1027.282227,428.793457,1027.003418C419.431641,1026.016602,413.16626,1023.032715,406.927246,1016.589355C402.02417,1011.525879,399.02002,1007.182617,392.650391,995.949219C387.939453,987.641602,384.69458,983.388672,376.41626,974.674805L373.55957,971.667969L375.284912,969.952637C376.999756,968.247559,378.141113,966.626465,378.669922,965.144531C379.523682,962.751953,378.451904,959.57373,375.83374,956.733398L375.003174,955.832031L375.757324,955.832031C377.101563,955.832031,380.45874,956.260742,382.461914,956.687988C385.294922,957.29248,387.637939,958.22998,393.174316,960.974121C399.168945,963.945801,401.226563,964.755371,407.046387,966.432129C414.178711,968.487305,417.456787,969.944336,421.858887,973.01709C424.374268,974.772461,426.452148,976.526367,429.985107,979.877441C438.029541,987.507813,443.043213,990.565918,450.146484,992.175781C452.583252,992.728516,459.04834,992.675781,461.800537,992.081055C467.655029,990.815918,472.558838,988.322266,476.221924,984.747559L477.919678,983.091309L478.215332,981.033691C478.810059,976.896484,479.008545,972.538574,478.878906,966.449219C478.809326,963.180176,478.724609,960.477539,478.69043,960.443359C478.656494,960.408691,477.792725,961.186035,476.771729,962.169922C472.71875,966.074219,467.961182,968.418457,461.818604,969.539551C458.08667,970.220703,448.294922,969.827637,448.294922,968.99707C448.294922,968.898926,450.530762,967.665527,453.263428,966.256348L458.231934,963.693848L456.437256,963.146484C453.041748,962.110352,450.037109,961.383789,447.060547,960.877441C441.222656,959.884277,437.534912,959.609863,423.504639,959.120605C409.271973,958.625,403.637207,957.685547,395.046387,954.378418C393.273193,953.695801,390.47998,952.619141,388.839355,951.986328C375.014893,946.654785,366.000977,946.67041,357.980225,952.039063C355.161133,953.92627,355.088135,954.04541,356.612061,954.273926C357.985352,954.479492,360.212646,955.645508,361.52417,956.844727C363.786865,958.913574,364.672852,961.940918,363.851318,964.797852C363.212402,967.020996,362.031982,968.47998,359.561768,970.099121L358.160889,971.017578L359.940918,972.064941C364.093018,974.509277,368.629395,978.547363,371.959229,982.763672C374.364746,985.809082,377.49585,990.617188,380.412354,995.743164C387.024902,1007.366211,392.094238,1013.668457,399.785645,1019.828613C406.038086,1024.837402,411.880371,1027.611328,419.225098,1029.057617C420.775635,1029.363281,421.935791,1029.680176,421.802979,1029.762207C420.614258,1030.49707,412.279297,1030.94873,407.812744,1030.520508C391.354004,1028.942871,380.261719,1022.578613,372.479248,1010.247559C370.770996,1007.540527,368.4375,1002.644043,367.127686,999.017578C364.596924,992.011719,361.92041,987.512207,357.892578,983.492188C355.051514,980.656738,353.675293,979.696289,348.921631,977.228516C347.051758,976.258301,344.799072,974.964355,343.91626,974.354492C339.868896,971.556641,338.275146,968.003906,339.0625,963.533691C339.514648,960.964844,342.502441,955.978516,345.76416,952.349609C348.223877,949.612305,351.535645,947.102539,355.041016,945.317383C359.347412,943.125,363.172363,942.355469,369.035156,942.501953L372.786377,942.595703L371.744385,942.228516C369.047852,941.279297,364.472168,938.443848,360.861084,935.48584C349.583008,926.245605,342.445557,912.791016,340.360596,896.842285C339.878662,893.154297,339.88623,885.285156,340.375244,881.666504C341.083496,876.431641,342.691895,871.068848,344.812988,866.872559C349.474121,857.650391,357.437256,850.07959,367.194092,845.594727C369.029541,844.750977,373.145508,843.298828,373.700439,843.298828C373.859131,843.298828,374.105225,843.855957,374.305908,844.668945C374.70874,846.300293,376.325195,849.762207,377.47583,851.457031C379.29248,854.131348,382.80542,857.419434,386.2229,859.644043C390.888428,862.681152,396.197021,864.601074,405.900146,866.762695C416.030762,869.018555,421.52002,870.537598,427.401611,872.709473C430.862549,873.988281,432.531982,874.722168,438.419922,877.554199C446.431885,881.408691,449.739258,882.681152,457.447266,884.876953C465.734619,887.236816,468.869141,888.349121,472.841797,890.336914C480.99707,894.417969,486.458984,900.657715,489.293945,909.131836C490.712402,913.371582,491.397461,917.780762,491.675781,924.458496C491.917969,930.276367,491.750977,989.403809,491.483887,992.44043C490.833496,999.82666,488.272949,1005.600586,483.371826,1010.731934C480.287598,1013.960449,477.453125,1016.073242,472.928955,1018.513672C469.157959,1020.54834,466.802734,1022.152344,463.638428,1024.84375C462.065674,1026.181641,460.130615,1027.775879,459.338867,1028.387695C457.511475,1029.799805,453.821533,1031.627441,451.689453,1032.176758C449.795166,1032.664063,445.620361,1032.86377,443.665771,1032.560059zM472.325439,910.742188C473.506348,910.15625,473.883545,909.375,473.297363,908.728027C471.80835,907.08252,465.599609,908.061523,465.821777,909.907227C466.012695,911.493164,469.825684,911.98291,472.325439,910.742188zM352.17334,966.291992C352.711426,966.025391,353.281982,965.552734,353.453369,965.232422C353.748535,964.681152,353.736572,964.631836,353.193604,964.15918C352.880371,963.886719,352.236572,963.55957,351.762207,963.432129C349.246338,962.753906,345.069092,964.46875,345.81958,965.870605C346.429932,967.01123,350.21875,967.262207,352.17334,966.291992zM427.373291,925.796387C428.955322,925.002441,430.56543,923.060547,431.116211,921.283203C431.258545,920.824219,431.196045,920.846191,430.377197,921.547363C428.819092,922.880859,427.4375,923.430664,425.664795,923.422852C424.460205,923.417969,423.918945,923.311523,423.196045,922.937012C421.989746,922.3125,420.453125,920.682129,419.974854,919.519043C419.766357,919.011719,419.530762,918.59668,419.450928,918.595703C419.200439,918.594727,419.023438,920.030762,419.14624,921.066895C419.346191,922.753906,420.334717,924.309082,422.01123,925.573242C423.275879,926.526855,425.716797,926.62793,427.373291,925.796387zM406.026123,990.549316C407.766602,989.660645,409.19751,987.794922,409.926514,985.464355C410.063721,985.026367,409.945801,985.082031,409.063477,985.875977C408.501465,986.380859,407.540039,987.072266,406.926758,987.411621C405.919678,987.969238,405.632813,988.028809,403.960449,988.028809C402.292236,988.028809,401.999756,987.968262,401.006348,987.417969C399.67041,986.678223,398.708252,985.595215,398.064453,984.108398C397.799561,983.496094,397.520264,982.994141,397.443359,982.991699C397.366455,982.989746,397.240479,983.493652,397.163574,984.111328C396.986084,985.532227,397.342773,987.117676,398.116943,988.349121C398.901611,989.597168,399.421143,990.057129,400.771729,990.700684C401.75293,991.16748,402.108154,991.228516,403.446045,991.15918C404.583984,991.100098,405.260986,990.939941,406.026123,990.549316zM383.174805,932.681152C385.79126,931.999512,387.962402,930.240723,389.61084,927.467285C390.091553,926.658203,390.485107,925.954102,390.485107,925.90332C390.485107,925.852539,389.906494,926.171875,389.199463,926.613281C388.492188,927.054688,387.178467,927.661133,386.280273,927.961426C384.85791,928.436035,384.393799,928.496094,382.680176,928.424805C380.103271,928.317871,378.750244,927.792969,377.091064,926.257324C375.683105,924.953613,374.927979,923.62793,374.554199,921.804199L374.296631,920.549805L373.87207,921.378906C372.188232,924.666504,372.594727,927.811523,375.020996,930.275879C377.232178,932.522461,380.304932,933.428223,383.174805,932.681152zM449.022949,1022.786621C451.563965,1022.124512,454.029053,1020.074707,455.192871,1017.655273C456.047119,1015.878906,456.564697,1013.744141,456.482422,1012.333984L456.421387,1011.279297L455.736816,1012.349121C455.360352,1012.9375,454.440918,1013.990234,453.693604,1014.689453C449.729248,1018.397949,443.985596,1018.768066,439.547852,1015.601074C438.218018,1014.652344,436.680664,1013.06543,436.304932,1012.253418C435.63916,1010.814453,435.711426,1012.847656,436.4021,1014.979004C437.582764,1018.624023,440.830566,1021.873535,444.197266,1022.778809C445.673828,1023.175781,447.516357,1023.178711,449.022949,1022.786621zM417.847168,948.536621C422.323242,947.593262,426.993652,945.851074,430.696289,943.742676C435.609131,940.945313,439.338379,938.091309,446.058594,931.984375C451.182861,927.327637,453.777832,925.210938,456.626953,923.364258C458.476318,922.165039,463.990234,919.006348,464.233887,919.006348C464.287598,919.006348,464.617676,918.833008,464.967285,918.620117L465.602539,918.234375L464.244141,917.474121C462.379639,916.431641,460.443115,914.567871,459.590576,912.995605C458.92627,911.770508,458.889893,911.596191,458.889893,909.645996C458.889893,907.775879,458.945068,907.47998,459.496826,906.391113C461.064941,903.296387,465.333252,900.847656,470.552734,900.048828C471.436523,899.913574,472.15918,899.749023,472.15918,899.684082C472.158203,899.34082,467.573975,896.943848,465.232422,896.0625C461.635742,894.708496,456.387451,893.505371,450.043701,892.580078C439.170654,890.994141,434.742676,889.80127,425.767578,886.041504C411.941895,880.249512,404.835693,878.658691,387.854004,877.555176C381.226807,877.124512,381.705566,877.036621,383.181885,878.414063C385.160889,880.261719,389.399414,883.730469,391.479492,885.206543C393.103271,886.358398,393.344238,886.600098,393.039307,886.770508C392.477295,887.085449,384.63623,886.780273,381.07666,886.305664C377.952393,885.888672,374.138184,885.13916,372.038818,884.528809C371.43042,884.352051,370.848877,884.237305,370.74585,884.273926C370.478027,884.370605,372.60791,887.918945,374.257813,890.125977C377.074463,893.892578,380.153564,896.783203,384.327393,899.578613C392.611816,905.126465,401.349365,907.161621,416.921143,907.168457C424.052734,907.172363,426.574951,907.003906,432.403076,906.134766C439.134033,905.131348,441.472656,905.265625,444.467285,906.828125C447.071533,908.187012,450.312744,911.713867,452.307373,915.359863L453.069824,916.753418L452.482422,917.210938C451.799561,917.742676,451.219238,918.230469,443.254639,924.975098C432.880615,933.757813,430.067871,935.868652,424.944824,938.712891C415.924561,943.720703,405.924561,946.317383,395.422852,946.378906C392.370605,946.396973,392.269287,946.410645,393.056641,946.699707C395.193604,947.485352,400.633545,948.585449,404.608154,949.036621C405.496582,949.137207,408.260254,949.187988,410.749268,949.148926C414.67749,949.088379,415.615479,949.007324,417.847168,948.536621z"/>
    <path transform="matrix(-1,0,0,-1,0,0)" style="stroke:none;fill:#500a78;fill-rule:evenodd" d="M181.899658,882.677246L181.899658,843.298828L188.8479,843.298828L188.8479,925.249512L181.899658,925.249512L181.899658,888.437012L165.504395,925.249512L157.956055,925.249512L157.956055,924.777832L175.651611,885.766113L156.206543,843.298828L163.854492,843.298828L181.899658,882.677246z"/>
    <path transform="matrix(-1,0,0,-1,0,0)" style="stroke:none;fill:#500a78;fill-rule:evenodd" d="M183.233887,950.547363C184.911133,950.566895,186.496094,951.311523,187.569824,952.584961C188.37207,953.5625,188.81958,954.77832,188.841064,956.036133L188.8479,956.353516L188.8479,977.14209L181.482422,977.14209L181.482422,956.981934L163.571777,956.981934L163.571777,976.51416L186.463379,1003.848145C187.600098,1005.150391,188.371094,1006.725098,188.698975,1008.414063C188.798828,1008.963867,188.848389,1009.520996,188.8479,1010.07959L188.8479,1026.679199C188.878174,1027.853516,188.551025,1029.009766,187.908936,1029.998047C186.924316,1031.447266,185.311035,1032.360352,183.547607,1032.46582C183.33667,1032.483398,183.124756,1032.492188,182.913086,1032.491699L162.035156,1032.491699C160.854004,1032.523438,159.689453,1032.205566,158.691895,1031.578613C157.239746,1030.614746,156.328125,1029.032715,156.231445,1027.306152C156.215332,1027.097656,156.206543,1026.888672,156.206543,1026.679199L156.206543,1007.618164L163.571777,1007.618164L163.571777,1026.050781L181.482422,1026.050781L181.482422,1008.77002L158.485352,981.436035C157.008789,979.729004,156.200195,977.555176,156.206543,975.310059L156.206543,956.353516C156.175781,955.183594,156.491699,954.030273,157.115723,953.035156C158.062988,951.583008,159.65625,950.665527,161.401367,950.566406C161.612305,950.549805,161.82373,950.541016,162.035156,950.541504L182.913086,950.541504L183.233887,950.547363z"/>
    <path transform="matrix(-1,0,0,-1,0,0)" style="stroke:none;fill:#500a78;fill-rule:evenodd" d="M224.304932,994.422363L223.373779,995.888672L211.219482,995.888672L211.219482,1026.050781L228.716309,1026.050781L228.716309,950.541504L235.528809,950.541504L235.528809,1032.491699L209.847168,1032.491699C208.750244,1032.521973,207.669434,1032.203613,206.741211,1031.578613C205.383057,1030.624023,204.526367,1029.039551,204.430664,1027.306152C204.414795,1027.097656,204.406982,1026.888672,204.406982,1026.679199L204.406982,995.574219C204.380859,994.583984,204.583252,993.601563,204.996338,992.713867C205.509033,991.710938,206.328369,990.925781,207.317139,990.489746C208.337891,990.038574,209.422119,989.774902,210.525146,989.708984C211.464355,989.644531,212.406006,989.64209,213.344971,989.702148L214.674316,989.77002C215.139893,989.796387,215.605713,989.811035,216.071533,989.814453L212.766113,980.015625L209.467285,970.204102L206.174316,960.379395L202.887695,950.541504L210.042969,950.541504L224.304932,994.422363z"/>
    <path transform="matrix(-1,0,0,-1,0,0)" style="stroke:none;fill:#500a78;fill-rule:evenodd" d="M230.346436,843.305176C231.621826,843.322754,232.849121,843.827148,233.802979,844.725586C234.811523,845.694824,235.422607,847.043945,235.504883,848.484375C235.520752,848.692871,235.528809,848.901855,235.528809,849.111328L235.528809,919.437012C235.557373,920.609375,235.257568,921.763672,234.66748,922.755371C233.767578,924.206543,232.273438,925.121582,230.638184,925.224121C230.441895,925.241211,230.244629,925.249512,230.047363,925.249512L208.417969,925.249512C207.308594,925.27832,206.215332,924.960938,205.274414,924.335938C203.807861,923.327637,202.913818,921.607422,202.893311,919.753906L202.887451,919.437012L202.887451,849.111328C202.859131,847.937012,203.163818,846.780762,203.762207,845.79248C204.679932,844.342773,206.18335,843.429688,207.826904,843.324219C208.023682,843.307129,208.220947,843.298828,208.417969,843.298828L230.047363,843.298828L230.346436,843.305176zM209.751465,849.739746L209.751465,918.808105L228.664551,918.808105L228.664551,849.739746L209.751465,849.739746z"/>
    <path transform="matrix(-1,0,0,-1,0,0)" style="stroke:none;fill:#500a78;fill-rule:evenodd" d="M277.590088,843.305176C278.865723,843.323242,280.092529,843.827148,281.046631,844.725586C282.05542,845.694336,282.66626,847.043945,282.748291,848.484375C282.764648,848.692871,282.772705,848.901855,282.772217,849.111328L282.772217,919.437012C282.801025,920.609375,282.501465,921.763672,281.911377,922.755371C281.01123,924.206543,279.51709,925.121582,277.88208,925.224121C277.685303,925.241211,277.488281,925.249512,277.291016,925.249512L255.662109,925.249512C254.55249,925.27832,253.459229,924.960938,252.518555,924.335938C251.051758,923.327637,250.157959,921.607422,250.137451,919.753906L250.131348,919.437012L250.131348,849.111328C250.102539,847.937012,250.407715,846.780762,251.006348,845.79248C251.923828,844.342773,253.427246,843.429688,255.070557,843.324219C255.267334,843.307129,255.4646,843.29834,255.662109,843.298828L277.291016,843.298828L277.590088,843.305176zM256.995361,849.739746L256.995361,918.808105L275.908447,918.808105L275.908447,849.739746L256.995361,849.739746z"/>
    <path transform="matrix(-1,0,0,-1,0,0)" style="stroke:none;fill:#500a78;fill-rule:evenodd" d="M259.221924,968.763672L273.870605,968.763672L276.461182,950.541504L282.772217,950.541504L282.772217,950.750488L269.631348,1032.701172L263.178223,1032.701172L250.131348,950.541504L256.631104,950.541504L259.221924,968.763672zM260.06958,975.205078L266.522949,1019.610352L273.022461,975.205078L260.06958,975.205078z"/>
    <path transform="matrix(-1,0,0,-1,0,0)" style="stroke:none;fill:#500a78;fill-rule:evenodd" d="M326.588379,1032.491699L299.933594,1032.491699C298.768555,1032.521973,297.620605,1032.203613,296.634521,1031.578613C295.192139,1030.624023,294.281982,1029.039551,294.180176,1027.306152C294.16333,1027.097656,294.155029,1026.888672,294.155273,1026.679199L294.155273,1002.330078C294.145996,1000.601074,294.841553,998.944336,296.07959,997.745605C296.38916,997.435059,296.720459,997.147461,297.070313,996.883789L302.797119,993.427734L296.654297,989.448242C295.228271,988.594727,294.266602,987.134277,294.042236,985.480469C293.977539,985.060547,293.945801,984.636719,293.947021,984.211426L293.947021,956.353516C293.916748,955.181641,294.232666,954.026367,294.85498,953.035156C295.803711,951.583984,297.378662,950.668945,299.102295,950.566406C299.30957,950.549805,299.517578,950.541504,299.725586,950.541504L326.588379,950.541504L326.588379,1032.491699zM308.679932,996.465332L301.443604,1001.387207L301.443604,1026.050781L319.352051,1026.050781L319.352051,996.465332L308.679932,996.465332zM301.235352,956.981934L301.235352,985.311523L308.575684,990.128906L319.352051,990.128906L319.352051,956.981934L301.235352,956.981934z"/>
    <path transform="matrix(-1,0,0,-1,0,0)" style="stroke:none;fill:#500a78;fill-rule:evenodd" d="M326.588135,925.249512L319.352051,925.249512L319.352051,849.740234L300.558838,849.740234L300.558838,843.299316L326.588135,843.299316L326.588135,925.249512z"/>
    <path transform="matrix(-1,0,0,-1,0,0)" style="stroke:none;fill:#500a78;fill-rule:evenodd" d="M300.55835,843.298828L293.943848,843.298828L293.943848,849.740234L300.55835,849.740234L300.55835,843.298828z"/>
</svg>
