<svg width="386" height="327" viewBox="0 0 386 327" fill="none" xmlns="http://www.w3.org/2000/svg">
<path fill-rule="evenodd" clip-rule="evenodd" d="M185.447 0.216152C161.135 1.26315 143.753 5.81015 120.947 17.0872C82.8889 35.9062 53.0379 69.8212 38.9579 110.236L35.2489 120.879L25.5979 116.663C8.99689 109.412 1.37588 106.763 0.277878 107.861C-0.397122 108.536 0.155887 112.115 1.95589 118.729C5.58689 132.071 8.25489 138.345 14.3179 147.797C19.0569 155.183 19.4029 156.134 18.8429 160.223C18.0879 165.726 19.6379 169.648 26.8599 180.506C31.2629 187.127 32.4499 189.854 33.4099 195.561C35.2599 206.564 42.0509 225.544 48.7089 238.325C72.0989 283.225 116.443 315.629 166.119 324.121C181.824 326.806 205.029 326.813 220.678 324.138C279.659 314.055 329.393 271.358 348.28 214.592C350.476 207.992 353.049 198.343 353.999 193.151C355.365 185.676 356.424 182.736 359.082 179.037C364.576 171.39 366.771 165.477 366.129 160.059C365.607 155.647 365.911 154.836 371.028 146.974C374.029 142.364 377.367 136.235 378.447 133.355C380.881 126.858 385.447 110.743 385.447 108.646C385.447 105.932 381.413 106.91 367.065 113.101C359.43 116.396 352.661 119.092 352.022 119.092C351.382 119.092 349.578 115.155 348.011 110.342C343.802 97.4082 333.545 78.0262 324.595 66.0922C308.727 44.9342 289.123 28.5541 265.947 17.0901C238.617 3.57014 216.28 -1.11085 185.447 0.216152ZM209.023 6.18716C245.446 9.83716 279.241 26.0381 305.155 52.2711C315.784 63.0301 321.886 70.8771 329.655 83.7761C335.228 93.0281 343.735 112.739 344.919 119.138C345.548 122.539 345.478 122.624 340.321 124.7L335.085 126.808L330.963 114.7C317.875 76.2482 291.613 46.2582 255.947 29.0362C238.576 20.6482 224.232 16.6911 205.104 15.0081C137.382 9.05214 74.5169 50.6642 53.3239 115.473C51.0779 122.341 50.6819 124.67 51.5759 125.747C53.5429 128.118 52.0149 128.16 46.6249 125.883C43.2389 124.452 41.4469 123.099 41.4469 121.973C41.4469 116.715 51.7809 92.3702 58.8009 81.0922C83.8409 40.8582 125.059 13.5592 170.447 7.14715C186.617 4.86215 193.98 4.67916 209.023 6.18716ZM188.773 40.0182C192.874 43.2772 196.913 46.9191 197.748 48.1121C199.19 50.1711 199.304 49.9432 199.979 43.6362C200.679 37.1062 202.251 34.0922 204.959 34.0922C207.399 34.0922 207.824 36.2982 207.935 49.5532C208.04 61.9372 208.196 62.8932 211.048 68.5922C212.7 71.8922 214.496 75.6551 215.039 76.9531C215.981 79.2081 216.192 79.0452 219.714 73.3392C224.738 65.1992 234.604 56.2372 243.691 51.5592C250.24 48.1882 251.457 47.8552 252.891 49.0452C256.036 51.6562 254.315 54.3562 246.947 58.3692C234.943 64.9072 225.427 75.5942 220.9 87.6202C218.008 95.3042 218.35 101.499 221.821 104.32C224.47 106.472 225.447 106.532 225.447 104.542C225.447 100.105 232.464 92.7092 234.624 94.8692C236.11 96.3552 234.472 102.909 231.831 106.048C229.781 108.484 229.661 109.025 230.936 110.083C232.13 111.074 233.497 110.689 238.178 108.042C241.351 106.247 247.645 103.129 252.165 101.113C263.429 96.0882 268.803 89.2402 271.901 75.9602C272.696 72.5522 274.009 69.1022 274.819 68.2912C276.532 66.5782 279.208 67.3051 280.141 69.7371C281.061 72.1351 278.959 81.2931 276.011 87.7331C273.853 92.4481 273.743 93.1341 275.226 92.6721C279.705 91.2751 293.136 88.1212 294.662 88.1072C295.605 88.0992 296.902 89.0742 297.545 90.2752C299.181 93.3312 296.29 95.4692 288.432 97.0152C281.271 98.4242 262.763 104.682 253.54 108.813L247.133 111.683L257.554 113.738C274.961 117.171 290.466 124.691 303.418 135.982L307.89 139.88L304.159 141.439L300.428 142.998L294.118 138.221C280.002 127.537 264.234 121.224 249.447 120.337L240.947 119.828L243.084 122.21C244.259 123.52 246.658 127.167 248.413 130.313L251.606 136.035L254.578 133.837C257.103 131.97 257.686 131.86 258.457 133.108C259.557 134.888 258.804 138.55 256.503 142.606C254.633 145.902 254.841 153.097 256.806 153.085C257.434 153.081 261.257 151.955 265.301 150.582C272.423 148.165 290.971 145.283 292.105 146.417C292.803 147.115 274.707 155.628 268.524 157.511C257.121 160.983 257.244 160.856 255.291 171.094C252.972 183.252 249.308 190.762 240.592 201.215C233.491 209.733 226.959 214.899 218.715 218.521C213.523 220.801 212.893 223.157 213.776 237.002C214.667 250.988 217.93 260.935 226.482 275.732C228.515 279.25 228.674 280.114 227.538 281.482C225.092 284.429 222.58 283.339 219.031 277.79C215.104 271.652 211.372 263.112 208.918 254.654C207.342 249.221 207.079 248.875 205.821 250.595C205.065 251.629 204.447 252.892 204.447 253.402C204.447 253.913 202.845 256.968 200.886 260.192C198.577 263.993 197.611 266.547 198.136 267.457C198.582 268.229 201.555 271.693 204.743 275.154C211.099 282.055 211.918 285.362 207.4 285.889C205.387 286.123 203.542 284.82 198.592 279.664L192.329 273.142L185.523 280.224C179.397 286.598 178.502 287.192 176.581 286.164C173.159 284.332 173.972 280.971 179.028 276.05C181.548 273.598 184.462 270.413 185.505 268.971L187.399 266.35L182.923 258.495C180.461 254.175 178.447 250.202 178.447 249.666C178.447 247.335 176.631 250.953 175.538 255.463C174.077 261.489 169.387 271.952 165.272 278.364C161.994 283.473 159.235 284.321 157.08 280.882C156.252 279.563 156.53 278.308 158.296 275.382C168.353 258.725 173.241 238.577 170.803 223.828C170.256 220.521 169.559 219.753 165.064 217.508C162.25 216.103 158.432 213.522 156.58 211.773C150.965 206.468 141.447 195.124 141.447 193.737C141.447 193.02 143.774 191.344 146.619 190.013C152.743 187.146 163.51 186.8 174.947 189.102C178.797 189.877 185.565 190.503 189.986 190.494C196.866 190.48 198.957 190.036 204.486 187.411C211.82 183.93 215.765 180.573 220.138 174.092C223.415 169.237 228.234 158.625 230.811 150.592C234.393 139.426 237.768 118.092 235.952 118.092C235.68 118.092 232.677 120.333 229.278 123.071C222.182 128.789 212.686 133.925 195.996 141.071C189.546 143.833 184.135 146.092 183.97 146.092C183.805 146.092 184.718 143.515 185.998 140.365C187.278 137.215 188.133 134.445 187.897 134.209C187.662 133.974 185.102 136.004 182.208 138.721C179.314 141.439 173.545 146.209 169.387 149.322C153.545 161.184 141.384 176.397 139.792 186.342C139.462 188.405 138.866 190.092 138.467 190.092C136.928 190.092 131.431 176.181 130.617 170.225C129.573 162.589 128.438 161.387 117.947 156.803C105.531 151.377 96.4469 147.054 96.4469 146.57C96.4469 145.074 117.522 149.374 124.28 152.249C126.663 153.262 128.978 154.092 129.425 154.092C129.872 154.092 130.432 152.179 130.671 149.842C131.017 146.46 130.63 145.015 128.776 142.765C127.213 140.869 126.447 138.648 126.447 136.015C126.447 131.432 127.231 131.198 131.253 134.582L134.212 137.072L135.459 134.064C136.144 132.41 138.433 128.589 140.545 125.574L144.385 120.092L138.166 120.107C123.537 120.142 105.492 126.784 92.0619 137.078L85.4529 142.143L81.8499 140.294L78.2469 138.446L83.0969 134.402C96.6729 123.084 112.599 115.874 130.243 113.06L137.539 111.896L131.53 109.053C122.684 104.87 112.402 101.317 99.4829 97.9791C88.2359 95.0731 86.1989 93.9931 86.6979 91.1992C87.2879 87.8981 90.0349 87.7122 100.327 90.2742C109.94 92.6672 112.369 92.4742 109.526 89.5422C107.84 87.8032 104.447 76.2122 104.447 72.1912C104.447 69.0352 104.878 68.0902 106.559 67.5572C109.554 66.6062 111.241 68.7342 112.419 74.9452C114.189 84.2792 122.016 97.2332 126.738 98.6432C127.953 99.0062 134.438 102.028 141.15 105.359C151.547 110.519 153.588 111.22 154.939 110.099C156.364 108.916 156.265 108.511 153.966 106.112C151.246 103.273 149.579 98.7221 150.208 95.8531C151.108 91.7471 159.447 99.5902 159.447 104.542C159.447 106.399 159.633 106.42 162.9 104.931C165.261 103.856 165.447 103.281 165.447 97.0662C165.447 91.3462 164.909 89.2851 161.786 83.0431C156.982 73.4401 146.494 62.7702 137.201 58.0322C130.139 54.4312 128.633 51.8432 131.982 49.0632C133.261 48.0012 134.802 48.4402 141.201 51.6882C149.926 56.1172 161.307 66.5842 165.877 74.3822L168.683 79.1712L171.904 71.7622C176.169 61.9522 178.994 58.0922 181.908 58.0922C185.913 58.0922 185.718 60.9202 181.051 70.4852C176.399 80.0222 173.447 90.1142 173.447 96.4852C173.447 100.206 173.486 100.243 176.697 99.5731C178.485 99.2011 180.899 98.2942 182.062 97.5592C183.226 96.8242 184.576 96.5571 185.062 96.9661C185.549 97.3751 189.322 97.4581 193.447 97.1511C198.107 96.8041 201.894 97.0212 203.447 97.7262C204.822 98.3502 207.245 99.1612 208.832 99.5292L211.717 100.198L211.013 93.8952C208.968 75.5892 198.352 57.1242 182.882 44.9672C175.184 38.9172 174.078 34.5742 180.131 34.1712C180.783 34.1282 184.671 36.7582 188.773 40.0182ZM156.08 44.8642C158.952 47.1902 160.447 50.3281 160.447 54.0261C160.447 57.9811 159.052 57.8972 154.847 53.6922C152.24 51.0852 151.447 49.4532 151.447 46.6922C151.447 42.6752 152.745 42.1632 156.08 44.8642ZM233.447 46.5572C233.447 50.2652 228.519 57.0922 225.843 57.0922C222.532 57.0922 225.295 46.4451 229.197 44.1721C232.358 42.3311 233.447 42.9432 233.447 46.5572ZM173.171 52.4192C174.137 55.3162 174.137 56.8682 173.171 59.7652C171.59 64.5102 169.951 64.9672 168.006 61.2052C166.069 57.4612 166.058 55.9592 167.933 51.4722C169.737 47.1532 171.524 47.4762 173.171 52.4192ZM217.095 51.4812C218.954 55.3782 218.325 61.1182 215.812 63.2042C212.045 66.3302 209.616 56.4212 212.659 50.3422C214.203 47.2562 215.203 47.5132 217.095 51.4812ZM126.279 63.4022C128.847 66.1482 130.53 74.0922 128.543 74.0922C124.436 74.0922 118.637 65.2192 119.98 60.9882C120.688 58.7572 122.632 59.5022 126.279 63.4022ZM265.04 64.4462C264.295 68.4182 259.515 74.0922 256.914 74.0922C255.456 74.0922 255.273 73.4242 255.754 69.8432C256.184 66.6352 257.22 64.7712 259.983 62.2402C264.275 58.3062 266.047 59.0792 265.04 64.4462ZM147.944 71.3422C150.478 73.5282 152.548 79.3142 151.7 81.8422C150.372 85.7992 143.542 79.2172 142.735 73.2042C142.081 68.3262 143.754 67.7282 147.944 71.3422ZM242.447 72.5572C242.447 75.0072 241.538 77.0582 239.343 79.5572C235.464 83.9762 233.447 84.1361 233.447 80.0261C233.447 76.3281 234.942 73.1902 237.814 70.8642C241.115 68.1912 242.447 68.6772 242.447 72.5572ZM195.124 75.8422C196.495 79.1072 196.521 80.1092 195.323 83.5922C194.539 85.8692 193.301 87.5922 192.447 87.5922C191.593 87.5922 190.355 85.8692 189.571 83.5922C188.373 80.1092 188.399 79.1072 189.77 75.8422C190.636 73.7802 191.841 72.0922 192.447 72.0922C193.053 72.0922 194.258 73.7802 195.124 75.8422ZM133.243 88.1601C135.573 91.5741 135.876 96.1332 133.817 96.8082C130.468 97.9062 123.88 86.4362 125.943 83.0982C126.912 81.5312 130.341 83.9101 133.243 88.1601ZM259.443 85.9011C259.437 90.4091 253.994 97.9761 250.697 98.0601C248.968 98.1041 249.108 92.6482 250.927 89.1312C252.651 85.7962 257.285 81.8742 258.565 82.6652C259.05 82.9652 259.445 84.4211 259.443 85.9011ZM95.4469 103.633C95.4469 106.187 90.3519 109.092 85.8709 109.092C80.8299 109.092 79.5519 107.739 82.0179 105.014C85.1659 101.535 95.4469 100.478 95.4469 103.633ZM301.447 103.993C305.028 106.587 305.147 108.874 301.77 110.166C298.3 111.494 292.606 110.03 289.989 107.138C285.251 101.903 294.903 99.2532 301.447 103.993ZM178.447 104.692C155.128 110.916 139.282 128.702 135.55 152.841C134.466 159.849 134.999 171.092 136.415 171.092C136.796 171.092 138.616 168.955 140.46 166.342C142.304 163.729 147.442 158.044 151.879 153.708C156.317 149.371 159.497 146.055 158.947 146.339C158.397 146.622 154.86 148.733 151.087 151.03C147.314 153.326 144.036 155.014 143.803 154.781C143.57 154.548 143.87 152.167 144.47 149.491C149.928 125.134 173.566 108.773 198.337 112.206C205.577 113.209 215.447 116.562 215.447 118.019C215.447 118.891 209.695 124.29 206.474 126.441C204.898 127.494 204.551 128.092 205.516 128.092C207.327 128.092 222.573 118.85 224.406 116.641C226.191 114.49 224.493 112.644 217.507 109.141C205.937 103.339 190.222 101.549 178.447 104.692ZM121.111 107.422C122.302 108.613 119.166 112.03 115.889 113.111C111.793 114.463 105.117 113.593 105.71 111.785C105.925 111.129 107.641 109.541 109.524 108.256C112.144 106.468 113.846 106.038 116.78 106.422C118.888 106.698 120.836 107.148 121.111 107.422ZM274.319 107.526C281.237 111.103 280.458 115.092 272.84 115.092C269.474 115.092 267.762 114.452 265.339 112.287C262.388 109.65 262.302 109.38 263.895 107.787C265.967 105.715 270.594 105.599 274.319 107.526ZM88.1999 122.512C89.2469 123.559 84.2799 127.97 81.3209 128.62C77.6309 129.43 72.2279 128.256 72.7209 126.751C72.9299 126.114 74.6409 124.541 76.5239 123.256C79.1439 121.468 80.8459 121.038 83.7799 121.422C85.8879 121.698 87.8769 122.188 88.1999 122.512ZM307.319 122.526C314.145 126.056 313.46 130.092 306.037 130.092C302.942 130.092 301.011 129.374 298.525 127.298C295.37 124.664 295.276 124.406 296.884 122.798C298.966 120.716 303.587 120.596 307.319 122.526ZM46.9469 138.038C108.689 166.608 110.935 167.902 116.324 178.013C118.148 181.434 119.463 184.41 119.247 184.626C118.56 185.312 109.776 182.544 76.5419 171.169C41.6759 159.235 37.3899 157.447 31.4399 152.354C27.1239 148.659 20.2669 138.784 15.5479 129.468C12.3819 123.216 11.8689 121.668 13.1969 122.371C13.6099 122.589 28.7969 129.639 46.9469 138.038ZM370.925 126.842C368.553 132.587 360.659 145.303 356.297 150.406C354.147 152.921 350.039 156.32 347.167 157.959C342.766 160.471 276.854 183.574 268.086 185.678C265.428 186.316 265.277 186.195 265.949 183.978C269.254 173.068 277.342 167.119 307.947 153.089C320.047 147.542 339.397 138.561 350.947 133.132C362.497 127.702 372.066 123.222 372.21 123.176C372.355 123.13 371.777 124.78 370.925 126.842ZM112.367 136.677C116.148 138.189 119.447 141.69 119.447 144.188C119.447 146.399 111.428 144.448 108.335 141.485C104.601 137.907 104.563 136.413 108.177 135.171C108.303 135.128 110.189 135.805 112.367 136.677ZM224.774 142.362C221.197 154.406 215.115 167.123 210.317 172.587C204.947 178.703 199.102 181.479 191.525 181.513C185.774 181.538 168.304 178.052 164.68 176.156C163.751 175.67 164.15 174.514 166.18 171.816C168.788 168.349 175.019 163.092 176.52 163.092C176.896 163.092 177.767 164.451 178.455 166.112C183.818 179.058 203.199 177.111 206.289 163.316L207.246 159.039L204.065 159.636C200.24 160.353 197.1 157.572 197.617 153.924C197.876 152.093 200.207 150.411 208.472 146.092C214.261 143.067 220.331 139.619 221.961 138.43C223.591 137.242 225.24 136.464 225.625 136.702C226.011 136.94 225.628 139.487 224.774 142.362ZM241.486 141.842C240.783 145.005 238.911 151.413 237.327 156.084C235.743 160.755 234.459 164.805 234.474 165.084C234.489 165.363 235.827 164.017 237.447 162.092L240.393 158.592L240.42 162.632C240.494 173.718 235.228 185.418 226.004 194.667C220.256 200.43 217.509 202.337 211.19 204.949C201.27 209.05 190.916 210.001 181.176 207.706C174.423 206.115 167.106 202.967 165.999 201.176C165.663 200.633 168.927 199.919 173.681 199.494C182.854 198.675 182.147 198.265 167.947 196.175C160.264 195.044 151.45 195.72 149.651 197.578C148.477 198.791 159.549 208.011 165.992 211.186C174.702 215.478 181.709 217.067 191.987 217.08C208.584 217.102 220.573 212.199 232.038 200.703C244.363 188.344 250.685 171.484 249.035 155.378C248.327 148.467 244.818 136.092 243.566 136.092C243.126 136.092 242.19 138.679 241.486 141.842ZM279.447 137.692C279.447 138.572 277.917 140.822 276.047 142.692C273.293 145.446 271.873 146.092 268.572 146.092C264.606 146.092 264.523 146.023 265.476 143.517C267.236 138.887 271.176 136.169 276.197 136.122C278.522 136.101 279.447 136.547 279.447 137.692ZM45.1009 166.518C52.7159 168.953 71.0879 174.622 85.9259 179.117C118.271 188.916 122.74 190.991 128.219 198.746C132.511 204.823 134.828 204.88 95.9469 197.952C55.5059 190.746 50.9929 189.324 41.8579 180.903C37.7419 177.109 27.4469 164.119 27.4469 162.72C27.4469 161.338 31.8809 162.292 45.1009 166.518ZM355.893 165.915C352.52 171.625 343.741 181.665 338.913 185.333C336.182 187.408 331.697 189.951 328.947 190.984C324.894 192.507 275.243 202.068 257.597 204.725L253.247 205.38L254.818 202.342C258.895 194.457 266.012 190.104 282.947 185.137C295.38 181.491 327.16 171.777 341.447 167.256C357.38 162.213 358.12 162.145 355.893 165.915ZM347.754 196.342C341.185 225.538 326.425 252.424 305.168 273.913C285.041 294.26 263.339 307.036 235.447 314.959C181.532 330.274 123.571 315.201 83.0669 275.333C63.5319 256.103 50.7339 234.921 42.3539 207.949C40.6469 202.453 39.4389 197.767 39.6699 197.536C40.6009 196.605 59.1479 221.096 62.8089 228.092C70.5599 242.903 75.3749 249.47 88.9469 263.748C132.153 309.198 196.998 321.521 254.76 295.258C284.895 281.556 311.456 255.118 325.145 225.198C328.152 218.625 345.844 194.129 347.603 194.102C347.964 194.097 348.032 195.105 347.754 196.342ZM79.4469 201.086C92.3719 202.739 106.772 204.564 111.447 205.142C124.223 206.722 132.651 209.629 136.971 213.948L140.616 217.592L118.281 217.876C76.9679 218.4 69.5889 216.495 53.6969 201.202C51.9089 199.482 50.4469 197.931 50.4469 197.756C50.4469 197.373 50.1129 197.334 79.4469 201.086ZM328.51 204.534C321.405 211.066 316.473 214.283 309.876 216.689C305.692 218.214 300.376 218.57 274.696 219.039C258.058 219.343 244.445 219.21 244.446 218.743C244.449 216.886 250.832 212.092 255.745 210.256C261.177 208.227 265.525 207.484 291.947 204.073C300.747 202.937 312.222 201.4 317.447 200.657C322.672 199.915 328.631 199.259 330.688 199.199L334.43 199.092L328.51 204.534ZM133.399 223.633C137.965 224.121 146.447 227.648 146.447 229.059C146.447 229.493 142.959 230.342 138.697 230.947C111.5 234.804 99.4609 234.872 89.0899 231.227C83.1439 229.137 76.4469 224.787 76.4469 223.016C76.4469 222.066 123.506 222.576 133.399 223.633ZM179 223.006C178.332 224.086 181.209 236.413 183.475 242.18C185.92 248.402 191.625 259.092 192.5 259.092C193.297 259.092 199.972 245.682 201.964 240.079C202.841 237.611 204.154 232.781 204.88 229.346L206.201 223.099L198.074 223.705C193.604 224.039 187.574 223.872 184.674 223.334C181.774 222.797 179.221 222.649 179 223.006ZM305.468 227.146C297.933 233.587 284.329 236.579 269.515 235.055C255.44 233.607 243.329 232.134 240.148 231.484L237.349 230.912L239.555 228.998C241.621 227.206 245.593 225.802 251.447 224.795C252.822 224.558 266.322 224.321 281.447 224.269L308.947 224.173L305.468 227.146ZM156.377 235.842C156.434 234.414 158.447 233.119 158.447 234.51C158.447 238.054 155.053 239.089 151.888 236.51C150.28 235.2 150.242 235.021 151.665 235.467C152.61 235.763 153.7 235.492 154.087 234.865C154.551 234.115 155.051 234.387 155.549 235.658C156.209 237.344 156.315 237.368 156.377 235.842ZM230.447 236.115C230.447 236.549 231.46 236.717 232.697 236.487C234.315 236.187 234.166 236.38 232.164 237.175C228.964 238.446 226.447 237.804 226.447 235.717C226.447 234.772 227.132 234.458 228.447 234.802C229.547 235.09 230.447 235.681 230.447 236.115ZM136.977 243.649C140.714 246.155 145.935 249.192 148.578 250.399C151.221 251.605 153.608 253.155 153.884 253.842C154.704 255.89 153.369 258.092 151.307 258.092C147.657 258.092 130.736 248.495 125.159 243.261C122.65 240.907 122.55 240.574 124.159 239.939C127.842 238.484 130.364 239.214 136.977 243.649ZM261.447 241.171C261.447 242.426 247.955 251.761 241.11 255.241C234.441 258.632 231.1 258.67 230.63 255.361C230.37 253.529 231.273 252.675 235.67 250.593C238.616 249.198 243.873 246.145 247.351 243.809C252.632 240.261 254.315 239.622 257.561 239.931C259.698 240.135 261.447 240.693 261.447 241.171ZM110.413 247.501C116.522 253.44 129.461 262.561 137.602 266.666C144.618 270.203 145.741 271.495 144.277 274.342C143.003 276.818 141.306 276.553 133.672 272.683C124.471 268.02 114.444 260.781 105.138 252.083C96.9869 244.464 96.6579 243.14 102.913 243.107C105.078 243.096 107.102 244.282 110.413 247.501ZM286.447 244.846C287.387 245.731 270.958 260.214 262.947 265.563C251.337 273.313 243.812 276.812 241.664 275.457C238.065 273.187 239.701 270.794 247.947 266.267C257.543 260.998 266.013 255.012 273.415 248.27C278.324 243.798 279.244 243.344 282.415 243.832C284.358 244.131 286.172 244.587 286.447 244.846Z" fill="black"/>
</svg>
