<?xml version="1.0" encoding="UTF-8" standalone="no"?>
<svg xmlns="http://www.w3.org/2000/svg" xmlns:xlink="http://www.w3.org/1999/xlink" width="418.895mm" height="236.565mm" viewBox="-489.447510 -912.282593 418.895081 236.565247">
    <path transform="matrix(-1,0,0,-1,0,0)" style="stroke:none;fill:#000000;fill-rule:evenodd" d="M250.418076,675.717346L242.176712,675.717346L242.176712,683.743591L250.418076,683.743591L250.418076,675.717346zM249.059143,682.275391L246.918518,682.275391L246.918518,682.275391L249.059143,682.275391L249.059143,682.275391z"/>
    <path transform="matrix(-1,0,0,-1,0,0)" style="stroke:none;fill:#000000;fill-rule:evenodd" d="M282.852142,777.830322L273.835693,777.830322L273.835693,683.743652L250.41864,683.743652L250.41864,675.717957L282.852142,675.717957L282.852142,777.830322z"/>
    <path transform="matrix(-1,0,0,-1,0,0)" style="stroke:none;fill:#000000;fill-rule:evenodd" d="M282.852173,911.456848L249.639954,911.456848C248.188095,911.494202,246.757645,911.098328,245.529144,910.319153C243.731781,909.129639,242.5979,907.15564,242.470978,904.9953C242.449982,904.735596,242.43959,904.475098,242.439804,904.214539L242.439804,873.87439C242.428329,871.720642,243.295059,869.655884,244.837601,868.162231C245.223419,867.775391,245.635925,867.416504,246.072083,867.088257L253.207809,862.781921L245.553558,857.823425C243.776855,856.760559,242.5784,854.940247,242.299011,852.880066C242.218414,852.356812,242.178802,851.828064,242.180542,851.298645L242.180542,816.586792C242.142715,815.126343,242.536346,813.687317,243.311646,812.451904C244.493896,810.643921,246.456268,809.503357,248.603943,809.375854C248.862335,809.354736,249.12146,809.344238,249.380692,809.344482L282.852173,809.344482L282.852173,911.456848zM260.537842,866.566711L251.521301,872.699524L251.521301,903.431152L273.835632,903.431152L273.835632,866.566711L260.537842,866.566711zM251.26152,817.36969L251.26152,852.668884L260.407959,858.671631L273.835632,858.671631L273.835632,817.36969L251.26152,817.36969z"/>
    <path transform="matrix(-1,0,0,-1,0,0)" style="stroke:none;fill:#000000;fill-rule:evenodd" d="M198.911987,832.05011L217.164398,832.05011L220.392456,809.344238L228.2565,809.344238L228.2565,809.605042L211.882538,911.717407L203.841766,911.717407L187.584854,809.344238L195.683929,809.344238L198.911987,832.05011zM199.968262,840.075806L208.009048,895.40564L216.108124,840.075806L199.968262,840.075806z"/>
    <path transform="matrix(-1,0,0,-1,0,0)" style="stroke:none;fill:#000000;fill-rule:evenodd" d="M221.799255,675.72522C223.388657,675.747742,224.917603,676.376099,226.106171,677.4953C227.363159,678.702454,228.124344,680.383911,228.226379,682.178955C228.246765,682.43866,228.25679,682.699158,228.256439,682.959717L228.256439,770.587402C228.292053,772.047852,227.918671,773.486816,227.183533,774.722351C226.061981,776.530396,224.200317,777.670837,222.162964,777.797913C221.91806,777.819519,221.672424,777.8302,221.426666,777.829773L194.476181,777.829773C193.093597,777.865784,191.731384,777.470093,190.559082,776.692017C188.731659,775.435486,187.617752,773.291931,187.592194,770.982544L187.584793,770.587402L187.584793,682.959717C187.549255,681.496765,187.929077,680.056152,188.674957,678.824829C189.818176,677.018311,191.691467,675.880676,193.73938,675.749268C193.984436,675.727661,194.230255,675.71698,194.476181,675.717407L221.426666,675.717407L221.799255,675.72522zM196.137543,683.743103L196.137543,769.804016L219.70369,769.804016L219.70369,683.743103L196.137543,683.743103z"/>
    <path transform="matrix(-1,0,0,-1,0,0)" style="stroke:none;fill:#000000;fill-rule:evenodd" d="M162.932449,675.72522C164.521881,675.74762,166.050858,676.376038,167.23938,677.4953C168.49617,678.702698,169.257507,680.383972,169.360077,682.178955C169.379929,682.43866,169.389786,682.699158,169.389648,682.959717L169.389648,770.587402C169.425293,772.047852,169.05191,773.486816,168.316727,774.722351C167.19519,776.530396,165.333527,777.670837,163.296173,777.797913C163.05127,777.81958,162.805603,777.8302,162.55986,777.829773L135.609375,777.829773C134.226791,777.865784,132.864594,777.470093,131.692276,776.692017C129.864899,775.435486,128.751038,773.29187,128.725388,770.982544L128.717987,770.587402L128.717987,682.959717C128.682617,681.496765,129.062424,680.056213,129.808151,678.824829C130.951447,677.018372,132.824692,675.880798,134.872574,675.749268C135.117661,675.7276,135.363464,675.717041,135.609375,675.717407L162.55986,675.717407L162.932449,675.72522zM137.270737,683.743103L137.270737,769.804016L160.836899,769.804016L160.836899,683.743103L137.270737,683.743103z"/>
    <path transform="matrix(-1,0,0,-1,0,0)" style="stroke:none;fill:#000000;fill-rule:evenodd" d="M155.404816,864.021362L154.244583,865.848389L139.09996,865.848389L139.09996,903.430908L160.901245,903.430908L160.901245,809.344238L169.389709,809.344238L169.389709,911.456604L137.389938,911.456604C136.023117,911.493958,134.676453,911.098022,133.519897,910.318909C131.827652,909.129517,130.760132,907.155518,130.640839,904.995056C130.621078,904.735352,130.611298,904.474854,130.611496,904.214294L130.611496,865.45697C130.578583,864.222595,130.83078,862.998291,131.345688,861.892761C131.984497,860.642578,133.005173,859.664246,134.237457,859.120789C135.509232,858.558777,136.860519,858.230164,138.23468,858.148743C139.404678,858.06781,140.578278,858.064697,141.748627,858.139343L143.404846,858.224548C143.98465,858.257019,144.565094,858.275513,145.145676,858.279907L141.027161,846.07019L136.916458,833.844727L132.813583,821.6026L128.718048,809.344238L137.634018,809.344238L155.404816,864.021362z"/>
    <path transform="matrix(-1,0,0,-1,0,0)" style="stroke:none;fill:#000000;fill-rule:evenodd" d="M104.229111,809.352051C106.318924,809.376038,108.293945,810.304138,109.63176,811.89093C110.63118,813.109253,111.188812,814.623352,111.215637,816.191467L111.224106,816.586548L111.224106,842.489746L102.04657,842.489746L102.04657,817.369446L79.729965,817.369446L79.729965,841.706909L108.253067,875.765991C109.669571,877.388611,110.630096,879.350464,111.038483,881.455078C111.162781,882.140015,111.22493,882.834534,111.224106,883.530396L111.224106,904.214294C111.262009,905.677185,110.854462,907.117798,110.054306,908.349182C108.827454,910.155579,106.817398,911.293213,104.619919,911.424744C104.356949,911.44635,104.093185,911.457031,103.8293,911.456604L77.815033,911.456604C76.342834,911.495789,74.892212,911.09967,73.649338,910.318909C71.839432,909.117615,70.704193,907.146301,70.583649,904.995056C70.562851,904.735291,70.552414,904.474854,70.552444,904.214294L70.552444,880.463745L79.729965,880.463745L79.729965,903.430908L102.04657,903.430908L102.04657,881.899292L73.391266,847.840271C71.551865,845.713135,70.544586,843.004517,70.552444,840.206482L70.552444,816.586548C70.513901,815.128662,70.907684,813.691284,71.685226,812.45166C72.86554,810.642273,74.850616,809.49884,77.025467,809.37561C77.288101,809.354431,77.551544,809.343994,77.815033,809.344238L103.8293,809.344238L104.229111,809.352051z"/>
    <path transform="matrix(-1,0,0,-1,0,0)" style="stroke:none;fill:#000000;fill-rule:evenodd" d="M102.566544,724.783752L102.566544,675.717407L111.224106,675.717407L111.224106,777.829773L102.566544,777.829773L102.566544,731.960754L82.137436,777.829773L72.732056,777.829773L72.732056,777.242371L94.781036,728.633301L70.552444,675.717407L80.082047,675.717407L102.566544,724.783752z"/>
    <path transform="matrix(-1,0,0,-1,0,0)" style="stroke:none;fill:#000000;fill-rule:evenodd" d="M429.336487,912.106934C425.827454,911.561584,421.684692,909.941223,417.645264,907.534058C414.515472,905.669006,414.06662,905.514648,410.760406,905.166138C399.067535,903.933838,391.241821,900.206787,383.449432,892.159119C377.325439,885.834473,373.573456,880.410217,365.617401,866.379395C359.733734,856.003235,355.680328,850.691406,345.340942,839.8078L341.772858,836.051941L343.927673,833.909546C346.06958,831.779907,347.495392,829.754761,348.155701,827.904236C349.221985,824.915833,347.883423,820.945862,344.613464,817.398376L343.575928,816.272766L344.518127,816.272766C346.197144,816.272766,350.389801,816.808044,352.891815,817.341858C356.43045,818.096802,359.35672,819.267578,366.271729,822.69519C373.759094,826.406433,376.329102,827.417603,383.598175,829.512329C392.5065,832.079407,396.601135,833.899536,402.09906,837.736328C405.240906,839.928955,407.836151,842.119995,412.248871,846.30542C422.296631,855.835754,428.558472,859.655518,437.430664,861.666504C440.474182,862.356323,448.548889,862.290405,451.986694,861.547607C459.29895,859.967773,465.423828,856.853394,469.999023,852.388794L472.119507,850.31958L472.488892,847.75C473.231812,842.582214,473.479401,837.139526,473.317657,829.533569C473.230835,825.450195,473.124939,822.074463,473.082397,822.03186C473.039825,821.989319,471.961426,822.959839,470.685913,824.188538C465.623718,829.065063,459.681641,831.993652,452.009277,833.393372C447.347778,834.243835,435.118042,833.753662,435.118042,832.716431C435.118042,832.593262,437.910645,831.052368,441.323883,829.292236L447.529724,826.091919L445.288025,825.408203C441.047058,824.114624,437.294189,823.206543,433.576294,822.574341C426.28479,821.334473,421.678772,820.990967,404.154724,820.380188C386.378235,819.76062,379.340424,818.58783,368.61026,814.457031C366.395477,813.60437,362.906708,812.260071,360.857483,811.469666C343.590637,804.809814,332.332336,804.828979,322.313965,811.5354C318.793182,813.892212,318.702118,814.041016,320.605438,814.326416C322.320313,814.583618,325.102417,816.039673,326.740265,817.537292C329.566528,820.121521,330.673035,823.902466,329.647308,827.470825C328.848999,830.248108,327.374847,832.070007,324.289856,834.092285L322.539856,835.239441L324.762909,836.547852C329.949463,839.600464,335.61499,844.643738,339.774017,849.910156C342.778656,853.714844,346.689209,859.719604,350.332092,866.122437C358.591309,880.638977,364.923096,888.510925,374.529388,896.205505C382.338898,902.460815,389.635864,905.925049,398.809265,907.7323C400.746216,908.113892,402.195251,908.509888,402.029419,908.612427C400.54483,909.529968,390.134399,910.094116,384.555389,909.559387C363.998016,907.588989,350.144073,899.640015,340.423645,884.237915C338.29007,880.857239,335.375458,874.741333,333.739349,870.211731C330.578674,861.461426,327.235718,855.841553,322.20462,850.820557C318.656128,847.279175,316.937164,846.078979,311.000183,842.997314C308.664093,841.78479,305.850769,840.169128,304.748352,839.407043C299.692932,835.912231,297.702362,831.474854,298.685425,825.891602C299.250244,822.683594,302.982452,816.455322,307.056061,811.922791C310.128204,808.504517,314.264648,805.369141,318.64325,803.139893C324.021667,800.40155,328.799408,799.440308,336.121704,799.62323L340.807495,799.740356L339.505768,799.281921C336.137543,798.095764,330.422516,794.55481,325.912384,790.859619C311.826019,779.318542,302.911316,762.514282,300.307159,742.59375C299.705017,737.987488,299.71463,728.158875,300.325714,723.639832C301.209991,717.100281,303.218719,710.403076,305.86795,705.161682C311.690125,693.6427,321.63623,684.18689,333.822388,678.585327C336.114563,677.531677,341.255585,675.717346,341.948975,675.717346C342.147034,675.717346,342.454529,676.413452,342.7052,677.42926C343.208038,679.466858,345.227295,683.790344,346.664673,685.906982C348.933319,689.247742,353.320953,693.354675,357.58963,696.133118C363.41684,699.925903,370.047363,702.324524,382.166656,705.023987C394.819946,707.842346,401.676025,709.73877,409.022217,712.452271C413.344666,714.048828,415.430054,714.965759,422.784119,718.503296C432.791412,723.317078,436.921936,724.906616,446.549438,727.648804C456.900269,730.596985,460.815552,731.985657,465.7771,734.468506C475.963348,739.565857,482.7854,747.359253,486.326294,757.943542C488.097961,763.239319,488.953674,768.745972,489.300964,777.086853C489.603516,784.353577,489.39505,858.204529,489.061279,861.996582C488.249176,871.222412,485.051056,878.433716,478.929199,884.84314C475.077454,888.875793,471.536926,891.514099,465.88623,894.5625C461.176086,897.103516,458.234344,899.107788,454.282166,902.46875C452.317719,904.139282,449.901123,906.13147,448.911957,906.895752C446.6297,908.659058,442.021057,910.941589,439.357819,911.627502C436.992126,912.236816,431.777679,912.486267,429.336487,912.106934zM465.132477,759.955139C466.607544,759.223206,467.0784,758.247437,466.346619,757.438843C464.486694,755.383667,456.731934,756.60675,457.009399,758.91156C457.247955,760.892761,462.009949,761.504517,465.132477,759.955139zM315.061279,829.337158C315.733215,829.00354,316.446014,828.413452,316.660095,828.01355C317.028564,827.325073,317.013672,827.263489,316.335602,826.67334C315.944702,826.33313,315.140259,825.924255,314.547913,825.764771C311.405609,824.918579,306.188202,827.059998,307.125427,828.811157C307.887665,830.235474,312.619995,830.549072,315.061279,829.337158zM408.986633,778.757996C410.962799,777.765686,412.973755,775.340698,413.661652,773.120422C413.839233,772.547241,413.761322,772.575134,412.738861,773.450317C410.79248,775.116394,409.066895,775.803345,406.852783,775.79364C405.348083,775.787048,404.672119,775.653931,403.769287,775.186401C402.262634,774.406189,400.343445,772.369568,399.746124,770.917114C399.485657,770.283691,399.19104,769.765076,399.091461,769.764526C398.778809,769.762878,398.5578,771.55603,398.711121,772.850525C398.960693,774.957764,400.195435,776.899841,402.289368,778.478699C403.868896,779.669739,406.917725,779.796875,408.986633,778.757996zM382.3237,859.635071C384.497559,858.52478,386.285095,856.194458,387.195557,853.283691C387.366699,852.736694,387.21991,852.806641,386.117493,853.797607C385.415619,854.428589,384.214752,855.291687,383.448883,855.715698C382.191162,856.411926,381.832642,856.486511,379.743835,856.486511C377.660339,856.486511,377.294769,856.41095,376.05423,855.723877C374.385681,854.799683,373.183594,853.447266,372.3797,851.589844C372.048859,850.825317,371.699768,850.197876,371.603943,850.195496C371.508118,850.193054,371.350861,850.822144,371.254486,851.593445C371.032745,853.368286,371.478241,855.348694,372.445282,856.88678C373.425262,858.445557,374.07428,859.020386,375.760986,859.823486C376.986511,860.407043,377.430237,860.483154,379.10144,860.396484C380.522736,860.322754,381.368561,860.122925,382.3237,859.635071zM353.782166,787.356689C357.050232,786.505432,359.762146,784.308594,361.821075,780.844604C362.421692,779.834045,362.913147,778.955139,362.913147,778.891479C362.913147,778.827759,362.19046,779.226746,361.307159,779.778076C360.423889,780.329407,358.783325,781.086975,357.661469,781.461548C355.884552,782.054871,355.305176,782.129517,353.164734,782.04071C349.946259,781.907166,348.256012,781.251587,346.183777,779.333069C344.425415,777.705139,343.481964,776.049377,343.014923,773.771667L342.693604,772.204651L342.163269,773.240234C340.060425,777.346313,340.567688,781.274414,343.598267,784.352783C346.36026,787.158386,350.197754,788.290283,353.782166,787.356689zM436.027649,899.898865C439.201263,899.07251,442.28006,896.511963,443.733459,893.490234C444.800476,891.27179,445.446899,888.605164,445.344482,886.844604L445.267822,885.527039L444.413025,886.862854C443.942841,887.597534,442.794495,888.913086,441.861084,889.786255C436.909668,894.41803,429.735687,894.880371,424.192627,890.924927C422.531738,889.739746,420.611877,887.757446,420.142578,886.743225C419.310974,884.945923,419.401398,887.485657,420.263794,890.147888C421.738464,894.700439,425.7948,898.758911,430.000122,899.889587C431.84436,900.385437,434.145508,900.388977,436.027649,899.898865zM397.088409,807.160645C402.67926,805.982422,408.51239,803.80603,413.137299,801.172729C419.273193,797.679199,423.931396,794.11377,432.32489,786.486511C438.725342,780.670349,441.966248,778.026855,445.52478,775.719788C447.834442,774.222351,454.721619,770.277466,455.026215,770.277466C455.093323,770.277466,455.505341,770.060303,455.941803,769.794922L456.735352,769.312317L455.038605,768.363464C452.710327,767.061401,450.29126,764.733154,449.226501,762.769531C448.39682,761.239441,448.351318,761.021851,448.351318,758.585938C448.351318,756.249878,448.420227,755.880432,449.109436,754.520203C451.067932,750.654907,456.398956,747.596802,462.918335,746.598755C464.022034,746.42981,464.924835,746.224854,464.924561,746.143311C464.923248,745.714233,459.197815,742.720459,456.273254,741.619629C451.780762,739.928711,445.225952,738.425842,437.302185,737.270142C423.721802,735.289368,418.19104,733.799744,406.981262,729.103394C389.712952,721.868958,380.837219,719.882324,359.626587,718.504089C351.349365,717.966248,351.947174,717.856323,353.791168,719.577148C356.263367,721.884216,361.556793,726.217224,364.155212,728.060669C366.183228,729.499512,366.484039,729.801147,366.103333,730.014221C365.401367,730.407043,355.607758,730.026306,351.161804,729.433289C347.259644,728.912842,342.495544,727.976196,339.873718,727.213989C339.1138,726.993103,338.386963,726.850098,338.258484,726.896301C337.924133,727.016479,340.584442,731.448853,342.645111,734.204834C346.163208,738.910034,350.008911,742.520203,355.221985,746.011414C365.569214,752.94104,376.482727,755.482483,395.932098,755.491699C404.839111,755.495911,407.989502,755.285522,415.268677,754.200378C423.676086,752.947021,426.597046,753.114868,430.33728,755.066284C433.59021,756.763489,437.638214,761.16864,440.129639,765.722595L441.081879,767.463135L440.348328,768.034424C439.495361,768.69873,438.770844,769.30835,428.822571,777.731567C415.865631,788.702271,412.352631,791.338135,405.95343,794.890747C394.687134,801.145386,382.197357,804.388611,369.080109,804.465576C365.268005,804.487976,365.141327,804.505127,366.125092,804.866638C368.793976,805.84729,375.58844,807.221558,380.552856,807.784851C381.662476,807.910767,385.114227,807.974121,388.223389,807.925659C393.129242,807.849243,394.300995,807.748108,397.088409,807.160645z"/>
</svg>
