<?xml version="1.0" encoding="UTF-8" standalone="no"?>
<svg xmlns="http://www.w3.org/2000/svg" xmlns:xlink="http://www.w3.org/1999/xlink" width="38.241mm" height="47.000mm" viewBox="-317.120636 -712.500061 38.241333 47.000061">
    <path transform="matrix(-0.047026,0,0,-0.047026,-278.865112,-665.485107)" style="stroke:#500a78;stroke-width:0.05mm;fill:none" d="M208.48056,998.968567C208.072006,998.307495,207.511963,991.849854,207.236023,984.618164C205.2202,931.790649,229.900757,871.120728,270.48465,829.139893C287.641113,811.392883,306.75946,797.493347,328.5,786.961365C353.11084,775.038818,373.699554,769.619812,394.666168,769.546204C401.907562,769.520813,408.110474,769.777893,408.450409,770.117554C410.075134,771.741028,411.155365,784.622864,410.637726,796.201721C408.549713,842.908752,385.049927,894.021179,348.050507,932.329956C322.508942,958.775391,289.682068,979.302246,254.255707,990.980591C234.826019,997.385559,210.162201,1001.689514,208.48056,998.968567z"/>
    <path transform="matrix(-0.047026,0,0,-0.047026,-278.865112,-665.485107)" style="stroke:#500a78;stroke-width:0.05mm;fill:none" d="M200,757.399719C172.542755,754.226501,150.848755,749.329102,131.928467,742.032654C91.242111,726.342346,59.341217,702.289368,31.527067,666.330933L25.981745,659.161926L35.700058,652.38623C91.351227,613.585876,125.902779,556.671936,133.039169,492.047516C134.558685,478.287384,133.776016,447.966187,131.527924,433.5C124.384003,387.529907,104.476479,348.383514,71.517029,315.493774C58.218204,302.223083,47.650078,293.622559,32.345905,283.615662C22.164906,276.958618,3.59289,267.044098,1.25,267.01535C-0.540378,266.993378,-0.43443,266.483337,4.086286,253.36116C19.210892,209.459351,39.480354,168.874588,66.945786,127.5C96.185966,83.451889,121.872963,52.273968,144.462143,33.413525C173.173187,9.441747,203.936081,-1.165882,235.741241,1.938768C258.314362,4.142233,270.407898,7.573304,299.5,20.027817C322.876373,30.035385,329.972351,32.554592,344.5,36.003681C378.567688,44.091866,415.578247,42.281639,449.5,30.868017C456.100006,28.64732,470.5,23.084431,481.5,18.506042C511.654053,5.955411,526.573364,1.873957,547.544495,0.438365C580.073059,-1.788398,609.431519,11.098963,640.834839,41.389629C665.888062,65.555252,712.838074,128.189819,734.241028,166C776.414673,240.503571,803.68457,327.438568,812.190857,414.5C814.1745,434.802979,813.87262,488.268707,811.677002,505.5C800.437927,593.703674,763.937195,662.373718,704.067932,707.948303C660.80957,740.878113,600.98822,759.290283,551,755.060486C526.72229,753.006226,506.386749,747.354187,467,731.713806C427.961578,716.211731,415.569702,712.628296,401,712.628296C386.704437,712.628296,375.354034,715.865906,336.246979,731.098572C300.248566,745.120361,282.043304,750.76825,259,755.063354C249.969086,756.746643,242.776535,757.270996,225.5,757.505554C213.399994,757.6698,201.925003,757.622192,200,757.399719z"/>
</svg>
