<?xml version="1.0" encoding="UTF-8" standalone="no"?>
<svg xmlns="http://www.w3.org/2000/svg" xmlns:xlink="http://www.w3.org/1999/xlink" width="135.055mm" height="135.167mm" viewBox="-496.527527 -1015.583496 135.055023 135.167053">
    <path transform="matrix(-1,0,0,-1,0,0)" style="stroke:none;fill:#000000;fill-rule:evenodd" d="M381.476746,1015.434082C377.561432,1014.980469,372.781311,1012.978149,369.701477,1010.501526C365.958862,1007.491943,363.148071,1003.215149,361.942352,998.695496L361.472504,996.934265L361.472504,948.035034C361.472504,901.514343,361.491119,899.068848,361.855225,897.759827C364.186462,889.37915,370.103699,883.446594,378.490997,881.080933L380.524139,880.507507L427.835754,880.446045C480.152924,880.378052,477.171143,880.307068,481.165771,881.714966C483.402832,882.503418,484.212738,882.907227,486.366638,884.307983C491.360809,887.555786,494.757294,892.418945,496.131165,898.289063C496.512421,899.917969,496.527527,901.823181,496.527527,948.246704L496.527527,996.510864L495.944183,998.582153C493.533722,1007.140808,487.330505,1012.913269,478.110962,1015.177063C476.735107,1015.514893,473.283661,1015.543701,429.846741,1015.579468C404.116455,1015.600647,382.349915,1015.535278,381.476746,1015.434082zM478.110962,1004.82428C481.995544,1003.499817,484.73407,1000.758972,486.100159,996.82843L486.578339,995.452454L486.578339,947.823364L486.578339,900.194214L486.009949,898.776672C484.781219,895.712158,482.609833,893.301758,479.858246,891.947754C476.870483,890.477539,480.286713,890.569885,428.894165,890.569885C377.511383,890.569885,381.013092,890.47467,377.935181,891.955139C374.692383,893.514832,371.908112,897.18103,371.332031,900.649841C371.155975,901.709839,371.107239,914.670593,371.150635,948.881775L371.210022,995.664185L371.755859,997.06543C373.48642,1001.508118,376.57843,1004.18158,381.15921,1005.195862C382.197174,1005.42572,391.017822,1005.470215,429.423401,1005.439392L476.41748,1005.401672L478.110962,1004.82428zM426.142273,992.034241C414.501251,990.944458,405.246246,986.756348,397.670624,979.150146C386.593689,968.028503,382.247925,952.118896,386.117432,936.85437C390.475159,919.663757,405.243164,906.632263,423.120331,904.202393C426.414185,903.7547,431.694275,903.754272,434.927185,904.201416C452.748077,906.666443,467.481506,919.941772,471.729797,937.361938C472.711121,941.385742,472.980103,944.171021,472.862823,949.093445C472.720886,955.048706,471.981659,958.96875,470.065613,963.926331C465.619568,975.429871,456.554565,984.543091,445.061584,989.063293C439.374176,991.300171,431.503448,992.536133,426.142273,992.034241zM433.868774,981.921143C445.286682,980.162476,454.649719,973.32074,459.674133,963.064636C462.361084,957.579956,463.362854,952.790161,463.121948,946.579468C462.930389,941.640198,461.91333,937.534973,459.811462,933.217041C454.172424,921.632568,443.003296,914.226135,430.375977,913.697937C413.476318,912.990967,398.834259,924.444946,395.194855,941.218811C394.799469,943.041138,394.724854,944.054932,394.716705,947.717468C394.708466,951.420837,394.777679,952.405518,395.188843,954.433777C397.294556,964.821777,404.004211,973.794312,413.166138,978.474182C416.690613,980.274475,421.160278,981.672852,424.660461,982.070251C426.518188,982.281189,432.119995,982.190491,433.868774,981.921143zM408.24646,965.273743C407.310547,965.001587,405.925171,963.732056,405.415741,962.679749C404.845398,961.501587,404.829224,959.582764,405.379669,958.407593C405.986084,957.112915,432.495361,930.7323,433.762939,930.162048C434.978699,929.615173,436.753906,929.599365,437.890778,930.125244C438.85025,930.569092,452.065491,943.436035,452.826416,944.667175C453.402161,945.598816,453.612549,947.746704,453.238922,948.878784C452.900269,949.904907,451.705444,951.225037,450.606323,951.787415C449.432495,952.388062,447.691071,952.36499,446.446808,951.7323C445.867737,951.437866,443.677795,949.439697,440.697479,946.486328C438.049805,943.862671,435.84259,941.756531,435.792542,941.806091C435.742493,941.855591,430.573883,946.99823,424.306763,953.23407C415.958801,961.540344,412.653534,964.695923,411.945465,965.035522C410.928345,965.523315,409.435364,965.619446,408.24646,965.273743z"/>
</svg>
