<?xml version="1.0" encoding="UTF-8" standalone="no"?>
<svg xmlns="http://www.w3.org/2000/svg" xmlns:xlink="http://www.w3.org/1999/xlink" width="126.264mm" height="134.866mm" viewBox="-541.132080 -1166.433105 126.264099 134.866089">
    <path transform="matrix(-1,0,0,-1,0,0)" style="stroke:none;fill:#000000;fill-rule:evenodd" d="M479.137024,1123.528564C472.48114,1122.716064,466.811951,1120.075806,461.613647,1115.367798C457.113281,1111.291748,455.262573,1107.377563,456.488434,1104.527954C457.085114,1103.140869,459.776978,1100.536865,461.470703,1099.708252C462.487,1099.210938,462.819519,1099.150391,464.009949,1099.245972C466.129578,1099.416138,467.36142,1100.13501,469.436737,1102.41272C471.73053,1104.930298,473.07782,1105.899536,475.767456,1106.967285C478.83548,1108.185303,481.019257,1108.59314,483.679596,1108.444824C487.54248,1108.229492,491.091492,1106.930786,494.203003,1104.593994C496.211914,1103.085205,520.685974,1078.887085,522.094849,1077.016602C526.663208,1070.951172,527.496155,1063.203125,524.273438,1056.75C523.129028,1054.458496,522.085205,1053.053711,520.252991,1051.339478C517.535889,1048.797363,515.19635,1047.606567,511.420898,1046.844116C509.519592,1046.460083,509.052307,1046.440186,506.867767,1046.649902C503.369446,1046.985718,500.724548,1047.969116,497.76532,1050.034302C496.974304,1050.586304,491.69043,1055.676758,485.336273,1062.008179L474.283173,1073.021851L469.88327,1073.055176C465.380127,1073.089111,463.493713,1073.313965,460.311859,1074.195679C458.857452,1074.598755,455.707001,1075.900879,454.853638,1076.45166C454.595764,1076.618042,454.287567,1076.754272,454.168732,1076.754272C453.672058,1076.754272,456.222198,1071.266724,457.733154,1069.084106C458.466766,1068.024414,463.229248,1063.130859,473.04248,1053.353516C488.397339,1038.05481,488.952026,1037.562988,493.531616,1035.185059C497.296387,1033.230225,501.082092,1032.180664,506.206787,1031.671143C511.434387,1031.151367,518.191467,1032.592529,523.583679,1035.377563C528.319397,1037.823486,533.281067,1042.433472,536.048279,1046.958862C540.208374,1053.761963,541.851013,1061.30603,540.84436,1068.985352C539.899475,1076.193115,537.058472,1082.322266,531.936157,1088.203979C529.636597,1090.84436,506.113831,1114.196899,504.078613,1115.859863C499.631409,1119.493652,494.532196,1121.942749,488.980377,1123.11145C486.541992,1123.624756,481.630249,1123.832886,479.137024,1123.528564z"/>
    <path transform="matrix(-1,0,0,-1,0,0)" style="stroke:none;fill:#000000;fill-rule:evenodd" d="M446.537537,1166.380859C438.966492,1165.709473,431.05954,1162.255493,425.888428,1157.360596C421.657288,1153.355469,418.608582,1148.603516,416.771301,1143.14978C413.793701,1134.311401,414.316223,1125.273926,418.278534,1117.0802C419.902252,1113.722534,421.637115,1111.261963,424.580048,1108.1427C429.110352,1103.340942,447.856384,1084.942993,449.361237,1083.821655C453.663116,1080.616089,458.57666,1078.504761,464.173798,1077.456909C467.245422,1076.881958,473.492798,1076.93811,476.385132,1077.56665C485.794312,1079.611572,492.745972,1084.547729,497.638123,1092.657471C498.173798,1093.54541,498.612061,1094.410645,498.612061,1094.5802C498.612061,1094.749756,496.952332,1096.524414,494.923798,1098.523804C490.860565,1102.528687,489.519745,1103.426025,487.598633,1103.426392C486.317261,1103.426636,485.888153,1103.080444,484.497467,1100.924683C482.370728,1097.62793,479.507904,1095.054688,476.337067,1093.589722C470.226318,1090.766357,464.250977,1091.355347,458.603577,1095.337646C456.785034,1096.619995,435.429321,1117.872314,433.816315,1120.004883C429.969452,1125.090942,428.652039,1132.08313,430.498688,1137.613647C432.562317,1143.794189,437.293671,1148.375122,443.668488,1150.36499C445.198273,1150.842407,445.75354,1150.899414,449.077759,1150.920654C452.392181,1150.941895,452.960449,1150.891846,454.474731,1150.44519C459.137146,1149.069946,460.721252,1147.921753,468.341095,1140.394165C471.775696,1137.001221,476.014679,1132.831665,477.761078,1131.12854L480.93634,1128.031982L483.083191,1128.140015C485.516022,1128.262451,488.132813,1127.900146,492.012268,1126.903687C494.986603,1126.139648,496.899475,1125.349854,499.352966,1123.873047C500.400787,1123.24231,501.278076,1122.745972,501.30249,1122.770142C501.382599,1122.849243,500.558228,1125.307983,499.987366,1126.692627C499.287903,1128.389282,498.011841,1130.6521,496.785187,1132.371094C495.879456,1133.640503,473.702881,1155.879639,470.881317,1158.348022C466.601868,1162.092041,460.818665,1164.900879,455.176636,1165.975952C453.437134,1166.307373,448.381317,1166.544312,446.537537,1166.380859z"/>
</svg>
