<?xml version="1.0" encoding="UTF-8" standalone="no"?>
<svg xmlns="http://www.w3.org/2000/svg" xmlns:xlink="http://www.w3.org/1999/xlink" width="113.087mm" height="125.414mm" viewBox="-531.543640 -1119.707153 113.087280 125.414246">
    <path transform="matrix(-1,0,0,-1,0,0)" style="stroke:none;fill:#000000;fill-rule:evenodd" d="M444.825439,1119.18103C443.262115,1118.118652,442.832764,1116.040039,443.856934,1114.492432C444.436523,1113.616699,444.462036,1113.60144,448.522675,1111.699585C451.877014,1110.12854,453.987,1108.689331,456.32132,1106.380127C458.954803,1103.775024,461.161713,1100.309204,462.199707,1097.148315C462.990662,1094.739746,463.032532,1094.921143,461.433472,1093.828491C459.556274,1092.545898,456.835083,1089.735229,455.561279,1087.763184C453.623047,1084.762695,452.387634,1081.053101,452.226074,1077.748779C452.181915,1076.845947,452.106537,1076.078857,452.058563,1076.044189C452.010559,1076.009521,450.857727,1075.680298,449.496674,1075.3125C439.11554,1072.507324,428.617798,1065.878418,423.004974,1058.584229C419.649658,1054.223633,418.255188,1050.36792,418.47934,1046.070435C418.895355,1038.094604,425.322662,1031.942993,435.008514,1030.250488C437.882385,1029.748169,442.491058,1030.063232,444.694336,1030.912598C444.978394,1031.021973,445.121124,1030.703003,445.516785,1029.074585C446.662598,1024.358398,448.10907,1020.766357,450.084656,1017.731079C454.097534,1011.565735,459.420258,1007.409912,466.423767,1004.974121C467.756958,1004.510498,468.542297,1004.106689,468.871277,1003.715698C469.137726,1003.398987,470.05722,1001.413086,470.914581,999.302429C472.768494,994.738708,473.117188,994.292908,474.833282,994.292908C476.520416,994.292908,476.9216,994.782654,478.726807,999.045959C479.55426,1001.000061,480.231262,1002.686401,480.231262,1002.793396C480.231262,1002.900452,480.493225,1003.299255,480.813385,1003.679688C481.258728,1004.208923,481.843201,1004.520996,483.30069,1005.007813C488.163422,1006.632019,491.705688,1008.826416,495.380371,1012.491089C499.734375,1016.833252,502.743927,1022.12439,504.264954,1028.111328C504.449585,1028.838013,504.690308,1029.776733,504.799805,1030.197266L504.999023,1030.961914L506.639252,1030.535034C507.967255,1030.189453,508.9646,1030.107178,511.878174,1030.103149C515.092468,1030.098755,515.694275,1030.156738,517.513,1030.645874C521.557617,1031.733643,524.697815,1033.562866,527.374023,1036.390137C529.218201,1038.338379,530.287842,1040.155518,531.066284,1042.662964C531.473206,1043.973511,531.556274,1044.69397,531.542175,1046.790771C531.527527,1048.964722,531.44043,1049.590454,530.937805,1051.130371C530.614807,1052.119995,530.033813,1053.548828,529.646729,1054.305664C525.197998,1063.00293,513.259094,1071.583496,500.553009,1075.215332L497.695251,1076.032227L497.563416,1078.028809C497.362549,1081.070313,496.766541,1083.145386,495.273438,1086.001587C493.65741,1089.093018,490.949554,1092.146362,488.220215,1093.954956C487.497314,1094.43396,487.005188,1094.912842,487.005188,1095.137207C487.005188,1095.344604,487.205658,1096.125366,487.450714,1096.872314C488.90686,1101.310547,491.619568,1105.213989,495.329163,1108.209106C497.49173,1109.955078,499.308411,1111.01123,502.391693,1112.315063C505.841125,1113.773682,506.606445,1114.592651,506.436371,1116.643311C506.331604,1117.90625,505.854919,1118.654785,504.757874,1119.278564C503.684631,1119.888916,502.741211,1119.828491,500.23175,1118.98877C491.353699,1116.017944,484.24173,1108.858643,481.092285,1099.72168L480.382263,1097.661865L479.724609,1097.776489C475.921906,1098.439331,473.852539,1098.44043,470.172394,1097.781738C469.535339,1097.667725,469.53186,1097.672607,468.933716,1099.509155C466.074646,1108.288452,458.410919,1116.043457,449.617645,1119.055176C447.189697,1119.886719,445.913361,1119.920288,444.825439,1119.18103zM481.828369,1053.935181C483.47052,1049.93335,485.286713,1046.52771,486.859131,1044.501465C487.213348,1044.045044,487.404327,1043.617676,487.298431,1043.518433C487.000214,1043.239258,483.585449,1042.466064,481.117889,1042.119141C478.452362,1041.744263,472.208984,1041.696411,469.523438,1042.030029C467.587097,1042.270752,465.746704,1042.626587,463.430786,1043.208374L462.05658,1043.553589L463.414795,1045.515137C464.951874,1047.735229,466.781769,1051.289307,467.640991,1053.723511L468.220093,1055.364014L474.731079,1055.364014L481.242035,1055.364014L481.828369,1053.935181zM455.15918,1030.374146C467.128876,1026.243652,482.212006,1026.164185,494.361786,1030.167725C495.729492,1030.618286,497.028717,1031.057495,497.248932,1031.143677C497.613403,1031.286133,497.635681,1031.227295,497.496887,1030.487549C497.232666,1029.079102,496.089661,1025.895996,495.255798,1024.246338C493.657379,1021.084167,493.093994,1020.503662,490.243439,1019.081482C486.551025,1017.239258,481.813843,1016.408081,475.003754,1016.40741C467.629944,1016.406738,462.979889,1017.255371,458.995514,1019.329041C457.843689,1019.928467,457.315247,1020.383118,456.37796,1021.581055C454.534668,1023.936829,452.7659,1027.842285,452.212646,1030.777954C452.096069,1031.396729,452.126465,1031.468506,452.448425,1031.335205C452.651703,1031.250977,453.871552,1030.818481,455.15918,1030.374146zM461.965393,1068.964844C462.279663,1067.812744,462.145721,1062.951538,461.748108,1061.07959C461.205688,1058.525635,459.883698,1054.666138,458.839661,1052.588379C456.718079,1048.366211,453.188141,1044.177002,449.593445,1041.615234C447.250488,1039.945557,443.578735,1038.138184,441.406097,1037.585327C438.0242,1036.724609,434.414673,1037.164673,430.968872,1038.858032C428.75473,1039.946045,427.301392,1041.340454,426.401733,1043.239746C425.780487,1044.55127,425.72348,1044.845947,425.735535,1046.684937C425.74585,1048.255371,425.854462,1048.965088,426.231293,1049.924561C427.852875,1054.052856,433.185699,1059.299927,439.709961,1063.186279C445.545288,1066.662231,454.456482,1069.5,459.640869,1069.533081L461.80658,1069.546875L461.965393,1068.964844zM496.233643,1068.728271C504.718903,1066.61731,513.468445,1061.861328,519.06781,1056.31665C521.127502,1054.276978,522.495483,1052.405151,523.567993,1050.158936C524.319336,1048.585327,524.367554,1048.363037,524.367554,1046.473267C524.367554,1044.661255,524.304749,1044.337036,523.732544,1043.196289C521.699585,1039.143799,515.927979,1036.478882,510.713898,1037.185181C507.621155,1037.604126,503.613983,1039.256714,500.343018,1041.46228C498.254944,1042.870239,495.004639,1046.041748,493.480957,1048.157837C491.134491,1051.41687,489.220276,1055.857544,488.13913,1060.550293C487.850159,1061.804565,487.748596,1063.094849,487.747498,1065.524902C487.746735,1067.32959,487.819275,1068.985107,487.908752,1069.203979C488.168945,1069.840576,492.834839,1069.573975,496.233643,1068.728271z"/>
</svg>
