<?xml version="1.0" encoding="UTF-8" standalone="no"?>
<svg xmlns="http://www.w3.org/2000/svg" xmlns:xlink="http://www.w3.org/1999/xlink" width="143.241mm" height="116.127mm" viewBox="-284.620422 -1083.063721 143.240875 116.127319">
    <path transform="matrix(-1,0,0,-1,0,0)" style="stroke:none;fill:#000000;fill-rule:evenodd" d="M228.690857,1082.740356C227.520401,1082.190186,226.870712,1081.348999,226.191345,1079.504028C225.874298,1078.642944,223.974457,1073.845337,221.969452,1068.842651L218.324005,1059.746704L215.679474,1059.799561C213.259064,1059.848022,212.963165,1059.811523,212.188187,1059.368774C210.794144,1058.57251,210.468155,1057.64978,210.28479,1053.981689L210.128738,1050.859985L208.695465,1046.829346C206.823654,1041.56543,204.365997,1034.242676,203.93251,1032.637939L203.589447,1031.367798L199.950623,1031.436646C197.94928,1031.474487,195.168716,1031.40332,193.771591,1031.27832C192.374466,1031.153442,190.421661,1031.001587,189.432037,1030.940796C187.092911,1030.797241,184.831696,1030.621704,184.034088,1030.521606C183.684799,1030.477783,182.398804,1030.337402,181.176331,1030.209595C179.953857,1030.081787,177.667648,1029.745117,176.095886,1029.46167C174.524139,1029.178101,172.857117,1028.889771,172.391403,1028.821045C171.92569,1028.752197,170.925491,1028.601807,170.168701,1028.486694C167.838638,1028.132568,160.514282,1026.22644,156.726715,1024.988647C152.634262,1023.651184,150.785477,1022.836365,149.719452,1021.900391C148.206818,1020.572266,148.316177,1022.514099,148.286285,996.453003L148.259308,972.942749L145.54364,972.836914L142.827957,972.731018L142.10376,971.940308C141.45929,971.236694,141.379547,971.01886,141.379547,969.961975C141.379547,968.485718,141.876709,967.711731,143.128632,967.239075C143.945328,966.930664,150.234055,966.905518,213.389862,966.957947L282.754089,967.015564L283.351746,967.453979C285.078369,968.720581,285.036102,971.198608,283.268066,972.357666C282.821777,972.650208,282.135101,972.747192,280.095764,972.805725L277.493011,972.880432L277.445496,995.56189C277.373657,1029.825195,277.379028,1045.151123,277.465973,1053.955566L277.5448,1061.937012L276.916138,1063.057983C275.884094,1064.898193,271.043854,1068.625977,264.897766,1072.313965C261.189331,1074.539307,258.280396,1075.877197,253.114166,1077.733398C244.007721,1081.005371,237.570541,1082.566772,231.345673,1083.013306C229.838104,1083.12146,229.407654,1083.077271,228.690857,1082.740356zM185.833405,995.328064C185.833405,995.24054,184.920624,992.692383,183.805023,989.665466C181.455994,983.292053,178.212677,973.698853,178.21286,973.124756C178.212982,972.748596,177.938828,972.733704,172.074005,972.790222L165.935013,972.849365L165.935013,978.230713C165.935013,984.154358,165.787369,985.305542,164.864182,986.579956C163.055557,989.07666,159.220642,988.801758,157.712097,986.0672C157.416031,985.530518,157.345367,984.464966,157.25592,979.187439L157.150085,972.942749L155.613159,972.880493L154.076233,972.818237L154.131363,982.179443L154.186493,991.540649L154.821548,991.71344C157.035934,992.315979,165.347427,993.848938,167.73584,994.095276C168.435226,994.167419,169.244919,994.2677,169.535156,994.318176C170.600464,994.503296,179.891052,995.252502,182.234756,995.342285C183.107956,995.375671,184.274872,995.421997,184.827896,995.445129C185.38092,995.468262,185.833405,995.415588,185.833405,995.328064zM196.930908,1025.249878C196.627686,1024.213745,188.31987,1001.719543,188.194183,1001.59436C188.118225,1001.518738,186.99176,1001.389709,185.690887,1001.307678L183.325684,1001.158508L183.256516,1006.525635C183.187653,1011.868713,183.184814,1011.897583,182.623367,1012.961243C180.714478,1016.577698,176.7836,1017.479797,173.919525,1014.95874C173.376495,1014.480774,172.766037,1013.658752,172.473816,1013.012085C171.991165,1011.94397,171.963196,1011.631409,171.862183,1006.17865L171.756348,1000.464539L169.427811,1000.212463C168.147125,1000.073792,166.843872,999.954102,166.531693,999.946472L165.964111,999.932556L165.896637,1004.642578C165.831665,1009.178589,165.809631,1009.391235,165.299957,1010.400146C164.508179,1011.967529,163.519012,1012.655457,161.866287,1012.788147C160.26915,1012.916321,159.095108,1012.438904,158.235291,1011.311646C157.28717,1010.068604,157.230606,1009.652039,157.248672,1004.044556C157.26178,999.972412,157.202499,998.671753,156.996262,998.506348C156.712051,998.278442,154.285248,997.532288,154.192993,997.644409C154.163391,997.68042,154.08139,1002.252747,154.010773,1007.805115L153.882401,1017.900391L155.092865,1018.359741C157.216019,1019.165344,161.552216,1020.618774,162.86557,1020.965027C166.839752,1022.012695,170.682419,1022.844116,173.767365,1023.323853C175.6884,1023.622559,178.355621,1024.051025,179.694534,1024.276001C182.057343,1024.673096,183.84227,1024.846802,190.702148,1025.34729C192.506775,1025.478882,194.020676,1025.622925,194.066376,1025.667236C194.112091,1025.71167,194.804565,1025.73584,195.605225,1025.721069C196.978516,1025.695679,197.053589,1025.669067,196.930908,1025.249878zM220.549744,1053.48291C222.005081,1053.361328,223.70694,1053.218262,224.331665,1053.165039C235.109802,1052.245605,253.21254,1048.194946,260.240692,1045.130005C264.22644,1043.391846,268.593567,1041.237305,270.079742,1040.275879L271.565857,1039.314575L271.565857,1030.502319L271.565857,1021.690247L270.983704,1021.835449C270.663513,1021.915344,269.877655,1022.187988,269.237305,1022.441406L268.073029,1022.9021L267.967194,1029.145996C267.862488,1035.323486,267.855713,1035.399658,267.332153,1036.323486C267.041077,1036.836914,266.440308,1037.548584,265.997162,1037.904907C265.313538,1038.454468,264.973877,1038.564941,263.756104,1038.633667C261.609406,1038.755005,260.200043,1037.918457,259.356201,1036.021973C259.042053,1035.315918,258.968323,1034.405518,258.904907,1030.44812L258.829041,1025.71814L258.370605,1025.843384C258.118469,1025.912231,256.894653,1026.221924,255.651001,1026.531494L253.389877,1027.09436L253.311172,1033.041382C253.219147,1039.994873,253.13028,1040.411011,251.358734,1042.182495C248.433319,1045.10791,244.065231,1044.28125,242.311218,1040.470215C241.851578,1039.471558,241.820175,1039.114746,241.754639,1034.148193L241.685196,1028.884644L240.907898,1029.00415C240.480392,1029.069946,239.273285,1029.185425,238.225449,1029.260742C237.177597,1029.336182,236.034515,1029.423096,235.685226,1029.454102L235.050171,1029.510376L234.93837,1036.366333L234.826569,1043.222168L234.219193,1044.472778C232.931808,1047.123657,230.61644,1048.529419,227.822327,1048.356689C226.054199,1048.247437,224.888748,1047.668945,223.630554,1046.276245C221.978409,1044.447632,221.933716,1044.216675,221.861176,1037.13623L221.796661,1030.838623L221.22612,1030.800781C220.912323,1030.780029,220.465057,1030.770752,220.232208,1030.780029C219.999359,1030.789307,217.61792,1030.863647,214.940094,1030.94519C212.262268,1031.026733,210.000671,1031.15918,209.914307,1031.239502C209.827942,1031.319824,211.05484,1035.282349,212.640747,1040.045166L215.524231,1048.704834L215.618866,1051.043945C215.670898,1052.330444,215.754211,1053.510986,215.804001,1053.667358C215.870667,1053.876831,216.159302,1053.919067,216.899109,1053.827881C217.45163,1053.759766,219.094421,1053.604492,220.549744,1053.48291zM235.896912,1076.678589C240.987671,1075.852417,246.255402,1074.360596,253.249527,1071.764648C257.94873,1070.020386,263.614258,1066.79248,268.784119,1062.913696L271.612061,1060.791992L271.65979,1054.229736C271.686035,1050.620605,271.665283,1047.41333,271.613678,1047.102783L271.519867,1046.538086L270.643188,1046.91748C270.161011,1047.126099,268.956818,1047.677368,267.967194,1048.142456C264.389038,1049.823975,254.1203,1053.383789,250.714859,1054.123047C250.132721,1054.24939,248.370453,1054.675903,246.798691,1055.070679C245.226929,1055.465576,242.702591,1056.029785,241.189041,1056.324707C239.675476,1056.619629,237.532166,1057.045898,236.426117,1057.272217C235.320068,1057.498413,232.557571,1057.932983,230.287262,1058.237915C228.016937,1058.542847,225.818344,1058.861206,225.40152,1058.945435L224.643616,1059.098511L226.617004,1064.178955C227.702347,1066.973145,229.177292,1070.878784,229.894638,1072.858032C231.158173,1076.34436,231.647156,1077.199585,232.374634,1077.195801C232.565475,1077.194824,234.150513,1076.962036,235.896912,1076.678589zM213.034927,1025.331787C215.014175,1025.224731,218.586365,1025.038818,220.973114,1024.918945C223.359863,1024.79895,226.455765,1024.608765,227.852875,1024.496216C229.25,1024.383789,231.155151,1024.234131,232.086578,1024.163696C233.880157,1024.028076,239.422134,1023.410095,243.305878,1022.912659C252.717819,1021.707214,262.160339,1019.261597,269.99408,1016.000366L271.565857,1015.346069L271.565857,1006.354919C271.565857,997.89447,271.543976,997.369812,271.195374,997.46521C270.991638,997.520935,270.181946,997.68103,269.396057,997.820984L267.967194,998.075317L267.949768,1003.925659C267.930267,1010.486328,267.910583,1010.714844,267.26532,1011.883362C265.520935,1015.042175,260.978638,1014.752625,259.420258,1011.38324C259.005432,1010.486328,258.965271,1009.988403,258.901855,1004.960083L258.83313,999.509216L257.843414,999.525085C257.299072,999.533813,256.091675,999.653625,255.160248,999.79126L253.466766,1000.041443L253.360916,1006.284668C253.263214,1012.047302,253.220993,1012.601135,252.812271,1013.480408C251.470947,1016.365845,248.80545,1017.63092,245.866959,1016.776672C244.289368,1016.318054,243.008606,1015.077393,242.380936,1013.399841C241.962402,1012.281189,241.929932,1011.790649,241.929932,1006.586182L241.929932,1000.978027L238.490051,1001.119385C236.598114,1001.197144,235.002945,1001.302856,234.945221,1001.354309C234.887497,1001.405762,234.872375,1003.845581,234.911606,1006.776123C235.010971,1014.196228,234.699814,1015.657715,232.566483,1017.791016C231.106064,1019.251465,229.789825,1019.727722,227.698608,1019.552368C225.121506,1019.336304,223.043106,1017.60791,222.242157,1015.014709C221.862244,1013.784668,221.819855,1013.044373,221.819855,1007.63678L221.819855,1001.626038L218.769012,1001.626038L215.71817,1001.626038L215.646667,1008.029541L215.57515,1014.432983L214.853699,1015.763489C214.034698,1017.273926,213.189178,1018.095337,211.598236,1018.926331C210.096924,1019.71051,207.805649,1019.75293,206.325592,1019.023926C204.854431,1018.299255,203.792847,1017.127136,203.255768,1015.634521C202.82132,1014.427063,202.791611,1013.965393,202.774475,1008.157227C202.76442,1004.752502,202.734161,1001.944824,202.707245,1001.917908C202.680328,1001.890991,200.920746,1001.800354,198.797073,1001.716553C196.225311,1001.61499,194.935852,1001.635864,194.935852,1001.779053C194.935852,1001.897217,196.280396,1005.7453,197.923721,1010.330322C199.567047,1014.915344,201.180817,1019.428772,201.509857,1020.360168C201.838928,1021.291565,202.17276,1022.768066,202.251709,1023.641296C202.330673,1024.514526,202.500427,1025.359497,202.628967,1025.519165C202.874664,1025.824463,204.459351,1025.795898,213.034927,1025.331787zM238.860504,995.403198C247.483795,994.953125,252.188675,994.529663,259.235291,993.569275C264.863342,992.802246,268.621643,992.135986,270.930786,991.495911L271.459991,991.349182L271.515137,982.093018L271.570282,972.836914L269.768738,972.836914L267.967194,972.836914L267.967194,978.458618C267.967194,984.636536,267.851563,985.491577,266.852112,986.704041C264.739014,989.267578,260.77356,988.594971,259.353851,985.432129C259.023987,984.697327,258.9646,983.809082,258.904297,978.711121L258.834869,972.836914L256.0979,972.836914L253.360916,972.836914L253.354004,978.499451C253.345169,985.740051,253.118942,986.526611,250.531296,988.313599C249.634399,988.932922,249.298203,989.035278,247.934982,989.104126C245.315796,989.236389,243.594406,988.132813,242.372391,985.537964C241.831009,984.388367,241.823196,984.301025,241.753494,978.605286L241.682892,972.836914L238.419449,972.836914L235.156006,972.836914L235.138611,978.287781C235.129028,981.285767,235.076904,984.024414,235.022766,984.373718C234.874268,985.331787,233.819931,987.474121,233.08493,988.311279C230.196442,991.601074,224.843124,990.787292,222.908081,986.764282C222.079422,985.041443,222.049011,984.744629,222.039536,978.287781L222.03154,972.836914L218.803345,972.836914L215.57515,972.836914L215.57515,979.028687L215.57515,985.220459L215.009491,986.426758C213.53717,989.566467,210.22168,991.215271,207.166458,990.327087C205.620148,989.877563,203.954987,988.396667,203.21283,986.811035C202.669128,985.649475,202.666168,985.612976,202.597641,979.254639L202.528778,972.865479L193.493118,972.798279C188.523499,972.761292,184.41156,972.761047,184.355453,972.797729C184.299347,972.834473,184.568451,973.787048,184.953461,974.914612C186.02095,978.041077,188.290344,984.480225,188.660233,985.432129C188.841187,985.897827,189.699356,988.184021,190.567261,990.512573C191.435181,992.841125,192.251526,995.020447,192.381378,995.35553L192.617462,995.964783L212.669556,995.844238C226.148865,995.763184,234.733856,995.618591,238.860504,995.403198z"/>
</svg>
