<?xml version="1.0" encoding="UTF-8" standalone="no"?>
<svg xmlns="http://www.w3.org/2000/svg" xmlns:xlink="http://www.w3.org/1999/xlink" width="47.634mm" height="46.205mm" viewBox="-365.816925 -1115.102417 47.633881 46.204590">
    <path transform="matrix(-1,0,0,-1,0,0)" style="stroke:none;fill:#000000;fill-rule:evenodd" d="M322.84256,1114.510376C320.918671,1113.703613,319.63739,1112.518066,318.817017,1110.785767C317.550385,1108.110962,318.192902,1105.295288,320.553711,1103.174927C322.16153,1101.730957,323.871399,1101.124146,326.328033,1101.125732C327.912872,1101.126831,328.426178,1101.014648,329.238861,1100.489746C329.781525,1100.13916,330.612518,1099.772461,331.08551,1099.674805C332.083588,1099.46875,332.205139,1099.130249,331.350128,1098.937744C329.891327,1098.609253,327.094971,1097.450195,326.664459,1096.995605C325.955292,1096.246582,322.154602,1089.796875,322.154602,1089.342407C322.154602,1088.978638,322.639221,1088.708252,325.396179,1087.533569L326.388519,1087.110718L326.392578,1081.218628C326.394806,1077.978027,326.4841,1075.193481,326.591034,1075.030762C326.764465,1074.766846,330.184784,1073.484131,340.246674,1069.909668C342.472107,1069.119141,343.667725,1068.828003,344.348297,1068.911133C344.876617,1068.975586,347.154602,1069.689087,349.410461,1070.496704C351.666351,1071.304199,355.223114,1072.569702,357.314392,1073.308716C359.40564,1074.047729,361.281128,1074.78894,361.482147,1074.955811C361.776154,1075.199707,361.847626,1076.624512,361.847626,1082.239136C361.847626,1087.648804,361.922058,1089.218262,362.178406,1089.215332C362.360321,1089.213135,363.028259,1089.03064,363.66272,1088.809692C365.087738,1088.313477,365.816925,1088.502563,365.816925,1089.36853C365.816925,1090.258667,361.665344,1097.139526,360.957184,1097.423096C357.554077,1098.785889,344.545166,1103.244019,343.971558,1103.244019C343.610046,1103.244019,342.512726,1102.958374,341.533051,1102.609131C335.102997,1100.317139,332.696136,1099.497314,332.635681,1099.578735C332.115509,1100.279175,331.41629,1101.685547,331.41629,1102.031494C331.41629,1102.276123,331.845215,1102.916992,332.369446,1103.455566C335.136475,1106.29834,335.14032,1110.087158,332.379028,1112.848511C330.896088,1114.331421,329.22226,1114.983887,326.653137,1115.080444C324.737396,1115.152466,324.172333,1115.067993,322.84256,1114.510376zM343.059601,1096.496216C343.059601,1091.729614,343.202911,1091.900146,340.154388,1093.039673C339.205261,1093.394409,336.880707,1094.237427,334.988678,1094.913086C333.096649,1095.588623,331.451538,1096.234985,331.332855,1096.349365C331.120911,1096.553589,332.370239,1097.143188,334.459442,1097.824951C335.041595,1098.014893,337.006409,1098.709717,338.825653,1099.369019C340.644928,1100.028198,342.341797,1100.574463,342.596497,1100.582764C343.01828,1100.596436,343.059601,1100.231812,343.059601,1096.496216zM330.359863,1094.264282C331.595856,1093.837158,334.155121,1092.932861,336.04715,1092.254761C337.939178,1091.57666,340.0737,1090.824585,340.790497,1090.583618C341.507324,1090.342529,342.134644,1090.019775,342.184601,1089.866211C342.25238,1089.657837,339.946533,1085.520874,339.496063,1085.042603C339.417725,1084.959351,338.682587,1085.201538,333.665558,1086.963623C331.773529,1087.628052,329.153809,1088.541748,327.843933,1088.993896C326.534058,1089.446167,325.355652,1089.913452,325.22522,1090.032593C324.945099,1090.28833,327.659241,1095.040771,328.085449,1095.040771C328.100433,1095.040771,329.123901,1094.691406,330.359863,1094.264282zM329.701813,1113.734253C332.305023,1112.521973,333.624908,1110.639648,333.624908,1108.139526C333.624908,1106.267578,333.184296,1105.297974,331.690216,1103.882202C330.593201,1102.842651,330.37561,1102.082764,330.896362,1101.109619C331.28772,1100.378418,330.669067,1100.436768,329.480774,1101.243164C328.669678,1101.793579,328.216675,1101.889038,326.398926,1101.893066C322.019531,1101.90271,318.979156,1104.46228,318.979156,1108.139526C318.979156,1110.587524,320.273041,1112.44751,322.856628,1113.713135C324.67337,1114.603271,327.814941,1114.612915,329.701813,1113.734253zM326.000214,1105.375C325.767548,1104.998535,326.06424,1104.567139,326.555847,1104.567139C326.787689,1104.567139,326.920502,1104.753052,326.871002,1105.008301C326.767914,1105.539795,326.239563,1105.762207,326.000214,1105.375zM325.226746,1111.527588C323.870697,1110.817017,323.797363,1109.276978,325.065399,1108.139526C325.389893,1107.848389,325.757843,1107.342285,325.883087,1107.014893C326.008331,1106.687378,326.292358,1106.419434,326.514282,1106.419434C327.198395,1106.419434,326.962677,1107.374146,325.991577,1108.536499C324.922485,1109.81604,324.854462,1110.21106,325.611755,1110.741455C326.35434,1111.261597,327.122894,1111.006714,327.601166,1110.081909C328.014557,1109.282471,328.505463,1109.286377,328.505463,1110.089233C328.505463,1111.367676,326.554749,1112.223389,325.226746,1111.527588zM333.201294,1084.840698C335.494232,1084.033447,337.921387,1083.181641,338.594971,1082.947632C339.268555,1082.713745,340.009186,1082.594971,340.240814,1082.68396C340.472473,1082.772827,341.111786,1083.565063,341.66156,1084.44458C342.211334,1085.324097,342.750793,1086.043701,342.860382,1086.043701C342.96994,1086.043701,343.059601,1082.769043,343.059601,1078.766602C343.059601,1072.959961,342.989868,1071.489624,342.714447,1071.489624C342.408936,1071.489624,339.563599,1072.456543,333.665558,1074.564819C332.64679,1074.928955,331.277374,1075.411621,330.622437,1075.637329C328.334656,1076.425781,328.505463,1075.958984,328.505463,1081.422119C328.505463,1084.488403,328.603577,1086.30835,328.76889,1086.30835C328.913788,1086.30835,330.908356,1085.647949,333.201294,1084.840698zM359.570038,1094.357666C359.800629,1093.756714,359.760986,1076.971924,359.528137,1076.622925C359.421234,1076.462646,358.083405,1075.88562,356.555237,1075.340698C350.072327,1073.028809,345.613464,1071.489624,345.3992,1071.489624C345.272675,1071.489624,345.200928,1075.605713,345.239288,1080.662598L345.308868,1089.835693L347.822754,1090.739746C356.741913,1093.947144,358.910156,1094.709473,359.239258,1094.753418C359.332855,1094.765991,359.481689,1094.587891,359.570038,1094.357666z"/>
</svg>
