<?xml version="1.0" encoding="UTF-8" standalone="no"?>
<svg xmlns="http://www.w3.org/2000/svg" xmlns:xlink="http://www.w3.org/1999/xlink" width="114.878mm" height="169.294mm" viewBox="-276.439209 -1057.647217 114.878342 169.294495">
    <path transform="matrix(-1,0,0,-1,0,0)" style="stroke:none;fill:#000000;fill-rule:evenodd" d="M217.366516,1016.523193C216.052185,1015.645142,215.907043,1015.058716,215.906677,1010.624878L215.906342,1006.680481L214.477463,1006.538696C212.142044,1006.307007,206.771942,1005.404297,204.412308,1004.846802C192.212357,1001.964111,180.545807,994.424316,173.215576,984.684998C165.877625,974.935486,162.197525,964.616211,161.602966,952.122253C161.453644,948.984375,161.654037,948.29126,162.96347,947.416504C163.76355,946.882019,165.130219,946.783813,165.864334,947.208069C166.109024,947.349487,167.490265,948.58075,168.933777,949.944214C172.99202,953.777405,174.763397,954.932922,177.80304,955.729797C179.61261,956.204163,182.786713,956.214783,184.550629,955.752319C186.52652,955.234314,188.64418,954.036133,190.140533,952.589478C191.858612,950.928467,192.526703,950.536377,193.640411,950.5354C194.81424,950.534363,195.153534,950.726624,197.039551,952.461121C200.407272,955.55835,204.357895,956.741516,208.709045,955.956116C210.821533,955.574768,213.386932,954.37738,214.900833,953.066101L215.906342,952.195129L215.913727,927.285706C215.92157,900.802368,215.921005,900.818542,216.938507,897.945251C217.641754,895.959351,218.633331,894.463257,220.457565,892.63562C226.200287,886.882324,235.384552,886.931213,241.09111,892.745544C243.633728,895.336182,245.059509,898.559937,245.256897,902.164612C245.348328,903.834229,245.30722,904.155029,244.924454,904.759644C244.011581,906.201599,242.333389,906.674194,240.881866,905.898071C239.827042,905.334045,239.374817,904.420288,239.176407,902.452087C238.855011,899.264038,237.025604,896.580811,234.217087,895.178223C233.036865,894.588806,232.781891,894.543945,230.613983,894.543945C228.406158,894.543945,228.205475,894.581116,226.873154,895.237C224.602127,896.355042,222.832306,898.58551,222.265091,901.044495C222.13324,901.616089,222.05365,911.302734,222.050385,927.170898L222.045197,952.388916L223.194733,953.256836C225.938583,955.32843,228.321243,956.12207,231.782715,956.117249C233.874725,956.11438,234.455261,956.032532,235.910568,955.535522C237.901062,954.855713,239.449539,953.885864,241.202698,952.220886C242.770401,950.732056,243.142197,950.534607,244.377975,950.534607C245.644363,950.534607,245.964386,950.716797,247.870773,952.523132C250.547852,955.059692,253.084442,956.080811,256.761536,956.102173C261.317627,956.128723,264.188873,954.686462,269.145111,949.882019C270.542236,948.52771,271.893402,947.310791,272.147705,947.177795C273.424561,946.51001,275.268921,947.178528,276.106506,948.61261C276.512909,949.308472,276.519165,949.476807,276.275269,953.163086C276.135986,955.268433,275.875427,957.991211,275.696228,959.213684C273.126831,976.742676,261.278442,992.774658,245.025131,1000.7146C238.604858,1003.850952,230.908539,1005.970337,223.897446,1006.532654L222.045197,1006.681213L222.044876,1010.625244C222.044586,1013.957764,221.987152,1014.683594,221.674438,1015.30603C221.164215,1016.321533,220.079819,1017.003723,218.975769,1017.003723C218.402893,1017.003723,217.829529,1016.83252,217.366516,1016.523193zM226.067215,999.938721C232.976776,999.061951,240.237808,996.626099,245.762772,993.331482C252.482391,989.324524,258.605042,983.300964,262.920044,976.452026C264.68335,973.653259,266.743042,969.359985,267.635742,966.622681C268.405823,964.26123,269.73645,958.513794,269.631226,958.003357C269.584656,957.777405,269.328644,957.872986,268.637939,958.374146C266.322327,960.054504,263.927063,961.183716,261.206909,961.877441C258.904419,962.464661,254.339264,962.416931,251.998627,961.781189C249.744461,961.168945,247.220322,959.970581,245.578323,958.733154L244.238464,957.723389L242.826416,958.793579C239.836685,961.059448,236.706116,962.132141,232.523621,962.323853C229.546234,962.460327,227.128021,962.08667,224.546478,961.091125C222.881531,960.449036,220.135437,958.785645,219.438202,957.996826C219.054565,957.562866,219.051117,957.564148,217.533035,958.706299C214.518524,960.974243,211.422104,962.093628,207.529053,962.322937C202.896637,962.595825,198.243256,961.248047,194.884705,958.660706L193.65564,957.713867L192.344482,958.70575C190.67688,959.967224,188.121033,961.198059,185.952911,961.783691C183.614243,962.415466,179.044357,962.463013,176.744598,961.879517C174.448868,961.297119,172.193787,960.294373,170.077927,958.915161L168.22551,957.707703L168.37442,958.700684C168.640686,960.476318,169.924683,965.404663,170.714127,967.681091C172.813339,973.734497,177.31813,980.767029,182.240753,985.675598C193.268555,996.671997,209.691284,1002.016663,226.067215,999.938721z"/>
    <path transform="matrix(-1,0,0,-1,0,0)" style="stroke:none;fill:#000000;fill-rule:evenodd" d="M248.135574,1042.187744C247.331314,1041.86438,242.602234,1034.180664,240.127014,1029.175537C237.841553,1024.554199,237.30603,1022.030212,238.025116,1019.269409C239.31633,1014.312134,243.99176,1010.653137,249.035034,1010.653137C253.698181,1010.653137,258.16925,1014.012268,259.548004,1018.551453C260.105469,1020.386841,260.009216,1023.418457,259.333221,1025.31665C258.273041,1028.293701,256.269653,1032.149902,252.451202,1038.563477C250.212143,1042.324219,249.649887,1042.796387,248.135574,1042.187744zM250.739685,1029.893066C254.189316,1023.679932,254.747147,1021.607788,253.583923,1019.327637C251.591888,1015.422913,245.785233,1015.581482,244.061829,1019.587646C243.107712,1021.805542,243.675507,1023.78418,246.97966,1029.755737C248.61055,1032.703125,248.855209,1033.045288,249.099213,1032.71936C249.250946,1032.516724,249.989151,1031.244873,250.739685,1029.893066z"/>
    <path transform="matrix(-1,0,0,-1,0,0)" style="stroke:none;fill:#000000;fill-rule:evenodd" d="M187.917206,1042.076416C186.792145,1041.46582,179.690826,1029.005615,178.453552,1025.471069C177.719757,1023.374939,177.616104,1020.281799,178.219452,1018.485474C179.435898,1014.863892,181.916092,1012.388611,185.551178,1011.168396C187.015564,1010.676758,187.467178,1010.619507,189.232681,1010.70166C191.674805,1010.815247,193.220581,1011.328491,195.214142,1012.687622C197.721436,1014.397034,199.378296,1017.075684,199.877991,1020.227722C200.42868,1023.701416,198.692841,1027.937622,192.40567,1038.463501C190.782394,1041.18103,190.267944,1041.879761,189.717102,1042.11499C188.873901,1042.475098,188.642731,1042.470215,187.917206,1042.076416zM191.088074,1029.169189C194.338837,1023.225037,194.774841,1020.906982,193.081573,1018.571045C190.805237,1015.430786,185.724213,1015.935059,184.047928,1019.46759C182.963409,1021.753052,183.76767,1024.249512,187.91275,1031.464355L188.862823,1033.11792L189.221222,1032.522705C189.41835,1032.195313,190.258438,1030.686279,191.088074,1029.169189z"/>
    <path transform="matrix(-1,0,0,-1,0,0)" style="stroke:none;fill:#000000;fill-rule:evenodd" d="M217.651581,1057.170898C216.932556,1056.4021,211.759262,1047.615234,210.320114,1044.718506C208.356781,1040.766602,207.966431,1039.411987,207.976181,1036.584595C207.982727,1034.684814,208.071106,1034.037598,208.456207,1033.069458C209.538055,1030.349854,211.496582,1028.219727,214.090973,1026.940918C218.505005,1024.765259,223.257416,1025.592529,226.827652,1029.158081C229.90773,1032.234009,230.790451,1035.986572,229.424179,1040.196045C229.161926,1041.003906,228.22612,1043.093872,227.344589,1044.840332C225.578796,1048.338501,220.948212,1056.419434,220.278809,1057.170898C219.967651,1057.520264,219.62027,1057.647217,218.975769,1057.647217C218.337524,1057.647217,217.975067,1057.516846,217.651581,1057.170898zM221.643311,1043.133423C224.100006,1038.435913,224.486206,1037.080566,223.913116,1035.167725C223.579712,1034.054932,222.27182,1032.609863,221.099243,1032.058716C219.80896,1031.452148,217.899567,1031.451294,216.691727,1032.056641C214.230774,1033.290039,213.220184,1035.461304,213.894638,1038.066406C214.260834,1039.480835,216.149231,1043.429077,217.825943,1046.285889L218.922852,1048.154907L219.44928,1047.238525C219.7388,1046.734497,220.726105,1044.887207,221.643311,1043.133423z"/>
</svg>
