<?xml version="1.0" encoding="UTF-8" standalone="no"?>
<svg xmlns="http://www.w3.org/2000/svg" xmlns:xlink="http://www.w3.org/1999/xlink" width="131.347mm" height="113.628mm" viewBox="-507.673309 -992.813965 131.346649 113.627808">
    <path transform="matrix(-1,0,0,-1,0,0)" style="stroke:none;fill:#000000;fill-rule:evenodd" d="M431.554688,889.717468C424.707092,889.351257,417.294189,888.521484,410.885101,887.403809C406.262146,886.597595,398.882019,884.947144,398.106232,884.545959C397.0961,884.02356,396.626648,883.236084,396.626648,882.063904C396.626648,880.138306,397.811462,879.000916,399.599762,879.209717C400.118469,879.270264,401.685913,879.616577,403.083069,879.979309C409.809601,881.725708,417.71637,882.983337,427.215149,883.81781C431.309937,884.177551,448.015533,884.319092,452.839844,884.034973C463.095093,883.430908,472.188904,882.116699,480.348083,880.059387C484.151611,879.100403,485.222687,879.003113,486.080505,879.538757C487.816345,880.622681,487.791077,883.222961,486.033508,884.374573C484.877197,885.132202,472.723022,887.613892,466.059326,888.453003C455.573517,889.773315,441.94043,890.272949,431.554688,889.717468z"/>
    <path transform="matrix(-1,0,0,-1,0,0)" style="stroke:none;fill:#000000;fill-rule:evenodd" d="M431.448853,900.100098C421.12677,899.572449,410.878632,898.256958,402.455566,896.378479C399.083496,895.626404,398.130615,895.2229,397.662811,894.348877C397.467896,893.984619,397.346069,888.52002,397.528778,888.337341C397.558075,888.308044,398.772156,888.561829,400.226685,888.901306C409.129333,890.979065,417.179016,892.253784,427.109314,893.158264C431.899567,893.594604,452.25592,893.526855,457.54068,893.056946C465.609375,892.339478,472.64093,891.267761,480.783203,889.514282C483.467468,888.936218,485.825104,888.463257,486.0224,888.463257C486.340515,888.463257,486.381104,888.764038,486.381104,891.119873C486.381104,894.087585,486.168884,894.795959,485.116699,895.340088C484.26239,895.78186,478.72998,896.959778,473.256653,897.865234C468.166138,898.707397,463.095886,899.308105,456.956879,899.796509C452.055603,900.186401,436.709747,900.369019,431.448853,900.100098z"/>
    <path transform="matrix(-1,0,0,-1,0,0)" style="stroke:none;fill:#000000;fill-rule:evenodd" d="M429.861206,968.245605C422.641632,967.428528,416.895081,964.721008,413.495148,960.534607C412.931122,959.840149,411.95575,958.22406,411.327637,956.943359C406.402557,946.901123,408.492249,934.954529,417.253296,923.066833C418.007507,922.043396,418.579224,921.132568,418.523743,921.042786C418.3302,920.729675,415.983246,920.36377,414.302368,920.384705C409.920898,920.439331,406.366638,923.043945,402.976532,928.68457L401.919708,930.442932L402.773285,931.173584C405.619629,933.609924,405.119324,937.976807,401.808289,939.596741C400.78717,940.096313,400.451965,940.157227,399.21167,940.068481C397.55661,939.950073,396.792572,939.605835,395.703735,938.488037C394.169708,936.913147,393.945099,934.329163,395.169952,932.34729C395.706604,931.479004,397.231049,930.441528,398.251678,930.250061L398.9552,930.118103L398.9552,927.746155C398.9552,924.166809,398.316254,921.231689,397.262238,919.969177C396.53299,919.095642,395.985931,919.230408,394.408569,920.671997C391.700104,923.1474,389.16272,927.9328,388.140259,932.493774C387.207062,936.656616,387.449371,940.917114,388.813049,944.322754C390.09668,947.528442,392.923157,950.982117,395.857697,952.930542C396.835144,953.579529,397.058197,953.648682,397.559296,953.45813C397.876495,953.337524,398.686401,953.238892,399.359039,953.238892C401.639374,953.238892,403.5271,954.799927,404.044922,957.113892C404.25705,958.061768,404.243622,958.434204,403.962646,959.394409C403.291687,961.687256,401.522125,963.015808,399.154144,963.004517C396.243652,962.990601,394.298126,961.011108,394.298126,958.06366C394.298126,957.131714,394.283447,957.111938,393.398468,956.851501C390.719666,956.063171,387.756866,954.56543,386.04187,953.132568L385.135742,952.375549L384.626373,953.091431C383.009308,955.364197,379.337402,955.417419,377.463715,953.195251C376.527649,952.085083,376.252502,951.203796,376.342834,949.60498C376.408875,948.436218,376.539215,948.012146,377.060059,947.270996C377.824646,946.183167,378.840393,945.463196,380.077789,945.132019C380.911316,944.908936,380.981079,944.839417,380.859833,944.352966C380.786621,944.059265,380.673615,942.485291,380.608734,940.855286C380.518463,938.587341,380.572845,937.455078,380.840515,936.031555C381.761627,931.132629,383.814911,927.167542,387.689941,922.804626C389.175171,921.132385,389.329865,920.85437,391.130707,916.622192C392.167786,914.184814,393.442413,910.924316,393.963196,909.376526C394.995544,906.308289,396.626648,900.479736,396.626648,899.859009C396.626648,899.388062,396.686035,899.38562,398.077942,899.79895C399.878052,900.333557,406.238098,901.728027,409.539429,902.311951C428.59845,905.683167,454.965668,905.684143,474.103394,902.314453C477.634888,901.692627,483.234558,900.489563,485.500366,899.865845C486.354858,899.630615,487.08432,899.46936,487.121368,899.507446C487.158447,899.545532,487.590302,901.148499,488.081055,903.069519C489.170593,907.33429,490.256409,910.641418,491.938477,914.818054C494.074707,920.122559,494.497406,920.927979,496.131226,922.806885C499.411255,926.578979,501.525726,930.328979,502.607788,934.293091C503.113037,936.144104,503.187134,936.808716,503.197815,939.585205C503.204559,941.331604,503.136353,943.253174,503.046204,943.855347L502.882324,944.950134L504.067871,945.2948C507.805237,946.381287,508.942993,951.312439,506.02417,953.77356C505.018982,954.621094,504.131714,954.932983,502.74057,954.927734C501.316223,954.922302,499.933777,954.373047,498.948059,953.420898L498.284668,952.780151L496.945984,953.765686C495.468567,954.853271,492.891357,956.15686,490.932343,956.807373L489.662231,957.229187L489.538635,958.462219C489.394226,959.903015,489.015442,960.706665,488.039734,961.642639C487.099762,962.544312,485.927612,963.006653,484.581787,963.006653C481.756653,963.006653,479.622589,960.87738,479.611816,958.047913C479.606567,956.656799,479.918427,955.769531,480.765991,954.764343C481.945435,953.36554,483.831177,952.818298,485.741516,953.320496C487.09259,953.675659,487.055969,953.689819,489.223694,951.967285C493.124207,948.867676,495.752075,943.949463,496.235474,938.844299C496.618103,934.80304,495.147766,929.174194,492.569824,924.81134C491.423706,922.871643,488.815979,919.975708,487.858154,919.578979C487.27475,919.337341,487.160889,919.358398,486.697571,919.79364C485.675232,920.754089,484.899292,924.289001,484.899292,927.986328L484.899292,930.065857L485.94751,930.43811C487.355408,930.938171,488.245636,931.730042,488.843658,933.014282C489.385498,934.177856,489.479309,935.493286,489.114258,936.808044C488.810883,937.900574,487.180023,939.516846,486.039001,939.855652C483.206818,940.696716,480.183563,939.274292,479.425415,936.743896C478.813263,934.700684,479.327942,932.76123,480.877441,931.272339L481.77298,930.411865L480.914642,928.859619C478.115295,923.797363,474.765259,920.978638,470.889191,920.424255C469.635101,920.244873,467.100769,920.472473,465.885193,920.873596L465.17981,921.106445L465.598419,921.560913C466.575562,922.621765,470.000854,928.15332,471.25412,930.694458C472.749847,933.727112,474.085419,937.546936,474.665405,940.450928C475.175964,943.007202,475.179871,947.99884,474.67337,950.531372C472.410309,961.846252,465.110657,967.454285,451.418335,968.397339C449.626617,968.520752,449.299194,968.49646,449.401062,968.247803C450.173492,966.362183,450.269897,965.366089,449.862,963.485779L449.71991,962.830933L451.803711,962.688599C460.67569,962.082642,466.369568,957.93689,468.270996,950.698669C468.775513,948.778137,468.917053,943.934021,468.539917,941.496033C468.264435,939.715271,468.270081,939.576294,468.630157,939.273315C468.94812,939.005798,469.790405,937.360474,469.60791,937.363403C469.57724,937.363892,469.083527,937.602051,468.510773,937.892578C466.858276,938.730957,465.090393,938.515259,463.609558,937.294617C461.239166,935.340759,461.600098,931.681763,464.334778,929.942505L464.832886,929.625671L463.576355,927.937378C461.766113,925.505066,459.641418,923.590393,457.673248,922.617676C456.093048,921.83667,455.939972,921.80365,453.898438,921.80365C451.958405,921.80365,451.661072,921.859192,450.529236,922.432617C448.852386,923.282288,447.061401,925.268677,445.978516,927.479919C445.223785,929.021057,444.168335,931.859741,444.308624,931.971191C444.337769,931.994385,444.885559,932.180847,445.525909,932.385681C449.355286,933.610413,452.429291,936.119873,453.956177,939.2677C454.745911,940.895813,455.552826,943.790771,455.328003,944.189331C455.175232,944.460144,452.995972,944.36438,451.2854,944.01178C450.388,943.826782,448.949707,943.350464,448.089233,942.953369C447.228729,942.556213,446.498108,942.231262,446.465637,942.231262C446.433136,942.231262,446.459778,943.12323,446.524841,944.21344C446.623047,945.859619,446.567383,946.442627,446.196472,947.65332C445.690308,949.30542,444.573303,951.109863,443.000793,952.815491L441.927429,953.979797L440.951111,952.921387C439.536804,951.388123,438.217072,949.287354,437.685211,947.722473C437.290833,946.562134,437.23822,946.051819,437.331879,944.295166C437.404144,942.939819,437.366516,942.231262,437.22226,942.231262C437.101471,942.231262,436.705597,942.414612,436.34259,942.638733C435.047852,943.437988,432.391724,944.170959,430.347931,944.292847C428.068359,944.428894,428.17572,944.577271,428.796844,942.148621C429.985779,937.499878,433.410278,933.976929,438.275696,932.397217C438.910706,932.19104,439.387024,931.910156,439.387024,931.741943C439.387024,931.115784,438.076202,927.89856,437.264099,926.531616C435.008148,922.734314,431.729553,921.104126,427.93335,921.892212C425.521759,922.392883,422.385498,924.894531,420.082825,928.154175C419.127197,929.507019,419.069519,929.654419,419.420288,929.847656C419.631622,929.964111,420.197876,930.44043,420.67865,930.906128C421.759888,931.95343,422.254303,933.667419,421.854065,934.980713C421.317291,936.741943,420.343842,937.711304,418.56897,938.252014C417.557129,938.560242,415.755066,938.231812,414.825134,937.56958L414.196533,937.122009L414.196533,937.764099C414.196533,938.178589,414.4263,938.667908,414.844788,939.144531L415.493073,939.882874L415.239655,942.062561C414.871521,945.229126,415.085632,948.862061,415.779388,951.219971C416.630341,954.112183,417.628052,955.834106,419.589264,957.795288C422.659424,960.865479,426.465668,962.341553,432.685516,962.874023C434.261841,963.009033,434.338348,963.039185,434.202606,963.472534C433.825317,964.677002,433.849884,966.071411,434.269379,967.263L434.697937,968.480225L433.073364,968.452759C432.179871,968.437622,430.734406,968.344421,429.861206,968.245605zM461.304962,914.376465C462.388336,913.862366,462.771851,913.098511,462.695801,911.60614C462.682922,911.353149,462.392334,910.866089,462.050049,910.523804C459.870422,908.344177,456.390259,911.306519,458.3685,913.657532C459.275879,914.735962,460.114685,914.941284,461.304962,914.376465zM424.926025,914.299377C425.762604,913.789307,426.108612,913.165833,426.108612,912.168579C426.108612,911.180176,425.589203,910.397339,424.63208,909.943176C422.573151,908.966125,420.236786,911.574829,421.524353,913.413147C421.983368,914.068481,423.071198,914.710632,423.722351,914.710632C424.013428,914.710632,424.555054,914.525574,424.926025,914.299377zM478.548767,915.74939C478.548767,915.621216,479.111572,914.339905,479.799408,912.901917L481.050079,910.287415L480.275696,909.698303C479.849792,909.374329,478.765869,908.461975,477.866974,907.670837L476.232605,906.232361L475.56192,907.560974C475.193054,908.291748,474.520416,909.5,474.0672,910.245972C473.613983,910.992004,473.27002,911.671204,473.302826,911.755371C473.335632,911.839478,474.124542,912.486267,475.055969,913.192627C475.987366,913.898987,477.082825,914.810547,477.490356,915.218384C478.2677,915.996338,478.548767,916.137329,478.548767,915.74939zM406.697754,914.946045C407.32135,914.376099,408.450562,913.455322,409.207123,912.89978L410.582672,911.889832L409.834106,910.602051C409.422424,909.893738,408.758911,908.618042,408.35965,907.767212C407.855865,906.693542,407.552856,906.269043,407.369385,906.379822C407.22403,906.467651,406.200134,907.345398,405.094055,908.330383C403.988007,909.31543,403.004578,910.189697,402.90863,910.273254C402.760803,910.401978,405.268402,915.942932,405.487762,915.972168C405.529633,915.977783,406.074127,915.515991,406.697754,914.946045zM443.225159,920.537048C443.764343,919.697083,444.790314,918.364502,445.505035,917.575806C446.616699,916.349182,446.765686,916.09259,446.535675,915.801086C446.387787,915.613647,445.639557,914.727295,444.872925,913.831299C444.106323,912.935303,443.15741,911.671509,442.764282,911.022888C442.371155,910.374207,441.998169,909.847351,441.935455,909.852112C441.872742,909.856873,441.419067,910.499817,440.927277,911.280945C440.435486,912.062073,439.363281,913.454529,438.544525,914.375244L437.055908,916.049316L437.533508,916.627319C439.942566,919.542786,440.78363,920.676208,441.262604,921.652832C441.732483,922.610901,441.853973,922.733093,442.032654,922.427307C442.149323,922.227661,442.685974,921.377014,443.225159,920.537048z"/>
    <path transform="matrix(-1,0,0,-1,0,0)" style="stroke:none;fill:#000000;fill-rule:evenodd" d="M440.39682,991.851135C437.884155,989.877136,436.729431,987.413818,437.220123,985.074524C437.351746,984.446899,437.69873,983.457092,437.99115,982.874878C438.283569,982.292725,438.443359,981.816345,438.346222,981.816345C438.249084,981.816345,437.610016,982.075256,436.926086,982.391724C435.258606,983.163208,432.411163,983.227112,430.893738,982.5271C429.648987,981.952942,428.429047,980.85083,427.425751,979.394043L426.637115,978.249023L427.592529,977.007385C429.352875,974.719666,431.357452,973.314453,433.313324,972.997009C433.995361,972.886353,434.052063,972.928589,434.537994,973.908813C435.140167,975.123535,436.409424,975.88916,437.821045,975.88916L438.705597,975.88916L439.141541,974.248657C439.921265,971.314087,439.930298,971.572205,439.036804,971.249084C437.886108,970.833008,436.131317,969.083252,435.559753,967.782043C434.909149,966.300842,434.890747,964.119629,435.517059,962.727539C436.140747,961.341248,437.46048,959.988403,438.901489,959.258301C439.988098,958.707703,440.345154,958.636841,442.033081,958.636841C443.687897,958.636841,444.095703,958.714172,445.136505,959.225281C446.453461,959.872009,447.575073,960.985168,448.320038,962.384705C449.016083,963.692383,449.020294,966.69812,448.327911,967.998047C447.441895,969.661499,446.282654,970.639771,444.088409,971.575928C443.967926,971.627319,444.956665,975.364746,445.159485,975.624573C445.476044,976.03009,446.769684,975.939697,447.802124,975.43988C448.491425,975.106201,448.876282,974.721863,449.297852,973.946289C449.855499,972.920166,449.879822,972.904114,450.687042,973.02655C452.699097,973.331726,454.95752,974.962097,456.51416,977.233154C457.348389,978.450256,457.310059,978.579834,455.535522,980.540771C453.980469,982.259155,452.309509,983.086487,450.393982,983.086487C448.976166,983.086487,446.995483,982.557861,446.020966,981.919312C445.756866,981.746277,445.495789,981.604675,445.440796,981.604675C445.385773,981.604675,445.640961,982.247681,446.007874,983.033569C446.568726,984.234802,446.675354,984.715332,446.677246,986.050049C446.679108,987.360901,446.581268,987.825623,446.116028,988.715698C445.495697,989.902466,442.525818,992.8302,441.95874,992.813965C441.766785,992.808472,441.063934,992.375244,440.39682,991.851135z"/>
</svg>
