<?xml version="1.0" encoding="UTF-8" standalone="no"?>
<svg xmlns="http://www.w3.org/2000/svg" xmlns:xlink="http://www.w3.org/1999/xlink" width="105.527mm" height="130.371mm" viewBox="-395.028076 -886.603882 105.526978 130.371277">
    <path transform="matrix(-1,0,0,-1,0,0)" style="stroke:none;fill:#000000;fill-rule:evenodd" d="M303.536011,886.272522C293.376709,884.241638,287.315979,874.548706,290.227203,864.987793C291.093323,862.14325,292.25238,860.252869,294.547333,857.94165C296.251678,856.225159,297.134064,855.573303,298.917297,854.713318C300.14624,854.120605,301.717346,853.485962,302.408661,853.302917L303.665619,852.970154L303.665619,821.452942L303.665619,789.93573L302.369263,789.603455C300.454926,789.112854,297.504669,787.502502,295.765045,785.998657C292.884216,783.508301,291.0242,780.606201,290.171112,777.27063C288.183319,769.498474,291.903656,761.497314,299.230499,757.786987C302.431335,756.166138,300.466675,756.237061,342.261963,756.232788C376.233582,756.229309,380.641357,756.275208,382.087311,756.647278C388.323578,758.251953,393.250977,763.446838,394.543365,769.779541C395.33252,773.646484,394.894531,776.858826,393.071594,780.573975C392.203491,782.343079,391.510529,783.279175,389.825226,784.959106C387.487335,787.289551,385.627899,788.478516,382.861877,789.41156L381.067047,790.017029L381.067047,821.427979L381.067047,852.838989L382.872009,853.469666C388.609344,855.474487,393.166534,860.166687,394.572723,865.51709C395.177673,867.818909,395.180237,871.773621,394.578125,873.8526C393.73056,876.778992,392.38385,878.974304,389.94751,881.401123C388.233307,883.108582,387.199951,883.892456,385.697876,884.624512C381.444519,886.697449,384.995605,886.533997,342.961731,886.591187C311.694458,886.633728,305.075104,886.5802,303.536011,886.272522zM373.52536,845.303955L373.52536,837.792603L371.474548,838.290955C370.346619,838.565002,364.779663,839.853638,359.103546,841.15448C353.427429,842.455322,343.603424,844.709656,337.272369,846.164124C330.941345,847.618591,322.458374,849.561218,318.421326,850.48114C313.630157,851.572937,311.080139,852.268616,311.078094,852.484497C311.075623,852.747314,317.494751,852.815308,342.300171,852.815308L373.52536,852.815308L373.52536,845.303955zM322.189026,803.198853C336.025848,800.026306,372.208984,791.694275,372.929962,791.514465C373.375916,791.403259,373.52536,791.17395,373.52536,790.60083L373.52536,789.835693L342.300171,789.835693L311.074982,789.835693L311.074982,797.802979L311.074982,805.770264L311.67038,805.622131C311.997833,805.54071,316.731232,804.450195,322.189026,803.198853zM314.959076,824.252686C316.825195,823.825012,322.341187,822.566833,327.216797,821.456665C332.092438,820.346497,342.92865,817.845154,351.297241,815.898132C359.665863,813.951111,367.644165,812.108093,369.026825,811.80249C370.409454,811.496887,371.987244,811.128357,372.53302,810.983582L373.52536,810.720276L373.52536,804.890991C373.52536,799.460327,373.493713,799.071655,373.062256,799.207031C372.807587,799.286987,370.51532,799.823975,367.968323,800.400391C365.421356,800.976868,358.63385,802.533142,352.884979,803.858887C347.136108,805.184631,335.644958,807.809998,327.349121,809.692993C319.053284,811.57605,311.997833,813.179749,311.67038,813.256836C311.075226,813.396912,311.074982,813.399475,311.074982,819.213562C311.074982,822.614075,311.176971,825.030151,311.320557,825.030151C311.455627,825.030151,313.092957,824.680298,314.959076,824.252686zM315.441223,843.552734C320.143097,842.506104,343.858704,837.044922,360.55896,833.163086L373.393066,830.179993L373.464325,824.277893C373.53125,818.735291,373.50708,818.384705,373.067383,818.522461C372.809875,818.60321,364.263641,820.580994,354.075775,822.917603C343.887878,825.25415,330.044952,828.433655,323.31366,829.983093L311.074982,832.800293L311.074982,838.697876C311.074982,843.297668,311.147766,844.571472,311.405762,844.48645C311.587677,844.426514,313.403625,844.006348,315.441223,843.552734zM381.168976,782.0401C385.104797,780.651428,387.871338,776.352295,387.452698,772.275391C387.112366,768.961609,384.919434,765.948669,381.774933,764.474548L380.273193,763.770569L342.846344,763.699951C301.302216,763.621521,303.933929,763.516052,301.160126,765.37085C299.484375,766.491333,298.448486,767.798157,297.630341,769.823608C296.794739,771.892395,296.890228,774.959351,297.853851,777.001587C298.723572,778.844788,301.161804,781.182617,302.918243,781.857422C304.313324,782.393433,304.698883,782.398865,342.200745,782.412537C374.74765,782.424377,380.228271,782.371948,381.168976,782.0401zM381.781708,878.304993C383.869934,877.315735,385.639343,875.641968,386.673828,873.677307C387.345276,872.4021,387.417511,872.007813,387.417511,869.618652C387.417511,867.267273,387.339539,866.825073,386.71759,865.649353C385.900543,864.104858,384.174561,862.320068,382.612976,861.404968C380.055817,859.906372,381.544281,859.960022,342.545319,859.960022C319.397705,859.960022,306.142426,860.055359,305.223297,860.228333C301.969818,860.84082,299.16629,863.020752,297.741089,866.046326C295.375031,871.069214,298.102417,876.744507,303.915771,878.894897C304.679016,879.177246,311.942078,879.233643,342.432465,879.193909L380.008545,879.14502L381.781708,878.304993z"/>
</svg>
