<?xml version="1.0" encoding="UTF-8" standalone="no"?>
<svg xmlns="http://www.w3.org/2000/svg" xmlns:xlink="http://www.w3.org/1999/xlink" width="166.258mm" height="185.001mm" viewBox="-243.128876 -790.500610 166.257736 185.001282">
    <path transform="matrix(-1,0,0,-1,0,0)" style="stroke:none;fill:#000000;fill-rule:evenodd" d="M139.403229,790.058838C137.414948,789.444214,135.997787,788.718628,134.521942,787.559631C130.686371,784.547546,102.424988,759.72699,101.679413,758.715698C100.245766,756.771057,99.669891,755.111694,98.658005,750.00946C97.6689,745.022034,93.658325,729.330688,91.245659,721.008606C89.391602,714.613342,87.108727,707.695313,84.272255,699.876282C79.900833,687.82605,78.267868,681.583008,77.249916,673.028809C76.750473,668.831848,76.74379,661.346252,77.236435,657.926453C78.208969,651.175476,80.000381,643.935364,82.133209,638.135803C83.842789,633.487183,85.7659,631.088013,89.08786,629.459595C90.609375,628.713745,91.585632,628.455688,97.066223,627.350586C104.966675,625.757507,108.318527,625.045044,118.552246,622.78363C142.371704,617.519958,145.023041,616.997253,151.998474,616.18988C155.941467,615.733459,167.020691,615.665161,170.732605,616.074402C183.301773,617.460083,193.352753,620.741272,203.543777,626.785767L206.18985,628.355225L206.824905,627.840942C209.221725,625.899841,211.973511,623.809509,214.091965,622.320618C218.243423,619.402893,232.667038,610.909607,239.265625,607.497192L243.128876,605.499329L243.128876,659.357605L243.128876,713.215881L237.889679,713.358276C224.790375,713.714355,216.46286,712.280151,208.095016,708.226929C204.065765,706.275269,200.706619,704.115906,197.068176,701.138489L196.41391,700.603088L195.37233,701.304504C191.307465,704.041931,185.422943,706.265503,179.620422,707.256592C176.953217,707.712158,169.975967,707.898987,167.15419,707.590454C161.925812,707.018738,157.491028,705.713684,152.421844,703.255066C149.184326,701.684814,145.417419,699.520569,144.029831,698.433411C143.605591,698.101013,143.214233,697.829102,143.160156,697.829102C143.106079,697.829102,142.995529,698.996033,142.91449,700.422241C142.833435,701.84845,142.395721,705.682617,141.941772,708.942566C141.487839,712.202515,141.005249,716.140747,140.869385,717.694214C140.42038,722.827759,140.858704,734.633911,141.621948,737.964355C141.716217,738.375671,141.916626,738.419495,144.320908,738.555054C147.370285,738.727051,149.353058,738.978577,151.270264,739.436768L152.65889,739.768616L154.233856,738.921143C155.100067,738.454956,156.570877,737.853821,157.502289,737.585144C159.115173,737.119873,159.48999,737.098511,165.37793,737.134888C172.143417,737.176697,173.457825,737.349609,175.072144,738.410339C175.885193,738.944519,181.303101,744.001099,185.141632,747.808228C186.569183,749.22406,187.053696,749.859558,187.320465,750.665955C187.867081,752.318237,187.940338,753.485962,187.598892,755.103455C187.178635,757.094238,182.208633,773.303833,181.729202,774.247375C181.182098,775.324097,179.911652,776.460754,178.459106,777.173157C175.818268,778.468384,164.044708,783.407837,160.425964,784.73877C155.50531,786.548584,151.313354,788.16272,148.293991,789.410156C145.941132,790.382263,145.778107,790.418213,143.425232,790.482788C141.353577,790.539612,140.754303,790.47644,139.403229,790.058838zM144.715118,782.102051C145.344604,781.88147,146.661957,781.354126,147.642578,780.930176C148.62323,780.506226,152.290649,779.079712,155.79245,777.760193C161.650482,775.552856,173.448212,770.640625,174.798584,769.846619C175.1138,769.661255,175.468826,769.265808,175.587494,768.967834C175.874329,768.247559,179.746445,755.27478,179.927719,754.426697C180.063049,753.79364,179.970444,753.677063,177.888336,751.85968C176.688721,750.8125,174.748474,748.95929,173.576691,747.741394L171.446152,745.526978L169.787323,745.38678C168.874969,745.309631,166.234436,745.246521,163.919434,745.246521L159.710388,745.246521L160.61734,746.533936C161.727081,748.109131,164.530624,751.694519,166.850677,754.505554L168.5784,756.598877L164.522156,758.25708C161.468872,759.505249,152.552948,763.296753,149.016541,764.850952C148.890015,764.906494,148.44751,764.209534,148.033173,763.302063C147.618835,762.394592,146.84552,760.725891,146.314697,759.593872L145.349548,757.535645L146.345474,757.09375C146.89325,756.850769,149.198944,755.877991,151.469269,754.932129C153.739594,753.986206,155.630463,753.188599,155.671188,753.159729C155.828659,753.047974,151.825638,748.091248,151.395264,747.865051C149.987244,747.125061,143.818756,746.386719,141.111633,746.634094C139.67926,746.765015,137.136108,747.304749,136.196167,747.677368C135.901688,747.794067,135.762756,747.456421,135.310974,745.525696C133.755646,738.878845,133.066132,733.329224,132.90802,726.185303C132.766388,719.785278,132.97226,716.404358,133.899902,709.895142C134.240036,707.508362,134.617126,704.507751,134.737915,703.227051C135.009857,700.343201,135.017426,693.915894,134.751862,691.391235C134.57103,689.672058,134.464584,689.361938,133.553131,687.898376C130.238495,682.576172,129.592941,681.460693,124.140839,671.634766L123.525124,670.525085L126.935623,668.817322C128.811401,667.878052,130.372025,667.139038,130.403687,667.17511C130.686554,667.497131,132.478821,670.522827,135.270081,675.390503C139.016968,681.924683,140.382919,684.006897,142.62674,686.604614C147.758148,692.54541,156.305435,697.453308,164.388916,699.100586C170.52301,700.350647,177.747665,699.947876,183.473007,698.036682C185.565506,697.338196,189.280182,695.525696,191.717438,694.014099C196.535309,691.02594,201.222214,686.61615,205.230103,681.300415L207.078552,678.848755L210.444534,680.530457C212.295822,681.455444,213.838303,682.237183,213.872284,682.2677C213.968521,682.354187,211.057831,686.514893,209.501938,688.514954C208.732071,689.504578,206.934921,691.513428,205.50827,692.979004L202.914352,695.643738L203.387817,696.082153C204.580688,697.186768,208.986984,699.930664,211.481964,701.122498C217.607758,704.048767,223.330338,705.238037,231.285355,705.238037L235.508224,705.238037L235.508224,661.924133L235.508224,618.610229L234.926086,618.99646C234.605911,619.208862,231.819611,620.866821,228.734299,622.680725C218.818359,628.510559,214.516968,631.472534,209.357285,636.023987L206.680145,638.385498L205.905777,637.816101C197.125412,631.359741,187.704422,627.22699,176.97731,625.125916C166.868729,623.145935,158.43689,623.114136,147.3414,625.014099C143.006226,625.75647,141.673645,626.037537,122.78595,630.193481C114.636078,631.986755,105.396027,633.982727,102.252502,634.629028C92.207108,636.694336,92.248978,636.678955,90.776169,638.849731C89.476006,640.765991,87.059952,649.22699,85.970917,655.677612C85.1185,660.726685,84.8871,664.862793,85.174286,669.917114C85.647148,678.239502,86.778183,683.091553,91.18721,695.712219C96.324539,710.417664,98.207184,716.435242,101.056473,727.257874C103.556046,736.752197,106.492905,748.420837,107.022522,750.962036C107.431175,752.922791,107.576546,753.280579,108.256088,753.998047C108.679771,754.445313,112.641434,757.96991,117.059784,761.830383C121.478134,765.690857,127.440689,770.89978,130.309921,773.405884C136.386414,778.713257,139.874161,781.506592,141.144257,782.083008C142.290878,782.603455,143.269363,782.608643,144.715118,782.102051z"/>
</svg>
