<?xml version="1.0" encoding="UTF-8" standalone="no"?>
<svg xmlns="http://www.w3.org/2000/svg" xmlns:xlink="http://www.w3.org/1999/xlink" width="81.909mm" height="114.672mm" viewBox="-396.659668 -1089.336182 81.909302 114.672302">
    <path transform="matrix(-1,0,0,-1,0,0)" style="stroke:none;fill:#000000;fill-rule:evenodd" d="M351.33371,1088.992188C349.340454,1088.558472,346.711365,1087.503052,344.921448,1086.418213C343.850861,1085.769409,343.249939,1085.277588,339.05481,1081.616455C335.744751,1078.727783,332.270081,1077.410767,327.239807,1077.138306C324.230927,1076.97522,323.734161,1076.832642,323.022522,1075.927979C322.501282,1075.265381,322.464417,1074.356934,322.891663,1072.70459C323.323547,1071.03418,324.204315,1065.684204,324.586853,1062.407349C324.76358,1060.893799,324.962311,1059.25061,325.028503,1058.755737L325.148865,1057.856079L323.67926,1057.856079L322.209595,1057.856079L321.974274,1058.790649C321.527039,1060.566895,320.103516,1061.715332,318.34903,1061.715332C317.154663,1061.715332,316.301849,1061.30188,315.41684,1060.293945L314.750366,1059.53479L314.750366,1056.025269C314.750366,1052.877686,314.795197,1052.436035,315.185028,1051.742432C316.825989,1048.822754,321.15274,1049.425171,321.974274,1052.687744L322.209595,1053.622314L323.846893,1053.622314L325.484192,1053.622314L325.6138,1052.087646C325.685089,1051.24353,325.887329,1048.600098,326.063171,1046.213379C326.239044,1043.82666,326.439392,1041.13562,326.508392,1040.233276L326.63382,1038.592773L324.74118,1038.592773L322.848511,1038.592773L322.718231,1039.386597C322.237366,1042.316406,318.928223,1043.541992,316.657471,1041.631348C315.498383,1040.656006,315.385437,1040.207642,315.385437,1036.581787C315.385437,1032.955811,315.498383,1032.507446,316.657471,1031.532104C318.837067,1029.69812,322.134521,1030.803345,322.723236,1033.565186L322.847321,1034.147339L324.812012,1034.147339L326.776672,1034.147339L326.898376,1033.141846C326.965271,1032.588867,327.117798,1029.945435,327.237274,1027.267578C327.35675,1024.589844,327.507233,1021.755859,327.571655,1020.969971L327.688782,1019.541077L325.347443,1019.541077L323.006104,1019.541077L323.006104,1020.144836C323.006104,1021.38092,321.408447,1022.983459,319.892578,1023.267822C318.954803,1023.443726,317.705872,1023.072021,316.869171,1022.367981C315.709503,1021.392212,315.597107,1020.945129,315.597107,1017.307983C315.597107,1013.413025,315.774567,1012.836365,317.263855,1011.891907C319.543091,1010.446411,322.609436,1011.722961,322.949585,1014.258911L323.061829,1015.095703L325.338928,1015.095703L327.616028,1015.095703L327.735687,1014.407715C327.801483,1014.029358,327.911591,1010.957275,327.980347,1007.580872C328.049133,1004.204529,328.154297,1001.126099,328.21405,1000.73999C328.29129,1000.240784,328.79303,999.530029,329.950989,998.279419C334.185516,993.706177,335.599915,989.202759,335.855377,979.479736L335.981934,974.663879L355.848785,974.663879L375.715637,974.663879L375.715637,978.744385C375.715637,988.505432,377.349915,993.756226,381.947144,998.765747C383.17688,1000.105774,383.339539,1000.38269,383.36438,1001.178284C383.379791,1001.672607,383.451233,1005.03009,383.523132,1008.639282L383.653839,1015.201538L385.904602,1015.261353L388.155365,1015.321228L388.300293,1014.520508C388.516266,1013.327271,389.323273,1012.243408,390.374786,1011.734375C391.507721,1011.185974,392.485962,1011.170532,393.603027,1011.683472C395.437988,1012.526123,395.825745,1013.518616,395.825745,1017.372559C395.825745,1019.986023,395.774902,1020.398682,395.349426,1021.240906C394.820618,1022.28772,393.822205,1023.05957,392.732666,1023.263977C390.693115,1023.646606,388.615173,1022.229675,388.359558,1020.281982L388.276215,1019.646912L386.195374,1019.585938C385.050903,1019.552368,384.042847,1019.600037,383.955231,1019.691772C383.810425,1019.843445,383.873901,1021.943115,384.304321,1031.236694L384.448975,1034.359009L386.424683,1034.359009L388.400452,1034.359009L388.642273,1033.459351C388.947662,1032.323364,390.242065,1031.045898,391.286438,1030.850098C393.028992,1030.523193,394.406433,1031.066162,395.349426,1032.451782C395.796448,1033.108521,395.825745,1033.369019,395.825745,1036.687134L395.825745,1040.222656L395.21225,1041.06958C394.549622,1041.984375,393.313995,1042.614746,392.183777,1042.614746C390.538208,1042.614746,388.706787,1041.023315,388.590607,1039.492432L388.538391,1038.804443L386.614929,1038.804443L384.691437,1038.804443L384.754578,1039.492432C384.789307,1039.87085,385.010376,1042.752319,385.24585,1045.895874C385.481354,1049.039429,385.731873,1052.063843,385.802551,1052.616943L385.931091,1053.622314L387.703125,1053.622314L389.475189,1053.622314L389.475189,1052.94751C389.475189,1051.346924,391.753479,1049.623291,393.482788,1049.915527C394.548187,1050.095459,395.562805,1050.768311,396.204193,1051.719971C396.681641,1052.428467,396.69632,1052.576904,396.632599,1056.054443C396.55957,1060.040039,396.496948,1060.241211,395.010254,1061.262939C394.102539,1061.886841,392.459351,1061.93396,391.314514,1061.369019C390.31781,1060.877075,389.475189,1059.681641,389.475189,1058.759521L389.475189,1058.067749L387.870728,1058.067749L386.266266,1058.067749L386.377808,1058.649902C386.439148,1058.970093,386.549591,1059.851196,386.62323,1060.608032C386.86499,1063.091431,387.797974,1069.133301,388.323029,1071.615601C388.978577,1074.714844,388.975586,1075.232544,388.297302,1076.038574C387.586548,1076.883301,386.660339,1077.116821,384.015381,1077.118286C380.369873,1077.120239,377.231995,1077.995483,374.59491,1079.74585C373.936768,1080.182739,372.189209,1081.634277,370.711395,1082.97168C367.685303,1085.710327,366.862,1086.31958,364.767517,1087.370728C362.029602,1088.744873,359.927063,1089.230591,356.346497,1089.316162C353.80957,1089.376831,352.801819,1089.311768,351.33371,1088.992188zM348.289703,987.885986C348.820618,983.80658,349.255035,980.401062,349.255035,980.318237C349.255035,980.235474,348.743408,980.167664,348.118042,980.167664L346.98111,980.167664L346.844147,982.019897C346.621124,985.036072,345.231018,1010.438599,345.255737,1011.04541C345.26825,1011.352051,345.738831,1007.935486,346.301453,1003.453003C346.864075,998.970581,347.758789,991.965454,348.289703,987.885986zM366.197723,1008.297424C365.580231,998.732056,364.70813,983.038269,364.708069,981.490723L364.708038,980.167664L363.414368,980.167664L362.120697,980.167664L362.234924,980.855652C362.297729,981.23407,363.281067,989.088623,364.420044,998.310242C365.559052,1007.53186,366.521484,1015.046326,366.558777,1015.009033C366.5961,1014.97168,366.433624,1011.951477,366.197723,1008.297424zM359.79657,1082.977905C362.045288,1082.32666,363.461792,1081.439575,366.051208,1079.061035C371.257965,1074.278442,374.827271,1072.35083,380.04303,1071.504883C381.097534,1071.333862,382.042145,1071.193604,382.14209,1071.193115C382.242004,1071.192627,382.27002,1070.977905,382.204346,1070.715942C381.717163,1068.773315,380.395538,1057.00647,379.856445,1049.812012C378.945679,1037.656738,377.83252,1013.593872,377.83252,1006.061584L377.83252,1002.805237L376.641113,1001.400818C373.660095,997.886841,371.864807,994.033569,370.865417,989.004456C370.396667,986.645447,370.000183,983.119385,370.000183,981.309509L370.000183,980.167664L368.730042,980.167664C368.031494,980.167664,367.459961,980.215576,367.459961,980.27417C367.459961,981.188721,369.131775,1010.17157,369.274811,1011.737061L369.403137,1013.141296L370.537354,1013.235352C374.154724,1013.535339,375.556396,1018.101501,372.754761,1020.458923C372.126251,1020.987793,370.927795,1021.442627,370.156433,1021.445068C369.847717,1021.446045,369.80188,1021.583008,369.890228,1022.240112C369.948914,1022.676697,370.092896,1024.462769,370.210114,1026.209229C370.579803,1031.716553,370.597717,1031.818848,371.192017,1031.818848C371.475403,1031.818848,372.06012,1031.966309,372.491394,1032.146484C374.472717,1032.974365,375.531372,1035.045532,375.081268,1037.213623C374.675903,1039.16626,373.038757,1040.621094,371.096436,1040.754639C370.015991,1040.828979,370.038696,1040.479004,370.750427,1046.093018C371.454803,1051.648926,371.331238,1051.219116,372.273804,1051.391479C374.966949,1051.884033,376.769135,1054.594482,376.141907,1057.208984C375.591766,1059.502319,373.668488,1061.024902,371.316406,1061.029297C366.940857,1061.037354,364.715759,1055.704468,367.844116,1052.707397L368.44104,1052.135498L368.053772,1049.333252C366.99762,1041.69043,362.438965,1005.90625,360.200012,987.682495L359.289734,980.273499L355.701233,980.273499L352.112793,980.273499L351.861176,982.390381C350.562012,993.321167,343.164093,1051.46106,343.022461,1051.853394C342.974365,1051.986572,343.175751,1052.319946,343.46994,1052.59436C345.457886,1054.448364,345.531616,1058.009521,343.619141,1059.802979C342.348816,1060.994141,340.019531,1061.424683,338.435547,1060.760986C336.64502,1060.010742,335.287964,1058.028198,335.287964,1056.162598C335.287964,1054.050049,336.918518,1052.004639,339.025421,1051.474121C339.809082,1051.276733,339.945557,1051.156982,340.041626,1050.582031C340.235168,1049.42395,341.210999,1041.714844,341.210999,1041.344116C341.210999,1041.085205,340.888977,1040.916626,340.02533,1040.723267C337.984131,1040.266479,336.344604,1038.280273,336.344604,1036.26416C336.344604,1034.122559,338.361511,1031.818848,340.236389,1031.818848C340.834656,1031.818848,340.831757,1031.834595,341.209778,1026.526733C341.330017,1024.838501,341.478027,1023.004761,341.538696,1022.451782C341.633514,1021.586914,341.5961,1021.446106,341.27121,1021.445068C339.834045,1021.440613,338.010773,1020.251404,337.474976,1018.969055C336.849915,1017.473083,337.286469,1015.203308,338.391388,1014.204102C339.012665,1013.642334,340.264557,1013.190552,341.200195,1013.190552C341.911499,1013.190552,342.065308,1013.113098,342.145874,1012.714233C342.259979,1012.149231,343.973755,982.373535,343.967346,981.067322L343.962891,980.167664L342.825928,980.167664L341.688904,980.167664L341.541199,982.337463C340.955109,990.946655,339.144592,996.223572,335.151154,1000.96167L333.854248,1002.500427L333.607239,1010.121094C333.353699,1017.943359,332.905182,1027.706177,332.532593,1033.512329C332.416779,1035.316895,332.175171,1039.174927,331.995728,1042.085571C331.356323,1052.454834,330.397369,1062.772461,329.5578,1068.316284C329.330078,1069.819824,329.178253,1071.084473,329.220398,1071.126587C329.262512,1071.168701,330.183594,1071.346558,331.267212,1071.521851C336.09726,1072.302979,339.693481,1074.17041,344.280426,1078.278931C346.873535,1080.601563,347.655273,1081.185913,349.228088,1081.977051C352.324524,1083.534424,356.507416,1083.930664,359.79657,1082.977905z"/>
</svg>
