<?xml version="1.0" encoding="UTF-8" standalone="no"?>
<svg xmlns="http://www.w3.org/2000/svg" xmlns:xlink="http://www.w3.org/1999/xlink" width="61.898mm" height="36.100mm" viewBox="-233.948761 -810.049927 61.897522 36.099915">
    <path transform="matrix(-1,0,0,-1,0,0)" style="stroke:none;fill:#500a78;fill-rule:evenodd" d="M172.051239,790.804565C172.068176,790.393677,172.151749,790.310059,172.264359,790.591431C172.366241,790.846069,172.353714,791.15033,172.236511,791.267517C172.119293,791.384766,172.035934,791.176392,172.051239,790.804565z"/>
    <path transform="matrix(-1,0,0,-1,0,0)" style="stroke:none;fill:#500a78;fill-rule:evenodd" d="M232.928741,794.655273C232.573547,794.300049,232.646942,793.479492,233.033905,793.479492C233.221085,793.479492,233.544128,793.796936,233.751785,794.184937C234.043854,794.730652,234.020035,794.890381,233.646622,794.890381C233.381134,794.890381,233.058075,794.784607,232.928741,794.655273z"/>
    <path transform="matrix(-1,0,0,-1,0,0)" style="stroke:none;fill:#500a78;fill-rule:evenodd" d="M216.115112,795.243164C216.115112,795.049133,216.283203,794.890381,216.488663,794.890381C216.694107,794.890381,216.764099,795.049133,216.644211,795.243164C216.524307,795.437134,216.356201,795.595886,216.27066,795.595886C216.185104,795.595886,216.115112,795.437134,216.115112,795.243164z"/>
    <path transform="matrix(-1,0,0,-1,0,0)" style="stroke:none;fill:#500a78;fill-rule:evenodd" d="M208.354965,799.162048C208.354965,798.792419,209.216034,798.417725,210.065598,798.417725C211.186935,798.417725,213.293243,796.690247,213.293243,795.770569C213.293243,794.68927,214.258972,794.943237,214.418991,796.066589C214.579071,797.190369,212.018539,799.038391,209.958939,799.285645C209.076752,799.391541,208.354965,799.335938,208.354965,799.162048z"/>
    <path transform="matrix(-1,0,0,-1,0,0)" style="stroke:none;fill:#500a78;fill-rule:evenodd" d="M191.000473,800.11084C191.329681,799.781616,191.517807,799.781616,191.847031,800.11084C192.176239,800.440063,192.082184,800.534119,191.423752,800.534119C190.76532,800.534119,190.671249,800.440063,191.000473,800.11084z"/>
    <path transform="matrix(-1,0,0,-1,0,0)" style="stroke:none;fill:#500a78;fill-rule:evenodd" d="M191.933777,801.914246C191.616089,801.400208,192.421677,800.573425,193.18425,800.630859C193.683319,800.668457,193.76413,800.821106,193.523254,801.271179C193.125671,802.014038,192.221558,802.379822,191.933777,801.914246z"/>
    <path transform="matrix(-1,0,0,-1,0,0)" style="stroke:none;fill:#500a78;fill-rule:evenodd" d="M202.66713,802.768127C202.642883,802.70343,202.589493,802.531494,202.548492,802.385986C202.300735,801.506897,201.892273,800.915405,201.640442,801.071045C201.480164,801.170044,201.240784,801.075989,201.10849,800.861877C200.793945,800.352966,201.589569,799.528259,201.932266,800.007996C202.069687,800.200378,202.499588,800.533752,202.887589,800.748901C203.673096,801.184387,203.896118,802.885681,203.167709,802.885681C202.916641,802.885681,202.691376,802.832764,202.66713,802.768127z"/>
    <path transform="matrix(-1,0,0,-1,0,0)" style="stroke:none;fill:#500a78;fill-rule:evenodd" d="M190.799042,802.584656C190.974792,802.057373,191.776489,801.767029,191.776489,802.230652C191.776489,802.420105,191.525116,802.671509,191.217911,802.789429C190.874374,802.921265,190.71312,802.842407,190.799042,802.584656z"/>
    <path transform="matrix(-1,0,0,-1,0,0)" style="stroke:none;fill:#500a78;fill-rule:evenodd" d="M207.649506,803.335754C207.649506,803.152893,208.072784,803.003296,208.590118,803.003296C209.65094,803.003296,209.542648,803.30365,208.402695,803.523193C207.988434,803.602966,207.649506,803.518616,207.649506,803.335754z"/>
    <path transform="matrix(-1,0,0,-1,0,0)" style="stroke:none;fill:#500a78;fill-rule:evenodd" d="M208.531326,804.061462C208.65123,803.867493,208.908066,803.70874,209.102066,803.70874C209.296066,803.70874,209.356705,803.867493,209.236801,804.061462C209.116898,804.255493,208.860077,804.414185,208.666061,804.414185C208.472061,804.414185,208.411438,804.255493,208.531326,804.061462z"/>
    <path transform="matrix(-1,0,0,-1,0,0)" style="stroke:none;fill:#500a78;fill-rule:evenodd" d="M210.108414,804.400452C209.654282,804.11322,209.655548,804.070923,210.118637,804.061462C210.588943,804.05188,210.588943,804.012695,210.118637,803.70874C209.748657,803.469666,209.725464,803.365173,210.041519,803.361389C210.484421,803.35614,211.049103,804.306763,210.769287,804.586609C210.691193,804.664673,210.393799,804.580933,210.108414,804.400452z"/>
    <path transform="matrix(-1,0,0,-1,0,0)" style="stroke:none;fill:#500a78;fill-rule:evenodd" d="M183.663605,808.097107C183.663605,807.794617,183.824921,807.646851,184.022095,807.768738C184.219269,807.890564,184.289261,808.138062,184.177643,808.318665C183.875275,808.807922,183.663605,808.716675,183.663605,808.097107z"/>
    <path transform="matrix(-1,0,0,-1,0,0)" style="stroke:none;fill:#500a78;fill-rule:evenodd" d="M177.931686,809.649536C177.275085,808.958374,177.119003,808.294312,177.613159,808.294312C177.777481,808.294312,178.256927,807.995056,178.678619,807.629333C179.314972,807.077393,179.354126,806.929382,178.908951,806.758545C178.613953,806.645386,178.372604,806.343079,178.372604,806.086853C178.372604,805.810425,177.978195,805.626648,177.402588,805.634888C176.558838,805.646973,176.446701,805.527344,176.541092,804.716125C176.600784,804.203186,176.415466,803.223083,176.129288,802.538086C175.670135,801.439209,175.670395,801.269165,176.131516,801.092224C176.41893,800.981934,176.608215,800.612793,176.552139,800.271973C176.496063,799.931152,176.574631,799.453918,176.72673,799.211365C177.128998,798.570068,176.612854,797.856812,176.188995,798.468262C175.962784,798.794617,175.933655,798.677368,176.097427,798.099854C176.29187,797.414124,176.229111,797.294434,175.767807,797.471497C175.454407,797.591736,175.197998,797.536377,175.197998,797.34845C175.197998,797.160522,174.950531,797.006775,174.648087,797.006775C174.345627,797.006775,174.19696,796.846924,174.317703,796.65155C174.438446,796.456177,174.279968,796.197632,173.965515,796.076965C173.651062,795.956299,173.472839,795.65155,173.569458,795.39978C173.666077,795.14801,173.518219,794.753662,173.240875,794.523499C172.963547,794.293335,172.819626,793.970703,172.921066,793.80658C173.022507,793.642456,172.907715,793.191467,172.665985,792.804382C171.959259,791.672729,172.531189,791.60376,174.47081,792.586609C176.365967,793.546997,176.444168,793.666687,177.578339,797.344238C177.964661,798.596802,178.464096,799.656372,178.688217,799.69873C178.917435,799.742065,178.937531,799.697327,178.734161,799.596436C178.14859,799.30603,178.281952,797.60199,178.872513,797.828613C179.147461,797.934143,179.460464,797.791016,179.568085,797.510559C179.815216,796.866577,179.215927,795.243164,178.731079,795.243164C178.253784,795.243164,179.121231,793.834473,179.603836,793.825867C179.799667,793.822327,180.456741,793.220764,181.063995,792.489014C182.041412,791.311157,182.183319,790.856628,182.300964,788.5271C182.428986,785.99176,182.40477,785.895691,181.637787,785.895691C181.199966,785.895691,180.841736,786.083069,180.841736,786.312073C180.841736,786.541077,180.484589,786.782959,180.04808,786.849548C179.611572,786.916138,179.294113,787.165283,179.342621,787.403198C179.475662,788.055786,179.233154,787.949463,177.40564,786.554138C176.309296,785.717102,175.764145,785.051514,175.833893,784.635132C175.901199,784.233398,175.575165,783.7995,174.952057,783.46167C174.40831,783.16687,174.171219,782.919373,174.425171,782.91156C174.679123,782.903809,174.787445,782.699036,174.665894,782.456543C174.544342,782.21405,175.240479,782.884216,176.21286,783.945801C178.018616,785.917175,179.038086,786.238159,177.686218,784.409607C176.630249,782.981384,176.218018,777.619324,177.106689,776.871765C177.433517,776.596802,177.887222,776.197327,178.114914,775.983887C178.722504,775.414551,179.59845,777.155762,179.041824,777.826477C178.661224,778.285095,178.881073,780.781067,179.302063,780.781067C179.407684,780.781067,179.779114,780.429077,180.127487,779.99884C180.667282,779.332214,180.84436,779.285889,181.325836,779.685486C181.644516,779.950012,182.251709,780.063782,182.718796,779.946533C183.338837,779.790894,183.797653,780.000549,184.545441,780.781067C185.326477,781.596252,185.742691,781.776062,186.455688,781.606323C187.654114,781.320984,188.297363,780.791687,188.010284,780.327209C187.639984,779.728027,187.687057,777.926575,188.081573,777.599182C188.280411,777.434143,188.843719,777.245483,189.333374,777.179871C189.823029,777.114319,190.58902,776.720276,191.035568,776.30426C191.723404,775.663452,192.232956,775.556152,194.369308,775.602417C195.756302,775.632446,196.983673,775.784363,197.096771,775.940002C197.209885,776.095642,197.765442,776.25647,198.331345,776.297424C199.173447,776.358337,199.36026,776.233582,199.36026,775.610107C199.36026,774.449646,199.757965,774.275574,201.269333,774.774353C202.524811,775.188721,202.766052,775.16095,203.876816,774.474487C205.184647,773.666199,206.020721,773.764282,206.944031,774.834412C207.235031,775.171631,207.869965,775.496826,208.354965,775.557007C209.00795,775.638,209.44754,776.096497,210.048828,777.323792C210.576096,778.399963,211.030273,778.916138,211.344009,778.795715C212.00589,778.541748,213.293243,779.278748,213.293243,779.911621C213.293243,780.195801,213.412292,780.441406,213.557785,780.457397C216.415421,780.771606,218.033112,780.676941,218.54306,780.16571C218.85672,779.851257,219.117111,779.345215,219.121704,779.041138C219.131729,778.379578,220.220184,778.486511,220.954987,779.221313C221.23082,779.497192,221.762619,779.722839,222.13678,779.722839C222.510925,779.722839,222.817047,779.93634,222.817047,780.197266C222.817047,781.076111,224.108688,781.925659,224.996353,781.630737C225.446762,781.481079,226.132736,781.347717,226.520752,781.334412C227.102402,781.314392,227.226212,781.066895,227.226212,779.924255C227.226212,778.657898,227.324921,778.512512,228.369934,778.23938C229.35762,777.981201,229.54422,777.749207,229.737762,776.538879C230.004333,774.871887,230.850754,774.65332,231.154678,776.172974C231.268616,776.742554,231.582092,777.293152,231.851334,777.396484C232.120575,777.499756,232.340851,777.777466,232.340851,778.01355C232.340851,778.249634,232.637009,778.770508,232.998962,779.171021C233.856369,780.119751,234.275375,782.192017,233.609802,782.192017C233.347397,782.192017,232.925934,782.441101,232.673233,782.745605C232.420532,783.05011,231.93074,783.22522,231.584808,783.134766C230.47168,782.843689,230.100708,783.764648,230.766235,785.167114C231.122269,785.917419,231.271484,786.773987,231.138474,787.303955C231.010284,787.814697,231.068359,788.188477,231.275925,788.188477C231.473633,788.188477,231.635391,788.426575,231.635391,788.71759C231.635391,789.008545,231.41449,789.246643,231.144531,789.246643C230.607635,789.246643,230.07283,790.750427,230.189133,791.932983C230.268936,792.744446,228.282715,794.687256,227.725449,794.342834C227.547867,794.233093,227.402588,794.311401,227.402588,794.516846C227.402588,794.72229,226.847031,794.890381,226.168015,794.890381C225.422302,794.890381,224.928406,795.065002,224.920715,795.331299C224.897308,796.141785,221.490646,799.543945,220.829926,799.416687C220.115051,799.279053,219.060562,796.34906,219.4039,795.454346C219.621857,794.886353,221.053375,794.644531,221.053375,795.17572C221.053375,795.332642,221.303238,795.769165,221.608643,796.145752C221.914032,796.522339,222.074509,796.650024,221.965256,796.429504C221.856003,796.208984,222.00296,795.832397,222.291824,795.592651C222.886414,795.099182,222.998444,794.184937,222.46431,794.184937C222.270309,794.184937,222.111572,794.374023,222.111572,794.605103C222.111572,794.836182,221.878525,794.717102,221.593689,794.340515C221.270981,793.913879,221.071579,793.830811,221.06459,794.120178C221.057434,794.416809,220.703033,794.544189,220.083359,794.4729C219.374954,794.391418,218.951294,794.594666,218.512512,795.226685C217.950562,796.036011,217.895081,796.048828,217.655396,795.424194C217.499481,795.017883,217.562103,794.702026,217.815308,794.617615C218.797974,794.290039,218.103882,794.013611,216.599228,794.133301C215.683563,794.206116,215.053391,794.12323,215.163849,793.944519C215.272156,793.769287,215.092529,793.605713,214.764694,793.580994C214.436859,793.556335,213.931992,793.483704,213.642761,793.419617C213.286804,793.340759,213.154785,793.531067,213.234192,794.008545C213.323532,794.545837,213.060699,794.399536,212.131897,793.395081C210.978088,792.147278,210.912292,792.121643,210.912292,792.919922C210.912292,793.383972,210.463928,794.351501,209.915924,795.069946C209.038971,796.219666,208.888702,796.297791,208.662064,795.721497C208.520432,795.361389,208.393387,795.205261,208.379761,795.374512C208.366119,795.543762,208.110138,795.479065,207.810913,795.230713C207.398834,794.888733,207.167816,794.878235,206.858536,795.187561C206.633942,795.412109,206.122757,795.595886,205.722565,795.595886C205.314896,795.595886,204.841797,795.935669,204.646729,796.368652C204.455215,796.79364,203.621521,797.479126,202.794083,797.891846C201.966644,798.304565,201.375244,798.727844,201.479858,798.832458C201.584473,798.937073,201.428146,799.22345,201.132446,799.468872C200.764786,799.773987,200.594818,799.789917,200.594818,799.519104C200.594818,799.301392,200.217438,799.12323,199.75618,799.12323C198.816635,799.12323,197.944153,798.291382,198.292511,797.727722C198.417664,797.525208,198.34259,797.359558,198.125687,797.359558C197.908783,797.359558,197.824005,797.209595,197.937286,797.026245C198.055481,796.835022,197.588745,796.728455,196.842178,796.776245C196.095078,796.824036,195.453033,797.078552,195.334274,797.374023C195.026428,798.139954,194.010803,798.173584,193.478531,797.435486C192.839386,796.549255,191.987381,796.052185,192.199829,796.689575C192.289017,796.957092,192.006973,797.455261,191.573074,797.79657C191.063751,798.197205,190.848083,798.66156,190.964539,799.106873C191.100876,799.628174,190.920517,799.853027,190.226135,800.027283C189.720795,800.154114,189.307343,800.379578,189.307343,800.528259C189.307343,800.677002,188.899673,800.798706,188.401428,800.798706C187.866547,800.798706,187.271759,801.118103,186.949219,801.578613C186.593872,802.085938,186.164169,802.296082,185.719666,802.17981C185.022659,801.997559,184.7491,802.422241,183.640015,805.408386C183.192917,806.612183,180.291763,809.137451,179.744476,808.799255C179.576401,808.695374,179.528748,808.844543,179.638565,809.130737C179.974701,810.006714,178.65271,810.408508,177.931686,809.649536zM183.663605,804.414185C183.663605,804.220215,183.593613,804.061462,183.508057,804.061462C183.422501,804.061462,183.25441,804.220215,183.134506,804.414185C183.014603,804.608215,183.08461,804.766968,183.290054,804.766968C183.495514,804.766968,183.663605,804.608215,183.663605,804.414185zM206.742966,794.930359C206.849274,794.758362,206.660233,794.401184,206.322861,794.136719C205.781006,793.711914,205.760529,793.721313,206.147324,794.217407C206.388138,794.526245,206.480728,794.883362,206.353073,795.011047C206.225433,795.138672,206.217438,795.243164,206.335327,795.243164C206.453217,795.243164,206.636642,795.102417,206.742966,794.930359zM208.916061,794.275696C208.671432,794.031067,208.002228,794.528137,208.002228,794.954407C208.002228,795.188293,208.20462,795.16156,208.539856,794.883301C208.835541,794.637939,209.004837,794.364502,208.916061,794.275696zM209.309418,791.967041C209.081573,791.332947,209.711731,790.304871,210.328232,790.304871C210.623856,790.304871,210.771912,790.153076,210.657257,789.967529C210.336212,789.448059,209.46843,789.929199,209.194656,790.778381C209.059708,791.19696,208.91095,792.006958,208.86409,792.578369C208.795685,793.412292,208.846375,793.496704,209.120987,793.005981C209.309143,792.6698,209.393951,792.202271,209.309418,791.967041z"/>
</svg>
