<?xml version="1.0" encoding="utf-8"?>
<!-- Generator: Adobe Illustrator 24.3.0, SVG Export Plug-In . SVG Version: 6.00 Build 0)  -->
<svg version="1.1" id="Слой_1" xmlns="http://www.w3.org/2000/svg" xmlns:xlink="http://www.w3.org/1999/xlink" x="0px" y="0px"
	 viewBox="0 0 223.6 43.4" style="enable-background:new 0 0 223.6 43.4;" xml:space="preserve">
<style type="text/css">
	.st0{fill:#00BEF0;}
	.st1{fill:#181716;}
</style>
<g>
	<g>
		<path class="st0" d="M21.7,0C9.7,0,0,9.7,0,21.7c0,12,9.7,21.7,21.7,21.7c12,0,21.7-9.7,21.7-21.7C43.4,9.7,33.6,0,21.7,0z
			 M18.6,30.9L17,35.6c-6-2-10-7.7-10-14.1c0-6.4,4-12,10.1-14.1l1.6,4.7c-4,1.3-6.6,5.1-6.6,9.3C12,25.8,14.6,29.6,18.6,30.9z
			 M26.1,35.7L24.6,31c4.1-1.3,6.8-5.1,6.8-9.4c0-4.3-2.7-8-6.7-9.3l1.6-4.8c6.1,2,10.2,7.7,10.2,14.1
			C36.4,28.1,32.2,33.8,26.1,35.7z"/>
	</g>
	<path class="st1" d="M220.3,25.5l2.4,2.9c-2.5,2.6-5.6,3.3-8.1,3.3c-2.4,0-4.1-0.4-5.6-1.1c-3.2-1.6-4.8-4.8-4.8-8.7
		c0-5.9,4-10.3,9.9-10.3c6.6,0,9.8,4.9,9.3,11.3l-15,0c0.1,1.6,1,3.1,2.3,3.9c1.1,0.7,2.4,1,4.1,1C216.7,27.9,218.6,27.2,220.3,25.5
		z M208.6,19.5h10.6c-0.3-2.3-2.2-4.3-5.2-4.3C210.8,15.2,208.9,17.4,208.6,19.5z M107.8,31.2h5.4l-8.5-9.9l8.4-9.3h-5.3l-6.4,7.4
		h-1.9v-7.4h-4.1v19.1h4.1v-7.6h1.9L107.8,31.2z M125.5,15.5c-3.5,0-5.8,2.7-5.8,6.1s2.3,6.1,5.8,6.1c3.5,0,5.7-2.6,5.7-6.1
		C131.2,18.3,129.1,15.5,125.5,15.5z M126.2,11.6c5.4,0,9.4,4.2,9.4,10c0,5.7-3.9,10.1-9.4,10.1c-2.6,0-4.7-0.9-6.2-2.5v10h-4.2
		V12.1h4.1v2.3C121.5,12.5,123.5,11.6,126.2,11.6z M180.6,12.1h-17.1v3.8h6.5v15.3h4.2V15.9h6.5V12.1z M92.5,12.1H75.4v3.8h6.5v15.3
		H86V15.9h6.5V12.1z M70.3,21.7c0-3.6-2.5-6.2-6-6.2c-3.4,0-6,2.6-6,6.2c0,3.6,2.5,6.2,6,6.2C67.7,27.9,70.3,25.3,70.3,21.7z
		 M54.1,21.7c0-5.7,4.4-10,10.3-10s10.3,4.3,10.3,10c0,5.7-4.4,10.1-10.3,10.1S54.1,27.4,54.1,21.7z M200.9,12.1v19.1h-4.1V18.9
		l-10,12.3h-3.3V12.1h4.1v12.3l10-12.3H200.9z M160.7,31.2h-4.1V12.1h4.1V31.2z M150,24.7c0-1.7-1.2-2.9-2.8-2.9H143v5.9h4.2
		C148.8,27.7,150,26.4,150,24.7z M154.2,24.7c0,3.8-2.8,6.5-6.8,6.5h-8.4V12.1h4.1v6.2h4.7C151.7,18.3,154.2,20.8,154.2,24.7z"/>
</g>
</svg>
