  0
SECTION
  2
HEADER
  9
$ACADVER
  1
AC1009
  0
ENDSEC
  0
SECTION
  2
ENTITIES
  0
POLYLINE
  5
90
  8
Layer_1
  62
206
  66
1
  10
0
  20
0
  30
0
  0
VERTEX
  5
90
  8
Layer_1
  10
241.58203
  20
728.18982
  0
VERTEX
  5
91
  8
Layer_1
  10
240.66315
  20
729.77344
  0
VERTEX
  5
92
  8
Layer_1
  10
239.97876
  20
729.77344
  0
VERTEX
  5
93
  8
Layer_1
  10
239.97876
  20
728.18982
  0
VERTEX
  5
94
  8
Layer_1
  10
239.07947
  20
728.18982
  0
VERTEX
  5
95
  8
Layer_1
  10
239.07947
  20
732.75195
  0
VERTEX
  5
96
  8
Layer_1
  10
240.90427
  20
732.75195
  42
-0.19891237
  0
VERTEX
  5
97
  8
Layer_1
  10
241.97968
  20
732.30865
  42
-0.19891237
  0
VERTEX
  5
98
  8
Layer_1
  10
242.42297
  20
731.23987
  42
-0.14807448
  0
VERTEX
  5
99
  8
Layer_1
  10
242.18158
  20
730.45471
  42
-0.1392444
  0
VERTEX
  5
9a
  8
Layer_1
  10
241.54306
  20
729.91034
  0
VERTEX
  5
9b
  8
Layer_1
  10
242.55322
  20
728.18982
  0
VERTEX
  5
9c
  8
Layer_1
  10
241.58203
  20
728.18982
  0
SEQEND
  0
POLYLINE
  5
9e
  8
Layer_1
  62
206
  66
1
  10
0
  20
0
  30
0
  0
VERTEX
  5
9e
  8
Layer_1
  10
239.97876
  20
731.91125
  0
VERTEX
  5
9f
  8
Layer_1
  10
239.97876
  20
730.56213
  0
VERTEX
  5
a0
  8
Layer_1
  10
240.90427
  20
730.56213
  42
0.21004354
  0
VERTEX
  5
a1
  8
Layer_1
  10
241.34094
  20
730.7608
  42
0.18782637
  0
VERTEX
  5
a2
  8
Layer_1
  10
241.52341
  20
731.23987
  42
0.19013396
  0
VERTEX
  5
a3
  8
Layer_1
  10
241.34094
  20
731.71552
  42
0.20792971
  0
VERTEX
  5
a4
  8
Layer_1
  10
240.90427
  20
731.91125
  0
VERTEX
  5
a5
  8
Layer_1
  10
239.97876
  20
731.91125
  0
SEQEND
  0
POLYLINE
  5
a7
  8
Layer_1
  62
206
  66
1
  10
0
  20
0
  30
0
  0
VERTEX
  5
a7
  8
Layer_1
  10
244.14325
  20
729.05005
  0
VERTEX
  5
a8
  8
Layer_1
  10
246.06595
  20
729.05005
  0
VERTEX
  5
a9
  8
Layer_1
  10
246.06595
  20
728.18982
  0
VERTEX
  5
aa
  8
Layer_1
  10
243.24399
  20
728.18982
  0
VERTEX
  5
ab
  8
Layer_1
  10
243.24399
  20
732.75195
  0
VERTEX
  5
ac
  8
Layer_1
  10
246.03333
  20
732.75195
  0
VERTEX
  5
ad
  8
Layer_1
  10
246.03333
  20
731.89166
  0
VERTEX
  5
ae
  8
Layer_1
  10
244.14325
  20
731.89166
  0
VERTEX
  5
af
  8
Layer_1
  10
244.14325
  20
730.92047
  0
VERTEX
  5
b0
  8
Layer_1
  10
245.87042
  20
730.92047
  0
VERTEX
  5
b1
  8
Layer_1
  10
245.87042
  20
730.07324
  0
VERTEX
  5
b2
  8
Layer_1
  10
244.14325
  20
730.07324
  0
VERTEX
  5
b3
  8
Layer_1
  10
244.14325
  20
729.05005
  0
SEQEND
  0
POLYLINE
  5
b5
  8
Layer_1
  62
206
  66
1
  10
0
  20
0
  30
0
  0
VERTEX
  5
b5
  8
Layer_1
  10
247.7605
  20
729.05005
  0
VERTEX
  5
b6
  8
Layer_1
  10
249.50067
  20
729.05005
  0
VERTEX
  5
b7
  8
Layer_1
  10
249.50067
  20
728.18982
  0
VERTEX
  5
b8
  8
Layer_1
  10
246.86121
  20
728.18982
  0
VERTEX
  5
b9
  8
Layer_1
  10
246.86121
  20
732.75195
  0
VERTEX
  5
ba
  8
Layer_1
  10
247.7605
  20
732.75195
  0
VERTEX
  5
bb
  8
Layer_1
  10
247.7605
  20
729.05005
  0
SEQEND
  0
POLYLINE
  5
bd
  8
Layer_1
  62
206
  66
1
  10
0
  20
0
  30
0
  0
VERTEX
  5
bd
  8
Layer_1
  10
250.17181
  20
732.75195
  0
VERTEX
  5
be
  8
Layer_1
  10
251.07111
  20
732.75195
  0
VERTEX
  5
bf
  8
Layer_1
  10
251.07111
  20
728.18982
  0
VERTEX
  5
c0
  8
Layer_1
  10
250.17181
  20
728.18982
  0
VERTEX
  5
c1
  8
Layer_1
  10
250.17181
  20
732.75195
  0
SEQEND
  0
POLYLINE
  5
c3
  8
Layer_1
  62
206
  66
1
  10
0
  20
0
  30
0
  0
VERTEX
  5
c3
  8
Layer_1
  10
255.0141
  20
728.18982
  0
VERTEX
  5
c4
  8
Layer_1
  10
254.74033
  20
729.01111
  0
VERTEX
  5
c5
  8
Layer_1
  10
252.92191
  20
729.01111
  0
VERTEX
  5
c6
  8
Layer_1
  10
252.64813
  20
728.18982
  0
VERTEX
  5
c7
  8
Layer_1
  10
251.67725
  20
728.18982
  0
VERTEX
  5
c8
  8
Layer_1
  10
253.27393
  20
732.75195
  0
VERTEX
  5
c9
  8
Layer_1
  10
254.38834
  20
732.75195
  0
VERTEX
  5
ca
  8
Layer_1
  10
255.99164
  20
728.18982
  0
VERTEX
  5
cb
  8
Layer_1
  10
255.0141
  20
728.18982
  0
SEQEND
  0
POLYLINE
  5
cd
  8
Layer_1
  62
206
  66
1
  10
0
  20
0
  30
0
  0
VERTEX
  5
cd
  8
Layer_1
  10
253.20865
  20
729.85168
  0
VERTEX
  5
ce
  8
Layer_1
  10
254.45996
  20
729.85168
  0
VERTEX
  5
cf
  8
Layer_1
  10
253.83441
  20
731.71552
  0
VERTEX
  5
d0
  8
Layer_1
  10
253.20865
  20
729.85168
  0
SEQEND
  0
POLYLINE
  5
d2
  8
Layer_1
  62
206
  66
1
  10
0
  20
0
  30
0
  0
VERTEX
  5
d2
  8
Layer_1
  10
259.35449
  20
730.55548
  42
-0.26821968
  0
VERTEX
  5
d3
  8
Layer_1
  10
259.95425
  20
729.5127
  42
-0.21189803
  0
VERTEX
  5
d4
  8
Layer_1
  10
259.54361
  20
728.56116
  42
-0.18586881
  0
VERTEX
  5
d5
  8
Layer_1
  10
258.53345
  20
728.18982
  0
VERTEX
  5
d6
  8
Layer_1
  10
256.59778
  20
728.18982
  0
VERTEX
  5
d7
  8
Layer_1
  10
256.59778
  20
732.75195
  0
VERTEX
  5
d8
  8
Layer_1
  10
258.39658
  20
732.75195
  42
-0.18565537
  0
VERTEX
  5
d9
  8
Layer_1
  10
259.38391
  20
732.39008
  42
-0.21223696
  0
VERTEX
  5
da
  8
Layer_1
  10
259.78473
  20
731.46802
  42
-0.22735761
  0
VERTEX
  5
db
  8
Layer_1
  10
259.35449
  20
730.55548
  0
SEQEND
  0
POLYLINE
  5
dd
  8
Layer_1
  62
206
  66
1
  10
0
  20
0
  30
0
  0
VERTEX
  5
dd
  8
Layer_1
  10
258.39658
  20
731.91125
  0
VERTEX
  5
de
  8
Layer_1
  10
257.49704
  20
731.91125
  0
VERTEX
  5
df
  8
Layer_1
  10
257.49704
  20
730.90747
  0
VERTEX
  5
e0
  8
Layer_1
  10
258.39658
  20
730.90747
  42
0.20220813
  0
VERTEX
  5
e1
  8
Layer_1
  10
258.74515
  20
731.05103
  42
0.19600414
  0
VERTEX
  5
e2
  8
Layer_1
  10
258.88522
  20
731.40942
  42
0.19263337
  0
VERTEX
  5
e3
  8
Layer_1
  10
258.7486
  20
731.76782
  42
0.20483738
  0
VERTEX
  5
e4
  8
Layer_1
  10
258.39658
  20
731.91125
  0
SEQEND
  0
POLYLINE
  5
e6
  8
Layer_1
  62
206
  66
1
  10
0
  20
0
  30
0
  0
VERTEX
  5
e6
  8
Layer_1
  10
258.53345
  20
729.03046
  42
0.20163285
  0
VERTEX
  5
e7
  8
Layer_1
  10
258.91147
  20
729.18372
  42
0.19615781
  0
VERTEX
  5
e8
  8
Layer_1
  10
259.06134
  20
729.57135
  42
0.19582902
  0
VERTEX
  5
e9
  8
Layer_1
  10
258.91147
  20
729.95276
  42
0.20130327
  0
VERTEX
  5
ea
  8
Layer_1
  10
258.53345
  20
730.10583
  0
VERTEX
  5
eb
  8
Layer_1
  10
257.49704
  20
730.10583
  0
VERTEX
  5
ec
  8
Layer_1
  10
257.49704
  20
729.03046
  0
VERTEX
  5
ed
  8
Layer_1
  10
258.53345
  20
729.03046
  0
SEQEND
  0
POLYLINE
  5
ef
  8
Layer_1
  62
206
  66
1
  10
0
  20
0
  30
0
  0
VERTEX
  5
ef
  8
Layer_1
  10
261.60291
  20
729.05005
  0
VERTEX
  5
f0
  8
Layer_1
  10
263.34311
  20
729.05005
  0
VERTEX
  5
f1
  8
Layer_1
  10
263.34311
  20
728.18982
  0
VERTEX
  5
f2
  8
Layer_1
  10
260.70364
  20
728.18982
  0
VERTEX
  5
f3
  8
Layer_1
  10
260.70364
  20
732.75195
  0
VERTEX
  5
f4
  8
Layer_1
  10
261.60291
  20
732.75195
  0
VERTEX
  5
f5
  8
Layer_1
  10
261.60291
  20
729.05005
  0
SEQEND
  0
POLYLINE
  5
f7
  8
Layer_1
  62
206
  66
1
  10
0
  20
0
  30
0
  0
VERTEX
  5
f7
  8
Layer_1
  10
264.91351
  20
729.05005
  0
VERTEX
  5
f8
  8
Layer_1
  10
266.83621
  20
729.05005
  0
VERTEX
  5
f9
  8
Layer_1
  10
266.83621
  20
728.18982
  0
VERTEX
  5
fa
  8
Layer_1
  10
264.01422
  20
728.18982
  0
VERTEX
  5
fb
  8
Layer_1
  10
264.01422
  20
732.75195
  0
VERTEX
  5
fc
  8
Layer_1
  10
266.80356
  20
732.75195
  0
VERTEX
  5
fd
  8
Layer_1
  10
266.80356
  20
731.89166
  0
VERTEX
  5
fe
  8
Layer_1
  10
264.91351
  20
731.89166
  0
VERTEX
  5
ff
  8
Layer_1
  10
264.91351
  20
730.92047
  0
VERTEX
  5
100
  8
Layer_1
  10
266.64069
  20
730.92047
  0
VERTEX
  5
101
  8
Layer_1
  10
266.64069
  20
730.07324
  0
VERTEX
  5
102
  8
Layer_1
  10
264.91351
  20
730.07324
  0
VERTEX
  5
103
  8
Layer_1
  10
264.91351
  20
729.05005
  0
SEQEND
  0
POLYLINE
  5
105
  8
Layer_1
  62
206
  66
1
  10
0
  20
0
  30
0
  0
VERTEX
  5
105
  8
Layer_1
  10
242.4816
  20
722.75702
  0
VERTEX
  5
106
  8
Layer_1
  10
242.20782
  20
723.57831
  0
VERTEX
  5
107
  8
Layer_1
  10
240.38937
  20
723.57831
  0
VERTEX
  5
108
  8
Layer_1
  10
240.11563
  20
722.75702
  0
VERTEX
  5
109
  8
Layer_1
  10
239.14474
  20
722.75702
  0
VERTEX
  5
10a
  8
Layer_1
  10
240.74139
  20
727.31915
  0
VERTEX
  5
10b
  8
Layer_1
  10
241.8558
  20
727.31915
  0
VERTEX
  5
10c
  8
Layer_1
  10
243.45911
  20
722.75702
  0
VERTEX
  5
10d
  8
Layer_1
  10
242.4816
  20
722.75702
  0
SEQEND
  0
POLYLINE
  5
10f
  8
Layer_1
  62
206
  66
1
  10
0
  20
0
  30
0
  0
VERTEX
  5
10f
  8
Layer_1
  10
240.67615
  20
724.41895
  0
VERTEX
  5
110
  8
Layer_1
  10
241.92743
  20
724.41895
  0
VERTEX
  5
111
  8
Layer_1
  10
241.30191
  20
726.28271
  0
VERTEX
  5
112
  8
Layer_1
  10
240.67615
  20
724.41895
  0
SEQEND
  0
POLYLINE
  5
114
  8
Layer_1
  62
206
  66
1
  10
0
  20
0
  30
0
  0
VERTEX
  5
114
  8
Layer_1
  10
246.46356
  20
726.45886
  0
VERTEX
  5
115
  8
Layer_1
  10
244.63852
  20
726.45886
  0
VERTEX
  5
116
  8
Layer_1
  10
244.63852
  20
725.37683
  0
VERTEX
  5
117
  8
Layer_1
  10
246.41132
  20
725.37683
  0
VERTEX
  5
118
  8
Layer_1
  10
246.41132
  20
724.5166
  0
VERTEX
  5
119
  8
Layer_1
  10
244.63852
  20
724.5166
  0
VERTEX
  5
11a
  8
Layer_1
  10
244.63852
  20
722.75702
  0
VERTEX
  5
11b
  8
Layer_1
  10
243.73923
  20
722.75702
  0
VERTEX
  5
11c
  8
Layer_1
  10
243.73923
  20
727.31915
  0
VERTEX
  5
11d
  8
Layer_1
  10
246.46356
  20
727.31915
  0
VERTEX
  5
11e
  8
Layer_1
  10
246.46356
  20
726.45886
  0
SEQEND
  0
POLYLINE
  5
120
  8
Layer_1
  62
206
  66
1
  10
0
  20
0
  30
0
  0
VERTEX
  5
120
  8
Layer_1
  10
249.6832
  20
726.45886
  0
VERTEX
  5
121
  8
Layer_1
  10
247.85812
  20
726.45886
  0
VERTEX
  5
122
  8
Layer_1
  10
247.85812
  20
725.37683
  0
VERTEX
  5
123
  8
Layer_1
  10
249.63095
  20
725.37683
  0
VERTEX
  5
124
  8
Layer_1
  10
249.63095
  20
724.5166
  0
VERTEX
  5
125
  8
Layer_1
  10
247.85812
  20
724.5166
  0
VERTEX
  5
126
  8
Layer_1
  10
247.85812
  20
722.75702
  0
VERTEX
  5
127
  8
Layer_1
  10
246.95886
  20
722.75702
  0
VERTEX
  5
128
  8
Layer_1
  10
246.95886
  20
727.31915
  0
VERTEX
  5
129
  8
Layer_1
  10
249.6832
  20
727.31915
  0
VERTEX
  5
12a
  8
Layer_1
  10
249.6832
  20
726.45886
  0
SEQEND
  0
POLYLINE
  5
12c
  8
Layer_1
  62
206
  66
1
  10
0
  20
0
  30
0
  0
VERTEX
  5
12c
  8
Layer_1
  10
250.17847
  20
727.31915
  0
VERTEX
  5
12d
  8
Layer_1
  10
251.07773
  20
727.31915
  0
VERTEX
  5
12e
  8
Layer_1
  10
251.07773
  20
722.75702
  0
VERTEX
  5
12f
  8
Layer_1
  10
250.17847
  20
722.75702
  0
VERTEX
  5
130
  8
Layer_1
  10
250.17847
  20
727.31915
  0
SEQEND
  0
POLYLINE
  5
132
  8
Layer_1
  62
206
  66
1
  10
0
  20
0
  30
0
  0
VERTEX
  5
132
  8
Layer_1
  10
252.66141
  20
723.61731
  0
VERTEX
  5
133
  8
Layer_1
  10
254.40158
  20
723.61731
  0
VERTEX
  5
134
  8
Layer_1
  10
254.40158
  20
722.75702
  0
VERTEX
  5
135
  8
Layer_1
  10
251.76215
  20
722.75702
  0
VERTEX
  5
136
  8
Layer_1
  10
251.76215
  20
727.31915
  0
VERTEX
  5
137
  8
Layer_1
  10
252.66141
  20
727.31915
  0
VERTEX
  5
138
  8
Layer_1
  10
252.66141
  20
723.61731
  0
SEQEND
  0
POLYLINE
  5
13a
  8
Layer_1
  62
206
  66
1
  10
0
  20
0
  30
0
  0
VERTEX
  5
13a
  8
Layer_1
  10
254.74695
  20
727.31915
  0
VERTEX
  5
13b
  8
Layer_1
  10
255.64624
  20
727.31915
  0
VERTEX
  5
13c
  8
Layer_1
  10
255.64624
  20
722.75702
  0
VERTEX
  5
13d
  8
Layer_1
  10
254.74695
  20
722.75702
  0
VERTEX
  5
13e
  8
Layer_1
  10
254.74695
  20
727.31915
  0
SEQEND
  0
POLYLINE
  5
140
  8
Layer_1
  62
206
  66
1
  10
0
  20
0
  30
0
  0
VERTEX
  5
140
  8
Layer_1
  10
259.26321
  20
722.75702
  0
VERTEX
  5
141
  8
Layer_1
  10
258.98944
  20
723.57831
  0
VERTEX
  5
142
  8
Layer_1
  10
257.17102
  20
723.57831
  0
VERTEX
  5
143
  8
Layer_1
  10
256.89728
  20
722.75702
  0
VERTEX
  5
144
  8
Layer_1
  10
255.92636
  20
722.75702
  0
VERTEX
  5
145
  8
Layer_1
  10
257.52301
  20
727.31915
  0
VERTEX
  5
146
  8
Layer_1
  10
258.63745
  20
727.31915
  0
VERTEX
  5
147
  8
Layer_1
  10
260.24075
  20
722.75702
  0
VERTEX
  5
148
  8
Layer_1
  10
259.26321
  20
722.75702
  0
SEQEND
  0
POLYLINE
  5
14a
  8
Layer_1
  62
206
  66
1
  10
0
  20
0
  30
0
  0
VERTEX
  5
14a
  8
Layer_1
  10
257.45776
  20
724.41895
  0
VERTEX
  5
14b
  8
Layer_1
  10
258.70908
  20
724.41895
  0
VERTEX
  5
14c
  8
Layer_1
  10
258.08356
  20
726.28271
  0
VERTEX
  5
14d
  8
Layer_1
  10
257.45776
  20
724.41895
  0
SEQEND
  0
POLYLINE
  5
14f
  8
Layer_1
  62
206
  66
1
  10
0
  20
0
  30
0
  0
VERTEX
  5
14f
  8
Layer_1
  10
263.20624
  20
727.31915
  0
VERTEX
  5
150
  8
Layer_1
  10
263.20624
  20
726.45886
  0
VERTEX
  5
151
  8
Layer_1
  10
261.97455
  20
726.45886
  0
VERTEX
  5
152
  8
Layer_1
  10
261.97455
  20
722.75702
  0
VERTEX
  5
153
  8
Layer_1
  10
261.07504
  20
722.75702
  0
VERTEX
  5
154
  8
Layer_1
  10
261.07504
  20
726.45886
  0
VERTEX
  5
155
  8
Layer_1
  10
259.84973
  20
726.45886
  0
VERTEX
  5
156
  8
Layer_1
  10
259.84973
  20
727.31915
  0
VERTEX
  5
157
  8
Layer_1
  10
263.20624
  20
727.31915
  0
SEQEND
  0
POLYLINE
  5
159
  8
Layer_1
  62
206
  66
1
  10
0
  20
0
  30
0
  0
VERTEX
  5
159
  8
Layer_1
  10
264.44452
  20
723.61731
  0
VERTEX
  5
15a
  8
Layer_1
  10
266.36719
  20
723.61731
  0
VERTEX
  5
15b
  8
Layer_1
  10
266.36719
  20
722.75702
  0
VERTEX
  5
15c
  8
Layer_1
  10
263.54526
  20
722.75702
  0
VERTEX
  5
15d
  8
Layer_1
  10
263.54526
  20
727.31915
  0
VERTEX
  5
15e
  8
Layer_1
  10
266.33456
  20
727.31915
  0
VERTEX
  5
15f
  8
Layer_1
  10
266.33456
  20
726.45886
  0
VERTEX
  5
160
  8
Layer_1
  10
264.44452
  20
726.45886
  0
VERTEX
  5
161
  8
Layer_1
  10
264.44452
  20
725.48773
  0
VERTEX
  5
162
  8
Layer_1
  10
266.17169
  20
725.48773
  0
VERTEX
  5
163
  8
Layer_1
  10
266.17169
  20
724.6405
  0
VERTEX
  5
164
  8
Layer_1
  10
264.44452
  20
724.6405
  0
VERTEX
  5
165
  8
Layer_1
  10
264.44452
  20
723.61731
  0
SEQEND
  0
POLYLINE
  5
167
  8
Layer_1
  62
206
  66
1
  10
0
  20
0
  30
0
  0
VERTEX
  5
167
  8
Layer_1
  10
236.67319
  20
737.37537
  42
-0.19827814
  0
VERTEX
  5
168
  8
Layer_1
  10
234.10165
  20
736.32385
  42
-0.19891237
  0
VERTEX
  5
169
  8
Layer_1
  10
231.53485
  20
737.37537
  42
-0.19890801
  0
VERTEX
  5
16a
  8
Layer_1
  10
230.48334
  20
739.9519
  42
-0.19890801
  0
VERTEX
  5
16b
  8
Layer_1
  10
231.53485
  20
742.5285
  42
-0.19891237
  0
VERTEX
  5
16c
  8
Layer_1
  10
234.10165
  20
743.58008
  42
-0.19827814
  0
VERTEX
  5
16d
  8
Layer_1
  10
236.67319
  20
742.5285
  42
-0.19949906
  0
VERTEX
  5
16e
  8
Layer_1
  10
237.72977
  20
739.9519
  42
-0.19949906
  0
VERTEX
  5
16f
  8
Layer_1
  10
236.67319
  20
737.37537
  0
SEQEND
  0
POLYLINE
  5
171
  8
Layer_1
  62
206
  66
1
  10
0
  20
0
  30
0
  0
VERTEX
  5
171
  8
Layer_1
  10
232.49677
  20
738.31232
  42
0.1979616
  0
VERTEX
  5
172
  8
Layer_1
  10
234.10165
  20
737.66956
  42
0.1979616
  0
VERTEX
  5
173
  8
Layer_1
  10
235.70627
  20
738.31232
  0
VERTEX
  5
174
  8
Layer_1
  10
235.98973
  20
738.6559
  0
VERTEX
  5
175
  8
Layer_1
  10
236.19226
  20
739.04369
  0
VERTEX
  5
176
  8
Layer_1
  10
236.31381
  20
739.47569
  0
VERTEX
  5
177
  8
Layer_1
  10
236.35434
  20
739.95194
  0
VERTEX
  5
178
  8
Layer_1
  10
236.31381
  20
740.4285
  0
VERTEX
  5
179
  8
Layer_1
  10
236.19226
  20
740.86143
  0
VERTEX
  5
17a
  8
Layer_1
  10
235.98973
  20
741.2508
  0
VERTEX
  5
17b
  8
Layer_1
  10
235.70627
  20
741.59664
  42
0.19891237
  0
VERTEX
  5
17c
  8
Layer_1
  10
234.10165
  20
742.24445
  42
0.19891237
  0
VERTEX
  5
17d
  8
Layer_1
  10
232.49677
  20
741.59668
  0
VERTEX
  5
17e
  8
Layer_1
  10
232.21323
  20
741.2508
  0
VERTEX
  5
17f
  8
Layer_1
  10
232.01081
  20
740.86143
  0
VERTEX
  5
180
  8
Layer_1
  10
231.88942
  20
740.4285
  0
VERTEX
  5
181
  8
Layer_1
  10
231.84897
  20
739.95194
  0
VERTEX
  5
182
  8
Layer_1
  10
231.88942
  20
739.47569
  0
VERTEX
  5
183
  8
Layer_1
  10
232.01081
  20
739.04369
  0
VERTEX
  5
184
  8
Layer_1
  10
232.21323
  20
738.6559
  0
VERTEX
  5
185
  8
Layer_1
  10
232.49675
  20
738.31231
  0
SEQEND
  0
POLYLINE
  5
187
  8
Layer_1
  62
206
  66
1
  10
0
  20
0
  30
0
  0
VERTEX
  5
187
  8
Layer_1
  10
241.75659
  20
736.32382
  0
VERTEX
  5
188
  8
Layer_1
  10
241.37143
  20
736.34017
  0
VERTEX
  5
189
  8
Layer_1
  10
241.00341
  20
736.38922
  0
VERTEX
  5
18a
  8
Layer_1
  10
240.65251
  20
736.47098
  0
VERTEX
  5
18b
  8
Layer_1
  10
240.31876
  20
736.58544
  0
VERTEX
  5
18c
  8
Layer_1
  10
240.00213
  20
736.7326
  0
VERTEX
  5
18d
  8
Layer_1
  10
239.70264
  20
736.91247
  0
VERTEX
  5
18e
  8
Layer_1
  10
239.42029
  20
737.12503
  0
VERTEX
  5
18f
  8
Layer_1
  10
239.15507
  20
737.3703
  0
VERTEX
  5
190
  8
Layer_1
  10
238.91447
  20
737.63964
  0
VERTEX
  5
191
  8
Layer_1
  10
238.70594
  20
737.92421
  0
VERTEX
  5
192
  8
Layer_1
  10
238.52949
  20
738.22402
  0
VERTEX
  5
193
  8
Layer_1
  10
238.38513
  20
738.53907
  0
VERTEX
  5
194
  8
Layer_1
  10
238.27284
  20
738.86938
  0
VERTEX
  5
195
  8
Layer_1
  10
238.19264
  20
739.21496
  0
VERTEX
  5
196
  8
Layer_1
  10
238.14451
  20
739.57581
  0
VERTEX
  5
197
  8
Layer_1
  10
238.12847
  20
739.95194
  0
VERTEX
  5
198
  8
Layer_1
  10
238.14451
  20
740.33034
  0
VERTEX
  5
199
  8
Layer_1
  10
238.19264
  20
740.693
  0
VERTEX
  5
19a
  8
Layer_1
  10
238.27284
  20
741.03992
  0
VERTEX
  5
19b
  8
Layer_1
  10
238.38513
  20
741.37111
  0
VERTEX
  5
19c
  8
Layer_1
  10
238.52949
  20
741.68658
  0
VERTEX
  5
19d
  8
Layer_1
  10
238.70594
  20
741.98631
  0
VERTEX
  5
19e
  8
Layer_1
  10
238.91447
  20
742.27032
  0
VERTEX
  5
19f
  8
Layer_1
  10
239.15507
  20
742.53861
  0
VERTEX
  5
1a0
  8
Layer_1
  10
239.42029
  20
742.78267
  0
VERTEX
  5
1a1
  8
Layer_1
  10
239.70264
  20
742.9942
  0
VERTEX
  5
1a2
  8
Layer_1
  10
240.00213
  20
743.1732
  0
VERTEX
  5
1a3
  8
Layer_1
  10
240.31876
  20
743.31966
  0
VERTEX
  5
1a4
  8
Layer_1
  10
240.65251
  20
743.43358
  0
VERTEX
  5
1a5
  8
Layer_1
  10
241.00341
  20
743.51496
  0
VERTEX
  5
1a6
  8
Layer_1
  10
241.37143
  20
743.56378
  0
VERTEX
  5
1a7
  8
Layer_1
  10
241.75659
  20
743.58006
  42
-0.12691662
  0
VERTEX
  5
1a8
  8
Layer_1
  10
243.50604
  20
743.13654
  42
-0.13351136
  0
VERTEX
  5
1a9
  8
Layer_1
  10
244.75684
  20
741.93567
  0
VERTEX
  5
1aa
  8
Layer_1
  10
243.5708
  20
741.2478
  42
0.14107699
  0
VERTEX
  5
1ab
  8
Layer_1
  10
242.83307
  20
741.98047
  42
0.12668599
  0
VERTEX
  5
1ac
  8
Layer_1
  10
241.75659
  20
742.24445
  0
VERTEX
  5
1ad
  8
Layer_1
  10
241.27285
  20
742.20454
  0
VERTEX
  5
1ae
  8
Layer_1
  10
240.8383
  20
742.08493
  0
VERTEX
  5
1af
  8
Layer_1
  10
240.45298
  20
741.88563
  0
VERTEX
  5
1b0
  8
Layer_1
  10
240.11696
  20
741.6067
  0
VERTEX
  5
1b1
  8
Layer_1
  10
239.84438
  20
741.26396
  0
VERTEX
  5
1b2
  8
Layer_1
  10
239.64974
  20
740.87393
  0
VERTEX
  5
1b3
  8
Layer_1
  10
239.53299
  20
740.4366
  0
VERTEX
  5
1b4
  8
Layer_1
  10
239.49409
  20
739.95194
  0
VERTEX
  5
1b5
  8
Layer_1
  10
239.53299
  20
739.47163
  0
VERTEX
  5
1b6
  8
Layer_1
  10
239.64974
  20
739.03739
  0
VERTEX
  5
1b7
  8
Layer_1
  10
239.84438
  20
738.64925
  0
VERTEX
  5
1b8
  8
Layer_1
  10
240.11696
  20
738.30725
  0
VERTEX
  5
1b9
  8
Layer_1
  10
240.45298
  20
738.02822
  0
VERTEX
  5
1ba
  8
Layer_1
  10
240.8383
  20
737.82893
  0
VERTEX
  5
1bb
  8
Layer_1
  10
241.27285
  20
737.70938
  0
VERTEX
  5
1bc
  8
Layer_1
  10
241.75659
  20
737.66953
  42
0.1256967
  0
VERTEX
  5
1bd
  8
Layer_1
  10
242.8381
  20
737.93347
  42
0.14403714
  0
VERTEX
  5
1be
  8
Layer_1
  10
243.5708
  20
738.65613
  0
VERTEX
  5
1bf
  8
Layer_1
  10
244.75684
  20
737.96851
  42
-0.13301943
  0
VERTEX
  5
1c0
  8
Layer_1
  10
243.51086
  20
736.76733
  42
-0.12761832
  0
VERTEX
  5
1c1
  8
Layer_1
  10
241.75659
  20
736.32385
  0
SEQEND
  0
POLYLINE
  5
1c3
  8
Layer_1
  62
206
  66
1
  10
0
  20
0
  30
0
  0
VERTEX
  5
1c3
  8
Layer_1
  10
249.94022
  20
743.44055
  0
VERTEX
  5
1c4
  8
Layer_1
  10
249.94022
  20
742.12506
  0
VERTEX
  5
1c5
  8
Layer_1
  10
248.05627
  20
742.12506
  0
VERTEX
  5
1c6
  8
Layer_1
  10
248.05627
  20
736.46338
  0
VERTEX
  5
1c7
  8
Layer_1
  10
246.68085
  20
736.46338
  0
VERTEX
  5
1c8
  8
Layer_1
  10
246.68085
  20
742.12506
  0
VERTEX
  5
1c9
  8
Layer_1
  10
244.8067
  20
742.12506
  0
VERTEX
  5
1ca
  8
Layer_1
  10
244.8067
  20
743.44055
  0
VERTEX
  5
1cb
  8
Layer_1
  10
249.94022
  20
743.44055
  0
SEQEND
  0
POLYLINE
  5
1cd
  8
Layer_1
  62
206
  66
1
  10
0
  20
0
  30
0
  0
VERTEX
  5
1cd
  8
Layer_1
  10
255.9306
  20
737.37537
  42
-0.19827814
  0
VERTEX
  5
1ce
  8
Layer_1
  10
253.35907
  20
736.32385
  42
-0.19891237
  0
VERTEX
  5
1cf
  8
Layer_1
  10
250.7923
  20
737.37537
  42
-0.19890801
  0
VERTEX
  5
1d0
  8
Layer_1
  10
249.74075
  20
739.9519
  42
-0.19890801
  0
VERTEX
  5
1d1
  8
Layer_1
  10
250.7923
  20
742.5285
  42
-0.19891237
  0
VERTEX
  5
1d2
  8
Layer_1
  10
253.35907
  20
743.58008
  42
-0.19827814
  0
VERTEX
  5
1d3
  8
Layer_1
  10
255.9306
  20
742.5285
  42
-0.19949906
  0
VERTEX
  5
1d4
  8
Layer_1
  10
256.98718
  20
739.9519
  42
-0.19949906
  0
VERTEX
  5
1d5
  8
Layer_1
  10
255.9306
  20
737.37537
  0
SEQEND
  0
POLYLINE
  5
1d7
  8
Layer_1
  62
206
  66
1
  10
0
  20
0
  30
0
  0
VERTEX
  5
1d7
  8
Layer_1
  10
251.75418
  20
738.31232
  42
0.1979616
  0
VERTEX
  5
1d8
  8
Layer_1
  10
253.35907
  20
737.66956
  42
0.1979616
  0
VERTEX
  5
1d9
  8
Layer_1
  10
254.96368
  20
738.31232
  0
VERTEX
  5
1da
  8
Layer_1
  10
255.24714
  20
738.6559
  0
VERTEX
  5
1db
  8
Layer_1
  10
255.44967
  20
739.04369
  0
VERTEX
  5
1dc
  8
Layer_1
  10
255.57122
  20
739.47569
  0
VERTEX
  5
1dd
  8
Layer_1
  10
255.61175
  20
739.95194
  0
VERTEX
  5
1de
  8
Layer_1
  10
255.57122
  20
740.4285
  0
VERTEX
  5
1df
  8
Layer_1
  10
255.44967
  20
740.86143
  0
VERTEX
  5
1e0
  8
Layer_1
  10
255.24714
  20
741.2508
  0
VERTEX
  5
1e1
  8
Layer_1
  10
254.96369
  20
741.59664
  42
0.19891237
  0
VERTEX
  5
1e2
  8
Layer_1
  10
253.35907
  20
742.24445
  42
0.19891237
  0
VERTEX
  5
1e3
  8
Layer_1
  10
251.75418
  20
741.59668
  0
VERTEX
  5
1e4
  8
Layer_1
  10
251.47064
  20
741.2508
  0
VERTEX
  5
1e5
  8
Layer_1
  10
251.26821
  20
740.86143
  0
VERTEX
  5
1e6
  8
Layer_1
  10
251.14681
  20
740.4285
  0
VERTEX
  5
1e7
  8
Layer_1
  10
251.10636
  20
739.95194
  0
VERTEX
  5
1e8
  8
Layer_1
  10
251.14681
  20
739.47569
  0
VERTEX
  5
1e9
  8
Layer_1
  10
251.26821
  20
739.04369
  0
VERTEX
  5
1ea
  8
Layer_1
  10
251.47064
  20
738.6559
  0
VERTEX
  5
1eb
  8
Layer_1
  10
251.75417
  20
738.31231
  0
SEQEND
  0
POLYLINE
  5
1ed
  8
Layer_1
  62
206
  66
1
  10
0
  20
0
  30
0
  0
VERTEX
  5
1ed
  8
Layer_1
  10
261.01375
  20
736.32382
  0
VERTEX
  5
1ee
  8
Layer_1
  10
260.62859
  20
736.34017
  0
VERTEX
  5
1ef
  8
Layer_1
  10
260.26056
  20
736.38922
  0
VERTEX
  5
1f0
  8
Layer_1
  10
259.90966
  20
736.47098
  0
VERTEX
  5
1f1
  8
Layer_1
  10
259.57591
  20
736.58544
  0
VERTEX
  5
1f2
  8
Layer_1
  10
259.25928
  20
736.7326
  0
VERTEX
  5
1f3
  8
Layer_1
  10
258.9598
  20
736.91247
  0
VERTEX
  5
1f4
  8
Layer_1
  10
258.67745
  20
737.12503
  0
VERTEX
  5
1f5
  8
Layer_1
  10
258.41223
  20
737.3703
  0
VERTEX
  5
1f6
  8
Layer_1
  10
258.17162
  20
737.63964
  0
VERTEX
  5
1f7
  8
Layer_1
  10
257.96309
  20
737.92421
  0
VERTEX
  5
1f8
  8
Layer_1
  10
257.78664
  20
738.22402
  0
VERTEX
  5
1f9
  8
Layer_1
  10
257.64228
  20
738.53907
  0
VERTEX
  5
1fa
  8
Layer_1
  10
257.52999
  20
738.86938
  0
VERTEX
  5
1fb
  8
Layer_1
  10
257.44979
  20
739.21496
  0
VERTEX
  5
1fc
  8
Layer_1
  10
257.40167
  20
739.57581
  0
VERTEX
  5
1fd
  8
Layer_1
  10
257.38563
  20
739.95194
  0
VERTEX
  5
1fe
  8
Layer_1
  10
257.40167
  20
740.33034
  0
VERTEX
  5
1ff
  8
Layer_1
  10
257.44979
  20
740.693
  0
VERTEX
  5
200
  8
Layer_1
  10
257.52999
  20
741.03992
  0
VERTEX
  5
201
  8
Layer_1
  10
257.64228
  20
741.37111
  0
VERTEX
  5
202
  8
Layer_1
  10
257.78664
  20
741.68658
  0
VERTEX
  5
203
  8
Layer_1
  10
257.96309
  20
741.98631
  0
VERTEX
  5
204
  8
Layer_1
  10
258.17162
  20
742.27032
  0
VERTEX
  5
205
  8
Layer_1
  10
258.41223
  20
742.53861
  0
VERTEX
  5
206
  8
Layer_1
  10
258.67745
  20
742.78267
  0
VERTEX
  5
207
  8
Layer_1
  10
258.9598
  20
742.9942
  0
VERTEX
  5
208
  8
Layer_1
  10
259.25928
  20
743.1732
  0
VERTEX
  5
209
  8
Layer_1
  10
259.57591
  20
743.31966
  0
VERTEX
  5
20a
  8
Layer_1
  10
259.90966
  20
743.43358
  0
VERTEX
  5
20b
  8
Layer_1
  10
260.26056
  20
743.51496
  0
VERTEX
  5
20c
  8
Layer_1
  10
260.62859
  20
743.56378
  0
VERTEX
  5
20d
  8
Layer_1
  10
261.01375
  20
743.58006
  42
-0.1269119
  0
VERTEX
  5
20e
  8
Layer_1
  10
262.76321
  20
743.13654
  42
-0.1335154
  0
VERTEX
  5
20f
  8
Layer_1
  10
264.01398
  20
741.93567
  0
VERTEX
  5
210
  8
Layer_1
  10
262.82794
  20
741.2478
  42
0.14107025
  0
VERTEX
  5
211
  8
Layer_1
  10
262.09021
  20
741.98047
  42
0.12669391
  0
VERTEX
  5
212
  8
Layer_1
  10
261.01376
  20
742.24445
  0
VERTEX
  5
213
  8
Layer_1
  10
260.53
  20
742.20454
  0
VERTEX
  5
214
  8
Layer_1
  10
260.09544
  20
742.08493
  0
VERTEX
  5
215
  8
Layer_1
  10
259.71012
  20
741.88563
  0
VERTEX
  5
216
  8
Layer_1
  10
259.3741
  20
741.6067
  0
VERTEX
  5
217
  8
Layer_1
  10
259.10153
  20
741.26396
  0
VERTEX
  5
218
  8
Layer_1
  10
258.90689
  20
740.87393
  0
VERTEX
  5
219
  8
Layer_1
  10
258.79015
  20
740.4366
  0
VERTEX
  5
21a
  8
Layer_1
  10
258.75125
  20
739.95194
  0
VERTEX
  5
21b
  8
Layer_1
  10
258.79015
  20
739.47163
  0
VERTEX
  5
21c
  8
Layer_1
  10
258.90689
  20
739.03739
  0
VERTEX
  5
21d
  8
Layer_1
  10
259.10153
  20
738.64925
  0
VERTEX
  5
21e
  8
Layer_1
  10
259.3741
  20
738.30725
  0
VERTEX
  5
21f
  8
Layer_1
  10
259.71012
  20
738.02822
  0
VERTEX
  5
220
  8
Layer_1
  10
260.09544
  20
737.82893
  0
VERTEX
  5
221
  8
Layer_1
  10
260.53
  20
737.70938
  0
VERTEX
  5
222
  8
Layer_1
  10
261.01375
  20
737.66953
  42
0.1256967
  0
VERTEX
  5
223
  8
Layer_1
  10
262.09528
  20
737.93347
  42
0.144022
  0
VERTEX
  5
224
  8
Layer_1
  10
262.82794
  20
738.65613
  0
VERTEX
  5
225
  8
Layer_1
  10
264.01398
  20
737.96851
  42
-0.1330282
  0
VERTEX
  5
226
  8
Layer_1
  10
262.76797
  20
736.76733
  42
-0.12761832
  0
VERTEX
  5
227
  8
Layer_1
  10
261.01376
  20
736.32385
  0
SEQEND
  0
POLYLINE
  5
229
  8
Layer_1
  62
206
  66
1
  10
0
  20
0
  30
0
  0
VERTEX
  5
229
  8
Layer_1
  10
267.21368
  20
743.44055
  42
-0.19709513
  0
VERTEX
  5
22a
  8
Layer_1
  10
268.90823
  20
742.76282
  42
-0.20087844
  0
VERTEX
  5
22b
  8
Layer_1
  10
269.59607
  20
741.09821
  42
-0.20081083
  0
VERTEX
  5
22c
  8
Layer_1
  10
268.90823
  20
739.43359
  42
-0.19702762
  0
VERTEX
  5
22d
  8
Layer_1
  10
267.21368
  20
738.7558
  0
VERTEX
  5
22e
  8
Layer_1
  10
265.98785
  20
738.7558
  0
VERTEX
  5
22f
  8
Layer_1
  10
265.98785
  20
736.46338
  0
VERTEX
  5
230
  8
Layer_1
  10
264.61218
  20
736.46338
  0
VERTEX
  5
231
  8
Layer_1
  10
264.61218
  20
743.44055
  0
VERTEX
  5
232
  8
Layer_1
  10
267.21368
  20
743.44055
  0
SEQEND
  0
POLYLINE
  5
234
  8
Layer_1
  62
206
  66
1
  10
0
  20
0
  30
0
  0
VERTEX
  5
234
  8
Layer_1
  10
267.21368
  20
740.04163
  42
0.20554766
  0
VERTEX
  5
235
  8
Layer_1
  10
267.94131
  20
740.34558
  42
0.19246751
  0
VERTEX
  5
236
  8
Layer_1
  10
268.23047
  20
741.09821
  42
0.19454208
  0
VERTEX
  5
237
  8
Layer_1
  10
267.94131
  20
741.85577
  42
0.2033111
  0
VERTEX
  5
238
  8
Layer_1
  10
267.21368
  20
742.15479
  0
VERTEX
  5
239
  8
Layer_1
  10
265.98785
  20
742.15479
  0
VERTEX
  5
23a
  8
Layer_1
  10
265.98785
  20
740.04163
  0
VERTEX
  5
23b
  8
Layer_1
  10
267.21368
  20
740.04163
  0
SEQEND
  0
POLYLINE
  5
23d
  8
Layer_1
  62
206
  66
1
  10
0
  20
0
  30
0
  0
VERTEX
  5
23d
  8
Layer_1
  10
274.02164
  20
736.46338
  0
VERTEX
  5
23e
  8
Layer_1
  10
273.60303
  20
737.71918
  0
VERTEX
  5
23f
  8
Layer_1
  10
270.8222
  20
737.71918
  0
VERTEX
  5
240
  8
Layer_1
  10
270.40332
  20
736.46338
  0
VERTEX
  5
241
  8
Layer_1
  10
268.9183
  20
736.46338
  0
VERTEX
  5
242
  8
Layer_1
  10
271.36041
  20
743.44055
  0
VERTEX
  5
243
  8
Layer_1
  10
273.06479
  20
743.44055
  0
VERTEX
  5
244
  8
Layer_1
  10
275.51669
  20
736.46338
  0
VERTEX
  5
245
  8
Layer_1
  10
274.02164
  20
736.46338
  0
SEQEND
  0
POLYLINE
  5
247
  8
Layer_1
  62
206
  66
1
  10
0
  20
0
  30
0
  0
VERTEX
  5
247
  8
Layer_1
  10
271.26068
  20
739.00519
  0
VERTEX
  5
248
  8
Layer_1
  10
273.17435
  20
739.00519
  0
VERTEX
  5
249
  8
Layer_1
  10
272.2175
  20
741.85577
  0
VERTEX
  5
24a
  8
Layer_1
  10
271.26068
  20
739.00519
  0
SEQEND
  0
POLYLINE
  5
24c
  8
Layer_1
  62
206
  66
1
  10
0
  20
0
  30
0
  0
VERTEX
  5
24c
  8
Layer_1
  10
250.10617
  20
753.50427
  42
0.32757142
  0
VERTEX
  5
24d
  8
Layer_1
  10
249.71338
  20
752.32294
  42
-0.13404573
  0
VERTEX
  5
24e
  8
Layer_1
  10
249.78784
  20
751.09497
  42
-0.38315391
  0
VERTEX
  5
24f
  8
Layer_1
  10
247.09686
  20
749.15918
  42
-0.38105904
  0
VERTEX
  5
250
  8
Layer_1
  10
244.96335
  20
751.50391
  42
-0.24860297
  0
VERTEX
  5
251
  8
Layer_1
  10
246.08896
  20
753.64294
  42
-0.00031400931
  0
VERTEX
  5
252
  8
Layer_1
  10
251.31833
  20
757.22882
  0
VERTEX
  5
253
  8
Layer_1
  10
252.92929
  20
758.33362
  0
VERTEX
  5
254
  8
Layer_1
  10
252.99661
  20
758.29297
  42
-0.0014946187
  0
VERTEX
  5
255
  8
Layer_1
  10
259.72876
  20
753.66931
  0
VERTEX
  5
256
  8
Layer_1
  10
259.99721
  20
753.45647
  0
VERTEX
  5
257
  8
Layer_1
  10
260.22249
  20
753.22163
  0
VERTEX
  5
258
  8
Layer_1
  10
260.40492
  20
752.96618
  0
VERTEX
  5
259
  8
Layer_1
  10
260.5448
  20
752.6915
  0
VERTEX
  5
25a
  8
Layer_1
  10
260.64243
  20
752.39901
  0
VERTEX
  5
25b
  8
Layer_1
  10
260.69814
  20
752.09009
  0
VERTEX
  5
25c
  8
Layer_1
  10
260.71223
  20
751.76616
  0
VERTEX
  5
25d
  8
Layer_1
  10
260.68501
  20
751.4286
  0
VERTEX
  5
25e
  8
Layer_1
  10
260.63598
  20
751.17131
  0
VERTEX
  5
25f
  8
Layer_1
  10
260.56323
  20
750.92689
  0
VERTEX
  5
260
  8
Layer_1
  10
260.46813
  20
750.69624
  0
VERTEX
  5
261
  8
Layer_1
  10
260.35206
  20
750.48026
  0
VERTEX
  5
262
  8
Layer_1
  10
260.06245
  20
750.09592
  0
VERTEX
  5
263
  8
Layer_1
  10
259.70535
  20
749.7811
  0
VERTEX
  5
264
  8
Layer_1
  10
259.29171
  20
749.543
  0
VERTEX
  5
265
  8
Layer_1
  10
258.83249
  20
749.38884
  0
VERTEX
  5
266
  8
Layer_1
  10
258.58921
  20
749.3455
  0
VERTEX
  5
267
  8
Layer_1
  10
258.33864
  20
749.32584
  0
VERTEX
  5
268
  8
Layer_1
  10
258.08215
  20
749.33078
  0
VERTEX
  5
269
  8
Layer_1
  10
257.82111
  20
749.36121
  0
VERTEX
  5
26a
  8
Layer_1
  10
257.36679
  20
749.48465
  0
VERTEX
  5
26b
  8
Layer_1
  10
256.95715
  20
749.69063
  0
VERTEX
  5
26c
  8
Layer_1
  10
256.59904
  20
749.96809
  0
VERTEX
  5
26d
  8
Layer_1
  10
256.2993
  20
750.30599
  0
VERTEX
  5
26e
  8
Layer_1
  10
256.06478
  20
750.69325
  0
VERTEX
  5
26f
  8
Layer_1
  10
255.9023
  20
751.11884
  0
VERTEX
  5
270
  8
Layer_1
  10
255.81873
  20
751.57168
  0
VERTEX
  5
271
  8
Layer_1
  10
255.82089
  20
752.04074
  42
-0.055980187
  0
VERTEX
  5
272
  8
Layer_1
  10
255.92175
  20
752.50586
  42
0.32972948
  0
VERTEX
  5
273
  8
Layer_1
  10
255.52893
  20
753.69202
  0
VERTEX
  5
274
  8
Layer_1
  10
255.47131
  20
753.73383
  42
0.50561372
  0
VERTEX
  5
275
  8
Layer_1
  10
253.83987
  20
753.21008
  42
0.12957179
  0
VERTEX
  5
276
  8
Layer_1
  10
253.69931
  20
750.74231
  0
VERTEX
  5
277
  8
Layer_1
  10
253.79381
  20
750.38391
  0
VERTEX
  5
278
  8
Layer_1
  10
253.93174
  20
750.02038
  0
VERTEX
  5
279
  8
Layer_1
  10
254.10697
  20
749.6591
  0
VERTEX
  5
27a
  8
Layer_1
  10
254.31338
  20
749.30745
  0
VERTEX
  5
27b
  8
Layer_1
  10
254.54484
  20
748.97285
  0
VERTEX
  5
27c
  8
Layer_1
  10
254.79524
  20
748.66268
  0
VERTEX
  5
27d
  8
Layer_1
  10
255.05844
  20
748.38434
  0
VERTEX
  5
27e
  8
Layer_1
  10
255.32834
  20
748.14523
  0
VERTEX
  5
27f
  8
Layer_1
  10
255.77
  20
747.83385
  0
VERTEX
  5
280
  8
Layer_1
  10
256.26845
  20
747.56567
  0
VERTEX
  5
281
  8
Layer_1
  10
256.81772
  20
747.35229
  0
VERTEX
  5
282
  8
Layer_1
  10
257.41186
  20
747.20527
  0
VERTEX
  5
283
  8
Layer_1
  10
258.04491
  20
747.13623
  0
VERTEX
  5
284
  8
Layer_1
  10
258.71092
  20
747.15672
  0
VERTEX
  5
285
  8
Layer_1
  10
259.05442
  20
747.20418
  0
VERTEX
  5
286
  8
Layer_1
  10
259.40392
  20
747.27836
  0
VERTEX
  5
287
  8
Layer_1
  10
259.75869
  20
747.38073
  0
VERTEX
  5
288
  8
Layer_1
  10
260.11797
  20
747.51272
  42
0.38050802
  0
VERTEX
  5
289
  8
Layer_1
  10
262.77411
  20
752.92316
  0
VERTEX
  5
28a
  8
Layer_1
  10
262.63703
  20
753.3398
  0
VERTEX
  5
28b
  8
Layer_1
  10
262.46546
  20
753.73194
  0
VERTEX
  5
28c
  8
Layer_1
  10
262.26069
  20
754.10034
  0
VERTEX
  5
28d
  8
Layer_1
  10
262.02403
  20
754.44574
  0
VERTEX
  5
28e
  8
Layer_1
  10
261.7568
  20
754.76889
  0
VERTEX
  5
28f
  8
Layer_1
  10
261.46029
  20
755.07053
  0
VERTEX
  5
290
  8
Layer_1
  10
261.13583
  20
755.35139
  0
VERTEX
  5
291
  8
Layer_1
  10
260.78471
  20
755.61223
  42
0.00067115365
  0
VERTEX
  5
292
  8
Layer_1
  10
256.73029
  20
758.39453
  0
VERTEX
  5
293
  8
Layer_1
  10
254.87659
  20
759.66675
  42
0.003888794
  0
VERTEX
  5
294
  8
Layer_1
  10
256.25452
  20
760.61621
  42
-0.30961415
  0
VERTEX
  5
295
  8
Layer_1
  10
256.50443
  20
760.61377
  42
0.0015066794
  0
VERTEX
  5
296
  8
Layer_1
  10
261.87912
  20
757.03748
  42
0.18908916
  0
VERTEX
  5
297
  8
Layer_1
  10
265.1792
  20
756.33923
  42
0.41706966
  0
VERTEX
  5
298
  8
Layer_1
  10
268.99936
  20
761.69708
  42
0.31257492
  0
VERTEX
  5
299
  8
Layer_1
  10
265.32452
  20
765.43713
  0
VERTEX
  5
29a
  8
Layer_1
  10
264.9749
  20
765.49166
  0
VERTEX
  5
29b
  8
Layer_1
  10
264.63908
  20
765.52232
  0
VERTEX
  5
29c
  8
Layer_1
  10
264.31699
  20
765.53072
  0
VERTEX
  5
29d
  8
Layer_1
  10
264.00851
  20
765.5185
  0
VERTEX
  5
29e
  8
Layer_1
  10
263.43207
  20
765.43877
  0
VERTEX
  5
29f
  8
Layer_1
  10
262.90898
  20
765.29621
  0
VERTEX
  5
2a0
  8
Layer_1
  10
262.43848
  20
765.10394
  0
VERTEX
  5
2a1
  8
Layer_1
  10
262.01981
  20
764.87506
  0
VERTEX
  5
2a2
  8
Layer_1
  10
261.65222
  20
764.62267
  0
VERTEX
  5
2a3
  8
Layer_1
  10
261.33493
  20
764.35987
  42
0.5036946
  0
VERTEX
  5
2a4
  8
Layer_1
  10
261.49591
  20
762.66437
  0
VERTEX
  5
2a5
  8
Layer_1
  10
261.55237
  20
762.63092
  42
0.32397994
  0
VERTEX
  5
2a6
  8
Layer_1
  10
262.80533
  20
762.73969
  0
VERTEX
  5
2a7
  8
Layer_1
  10
262.96956
  20
762.87024
  0
VERTEX
  5
2a8
  8
Layer_1
  10
263.15891
  20
762.99507
  0
VERTEX
  5
2a9
  8
Layer_1
  10
263.37382
  20
763.10812
  0
VERTEX
  5
2aa
  8
Layer_1
  10
263.61474
  20
763.20334
  0
VERTEX
  5
2ab
  8
Layer_1
  10
263.88213
  20
763.27469
  0
VERTEX
  5
2ac
  8
Layer_1
  10
264.17644
  20
763.31612
  0
VERTEX
  5
2ad
  8
Layer_1
  10
264.49812
  20
763.32155
  0
VERTEX
  5
2ae
  8
Layer_1
  10
264.84763
  20
763.28496
  42
-0.30776464
  0
VERTEX
  5
2af
  8
Layer_1
  10
266.80698
  20
761.39935
  42
-0.30683892
  0
VERTEX
  5
2b0
  8
Layer_1
  10
265.78821
  20
758.89435
  42
-0.30378183
  0
VERTEX
  5
2b1
  8
Layer_1
  10
263.06122
  20
758.88483
  0
VERTEX
  5
2b2
  8
Layer_1
  10
258.9563
  20
761.61816
  0
VERTEX
  5
2b3
  8
Layer_1
  10
258.72761
  20
761.77047
  0
VERTEX
  5
2b4
  8
Layer_1
  10
258.47278
  20
761.94007
  0
VERTEX
  5
2b5
  8
Layer_1
  10
258.35865
  20
762.01601
  0
VERTEX
  5
2b6
  8
Layer_1
  10
258.2657
  20
762.07784
  0
VERTEX
  5
2b7
  8
Layer_1
  10
258.20316
  20
762.11945
  0
VERTEX
  5
2b8
  8
Layer_1
  10
258.18026
  20
762.13468
  0
VERTEX
  5
2b9
  8
Layer_1
  10
258.20068
  20
762.15889
  0
VERTEX
  5
2ba
  8
Layer_1
  10
258.23195
  20
762.19564
  0
VERTEX
  5
2bb
  8
Layer_1
  10
258.54465
  20
762.56346
  0
VERTEX
  5
2bc
  8
Layer_1
  10
258.82759
  20
762.94643
  0
VERTEX
  5
2bd
  8
Layer_1
  10
259.08187
  20
763.34403
  0
VERTEX
  5
2be
  8
Layer_1
  10
259.3086
  20
763.75572
  0
VERTEX
  5
2bf
  8
Layer_1
  10
259.50886
  20
764.18098
  0
VERTEX
  5
2c0
  8
Layer_1
  10
259.68375
  20
764.61927
  0
VERTEX
  5
2c1
  8
Layer_1
  10
259.83438
  20
765.07006
  0
VERTEX
  5
2c2
  8
Layer_1
  10
259.96184
  20
765.53282
  0
VERTEX
  5
2c3
  8
Layer_1
  10
260.16042
  20
766.51806
  0
VERTEX
  5
2c4
  8
Layer_1
  10
260.27914
  20
767.51059
  0
VERTEX
  5
2c5
  8
Layer_1
  10
260.33231
  20
768.50873
  0
VERTEX
  5
2c6
  8
Layer_1
  10
260.33425
  20
769.51079
  42
0.050431407
  0
VERTEX
  5
2c7
  8
Layer_1
  10
260.16608
  20
770.9743
  42
0.42871366
  0
VERTEX
  5
2c8
  8
Layer_1
  10
250.91467
  20
776.47565
  0
VERTEX
  5
2c9
  8
Layer_1
  10
250.08527
  20
776.19702
  0
VERTEX
  5
2ca
  8
Layer_1
  10
249.31816
  20
775.84412
  0
VERTEX
  5
2cb
  8
Layer_1
  10
248.61373
  20
775.41764
  0
VERTEX
  5
2cc
  8
Layer_1
  10
247.97234
  20
774.91826
  0
VERTEX
  5
2cd
  8
Layer_1
  10
247.39436
  20
774.3467
  0
VERTEX
  5
2ce
  8
Layer_1
  10
246.88014
  20
773.70364
  0
VERTEX
  5
2cf
  8
Layer_1
  10
246.43006
  20
772.98981
  0
VERTEX
  5
2d0
  8
Layer_1
  10
246.04448
  20
772.20588
  0
VERTEX
  5
2d1
  8
Layer_1
  10
245.78646
  20
771.46964
  0
VERTEX
  5
2d2
  8
Layer_1
  10
245.62436
  20
770.71367
  0
VERTEX
  5
2d3
  8
Layer_1
  10
245.53839
  20
769.94335
  0
VERTEX
  5
2d4
  8
Layer_1
  10
245.50872
  20
769.16407
  0
VERTEX
  5
2d5
  8
Layer_1
  10
245.51253
  20
768.36839
  0
VERTEX
  5
2d6
  8
Layer_1
  10
245.54733
  20
767.57472
  0
VERTEX
  5
2d7
  8
Layer_1
  10
245.6238
  20
766.78419
  0
VERTEX
  5
2d8
  8
Layer_1
  10
245.75263
  20
765.99791
  0
VERTEX
  5
2d9
  8
Layer_1
  10
245.87776
  20
765.48171
  0
VERTEX
  5
2da
  8
Layer_1
  10
246.03873
  20
764.98325
  0
VERTEX
  5
2db
  8
Layer_1
  10
246.23286
  20
764.50117
  0
VERTEX
  5
2dc
  8
Layer_1
  10
246.45749
  20
764.03416
  0
VERTEX
  5
2dd
  8
Layer_1
  10
246.70994
  20
763.58088
  0
VERTEX
  5
2de
  8
Layer_1
  10
246.98753
  20
763.13999
  0
VERTEX
  5
2df
  8
Layer_1
  10
247.2876
  20
762.71017
  0
VERTEX
  5
2e0
  8
Layer_1
  10
247.60746
  20
762.29008
  0
VERTEX
  5
2e1
  8
Layer_1
  10
247.68674
  20
762.18488
  0
VERTEX
  5
2e2
  8
Layer_1
  10
247.54977
  20
762.09161
  0
VERTEX
  5
2e3
  8
Layer_1
  10
243.88931
  20
759.7027
  42
-0.0081355349
  0
VERTEX
  5
2e4
  8
Layer_1
  10
242.46097
  20
758.78796
  42
-0.19074848
  0
VERTEX
  5
2e5
  8
Layer_1
  10
240.82239
  20
758.52014
  0
VERTEX
  5
2e6
  8
Layer_1
  10
240.45401
  20
758.62182
  0
VERTEX
  5
2e7
  8
Layer_1
  10
240.11996
  20
758.76175
  0
VERTEX
  5
2e8
  8
Layer_1
  10
239.82137
  20
758.93991
  0
VERTEX
  5
2e9
  8
Layer_1
  10
239.55934
  20
759.15625
  0
VERTEX
  5
2ea
  8
Layer_1
  10
239.33498
  20
759.41069
  0
VERTEX
  5
2eb
  8
Layer_1
  10
239.1494
  20
759.7032
  0
VERTEX
  5
2ec
  8
Layer_1
  10
239.00373
  20
760.03371
  0
VERTEX
  5
2ed
  8
Layer_1
  10
238.89906
  20
760.40216
  42
-0.29045028
  0
VERTEX
  5
2ee
  8
Layer_1
  10
239.78442
  20
762.83655
  0
VERTEX
  5
2ef
  8
Layer_1
  10
240.0968
  20
763.04403
  0
VERTEX
  5
2f0
  8
Layer_1
  10
240.41695
  20
763.19648
  0
VERTEX
  5
2f1
  8
Layer_1
  10
240.74389
  20
763.29519
  0
VERTEX
  5
2f2
  8
Layer_1
  10
241.07661
  20
763.34141
  0
VERTEX
  5
2f3
  8
Layer_1
  10
241.41411
  20
763.33641
  0
VERTEX
  5
2f4
  8
Layer_1
  10
241.7554
  20
763.28144
  0
VERTEX
  5
2f5
  8
Layer_1
  10
242.09947
  20
763.17777
  0
VERTEX
  5
2f6
  8
Layer_1
  10
242.44533
  20
763.02666
  42
-0.059860812
  0
VERTEX
  5
2f7
  8
Layer_1
  10
242.86703
  20
762.74683
  42
0.32257112
  0
VERTEX
  5
2f8
  8
Layer_1
  10
244.13324
  20
762.6261
  0
VERTEX
  5
2f9
  8
Layer_1
  10
244.18369
  20
762.65601
  42
0.50874912
  0
VERTEX
  5
2fa
  8
Layer_1
  10
244.32904
  20
764.36584
  0
VERTEX
  5
2fb
  8
Layer_1
  10
244.02339
  20
764.61141
  0
VERTEX
  5
2fc
  8
Layer_1
  10
243.67176
  20
764.8477
  0
VERTEX
  5
2fd
  8
Layer_1
  10
243.27348
  20
765.06384
  0
VERTEX
  5
2fe
  8
Layer_1
  10
242.82785
  20
765.24898
  0
VERTEX
  5
2ff
  8
Layer_1
  10
242.33419
  20
765.39225
  0
VERTEX
  5
300
  8
Layer_1
  10
241.7918
  20
765.4828
  0
VERTEX
  5
301
  8
Layer_1
  10
241.2
  20
765.50976
  0
VERTEX
  5
302
  8
Layer_1
  10
240.5581
  20
765.46228
  0
VERTEX
  5
303
  8
Layer_1
  10
240.05631
  20
765.36665
  0
VERTEX
  5
304
  8
Layer_1
  10
239.57957
  20
765.21812
  0
VERTEX
  5
305
  8
Layer_1
  10
239.13014
  20
765.0204
  0
VERTEX
  5
306
  8
Layer_1
  10
238.71025
  20
764.77723
  0
VERTEX
  5
307
  8
Layer_1
  10
238.32215
  20
764.49233
  0
VERTEX
  5
308
  8
Layer_1
  10
237.9681
  20
764.16943
  0
VERTEX
  5
309
  8
Layer_1
  10
237.65034
  20
763.81225
  0
VERTEX
  5
30a
  8
Layer_1
  10
237.37112
  20
763.42454
  0
VERTEX
  5
30b
  8
Layer_1
  10
237.13268
  20
763.01
  0
VERTEX
  5
30c
  8
Layer_1
  10
236.93728
  20
762.57237
  0
VERTEX
  5
30d
  8
Layer_1
  10
236.78715
  20
762.11538
  0
VERTEX
  5
30e
  8
Layer_1
  10
236.68455
  20
761.64275
  0
VERTEX
  5
30f
  8
Layer_1
  10
236.63172
  20
761.15822
  0
VERTEX
  5
310
  8
Layer_1
  10
236.63091
  20
760.6655
  0
VERTEX
  5
311
  8
Layer_1
  10
236.68437
  20
760.16832
  0
VERTEX
  5
312
  8
Layer_1
  10
236.79434
  20
759.67042
  42
0.36605318
  0
VERTEX
  5
313
  8
Layer_1
  10
241.7594
  20
756.30695
  0
VERTEX
  5
314
  8
Layer_1
  10
242.29864
  20
756.38909
  0
VERTEX
  5
315
  8
Layer_1
  10
242.82154
  20
756.52547
  0
VERTEX
  5
316
  8
Layer_1
  10
243.32395
  20
756.72327
  0
VERTEX
  5
317
  8
Layer_1
  10
243.80169
  20
756.98966
  42
0.0013691997
  0
VERTEX
  5
318
  8
Layer_1
  10
246.94794
  20
759.06177
  42
-0.00084982254
  0
VERTEX
  5
319
  8
Layer_1
  10
249.36255
  20
760.65088
  0
VERTEX
  5
31a
  8
Layer_1
  10
249.43029
  20
760.69297
  0
VERTEX
  5
31b
  8
Layer_1
  10
249.46828
  20
760.71537
  0
VERTEX
  5
31c
  8
Layer_1
  10
249.51324
  20
760.6845
  0
VERTEX
  5
31d
  8
Layer_1
  10
249.636
  20
760.60018
  0
VERTEX
  5
31e
  8
Layer_1
  10
249.81842
  20
760.47489
  0
VERTEX
  5
31f
  8
Layer_1
  10
250.04236
  20
760.32111
  0
VERTEX
  5
320
  8
Layer_1
  10
250.5422
  20
759.97793
  0
VERTEX
  5
321
  8
Layer_1
  10
250.99035
  20
759.67042
  42
-0.0069760418
  0
VERTEX
  5
322
  8
Layer_1
  10
250.63715
  20
759.44556
  0
VERTEX
  5
323
  8
Layer_1
  10
249.63249
  20
758.76269
  0
VERTEX
  5
324
  8
Layer_1
  10
248.60858
  20
758.06073
  0
VERTEX
  5
325
  8
Layer_1
  10
247.55022
  20
757.33678
  0
VERTEX
  5
326
  8
Layer_1
  10
246.44217
  20
756.58796
  0
VERTEX
  5
327
  8
Layer_1
  10
245.91761
  20
756.23642
  0
VERTEX
  5
328
  8
Layer_1
  10
245.39371
  20
755.87426
  0
VERTEX
  5
329
  8
Layer_1
  10
244.88287
  20
755.49351
  0
VERTEX
  5
32a
  8
Layer_1
  10
244.39747
  20
755.08619
  0
VERTEX
  5
32b
  8
Layer_1
  10
243.96131
  20
754.6521
  0
VERTEX
  5
32c
  8
Layer_1
  10
243.58785
  20
754.19253
  0
VERTEX
  5
32d
  8
Layer_1
  10
243.27954
  20
753.70712
  0
VERTEX
  5
32e
  8
Layer_1
  10
243.03882
  20
753.1955
  0
VERTEX
  5
32f
  8
Layer_1
  10
242.86815
  20
752.65733
  0
VERTEX
  5
330
  8
Layer_1
  10
242.76998
  20
752.09222
  0
VERTEX
  5
331
  8
Layer_1
  10
242.74676
  20
751.49983
  0
VERTEX
  5
332
  8
Layer_1
  10
242.80094
  20
750.8798
  0
VERTEX
  5
333
  8
Layer_1
  10
242.89501
  20
750.41231
  0
VERTEX
  5
334
  8
Layer_1
  10
243.03434
  20
749.96457
  0
VERTEX
  5
335
  8
Layer_1
  10
243.21609
  20
749.5388
  0
VERTEX
  5
336
  8
Layer_1
  10
243.4374
  20
749.1372
  0
VERTEX
  5
337
  8
Layer_1
  10
243.69546
  20
748.76199
  0
VERTEX
  5
338
  8
Layer_1
  10
243.98741
  20
748.41537
  0
VERTEX
  5
339
  8
Layer_1
  10
244.31042
  20
748.09955
  0
VERTEX
  5
33a
  8
Layer_1
  10
244.66165
  20
747.81675
  0
VERTEX
  5
33b
  8
Layer_1
  10
245.03827
  20
747.56918
  0
VERTEX
  5
33c
  8
Layer_1
  10
245.43742
  20
747.35904
  0
VERTEX
  5
33d
  8
Layer_1
  10
245.85628
  20
747.18855
  0
VERTEX
  5
33e
  8
Layer_1
  10
246.29201
  20
747.05991
  0
VERTEX
  5
33f
  8
Layer_1
  10
246.74176
  20
746.97534
  0
VERTEX
  5
340
  8
Layer_1
  10
247.2027
  20
746.93705
  0
VERTEX
  5
341
  8
Layer_1
  10
247.672
  20
746.94724
  0
VERTEX
  5
342
  8
Layer_1
  10
248.1468
  20
747.00814
  0
VERTEX
  5
343
  8
Layer_1
  10
248.65215
  20
747.12451
  0
VERTEX
  5
344
  8
Layer_1
  10
249.11262
  20
747.27743
  0
VERTEX
  5
345
  8
Layer_1
  10
249.53017
  20
747.46188
  0
VERTEX
  5
346
  8
Layer_1
  10
249.90678
  20
747.67282
  0
VERTEX
  5
347
  8
Layer_1
  10
250.24442
  20
747.90523
  0
VERTEX
  5
348
  8
Layer_1
  10
250.54505
  20
748.15406
  0
VERTEX
  5
349
  8
Layer_1
  10
250.81066
  20
748.41431
  0
VERTEX
  5
34a
  8
Layer_1
  10
251.0432
  20
748.68092
  0
VERTEX
  5
34b
  8
Layer_1
  10
251.30889
  20
749.04739
  0
VERTEX
  5
34c
  8
Layer_1
  10
251.52368
  20
749.42034
  0
VERTEX
  5
34d
  8
Layer_1
  10
251.69262
  20
749.79698
  0
VERTEX
  5
34e
  8
Layer_1
  10
251.82079
  20
750.17447
  0
VERTEX
  5
34f
  8
Layer_1
  10
251.91326
  20
750.55
  0
VERTEX
  5
350
  8
Layer_1
  10
251.97508
  20
750.92075
  0
VERTEX
  5
351
  8
Layer_1
  10
252.01134
  20
751.28391
  0
VERTEX
  5
352
  8
Layer_1
  10
252.0271
  20
751.63666
  42
0.086322389
  0
VERTEX
  5
353
  8
Layer_1
  10
251.80966
  20
753.04028
  42
0.5044215
  0
VERTEX
  5
354
  8
Layer_1
  10
250.1795
  20
753.55811
  0
VERTEX
  5
355
  8
Layer_1
  10
250.10855
  20
753.50665
  0
VERTEX
  5
356
  8
Layer_1
  10
250.10617
  20
753.50427
  0
SEQEND
  0
POLYLINE
  5
358
  8
Layer_1
  62
206
  66
1
  10
0
  20
0
  30
0
  0
VERTEX
  5
358
  8
Layer_1
  10
253.68857
  20
761.51648
  42
-0.0045819184
  0
VERTEX
  5
359
  8
Layer_1
  10
253.01099
  20
761.05499
  42
-0.29942208
  0
VERTEX
  5
35a
  8
Layer_1
  10
252.87762
  20
761.03943
  42
-0.0027562581
  0
VERTEX
  5
35b
  8
Layer_1
  10
251.44205
  20
762.02112
  0
VERTEX
  5
35c
  8
Layer_1
  10
251.91776
  20
762.33435
  42
-0.0047669306
  0
VERTEX
  5
35d
  8
Layer_1
  10
252.83197
  20
762.93219
  42
-0.28804289
  0
VERTEX
  5
35e
  8
Layer_1
  10
252.99295
  20
762.94055
  42
-0.0031121047
  0
VERTEX
  5
35f
  8
Layer_1
  10
254.40448
  20
762.00555
  0
VERTEX
  5
360
  8
Layer_1
  10
253.68857
  20
761.51648
  0
SEQEND
  0
POLYLINE
  5
362
  8
Layer_1
  62
206
  66
1
  10
0
  20
0
  30
0
  0
VERTEX
  5
362
  8
Layer_1
  10
254.28436
  20
767.45782
  42
-0.19636764
  0
VERTEX
  5
363
  8
Layer_1
  10
252.99896
  20
765.68463
  42
-0.29378426
  0
VERTEX
  5
364
  8
Layer_1
  10
252.83798
  20
765.69061
  0
VERTEX
  5
365
  8
Layer_1
  10
252.57767
  20
765.87307
  0
VERTEX
  5
366
  8
Layer_1
  10
252.34343
  20
766.07347
  0
VERTEX
  5
367
  8
Layer_1
  10
252.13632
  20
766.29195
  0
VERTEX
  5
368
  8
Layer_1
  10
251.95743
  20
766.52863
  0
VERTEX
  5
369
  8
Layer_1
  10
251.80782
  20
766.78364
  0
VERTEX
  5
36a
  8
Layer_1
  10
251.68856
  20
767.0571
  0
VERTEX
  5
36b
  8
Layer_1
  10
251.60074
  20
767.34914
  0
VERTEX
  5
36c
  8
Layer_1
  10
251.54541
  20
767.65988
  42
-0.033694863
  0
VERTEX
  5
36d
  8
Layer_1
  10
251.45767
  20
769.4881
  0
VERTEX
  5
36e
  8
Layer_1
  10
251.49184
  20
769.7625
  0
VERTEX
  5
36f
  8
Layer_1
  10
251.58166
  20
770.02035
  0
VERTEX
  5
370
  8
Layer_1
  10
251.72027
  20
770.25562
  0
VERTEX
  5
371
  8
Layer_1
  10
251.90081
  20
770.46227
  0
VERTEX
  5
372
  8
Layer_1
  10
252.11644
  20
770.63428
  0
VERTEX
  5
373
  8
Layer_1
  10
252.36029
  20
770.76563
  0
VERTEX
  5
374
  8
Layer_1
  10
252.62551
  20
770.8503
  0
VERTEX
  5
375
  8
Layer_1
  10
252.90524
  20
770.88226
  42
-0.39359899
  0
VERTEX
  5
376
  8
Layer_1
  10
254.39011
  20
769.54431
  0
VERTEX
  5
377
  8
Layer_1
  10
254.39668
  20
769.20159
  0
VERTEX
  5
378
  8
Layer_1
  10
254.39249
  20
768.858
  0
VERTEX
  5
379
  8
Layer_1
  10
254.394
  20
768.52268
  0
VERTEX
  5
37a
  8
Layer_1
  10
254.38031
  20
768.15834
  0
VERTEX
  5
37b
  8
Layer_1
  10
254.34569
  20
767.79379
  0
VERTEX
  5
37c
  8
Layer_1
  10
254.28437
  20
767.45782
  0
SEQEND
  0
POLYLINE
  5
37e
  8
Layer_1
  62
206
  66
1
  10
0
  20
0
  30
0
  0
VERTEX
  5
37e
  8
Layer_1
  10
258.12858
  20
768.95601
  0
VERTEX
  5
37f
  8
Layer_1
  10
258.10064
  20
768.22946
  0
VERTEX
  5
380
  8
Layer_1
  10
258.04992
  20
767.50537
  0
VERTEX
  5
381
  8
Layer_1
  10
257.96135
  20
766.78531
  0
VERTEX
  5
382
  8
Layer_1
  10
257.81984
  20
766.07085
  0
VERTEX
  5
383
  8
Layer_1
  10
257.60141
  20
765.35301
  0
VERTEX
  5
384
  8
Layer_1
  10
257.29939
  20
764.68013
  0
VERTEX
  5
385
  8
Layer_1
  10
257.11458
  20
764.36184
  0
VERTEX
  5
386
  8
Layer_1
  10
256.90592
  20
764.05634
  0
VERTEX
  5
387
  8
Layer_1
  10
256.67244
  20
763.76414
  0
VERTEX
  5
388
  8
Layer_1
  10
256.41315
  20
763.48578
  0
VERTEX
  5
389
  8
Layer_1
  10
256.30258
  20
763.38055
  0
VERTEX
  5
38a
  8
Layer_1
  10
254.897
  20
764.31683
  0
VERTEX
  5
38b
  8
Layer_1
  10
255.28868
  20
764.76607
  0
VERTEX
  5
38c
  8
Layer_1
  10
255.65868
  20
765.22072
  0
VERTEX
  5
38d
  8
Layer_1
  10
256.01138
  20
765.78527
  0
VERTEX
  5
38e
  8
Layer_1
  10
256.27183
  20
766.38514
  0
VERTEX
  5
38f
  8
Layer_1
  10
256.44647
  20
767.01529
  0
VERTEX
  5
390
  8
Layer_1
  10
256.54171
  20
767.67065
  42
0.026720596
  0
VERTEX
  5
391
  8
Layer_1
  10
256.60294
  20
769.55865
  0
VERTEX
  5
392
  8
Layer_1
  10
256.58089
  20
769.87498
  0
VERTEX
  5
393
  8
Layer_1
  10
256.5284
  20
770.18576
  0
VERTEX
  5
394
  8
Layer_1
  10
256.44703
  20
770.48931
  0
VERTEX
  5
395
  8
Layer_1
  10
256.33836
  20
770.78394
  0
VERTEX
  5
396
  8
Layer_1
  10
256.20395
  20
771.068
  0
VERTEX
  5
397
  8
Layer_1
  10
256.04537
  20
771.33981
  0
VERTEX
  5
398
  8
Layer_1
  10
255.86421
  20
771.5977
  0
VERTEX
  5
399
  8
Layer_1
  10
255.66201
  20
771.83999
  0
VERTEX
  5
39a
  8
Layer_1
  10
255.44036
  20
772.06503
  0
VERTEX
  5
39b
  8
Layer_1
  10
255.20082
  20
772.27113
  0
VERTEX
  5
39c
  8
Layer_1
  10
254.94497
  20
772.45662
  0
VERTEX
  5
39d
  8
Layer_1
  10
254.67436
  20
772.61984
  0
VERTEX
  5
39e
  8
Layer_1
  10
254.39059
  20
772.75911
  0
VERTEX
  5
39f
  8
Layer_1
  10
254.0952
  20
772.87276
  0
VERTEX
  5
3a0
  8
Layer_1
  10
253.78977
  20
772.95913
  0
VERTEX
  5
3a1
  8
Layer_1
  10
253.47588
  20
773.01653
  0
VERTEX
  5
3a2
  8
Layer_1
  10
253.09974
  20
773.04914
  0
VERTEX
  5
3a3
  8
Layer_1
  10
252.73108
  20
773.04686
  0
VERTEX
  5
3a4
  8
Layer_1
  10
252.37157
  20
773.01088
  0
VERTEX
  5
3a5
  8
Layer_1
  10
252.02288
  20
772.94238
  0
VERTEX
  5
3a6
  8
Layer_1
  10
251.6867
  20
772.84255
  0
VERTEX
  5
3a7
  8
Layer_1
  10
251.36469
  20
772.71256
  0
VERTEX
  5
3a8
  8
Layer_1
  10
251.05854
  20
772.55359
  0
VERTEX
  5
3a9
  8
Layer_1
  10
250.76991
  20
772.36684
  0
VERTEX
  5
3aa
  8
Layer_1
  10
250.50049
  20
772.15348
  0
VERTEX
  5
3ab
  8
Layer_1
  10
250.25194
  20
771.91469
  0
VERTEX
  5
3ac
  8
Layer_1
  10
250.02595
  20
771.65166
  0
VERTEX
  5
3ad
  8
Layer_1
  10
249.82419
  20
771.36556
  0
VERTEX
  5
3ae
  8
Layer_1
  10
249.64833
  20
771.05759
  0
VERTEX
  5
3af
  8
Layer_1
  10
249.50004
  20
770.72892
  0
VERTEX
  5
3b0
  8
Layer_1
  10
249.38101
  20
770.38074
  0
VERTEX
  5
3b1
  8
Layer_1
  10
249.29291
  20
770.01422
  42
0.042034852
  0
VERTEX
  5
3b2
  8
Layer_1
  10
249.24478
  20
769.56342
  0
VERTEX
  5
3b3
  8
Layer_1
  10
249.23656
  20
768.87787
  0
VERTEX
  5
3b4
  8
Layer_1
  10
249.25729
  20
768.19423
  0
VERTEX
  5
3b5
  8
Layer_1
  10
249.32373
  20
767.51394
  0
VERTEX
  5
3b6
  8
Layer_1
  10
249.45266
  20
766.83847
  42
0.14304652
  0
VERTEX
  5
3b7
  8
Layer_1
  10
250.84622
  20
764.45905
  42
0.024177362
  0
VERTEX
  5
3b8
  8
Layer_1
  10
250.98077
  20
764.35144
  0
VERTEX
  5
3b9
  8
Layer_1
  10
249.56079
  20
763.41528
  42
-0.033351614
  0
VERTEX
  5
3ba
  8
Layer_1
  10
249.48871
  20
763.47742
  0
VERTEX
  5
3bb
  8
Layer_1
  10
248.94011
  20
764.1787
  0
VERTEX
  5
3bc
  8
Layer_1
  10
248.4751
  20
764.92313
  0
VERTEX
  5
3bd
  8
Layer_1
  10
248.28089
  20
765.31493
  0
VERTEX
  5
3be
  8
Layer_1
  10
248.11594
  20
765.7216
  0
VERTEX
  5
3bf
  8
Layer_1
  10
247.98304
  20
766.14449
  0
VERTEX
  5
3c0
  8
Layer_1
  10
247.88495
  20
766.58497
  0
VERTEX
  5
3c1
  8
Layer_1
  10
247.78231
  20
767.30209
  0
VERTEX
  5
3c2
  8
Layer_1
  10
247.72439
  20
768.02203
  0
VERTEX
  5
3c3
  8
Layer_1
  10
247.705
  20
768.74444
  0
VERTEX
  5
3c4
  8
Layer_1
  10
247.71795
  20
769.46896
  0
VERTEX
  5
3c5
  8
Layer_1
  10
247.75283
  20
769.99306
  0
VERTEX
  5
3c6
  8
Layer_1
  10
247.82669
  20
770.50952
  0
VERTEX
  5
3c7
  8
Layer_1
  10
247.95279
  20
771.01386
  0
VERTEX
  5
3c8
  8
Layer_1
  10
248.14442
  20
771.50161
  0
VERTEX
  5
3c9
  8
Layer_1
  10
248.46327
  20
772.08792
  0
VERTEX
  5
3ca
  8
Layer_1
  10
248.82972
  20
772.61496
  0
VERTEX
  5
3cb
  8
Layer_1
  10
249.24384
  20
773.08171
  0
VERTEX
  5
3cc
  8
Layer_1
  10
249.70569
  20
773.48719
  0
VERTEX
  5
3cd
  8
Layer_1
  10
250.21536
  20
773.8304
  0
VERTEX
  5
3ce
  8
Layer_1
  10
250.7729
  20
774.11034
  0
VERTEX
  5
3cf
  8
Layer_1
  10
251.37838
  20
774.32603
  0
VERTEX
  5
3d0
  8
Layer_1
  10
252.03187
  20
774.47647
  42
-0.36069855
  0
VERTEX
  5
3d1
  8
Layer_1
  10
257.80545
  20
771.17999
  0
VERTEX
  5
3d2
  8
Layer_1
  10
257.9725
  20
770.63626
  0
VERTEX
  5
3d3
  8
Layer_1
  10
258.07604
  20
770.08368
  0
VERTEX
  5
3d4
  8
Layer_1
  10
258.12507
  20
769.52326
  0
VERTEX
  5
3d5
  8
Layer_1
  10
258.12858
  20
768.95601
  0
SEQEND
  0
POLYLINE
  5
3d7
  8
Layer_0
  62
0
  66
1
  10
0
  20
0
  30
0
  0
VERTEX
  5
3d7
  8
Layer_0
  10
212.87173
  20
699.28131
  0
VERTEX
  5
3d8
  8
Layer_0
  10
213
  20
719.75
  0
VERTEX
  5
3d9
  8
Layer_0
  10
192.5
  20
719.75
  42
-0.41421351
  0
VERTEX
  5
3da
  8
Layer_0
  10
187.5
  20
724.75
  0
VERTEX
  5
3db
  8
Layer_0
  10
187.5
  20
790.75
  42
-0.41421356
  0
VERTEX
  5
3dc
  8
Layer_0
  10
192.5
  20
795.75
  0
VERTEX
  5
3dd
  8
Layer_0
  10
295.5
  20
795.75
  0
VERTEX
  5
3de
  8
Layer_0
  10
313.5
  20
795.75
  42
-0.41421356
  0
VERTEX
  5
3df
  8
Layer_0
  10
318.5
  20
790.75
  0
VERTEX
  5
3e0
  8
Layer_0
  10
318.5
  20
724.75
  42
-0.41421356
  0
VERTEX
  5
3e1
  8
Layer_0
  10
313.5
  20
719.75
  0
VERTEX
  5
3e2
  8
Layer_0
  10
293
  20
719.75
  0
VERTEX
  5
3e3
  8
Layer_0
  10
293.12827
  20
699.28131
  42
-0.19972833
  0
VERTEX
  5
3e4
  8
Layer_0
  10
291.67496
  20
695.72559
  42
-0.1997254
  0
VERTEX
  5
3e5
  8
Layer_0
  10
288.12836
  20
694.25
  0
VERTEX
  5
3e6
  8
Layer_0
  10
217.87164
  20
694.25
  42
-0.1997254
  0
VERTEX
  5
3e7
  8
Layer_0
  10
214.32504
  20
695.72559
  42
-0.19972776
  0
VERTEX
  5
3e8
  8
Layer_0
  10
212.87173
  20
699.28131
  0
SEQEND
  0
ENDSEC
  0
EOF
