  0
SECTION
  2
HEADER
  9
$ACADVER
  1
AC1009
  0
ENDSEC
  0
SECTION
  2
ENTITIES
  0
POLYLINE
  5
90
  8
Layer_0
  62
0
  66
1
  10
0
  20
0
  30
0
  0
VERTEX
  5
90
  8
Layer_0
  10
355.89386
  20
677.52161
  42
-0.043676364
  0
VERTEX
  5
91
  8
Layer_0
  10
352.74988
  20
677.51062
  42
0.020571405
  0
VERTEX
  5
92
  8
Layer_0
  10
352.29659
  20
677.53003
  0
VERTEX
  5
93
  8
Layer_0
  10
348.88068
  20
677.53003
  42
0.029144844
  0
VERTEX
  5
94
  8
Layer_0
  10
348.64357
  20
677.51593
  42
-0.056386725
  0
VERTEX
  5
95
  8
Layer_0
  10
344.59898
  20
677.49097
  42
0.02616744
  0
VERTEX
  5
96
  8
Layer_0
  10
343.87115
  20
677.53003
  0
VERTEX
  5
97
  8
Layer_0
  10
340.47711
  20
677.53003
  42
0.36661045
  0
VERTEX
  5
98
  8
Layer_0
  10
338.50406
  20
675.85864
  42
-0.16829961
  0
VERTEX
  5
99
  8
Layer_0
  10
332.87018
  20
665.50916
  42
0.21102145
  0
VERTEX
  5
9a
  8
Layer_0
  10
332.21716
  20
664.03064
  0
VERTEX
  5
9b
  8
Layer_0
  10
332.21716
  20
662.41846
  42
0.097722435
  0
VERTEX
  5
9c
  8
Layer_0
  10
332.36707
  20
661.65857
  42
-0.30595372
  0
VERTEX
  5
9d
  8
Layer_0
  10
328.28479
  20
641.93652
  42
0.013255826
  0
VERTEX
  5
9e
  8
Layer_0
  10
327.87057
  20
641.52832
  42
0.16192396
  0
VERTEX
  5
9f
  8
Layer_0
  10
326.58716
  20
638.76013
  42
0.083935363
  0
VERTEX
  5
a0
  8
Layer_0
  10
326.67398
  20
637.01147
  42
0.11331373
  0
VERTEX
  5
a1
  8
Layer_0
  10
327.60846
  20
635.06512
  42
0.086318072
  0
VERTEX
  5
a2
  8
Layer_0
  10
328.90179
  20
633.91364
  42
0.11134912
  0
VERTEX
  5
a3
  8
Layer_0
  10
330.91257
  20
633.22754
  42
0.061931131
  0
VERTEX
  5
a4
  8
Layer_0
  10
332.2034
  20
633.24304
  42
-0.066658464
  0
VERTEX
  5
a5
  8
Layer_0
  10
336.98151
  20
633.24414
  42
0.062104578
  0
VERTEX
  5
a6
  8
Layer_0
  10
338.33298
  20
633.23212
  42
-0.045331227
  0
VERTEX
  5
a7
  8
Layer_0
  10
341.58838
  20
633.3136
  0
VERTEX
  5
a8
  8
Layer_0
  10
341.71957
  20
633.30933
  0
VERTEX
  5
a9
  8
Layer_0
  10
342.83716
  20
633.30933
  0
VERTEX
  5
aa
  8
Layer_0
  10
342.98718
  20
633.31506
  42
-0.048834324
  0
VERTEX
  5
ab
  8
Layer_0
  10
346.50256
  20
633.23492
  42
0.063556848
  0
VERTEX
  5
ac
  8
Layer_0
  10
347.86075
  20
633.24341
  42
-0.066604534
  0
VERTEX
  5
ad
  8
Layer_0
  10
352.63847
  20
633.24377
  42
0.05873925
  0
VERTEX
  5
ae
  8
Layer_0
  10
353.90846
  20
633.22363
  42
-0.032563485
  0
VERTEX
  5
af
  8
Layer_0
  10
356.20886
  20
633.31006
  0
VERTEX
  5
b0
  8
Layer_0
  10
356.29497
  20
633.30933
  0
VERTEX
  5
b1
  8
Layer_0
  10
357.41508
  20
633.30933
  0
VERTEX
  5
b2
  8
Layer_0
  10
357.53384
  20
633.31293
  42
-0.029730527
  0
VERTEX
  5
b3
  8
Layer_0
  10
359.67775
  20
633.3125
  0
VERTEX
  5
b4
  8
Layer_0
  10
359.79695
  20
633.30908
  0
VERTEX
  5
b5
  8
Layer_0
  10
361.00459
  20
633.30908
  0
VERTEX
  5
b6
  8
Layer_0
  10
361.15167
  20
633.31464
  42
-0.036488873
  0
VERTEX
  5
b7
  8
Layer_0
  10
363.77559
  20
633.31604
  42
0.020112369
  0
VERTEX
  5
b8
  8
Layer_0
  10
364.00987
  20
633.30859
  42
-0.027006562
  0
VERTEX
  5
b9
  8
Layer_0
  10
365.95045
  20
633.21832
  42
0.04585505
  0
VERTEX
  5
ba
  8
Layer_0
  10
366.46419
  20
633.21375
  42
-0.041595527
  0
VERTEX
  5
bb
  8
Layer_0
  10
369.45428
  20
633.21484
  42
0.050597835
  0
VERTEX
  5
bc
  8
Layer_0
  10
370.55286
  20
633.23425
  42
-0.059610303
  0
VERTEX
  5
bd
  8
Layer_0
  10
374.82747
  20
633.23425
  42
0.057171411
  0
VERTEX
  5
be
  8
Layer_0
  10
376.05409
  20
633.22784
  42
-0.039580525
  0
VERTEX
  5
bf
  8
Layer_0
  10
378.90169
  20
633.31183
  0
VERTEX
  5
c0
  8
Layer_0
  10
379.00116
  20
633.30933
  0
VERTEX
  5
c1
  8
Layer_0
  10
380.11946
  20
633.30933
  0
VERTEX
  5
c2
  8
Layer_0
  10
380.28558
  20
633.31604
  42
-0.041585678
  0
VERTEX
  5
c3
  8
Layer_0
  10
383.27539
  20
633.31604
  0
VERTEX
  5
c4
  8
Layer_0
  10
383.44157
  20
633.30933
  0
VERTEX
  5
c5
  8
Layer_0
  10
384.55177
  20
633.30933
  42
0.19876441
  0
VERTEX
  5
c6
  8
Layer_0
  10
385.96609
  20
633.89496
  42
0.19891237
  0
VERTEX
  5
c7
  8
Layer_0
  10
386.55167
  20
635.3092
  0
VERTEX
  5
c8
  8
Layer_0
  10
386.55167
  20
640.9812
  42
0.19655362
  0
VERTEX
  5
c9
  8
Layer_0
  10
385.97879
  20
642.38245
  42
-0.22704735
  0
VERTEX
  5
ca
  8
Layer_0
  10
380.94527
  20
657.09155
  42
0.060041428
  0
VERTEX
  5
cb
  8
Layer_0
  10
380.94426
  20
657.56775
  42
-0.061110813
  0
VERTEX
  5
cc
  8
Layer_0
  10
380.94458
  20
661.94574
  42
0.16916363
  0
VERTEX
  5
cd
  8
Layer_0
  10
380.66626
  20
663.22705
  42
0.046793817
  0
VERTEX
  5
ce
  8
Layer_0
  10
380.02248
  20
664.10962
  42
-0.17648021
  0
VERTEX
  5
cf
  8
Layer_0
  10
375.51706
  20
675.57953
  42
0.40691699
  0
VERTEX
  5
d0
  8
Layer_0
  10
373.51758
  20
677.53003
  0
VERTEX
  5
d1
  8
Layer_0
  10
371.57587
  20
677.53003
  0
VERTEX
  5
d2
  8
Layer_0
  10
371.42917
  20
677.52441
  42
-0.036721383
  0
VERTEX
  5
d3
  8
Layer_0
  10
368.79068
  20
677.52441
  0
VERTEX
  5
d4
  8
Layer_0
  10
368.64395
  20
677.53003
  0
VERTEX
  5
d5
  8
Layer_0
  10
366.98766
  20
677.53003
  0
VERTEX
  5
d6
  8
Layer_0
  10
366.40308
  20
677.51984
  42
-0.0096515954
  0
VERTEX
  5
d7
  8
Layer_0
  10
365.741
  20
677.52936
  0
VERTEX
  5
d8
  8
Layer_0
  10
365.66827
  20
677.53003
  0
VERTEX
  5
d9
  8
Layer_0
  10
363.99008
  20
677.53003
  42
0.023071421
  0
VERTEX
  5
da
  8
Layer_0
  10
363.80698
  20
677.52161
  42
-0.045890717
  0
VERTEX
  5
db
  8
Layer_0
  10
360.50929
  20
677.52161
  42
0.022910971
  0
VERTEX
  5
dc
  8
Layer_0
  10
360.32578
  20
677.53003
  0
VERTEX
  5
dd
  8
Layer_0
  10
359.07239
  20
677.53003
  0
VERTEX
  5
de
  8
Layer_0
  10
358.48817
  20
677.51984
  42
-0.0096500457
  0
VERTEX
  5
df
  8
Layer_0
  10
357.82639
  20
677.52936
  0
VERTEX
  5
e0
  8
Layer_0
  10
357.75366
  20
677.53003
  0
VERTEX
  5
e1
  8
Layer_0
  10
356.07558
  20
677.53003
  42
0.023210745
  0
VERTEX
  5
e2
  8
Layer_0
  10
355.89386
  20
677.52161
  0
SEQEND
  0
POLYLINE
  5
e4
  8
Layer_0
  62
0
  66
1
  10
0
  20
0
  30
0
  0
VERTEX
  5
e4
  8
Layer_0
  10
241.6637
  20
673.77197
  42
-0.015397481
  0
VERTEX
  5
e5
  8
Layer_0
  10
241.26938
  20
674.07245
  42
0.011795496
  0
VERTEX
  5
e6
  8
Layer_0
  10
240.91174
  20
674.34442
  42
-0.014814636
  0
VERTEX
  5
e7
  8
Layer_0
  10
240.45258
  20
674.71802
  42
-0.12926454
  0
VERTEX
  5
e8
  8
Layer_0
  10
235.22467
  20
682.23334
  42
0.078378947
  0
VERTEX
  5
e9
  8
Layer_0
  10
234.40564
  20
683.70087
  42
0.088530134
  0
VERTEX
  5
ea
  8
Layer_0
  10
232.91724
  20
685.03967
  42
0.10810536
  0
VERTEX
  5
eb
  8
Layer_0
  10
230.72656
  20
685.80377
  42
0.089912092
  0
VERTEX
  5
ec
  8
Layer_0
  10
228.61938
  20
685.69086
  42
0.11679187
  0
VERTEX
  5
ed
  8
Layer_0
  10
226.39197
  20
684.55634
  42
0.037527079
  0
VERTEX
  5
ee
  8
Layer_0
  10
225.78284
  20
683.95905
  42
-0.13505267
  0
VERTEX
  5
ef
  8
Layer_0
  10
217.79138
  20
678.73022
  42
0.15379461
  0
VERTEX
  5
f0
  8
Layer_0
  10
216.81097
  20
678.03632
  42
-0.091200815
  0
VERTEX
  5
f1
  8
Layer_0
  10
211.99554
  20
673.64954
  42
0.25899915
  0
VERTEX
  5
f2
  8
Layer_0
  10
211.05286
  20
671.95154
  0
VERTEX
  5
f3
  8
Layer_0
  10
211.05286
  20
671.09827
  0
VERTEX
  5
f4
  8
Layer_0
  10
211.0683
  20
670.62866
  42
-0.019760474
  0
VERTEX
  5
f5
  8
Layer_0
  10
211.05518
  20
669.25073
  0
VERTEX
  5
f6
  8
Layer_0
  10
211.05325
  20
669.17096
  0
VERTEX
  5
f7
  8
Layer_0
  10
211.05475
  20
668.12854
  0
VERTEX
  5
f8
  8
Layer_0
  10
211.05258
  20
667.76721
  0
VERTEX
  5
f9
  8
Layer_0
  10
211.05258
  20
665.04633
  0
VERTEX
  5
fa
  8
Layer_0
  10
211.06128
  20
664.60114
  42
-0.0098630649
  0
VERTEX
  5
fb
  8
Layer_0
  10
211.05359
  20
663.71179
  42
0.0040828226
  0
VERTEX
  5
fc
  8
Layer_0
  10
211.05286
  20
662.79523
  0
VERTEX
  5
fd
  8
Layer_0
  10
211.07367
  20
662.34937
  42
-0.026638431
  0
VERTEX
  5
fe
  8
Layer_0
  10
211.05658
  20
660.43262
  0
VERTEX
  5
ff
  8
Layer_0
  10
211.05273
  20
660.30853
  0
VERTEX
  5
100
  8
Layer_0
  10
211.05273
  20
659.32922
  0
VERTEX
  5
101
  8
Layer_0
  10
211.06567
  20
658.87695
  42
-0.015470787
  0
VERTEX
  5
102
  8
Layer_0
  10
211.05286
  20
657.63025
  0
VERTEX
  5
103
  8
Layer_0
  10
211.05273
  20
657.62146
  0
VERTEX
  5
104
  8
Layer_0
  10
211.05273
  20
656.60504
  0
VERTEX
  5
105
  8
Layer_0
  10
211.05618
  20
656.48792
  42
-0.040779028
  0
VERTEX
  5
106
  8
Layer_0
  10
210.98907
  20
653.55847
  42
0.049820176
  0
VERTEX
  5
107
  8
Layer_0
  10
210.98495
  20
652.61615
  42
-0.031146779
  0
VERTEX
  5
108
  8
Layer_0
  10
211.05325
  20
650.31293
  0
VERTEX
  5
109
  8
Layer_0
  10
211.05298
  20
649.37592
  42
-0.0064563128
  0
VERTEX
  5
10a
  8
Layer_0
  10
211.06787
  20
648.59802
  42
-0.009812193
  0
VERTEX
  5
10b
  8
Layer_0
  10
211.05368
  20
647.87305
  0
VERTEX
  5
10c
  8
Layer_0
  10
211.05286
  20
647.79761
  0
VERTEX
  5
10d
  8
Layer_0
  10
211.05273
  20
645.63434
  0
VERTEX
  5
10e
  8
Layer_0
  10
211.06317
  20
645.25305
  42
-0.016556844
  0
VERTEX
  5
10f
  8
Layer_0
  10
211.05389
  20
644.07086
  0
VERTEX
  5
110
  8
Layer_0
  10
211.05273
  20
644.00244
  0
VERTEX
  5
111
  8
Layer_0
  10
211.05273
  20
642.979
  42
0.30505199
  0
VERTEX
  5
112
  8
Layer_0
  10
212.29889
  20
641.12653
  42
-0.088487383
  0
VERTEX
  5
113
  8
Layer_0
  10
217.64597
  20
637.75153
  42
0.046381608
  0
VERTEX
  5
114
  8
Layer_0
  10
218.25317
  20
637.29321
  42
-0.13565886
  0
VERTEX
  5
115
  8
Layer_0
  10
224.77576
  20
630.26379
  42
0.33128079
  0
VERTEX
  5
116
  8
Layer_0
  10
226.92285
  20
629.21967
  42
-0.086496179
  0
VERTEX
  5
117
  8
Layer_0
  10
233.10709
  20
629.30786
  42
0.39391965
  0
VERTEX
  5
118
  8
Layer_0
  10
235.37067
  20
630.83008
  42
-0.032355216
  0
VERTEX
  5
119
  8
Layer_0
  10
236.04468
  20
633.06134
  42
-0.19658593
  0
VERTEX
  5
11a
  8
Layer_0
  10
240.15607
  20
637.50745
  42
0.16897838
  0
VERTEX
  5
11b
  8
Layer_0
  10
242.67749
  20
639.95856
  42
-0.19654138
  0
VERTEX
  5
11c
  8
Layer_0
  10
247.23865
  20
643.94171
  42
-0.082617836
  0
VERTEX
  5
11d
  8
Layer_0
  10
253.06659
  20
644.91156
  0
VERTEX
  5
11e
  8
Layer_0
  10
256.21368
  20
644.91156
  42
0.27707138
  0
VERTEX
  5
11f
  8
Layer_0
  10
267.46518
  20
651.66364
  42
0.1359965
  0
VERTEX
  5
120
  8
Layer_0
  10
268.94757
  20
658.31213
  42
0.3355518
  0
VERTEX
  5
121
  8
Layer_0
  10
259.0567
  20
670.09662
  42
0.056201049
  0
VERTEX
  5
122
  8
Layer_0
  10
256.21686
  20
670.41705
  0
VERTEX
  5
123
  8
Layer_0
  10
252.12918
  20
670.41705
  42
-0.15637292
  0
VERTEX
  5
124
  8
Layer_0
  10
241.6637
  20
673.77197
  0
SEQEND
  0
POLYLINE
  5
126
  8
Layer_0
  62
0
  66
1
  10
0
  20
0
  30
0
  0
VERTEX
  5
126
  8
Layer_0
  10
211.09216
  20
753.63867
  0
VERTEX
  5
127
  8
Layer_0
  10
211.09216
  20
749.34534
  0
VERTEX
  5
128
  8
Layer_0
  10
211.104
  20
748.93335
  42
-0.031111532
  0
VERTEX
  5
129
  8
Layer_0
  10
211.01688
  20
746.69672
  42
0.049119618
  0
VERTEX
  5
12a
  8
Layer_0
  10
211.01389
  20
745.69733
  42
-0.028642406
  0
VERTEX
  5
12b
  8
Layer_0
  10
211.09326
  20
743.67133
  0
VERTEX
  5
12c
  8
Layer_0
  10
211.09198
  20
742.59924
  0
VERTEX
  5
12d
  8
Layer_0
  10
211.10577
  20
742.13007
  42
-0.016836677
  0
VERTEX
  5
12e
  8
Layer_0
  10
211.09467
  20
740.84344
  0
VERTEX
  5
12f
  8
Layer_0
  10
211.08905
  20
740.45044
  42
-0.018444573
  0
VERTEX
  5
130
  8
Layer_0
  10
211.01086
  20
739.05273
  42
0.042068154
  0
VERTEX
  5
131
  8
Layer_0
  10
211.00629
  20
738.58075
  42
-0.037507372
  0
VERTEX
  5
132
  8
Layer_0
  10
211.00507
  20
735.88556
  42
0.04592592
  0
VERTEX
  5
133
  8
Layer_0
  10
211.02008
  20
734.96472
  42
-0.054086838
  0
VERTEX
  5
134
  8
Layer_0
  10
211.02014
  20
731.08276
  42
0.052499151
  0
VERTEX
  5
135
  8
Layer_0
  10
211.01678
  20
730.03296
  42
-0.035661334
  0
VERTEX
  5
136
  8
Layer_0
  10
211.09381
  20
727.46783
  0
VERTEX
  5
137
  8
Layer_0
  10
211.09198
  20
727.38538
  0
VERTEX
  5
138
  8
Layer_0
  10
211.09198
  20
726.38623
  0
VERTEX
  5
139
  8
Layer_0
  10
211.09747
  20
726.23804
  42
-0.037203097
  0
VERTEX
  5
13a
  8
Layer_0
  10
211.09747
  20
723.56793
  0
VERTEX
  5
13b
  8
Layer_0
  10
211.09198
  20
723.41943
  0
VERTEX
  5
13c
  8
Layer_0
  10
211.09198
  20
722.42773
  42
0.41421356
  0
VERTEX
  5
13d
  8
Layer_0
  10
213.09204
  20
720.42786
  0
VERTEX
  5
13e
  8
Layer_0
  10
218.15808
  20
720.42786
  42
0.19657567
  0
VERTEX
  5
13f
  8
Layer_0
  10
219.55945
  20
721.0011
  42
-0.22707772
  0
VERTEX
  5
140
  8
Layer_0
  10
234.26868
  20
726.03735
  42
0.059464284
  0
VERTEX
  5
141
  8
Layer_0
  10
234.74445
  20
726.0387
  42
-0.061038898
  0
VERTEX
  5
142
  8
Layer_0
  10
239.12238
  20
726.03845
  42
0.16911622
  0
VERTEX
  5
143
  8
Layer_0
  10
240.40387
  20
726.31677
  42
0.046917879
  0
VERTEX
  5
144
  8
Layer_0
  10
241.28589
  20
726.96021
  42
-0.17650209
  0
VERTEX
  5
145
  8
Layer_0
  10
252.75647
  20
731.46594
  42
0.40691934
  0
VERTEX
  5
146
  8
Layer_0
  10
254.70657
  20
733.46545
  0
VERTEX
  5
147
  8
Layer_0
  10
254.70657
  20
735.40747
  0
VERTEX
  5
148
  8
Layer_0
  10
254.70129
  20
735.55426
  42
-0.036681938
  0
VERTEX
  5
149
  8
Layer_0
  10
254.70129
  20
738.19263
  0
VERTEX
  5
14a
  8
Layer_0
  10
254.70657
  20
738.33942
  0
VERTEX
  5
14b
  8
Layer_0
  10
254.70657
  20
739.99536
  0
VERTEX
  5
14c
  8
Layer_0
  10
254.69638
  20
740.5802
  42
-0.0096365354
  0
VERTEX
  5
14d
  8
Layer_0
  10
254.70587
  20
741.24207
  0
VERTEX
  5
14e
  8
Layer_0
  10
254.70657
  20
741.31476
  0
VERTEX
  5
14f
  8
Layer_0
  10
254.70657
  20
742.99292
  42
0.022913817
  0
VERTEX
  5
150
  8
Layer_0
  10
254.69818
  20
743.17603
  42
-0.045875226
  0
VERTEX
  5
151
  8
Layer_0
  10
254.69818
  20
746.47412
  42
0.023062769
  0
VERTEX
  5
152
  8
Layer_0
  10
254.70657
  20
746.65723
  0
VERTEX
  5
153
  8
Layer_0
  10
254.70657
  20
747.91028
  0
VERTEX
  5
154
  8
Layer_0
  10
254.69638
  20
748.49445
  42
-0.0096157213
  0
VERTEX
  5
155
  8
Layer_0
  10
254.70587
  20
749.15704
  0
VERTEX
  5
156
  8
Layer_0
  10
254.70657
  20
749.22937
  0
VERTEX
  5
157
  8
Layer_0
  10
254.70657
  20
750.90747
  42
0.023222431
  0
VERTEX
  5
158
  8
Layer_0
  10
254.69818
  20
751.08911
  42
-0.043683199
  0
VERTEX
  5
159
  8
Layer_0
  10
254.68719
  20
754.23273
  42
0.020534753
  0
VERTEX
  5
15a
  8
Layer_0
  10
254.70657
  20
754.68433
  0
VERTEX
  5
15b
  8
Layer_0
  10
254.70657
  20
758.10205
  42
0.029150447
  0
VERTEX
  5
15c
  8
Layer_0
  10
254.69244
  20
758.33911
  42
-0.056301131
  0
VERTEX
  5
15d
  8
Layer_0
  10
254.66748
  20
762.38446
  42
0.026841319
  0
VERTEX
  5
15e
  8
Layer_0
  10
254.70657
  20
763.11322
  0
VERTEX
  5
15f
  8
Layer_0
  10
254.70657
  20
766.50592
  42
0.36669631
  0
VERTEX
  5
160
  8
Layer_0
  10
253.03519
  20
768.47864
  42
-0.16833996
  0
VERTEX
  5
161
  8
Layer_0
  10
242.68588
  20
774.11353
  42
0.21115374
  0
VERTEX
  5
162
  8
Layer_0
  10
241.20734
  20
774.76624
  0
VERTEX
  5
163
  8
Layer_0
  10
239.59479
  20
774.76624
  42
0.095635078
  0
VERTEX
  5
164
  8
Layer_0
  10
238.84698
  20
774.62152
  42
-0.30509733
  0
VERTEX
  5
165
  8
Layer_0
  10
219.19165
  20
778.78436
  42
0.013295903
  0
VERTEX
  5
166
  8
Layer_0
  10
218.80237
  20
779.18292
  42
0.11927557
  0
VERTEX
  5
167
  8
Layer_0
  10
216.9599
  20
780.24133
  42
0.098323797
  0
VERTEX
  5
168
  8
Layer_0
  10
215.04889
  20
780.39655
  42
0.079962406
  0
VERTEX
  5
169
  8
Layer_0
  10
213.62567
  20
779.99084
  42
0.094753037
  0
VERTEX
  5
16a
  8
Layer_0
  10
212.22845
  20
778.96423
  42
0.16306775
  0
VERTEX
  5
16b
  8
Layer_0
  10
211.02087
  20
776.34662
  42
0.059054221
  0
VERTEX
  5
16c
  8
Layer_0
  10
211.0271
  20
775.20013
  42
-0.060444727
  0
VERTEX
  5
16d
  8
Layer_0
  10
211.02734
  20
770.86096
  42
0.057032159
  0
VERTEX
  5
16e
  8
Layer_0
  10
211.01965
  20
769.71307
  42
-0.040818146
  0
VERTEX
  5
16f
  8
Layer_0
  10
211.09515
  20
766.77893
  0
VERTEX
  5
170
  8
Layer_0
  10
211.09198
  20
766.66742
  0
VERTEX
  5
171
  8
Layer_0
  10
211.09198
  20
765.6687
  0
VERTEX
  5
172
  8
Layer_0
  10
211.09625
  20
765.53967
  42
-0.044006748
  0
VERTEX
  5
173
  8
Layer_0
  10
211.02216
  20
762.37775
  42
0.058098081
  0
VERTEX
  5
174
  8
Layer_0
  10
211.02747
  20
761.21466
  42
-0.060413024
  0
VERTEX
  5
175
  8
Layer_0
  10
211.02747
  20
756.87964
  42
0.0539784
  0
VERTEX
  5
176
  8
Layer_0
  10
211.01355
  20
755.78815
  42
-0.029030147
  0
VERTEX
  5
177
  8
Layer_0
  10
211.09296
  20
753.73645
  0
VERTEX
  5
178
  8
Layer_0
  10
211.09216
  20
753.63867
  0
SEQEND
  0
POLYLINE
  5
17a
  8
Layer_0
  62
0
  66
1
  10
0
  20
0
  30
0
  0
VERTEX
  5
17a
  8
Layer_0
  10
362.39238
  20
768.44122
  42
-0.15167113
  0
VERTEX
  5
17b
  8
Layer_0
  10
357.98729
  20
766.68121
  42
0.12953203
  0
VERTEX
  5
17c
  8
Layer_0
  10
355.41545
  20
765.78094
  42
-0.15219083
  0
VERTEX
  5
17d
  8
Layer_0
  10
350.85516
  20
764.41071
  42
-0.047051831
  0
VERTEX
  5
17e
  8
Layer_0
  10
347.49316
  20
764.76282
  42
0.31444898
  0
VERTEX
  5
17f
  8
Layer_0
  10
340.53748
  20
761.72437
  42
-0.13732287
  0
VERTEX
  5
180
  8
Layer_0
  10
333.42621
  20
755.12146
  42
0.32433294
  0
VERTEX
  5
181
  8
Layer_0
  10
328.4538
  20
745.28137
  42
0.049232966
  0
VERTEX
  5
182
  8
Layer_0
  10
328.95078
  20
743.39362
  42
0.045187161
  0
VERTEX
  5
183
  8
Layer_0
  10
329.70679
  20
741.80225
  42
0.10705142
  0
VERTEX
  5
184
  8
Layer_0
  10
332.30719
  20
739.01923
  42
0.03255198
  0
VERTEX
  5
185
  8
Layer_0
  10
333.38208
  20
738.36908
  42
-0.13432874
  0
VERTEX
  5
186
  8
Layer_0
  10
340.34558
  20
731.91644
  0
VERTEX
  5
187
  8
Layer_0
  10
340.57727
  20
731.53894
  42
0.16537567
  0
VERTEX
  5
188
  8
Layer_0
  10
343.89697
  20
728.85742
  42
0.13569818
  0
VERTEX
  5
189
  8
Layer_0
  10
347.41948
  20
728.56396
  42
-0.069887766
  0
VERTEX
  5
18a
  8
Layer_0
  10
352.42076
  20
728.8017
  42
-0.10941227
  0
VERTEX
  5
18b
  8
Layer_0
  10
355.71497
  20
727.74652
  42
0.093384552
  0
VERTEX
  5
18c
  8
Layer_0
  10
357.58087
  20
727.08295
  42
-0.10913255
  0
VERTEX
  5
18d
  8
Layer_0
  10
360.79605
  20
725.82422
  42
-0.044106603
  0
VERTEX
  5
18e
  8
Layer_0
  10
363.24536
  20
723.84869
  42
0.037516225
  0
VERTEX
  5
18f
  8
Layer_0
  10
363.92656
  20
723.29022
  42
0.12623964
  0
VERTEX
  5
190
  8
Layer_0
  10
366.48148
  20
722.34167
  42
0.079378508
  0
VERTEX
  5
191
  8
Layer_0
  10
368.37126
  20
722.43164
  42
0.11164374
  0
VERTEX
  5
192
  8
Layer_0
  10
370.55527
  20
723.43842
  42
0.058949322
  0
VERTEX
  5
193
  8
Layer_0
  10
371.52968
  20
724.38385
  42
-0.21030981
  0
VERTEX
  5
194
  8
Layer_0
  10
384.44907
  20
730.97064
  42
0.39764927
  0
VERTEX
  5
195
  8
Layer_0
  10
386.33507
  20
732.96735
  0
VERTEX
  5
196
  8
Layer_0
  10
386.33507
  20
733.93811
  0
VERTEX
  5
197
  8
Layer_0
  10
386.33188
  20
734.05676
  42
-0.029596429
  0
VERTEX
  5
198
  8
Layer_0
  10
386.33188
  20
736.18604
  0
VERTEX
  5
199
  8
Layer_0
  10
386.33507
  20
736.30463
  0
VERTEX
  5
19a
  8
Layer_0
  10
386.33539
  20
738.46216
  0
VERTEX
  5
19b
  8
Layer_0
  10
386.33188
  20
738.57751
  42
-0.028881588
  0
VERTEX
  5
19c
  8
Layer_0
  10
386.33188
  20
740.66602
  0
VERTEX
  5
19d
  8
Layer_0
  10
386.33539
  20
740.78174
  0
VERTEX
  5
19e
  8
Layer_0
  10
386.33539
  20
741.64954
  42
0.011613131
  0
VERTEX
  5
19f
  8
Layer_0
  10
386.31989
  20
742.03375
  42
-0.025122025
  0
VERTEX
  5
1a0
  8
Layer_0
  10
386.32768
  20
743.7926
  0
VERTEX
  5
1a1
  8
Layer_0
  10
386.3344
  20
743.96167
  0
VERTEX
  5
1a2
  8
Layer_0
  10
386.33397
  20
745.07996
  0
VERTEX
  5
1a3
  8
Layer_0
  10
386.33607
  20
747.28723
  0
VERTEX
  5
1a4
  8
Layer_0
  10
386.33507
  20
750.72754
  0
VERTEX
  5
1a5
  8
Layer_0
  10
386.33188
  20
750.83832
  42
-0.02958777
  0
VERTEX
  5
1a6
  8
Layer_0
  10
386.33188
  20
752.96771
  0
VERTEX
  5
1a7
  8
Layer_0
  10
386.33507
  20
753.10602
  42
0.0030951126
  0
VERTEX
  5
1a8
  8
Layer_0
  10
386.33119
  20
754.53656
  0
VERTEX
  5
1a9
  8
Layer_0
  10
386.33507
  20
754.90863
  0
VERTEX
  5
1aa
  8
Layer_0
  10
386.33507
  20
755.80615
  42
-0.0064471643
  0
VERTEX
  5
1ab
  8
Layer_0
  10
386.32054
  20
756.57983
  42
-0.0095722731
  0
VERTEX
  5
1ac
  8
Layer_0
  10
386.3344
  20
757.30121
  0
VERTEX
  5
1ad
  8
Layer_0
  10
386.33539
  20
757.37604
  0
VERTEX
  5
1ae
  8
Layer_0
  10
386.33539
  20
760.18976
  42
0.36694671
  0
VERTEX
  5
1af
  8
Layer_0
  10
384.66187
  20
762.16327
  42
-0.21558318
  0
VERTEX
  5
1b0
  8
Layer_0
  10
372.32587
  20
770.39777
  42
0.35121384
  0
VERTEX
  5
1b1
  8
Layer_0
  10
369.96577
  20
771.22644
  0
VERTEX
  5
1b2
  8
Layer_0
  10
362.98897
  20
768.77466
  42
0.085822717
  0
VERTEX
  5
1b3
  8
Layer_0
  10
362.39238
  20
768.44122
  0
SEQEND
  0
ENDSEC
  0
EOF
