<?xml version="1.0" encoding="UTF-8" standalone="no"?>
<svg xmlns="http://www.w3.org/2000/svg" xmlns:xlink="http://www.w3.org/1999/xlink" width="80.000mm" height="45.151mm" viewBox="-489.760193 -674.539185 80.000031 45.151367">
    <path transform="matrix(1,0,0,-1,-1165.093262,219.316284)" style="stroke:#000000;stroke-width:0.05mm;fill:none" d="M709.744873,848.704102L708.168091,848.704102L708.168091,850.239624L709.744873,850.239624L709.744873,848.704102z"/>
    <path transform="matrix(1,0,0,-1,-1165.093262,219.316284)" style="stroke:#000000;stroke-width:0.05mm;fill:none" d="M715.950073,868.240234L714.225098,868.240234L714.225098,850.239624L709.744995,850.239624L709.744995,848.704224L715.950073,848.704224L715.950073,868.240234z"/>
    <path transform="matrix(1,0,0,-1,-1165.093262,219.316284)" style="stroke:#000000;stroke-width:0.05mm;fill:none" d="M715.950134,893.805542L709.595947,893.805542C709.318237,893.812744,709.044556,893.736938,708.809509,893.587891C708.465637,893.360352,708.248657,892.982666,708.224426,892.569336C708.220398,892.519653,708.218384,892.469849,708.218445,892.419983L708.218445,886.615356C708.216248,886.203247,708.38208,885.808228,708.677185,885.522461C708.750977,885.448486,708.829956,885.379822,708.913391,885.317017L710.278564,884.493164L708.814209,883.544434C708.474243,883.341125,708.244995,882.992859,708.191528,882.598694C708.176086,882.498596,708.168518,882.397461,708.168823,882.296143L708.168823,875.65509C708.161621,875.375732,708.236938,875.100342,708.385254,874.864014C708.61145,874.518127,708.986877,874.299927,709.397766,874.275513C709.447205,874.271484,709.496765,874.26947,709.546387,874.269531L715.950134,874.269531L715.950134,893.805542z"/>
    <path transform="matrix(1,0,0,-1,-1165.093262,219.316284)" style="stroke:#000000;stroke-width:0.05mm;fill:none" d="M711.680969,885.217224L709.955933,886.390564L709.955933,892.270142L714.225098,892.270142L714.225098,885.217224L711.680969,885.217224z"/>
    <path transform="matrix(1,0,0,-1,-1165.093262,219.316284)" style="stroke:#000000;stroke-width:0.05mm;fill:none" d="M709.90625,875.804871L709.90625,882.55835L711.656128,883.706726L714.225098,883.706726L714.225098,875.804871L709.90625,875.804871z"/>
    <path transform="matrix(1,0,0,-1,-1165.093262,219.316284)" style="stroke:#000000;stroke-width:0.05mm;fill:none" d="M699.890747,878.613586L703.382813,878.613586L704.000366,874.269531L705.504883,874.269531L705.504883,874.319397L702.372253,893.855469L700.833862,893.855469L697.723633,874.269531L699.273132,874.269531L699.890747,878.613586z"/>
    <path transform="matrix(1,0,0,-1,-1165.093262,219.316284)" style="stroke:#000000;stroke-width:0.05mm;fill:none" d="M700.092834,880.149048L701.631226,890.734741L703.180664,880.149048L700.092834,880.149048z"/>
    <path transform="matrix(1,0,0,-1,-1165.093262,219.316284)" style="stroke:#000000;stroke-width:0.05mm;fill:none" d="M704.269531,848.705566C704.573608,848.7099,704.866089,848.830078,705.093506,849.04425C705.333984,849.275146,705.479614,849.596924,705.499146,849.940308C705.503052,849.98999,705.505005,850.039795,705.504883,850.089722L705.504883,866.854614C705.511719,867.133972,705.440308,867.409302,705.299683,867.64563C705.085083,867.991577,704.728882,868.209778,704.339111,868.23407C704.292236,868.23822,704.245239,868.240234,704.198242,868.240173L699.042114,868.240173C698.777588,868.24707,698.516968,868.171387,698.292725,868.022461C697.943054,867.782104,697.72998,867.371948,697.725098,866.930176L697.723633,866.854614L697.723633,850.089722C697.716797,849.809814,697.789551,849.53418,697.932251,849.298584C698.15094,848.953003,698.509338,848.735352,698.901123,848.710205C698.947998,848.706055,698.995056,848.703979,699.042114,848.704102L704.198242,848.704102L704.269531,848.705566z"/>
    <path transform="matrix(1,0,0,-1,-1165.093262,219.316284)" style="stroke:#000000;stroke-width:0.05mm;fill:none" d="M699.359985,850.239563L699.359985,866.704712L703.868652,866.704712L703.868652,850.239563L699.359985,850.239563z"/>
    <path transform="matrix(1,0,0,-1,-1165.093262,219.316284)" style="stroke:#000000;stroke-width:0.05mm;fill:none" d="M693.007141,848.705566C693.311218,848.709839,693.60376,848.830078,693.831177,849.04425C694.071594,849.275269,694.217285,849.596924,694.236877,849.940308C694.240662,849.98999,694.242554,850.039795,694.242554,850.089722L694.242554,866.854614C694.24939,867.133972,694.177917,867.409302,694.037231,867.64563C693.822693,867.991577,693.466553,868.209778,693.076721,868.23407C693.029907,868.23822,692.98291,868.240234,692.935852,868.240173L687.779663,868.240173C687.515198,868.24707,687.254578,868.171387,687.030273,868.022461C686.680664,867.782104,686.467529,867.371948,686.462646,866.930176L686.461243,866.854614L686.461243,850.089722C686.454468,849.809814,686.5271,849.53418,686.6698,849.298584C686.88855,848.953003,687.246948,848.735352,687.638733,848.710205C687.685669,848.706055,687.732666,848.704041,687.779663,848.704102L692.935852,848.704102L693.007141,848.705566z"/>
    <path transform="matrix(1,0,0,-1,-1165.093262,219.316284)" style="stroke:#000000;stroke-width:0.05mm;fill:none" d="M688.097534,850.239563L688.097534,866.704712L692.606201,866.704712L692.606201,850.239563L688.097534,850.239563z"/>
    <path transform="matrix(1,0,0,-1,-1165.093262,219.316284)" style="stroke:#000000;stroke-width:0.05mm;fill:none" d="M691.566956,884.730286L691.344971,885.079834L688.44751,885.079834L688.44751,892.270142L692.61853,892.270142L692.61853,874.269531L694.242554,874.269531L694.242554,893.805542L688.120361,893.805542C687.858887,893.812744,687.601196,893.736938,687.379944,893.587891C687.056152,893.360352,686.851929,892.982666,686.829102,892.569336C686.825317,892.519653,686.823486,892.469849,686.823486,892.419983L686.823486,885.004944C686.817261,884.768799,686.865479,884.534546,686.963989,884.323059C687.086182,884.083862,687.281494,883.896729,687.517212,883.792725C687.760559,883.685181,688.019043,883.622314,688.281982,883.60675C688.505859,883.591309,688.730347,883.590698,688.954224,883.60498L689.271118,883.621216C689.38208,883.627441,689.493103,883.630981,689.604187,883.631836L688.816223,881.295898L688.029785,878.956909L687.244812,876.614746L686.461304,874.269531L688.167053,874.269531L691.566956,884.730286z"/>
    <path transform="matrix(1,0,0,-1,-1165.093262,219.316284)" style="stroke:#000000;stroke-width:0.05mm;fill:none" d="M681.776062,874.270996C682.175903,874.275574,682.553711,874.453125,682.809692,874.756714C683.000916,874.989807,683.107605,875.279541,683.112732,875.579468L683.11438,875.65509L683.11438,880.610901L681.358521,880.610901L681.358521,875.804871L677.088867,875.804871L677.088867,880.461121L682.545898,886.977295C682.816895,887.28772,683.000732,887.663086,683.078857,888.065674C683.102661,888.196777,683.114502,888.32959,683.11438,888.462769L683.11438,892.419983C683.121582,892.699829,683.043579,892.975464,682.890503,893.21106C682.655823,893.556641,682.27124,893.774292,681.85083,893.799438C681.800537,893.803589,681.750061,893.805664,681.699585,893.805542L676.722534,893.805542C676.440918,893.81311,676.16333,893.737305,675.925537,893.587891C675.579285,893.358093,675.362061,892.980957,675.338989,892.569336C675.335083,892.519653,675.333069,892.469849,675.333069,892.419983L675.333069,887.876038L677.088867,887.876038L677.088867,892.270142L681.358521,892.270142L681.358521,888.150696L675.876221,881.634521C675.524292,881.227539,675.331543,880.709351,675.333069,880.174072L675.333069,875.65509C675.325684,875.37616,675.401001,875.101196,675.549805,874.864014C675.775635,874.517822,676.155396,874.299072,676.571472,874.275513C676.621704,874.271484,676.672119,874.269409,676.722534,874.269531L681.699585,874.269531L681.776062,874.270996z"/>
    <path transform="matrix(1,0,0,-1,-1165.093262,219.316284)" style="stroke:#000000;stroke-width:0.05mm;fill:none" d="M681.458008,858.091431L681.458008,848.704102L683.11438,848.704102L683.11438,868.240173L681.458008,868.240173L681.458008,859.464539L677.5495,868.240173L675.750061,868.240173L675.750061,868.127808L679.968506,858.827942L675.333069,848.704102L677.15625,848.704102L681.458008,858.091431z"/>
    <path transform="matrix(1,0,0,-1,-1165.093262,219.316284)" style="stroke:#000000;stroke-width:0.05mm;fill:none" d="M743.860107,893.821899C743.19043,893.717834,742.399719,893.408569,741.628723,892.949097C741.031372,892.59314,740.945679,892.563721,740.314697,892.497192C738.082947,892.261963,736.589355,891.550659,735.102051,890.014648C733.933228,888.807495,733.217041,887.772217,731.698608,885.094238C730.575562,883.113831,729.802002,882.099976,727.828552,880.022705L727.147583,879.305908L727.558838,878.896973C727.967651,878.49054,728.239746,878.104004,728.365784,877.750793C728.569336,877.18042,728.313843,876.422729,727.689697,875.745605L727.491699,875.530762L727.671509,875.530762C727.991943,875.530762,728.792236,875.632935,729.269775,875.734863C729.945129,875.878906,730.503662,876.102417,731.823486,876.756592C733.252563,877.464966,733.743042,877.657959,735.130432,878.057739C736.830688,878.547668,737.612183,878.895081,738.66156,879.62738C739.26123,880.045898,739.756531,880.46405,740.598755,881.262939C742.516479,883.081909,743.71167,883.810913,745.405029,884.194702C745.985901,884.326416,747.5271,884.313843,748.183228,884.172058C749.578857,883.870483,750.747864,883.276123,751.621094,882.42395L752.025818,882.029053L752.096313,881.538574C752.238098,880.552246,752.2854,879.513428,752.254517,878.061768C752.237915,877.28241,752.217712,876.638123,752.209595,876.630005C752.201477,876.621826,751.995605,876.807129,751.752197,877.041626C750.786011,877.972351,749.651855,878.531311,748.1875,878.798462C747.297852,878.960815,744.963623,878.867249,744.963623,878.66925C744.963623,878.645752,745.496643,878.351685,746.148071,878.015747L747.33252,877.404907L746.904663,877.274414C746.095215,877.027466,745.378967,876.854187,744.669373,876.733521C743.27771,876.496887,742.39856,876.431335,739.053894,876.314758C735.661011,876.196533,734.317749,875.972656,732.269775,875.184204C731.847046,875.021484,731.181213,874.764893,730.7901,874.614075C727.494507,873.342957,725.345703,873.346619,723.433594,874.626587C722.761597,875.076416,722.744202,875.104858,723.107483,875.159302C723.434814,875.208374,723.96582,875.486328,724.278442,875.772156C724.817871,876.265381,725.029053,876.987,724.833252,877.668091C724.680908,878.19812,724.399536,878.545898,723.810669,878.931885L723.476685,879.150818L723.901001,879.400513C724.890869,879.983154,725.97229,880.94574,726.766052,881.950928C727.339478,882.677063,728.085938,883.82312,728.781189,885.045227C730.357544,887.815918,731.56604,889.318359,733.399536,890.786926C734.890076,891.980835,736.282837,892.642029,738.033691,892.986938C738.40332,893.059814,738.679932,893.135376,738.648254,893.154907C738.364868,893.330078,736.37793,893.437744,735.31311,893.335693C731.389526,892.959595,728.7453,891.442444,726.890015,888.502808C726.482788,887.857544,725.926514,886.690247,725.614258,885.825684C725.010986,884.15564,724.372925,883.083008,723.41272,882.124634C722.735474,881.44873,722.407349,881.219666,721.27417,880.63147C720.828369,880.400085,720.291382,880.091675,720.080933,879.946289C719.116089,879.279236,718.736145,878.432312,718.923828,877.366699C719.031616,876.754395,719.743896,875.565674,720.521423,874.700562C721.107788,874.048096,721.897278,873.449707,722.732971,873.024231C723.759521,872.501587,724.671387,872.318115,726.06897,872.353027L726.963257,872.375366L726.714844,872.287842C726.072021,872.061523,724.981201,871.38562,724.120361,870.68042C721.431824,868.477661,719.730347,865.270325,719.233276,861.468262C719.118408,860.589111,719.120239,858.713135,719.236816,857.850647C719.40564,856.602539,719.789063,855.324219,720.294678,854.323853C721.405884,852.125366,723.304199,850.320557,725.630127,849.251465C726.067627,849.050354,727.048828,848.704102,727.181152,848.704102C727.218994,848.704102,727.277649,848.836914,727.3255,849.030762C727.421509,849.419678,727.806885,850.244873,728.081177,850.648926C728.514221,851.286499,729.351685,852.070374,730.166382,852.600647C731.278564,853.324585,732.544067,853.782349,734.857178,854.297607C737.272217,854.83551,738.580811,855.19751,739.98291,855.715332C740.807922,856.020142,741.205933,856.195068,742.609558,856.870239C744.519531,857.789063,745.307922,858.092407,747.145447,858.615845C749.121033,859.178528,749.868286,859.443604,750.815308,859.91748C752.75946,860.89032,754.061523,862.377808,754.737366,864.397949C755.0755,865.408691,755.23877,866.459717,755.305115,868.051636C755.362854,869.438599,755.323059,883.533997,755.259399,884.257751C755.10437,886.018616,754.493958,887.394958,753.325562,888.618286C752.590332,889.387939,751.914612,889.891541,750.836121,890.473389C749.937134,890.958374,749.375671,891.340881,748.621338,891.982361C748.246399,892.301208,747.785156,892.681396,747.596375,892.827271C747.160767,893.163818,746.281128,893.599487,745.772827,893.730408C745.321289,893.84668,744.32605,893.894287,743.860107,893.821899z"/>
    <path transform="matrix(1,0,0,-1,-1165.093262,219.316284)" style="stroke:#000000;stroke-width:0.05mm;fill:none" d="M750.692261,864.78186C750.973755,864.642212,751.06366,864.455933,750.92395,864.301636C750.56897,863.909363,749.088867,864.142822,749.141846,864.582703C749.187378,864.960815,750.096313,865.077637,750.692261,864.78186z"/>
    <path transform="matrix(1,0,0,-1,-1165.093262,219.316284)" style="stroke:#000000;stroke-width:0.05mm;fill:none" d="M722.049316,878.024292C722.177612,877.960632,722.313599,877.848022,722.354492,877.771667C722.424805,877.640259,722.421997,877.62854,722.292542,877.515869C722.217896,877.450928,722.064392,877.372925,721.951294,877.342468C721.351563,877.180969,720.355774,877.589661,720.534668,877.923889C720.680176,878.19574,721.583374,878.255615,722.049316,878.024292z"/>
    <path transform="matrix(1,0,0,-1,-1165.093262,219.316284)" style="stroke:#000000;stroke-width:0.05mm;fill:none" d="M739.976135,868.370605C740.353271,868.181274,740.737122,867.718384,740.868408,867.294678C740.902344,867.185242,740.887451,867.190552,740.692261,867.357605C740.320801,867.675598,739.991455,867.806702,739.568848,867.80481C739.281677,867.803589,739.152649,867.778198,738.980347,867.688965C738.692749,867.540039,738.326477,867.151367,738.212463,866.874146C738.16272,866.753235,738.106567,866.654236,738.087524,866.654114C738.027832,866.653809,737.985657,866.996094,738.014893,867.243164C738.062561,867.645325,738.298218,868.015991,738.697876,868.317322C738.99939,868.544678,739.581238,868.568909,739.976135,868.370605z"/>
    <path transform="matrix(1,0,0,-1,-1165.093262,219.316284)" style="stroke:#000000;stroke-width:0.05mm;fill:none" d="M734.887207,883.807007C735.302124,883.595093,735.64325,883.15033,735.817017,882.594788C735.849731,882.490356,735.821655,882.503723,735.611267,882.692871C735.477295,882.813293,735.248108,882.978027,735.101929,883.05896C734.861877,883.191833,734.793457,883.206055,734.394775,883.206055C733.997131,883.206055,733.927368,883.19165,733.690552,883.060547C733.37207,882.884155,733.1427,882.625977,732.989258,882.271484C732.926086,882.12561,732.859497,882.005859,732.841187,882.005371C732.822876,882.004883,732.792847,882.125,732.774475,882.272217C732.732178,882.610962,732.8172,882.988892,733.00177,883.282471C733.188843,883.579956,733.312683,883.689697,733.634644,883.843018C733.86853,883.954346,733.953247,883.968872,734.272156,883.952332C734.543457,883.938293,734.704834,883.900146,734.887207,883.807007z"/>
    <path transform="matrix(1,0,0,-1,-1165.093262,219.316284)" style="stroke:#000000;stroke-width:0.05mm;fill:none" d="M729.439697,870.011841C730.063477,869.849365,730.581055,869.430054,730.973999,868.768921C731.088623,868.57605,731.182434,868.408264,731.182434,868.396118C731.182434,868.383972,731.044495,868.460083,730.875916,868.565308C730.707336,868.670532,730.394165,868.815186,730.180054,868.886658C729.840942,868.999878,729.730347,869.01416,729.321838,868.997192C728.70752,868.97168,728.384949,868.846558,727.989441,868.480408C727.653809,868.169678,727.473755,867.853638,727.384644,867.418945L727.323242,867.119873L727.222046,867.317505C726.820679,868.101196,726.917542,868.850952,727.495972,869.438477C728.023071,869.973999,728.755554,870.190002,729.439697,870.011841z"/>
    <path transform="matrix(1,0,0,-1,-1165.093262,219.316284)" style="stroke:#000000;stroke-width:0.05mm;fill:none" d="M745.137207,891.491882C745.74292,891.334106,746.330566,890.845459,746.608032,890.268677C746.811646,889.845276,746.935059,889.336304,746.915466,889.000305L746.900879,888.74884L746.737671,889.003784C746.647949,889.144043,746.428772,889.395081,746.25061,889.561768C745.305542,890.445801,743.93634,890.534058,742.878418,889.779053C742.561401,889.552856,742.194946,889.174561,742.105347,888.980957C741.946655,888.637939,741.963867,889.122681,742.12854,889.630737C742.409973,890.499634,743.184204,891.274292,743.986816,891.490112C744.338806,891.584717,744.778015,891.585449,745.137207,891.491882z"/>
    <path transform="matrix(1,0,0,-1,-1165.093262,219.316284)" style="stroke:#000000;stroke-width:0.05mm;fill:none" d="M737.7052,873.791626C738.772278,873.566772,739.88562,873.151367,740.768311,872.648804C741.939453,871.981995,742.828491,871.301514,744.430542,869.845703C745.6521,868.735596,746.270691,868.231079,746.94989,867.790771C747.390747,867.504944,748.7052,866.752014,748.763306,866.752014C748.776123,866.752014,748.854797,866.710571,748.93811,866.659912L749.0896,866.56781L748.765747,866.386719C748.321289,866.138184,747.859619,865.693848,747.656372,865.319031C747.498047,865.026978,747.48938,864.985474,747.48938,864.520569C747.48938,864.074707,747.502502,864.00415,747.634033,863.744568C748.007874,863.006836,749.025391,862.423096,750.269653,862.232666C750.480347,862.200439,750.652588,862.161255,750.652588,862.145752C750.652344,862.063843,749.55957,861.492432,749.001343,861.282349C748.143921,860.959595,746.892822,860.672729,745.380493,860.452148C742.788513,860.074097,741.73291,859.789795,739.593384,858.893433C736.297485,857.512695,734.603455,857.133484,730.555176,856.870483C728.975342,856.767822,729.089478,856.746826,729.441406,857.075256C729.913208,857.515625,730.923584,858.34259,731.419495,858.694458C731.80658,858.969055,731.864014,859.026611,731.791321,859.067261C731.657349,859.142273,729.788086,859.06958,728.939575,858.956421C728.194763,858.857056,727.285522,858.678345,726.785034,858.532837C726.640015,858.490662,726.501343,858.463379,726.476807,858.472168C726.412964,858.495117,726.920715,859.341064,727.314026,859.867126C727.985474,860.765137,728.719482,861.454224,729.714478,862.120544C731.689392,863.443115,733.772339,863.928223,737.484497,863.929993C739.18457,863.930786,739.785828,863.890625,741.175171,863.683472C742.779785,863.444336,743.33728,863.476318,744.051147,863.848755C744.671997,864.172729,745.444641,865.013489,745.920166,865.88269L746.101929,866.214844L745.961914,866.323914C745.799072,866.450684,745.660767,866.567017,743.762085,868.174744C741.289063,870.268616,740.61853,870.771729,739.397217,871.449768C737.246887,872.643555,734.863037,873.262573,732.359497,873.277222C731.631897,873.281494,731.607727,873.28479,731.795471,873.35376C732.304871,873.540955,733.601685,873.803223,734.549194,873.910767C734.760986,873.934814,735.4198,873.946899,736.013184,873.937622C736.949585,873.923096,737.173218,873.903748,737.7052,873.791626z"/>
</svg>
